<svg width="49" height="48" viewBox="0 0 49 48" fill="none" xmlns="http://www.w3.org/2000/svg">
<circle cx="24.5" cy="24" r="24" fill="url(#paint0_linear_583_6812)"/>
<ellipse cx="23.5771" cy="22.8469" rx="21.6923" ry="21.9231" fill="url(#paint1_linear_583_6812)"/>
<path d="M18.871 21.5134C21.625 21.5134 23.8576 19.2808 23.8576 16.5267C23.8576 15.3898 23.4771 14.3417 22.8366 13.5029C22.4264 12.9658 21.0916 13.3368 20.4998 13.0029C19.7769 12.5951 19.4998 12.0029 18.871 11.54C16.1169 11.54 13.8843 13.7726 13.8843 16.5267C13.8843 19.2808 16.1169 21.5134 18.871 21.5134Z" fill="white"/>
<path d="M30.2535 21.5139C33.0076 21.5139 35.2402 19.2813 35.2402 16.5272C35.2402 13.7732 33.0076 11.5406 30.2535 11.5406C29.9995 11.5039 29.6765 12.1598 28.9995 12.5035C27.5392 13.2447 26.9183 12.7662 26.4995 13.2447C25.732 14.1218 25.2668 15.2702 25.2668 16.5272C25.2668 19.2813 27.4994 21.5139 30.2535 21.5139Z" fill="white"/>
<path d="M18.871 20.2747C20.9408 20.2747 22.6187 18.5968 22.6187 16.527C22.6187 14.4572 20.9408 12.7793 18.871 12.7793C16.8012 12.7793 15.1233 14.4572 15.1233 16.527C15.1233 18.5968 16.8012 20.2747 18.871 20.2747Z" fill="#1C1C1C"/>
<path d="M30.2533 20.2747C32.3231 20.2747 34.001 18.5968 34.001 16.527C34.001 14.4572 32.3231 12.7793 30.2533 12.7793C28.1835 12.7793 26.5056 14.4572 26.5056 16.527C26.5056 18.5968 28.1835 20.2747 30.2533 20.2747Z" fill="#1C1C1C"/>
<path fill-rule="evenodd" clip-rule="evenodd" d="M25.6309 13.0899C25.6698 12.9288 25.8319 12.8297 25.9929 12.8686C26.9634 13.1027 27.9443 12.778 29.1294 12.0992C29.7191 11.7614 30.3441 11.3452 31.0316 10.8843C31.0667 10.8608 31.1019 10.8372 31.1373 10.8134C31.7928 10.3738 32.5018 9.89831 33.2758 9.42512C33.4172 9.3387 33.6018 9.38324 33.6882 9.5246C33.7747 9.66596 33.7301 9.85061 33.5888 9.93703C32.8258 10.4034 32.1263 10.8726 31.4692 11.3133C31.4346 11.3365 31.4001 11.3596 31.3658 11.3826C30.6813 11.8415 30.0388 12.2697 29.4276 12.6198C28.2106 13.3169 27.0555 13.7421 25.8522 13.4519C25.6912 13.413 25.5921 13.251 25.6309 13.0899Z" fill="#1C1C1C"/>
<path fill-rule="evenodd" clip-rule="evenodd" d="M23.5733 13.2974C23.5412 13.1349 23.3834 13.0291 23.2209 13.0612C22.2415 13.2547 21.2749 12.8894 20.1192 12.1618C19.544 11.7997 18.9369 11.3579 18.2692 10.8687C18.2351 10.8438 18.2009 10.8187 18.1666 10.7936C17.53 10.327 16.8414 9.82238 16.0878 9.31736C15.9501 9.22513 15.7638 9.26193 15.6715 9.39957C15.5793 9.53721 15.6161 9.72356 15.7537 9.81579C16.4966 10.3136 17.1759 10.8114 17.8142 11.2791C17.8478 11.3038 17.8812 11.3283 17.9146 11.3527C18.5793 11.8397 19.2034 12.2944 19.7996 12.6696C20.9864 13.4167 22.1228 13.8897 23.3371 13.6499C23.4997 13.6177 23.6054 13.46 23.5733 13.2974Z" fill="#1C1C1C"/>
<path d="M24.362 23.053C20.602 23.053 18.0276 24.7966 17.9887 24.8233C17.8492 24.9197 17.8143 25.1125 17.9107 25.252C18.0071 25.3915 18.2 25.4264 18.3394 25.33C18.3948 25.293 23.8676 21.6028 30.4461 25.3443C30.5938 25.4284 30.7805 25.3771 30.8646 25.2295C30.9487 25.0818 30.8974 24.893 30.7497 24.811C28.4358 23.4941 26.2492 23.0551 24.362 23.0551V23.053Z" fill="#1C1C1C"/>
<defs>
<linearGradient id="paint0_linear_583_6812" x1="24.5" y1="0" x2="24.5" y2="48" gradientUnits="userSpaceOnUse">
<stop stop-color="#E68C23"/>
<stop offset="1" stop-color="#E4D54C"/>
</linearGradient>
<linearGradient id="paint1_linear_583_6812" x1="23.5771" y1="0.923828" x2="23.5771" y2="44.77" gradientUnits="userSpaceOnUse">
<stop stop-color="#F99E33"/>
<stop offset="1" stop-color="#F2E56B"/>
</linearGradient>
</defs>
</svg>
