<svg width="49" height="48" viewBox="0 0 49 48" fill="none" xmlns="http://www.w3.org/2000/svg">
<g clip-path="url(#clip0_583_5923)">
<circle cx="24.5" cy="24" r="24" fill="#FF993A"/>
<ellipse cx="23.5768" cy="22.8459" rx="21.6923" ry="21.9231" fill="#FF993A"/>
<g clip-path="url(#clip1_583_5923)">
<mask id="mask0_583_5923" style="mask-type:alpha" maskUnits="userSpaceOnUse" x="0" y="0" width="49" height="48">
<circle cx="24.5" cy="24" r="24" fill="#FF993A"/>
</mask>
<g mask="url(#mask0_583_5923)">
<path d="M35.2393 29.4877L29.0595 29.8748L28.9348 27.9021L35.1147 27.5151C35.5674 27.4867 35.9549 27.8268 35.9834 28.2775L36.0052 28.6229C36.0337 29.0736 35.6921 29.4594 35.2393 29.4877Z" fill="#FDE266"/>
<path d="M28.775 26.8742L23.4596 30.0361L22.4412 28.3394L27.7566 25.1775C28.146 24.9459 28.647 25.0715 28.8797 25.4592L29.058 25.7562C29.2907 26.1439 29.1645 26.6426 28.775 26.8742Z" fill="#FDE266"/>
<path d="M35.408 32.1371L29.2282 32.5242L29.1035 30.5515L35.2834 30.1645C35.7361 30.1361 36.1236 30.4762 36.1521 30.9269L36.1739 31.2723C36.2024 31.723 35.8608 32.1088 35.408 32.1371Z" fill="#FDE266"/>
<path d="M35.5709 34.7924L29.3969 35.1791L29.2722 33.2064L35.4462 32.8198C35.899 32.7914 36.2865 33.1315 36.3149 33.5822L36.3368 33.9276C36.3652 34.3783 36.0236 34.764 35.5709 34.7924Z" fill="#FDE266"/>
<path d="M35.7454 37.4412L29.5714 37.8279L29.4468 35.8553L35.6266 35.4682C36.0794 35.4398 36.4669 35.7799 36.4954 36.2306L36.5172 36.576C36.5457 37.0267 36.204 37.4125 35.7513 37.4408L35.7454 37.4412Z" fill="#FDE266"/>
<path d="M60.9933 17.6392C53.2046 25.0586 14.8503 22.4075 14.8503 22.4075L15.1037 12.4545C15.1037 12.4545 34.4163 12.6656 56.9929 5.04097C59.3613 4.24332 62.802 15.9207 60.9933 17.6392Z" fill="#FDE266"/>
<path d="M8.91169 12.3009L15.1018 12.4569L15.0515 14.4328L8.86145 14.2768C8.40794 14.2654 8.05202 13.8927 8.0635 13.4412L8.07229 13.0953C8.08377 12.6438 8.45818 12.2895 8.91169 12.3009Z" fill="#FDE266"/>
<path d="M16.1773 9.68349L21.6087 12.6437L20.6552 14.3774L15.2238 11.4172C14.8259 11.2003 14.6809 10.7067 14.8988 10.3106L15.0657 10.0071C15.2836 9.61095 15.7794 9.46662 16.1773 9.68349Z" fill="#FDE266"/>
<path d="M8.84995 14.9553L15.0341 15.1112L14.9839 17.0871L8.79382 16.9311C8.34031 16.9197 7.98439 16.547 7.99587 16.0955L8.00467 15.7496C8.01615 15.2981 8.39055 14.9438 8.84406 14.9552L8.84995 14.9553Z" fill="#FDE266"/>
<path d="M8.77665 17.6152L14.9667 17.7712L14.9165 19.7471L8.73229 19.5913C8.27879 19.5798 7.92287 19.2071 7.93435 18.7556L7.94314 18.4097C7.95462 17.9582 8.32903 17.6039 8.78254 17.6154L8.77665 17.6152Z" fill="#FDE266"/>
<path d="M8.71491 20.2755L14.905 20.4315L14.8547 22.4074L8.66467 22.2514C8.21116 22.24 7.85524 21.8673 7.86672 21.4158L7.87552 21.0699C7.887 20.6184 8.2614 20.2641 8.71491 20.2755Z" fill="#FDE266"/>
<path d="M-13.2054 22.0562C-13.3056 22.0268 -13.3998 22.0268 -13.5 22.0386V36.6016C-1.45169 41.1529 29.5617 37.8392 29.5617 37.8392L28.9313 27.9037C28.9313 27.9037 9.64218 28.8362 -13.2054 22.0562Z" fill="#FDE266"/>
</g>
</g>
<path fill-rule="evenodd" clip-rule="evenodd" d="M24.5 48C37.7548 48 48.5 37.2548 48.5 24C48.5 10.7452 37.7548 0 24.5 0C11.2452 0 0.5 10.7452 0.5 24C0.5 37.2548 11.2452 48 24.5 48ZM23.5768 44.769C35.5572 44.769 45.2691 34.9537 45.2691 22.8459C45.2691 10.7381 35.5572 0.922852 23.5768 0.922852C11.5965 0.922852 1.88452 10.7381 1.88452 22.8459C1.88452 34.9537 11.5965 44.769 23.5768 44.769Z" fill="#FDE266" style="mix-blend-mode:multiply"/>
</g>
<defs>
<clipPath id="clip0_583_5923">
<rect width="48" height="48" fill="white" transform="translate(0.5)"/>
</clipPath>
<clipPath id="clip1_583_5923">
<rect width="75" height="34" fill="white" transform="translate(-13.5 5)"/>
</clipPath>
</defs>
</svg>
