<svg width="49" height="48" viewBox="0 0 49 48" fill="none" xmlns="http://www.w3.org/2000/svg">
<circle cx="24.5" cy="24" r="24" fill="#6285DF"/>
<ellipse cx="23.5768" cy="22.8459" rx="21.6923" ry="21.9231" fill="#7499F9"/>
<path d="M17.7584 19.2412H9.5C8.94771 19.2412 8.5 19.6889 8.5 20.2412V33.7383C8.5 34.3084 8.97582 34.7631 9.54531 34.7373L17.7584 34.3648C17.8261 34.3648 17.8836 34.3072 17.8836 34.2395V19.3665C17.8836 19.2988 17.8261 19.2412 17.7584 19.2412Z" fill="white"/>
<path d="M19.6176 18.3912L28.0361 10.2943C28.0361 10.2943 29.6548 7.38206 30.9484 10.2943C32.242 13.2066 29.0046 18.3878 29.0046 18.3878H38.7168C38.7168 18.3878 41.6291 20.0065 40.0104 24.2157C38.3917 28.425 36.773 33.9279 35.476 34.253C34.1824 34.5781 21.5546 34.253 21.5546 34.253C21.5546 34.253 19.6108 34.5781 19.6108 32.6343V18.3912H19.6176Z" fill="white"/>
</svg>
