<svg width="49" height="48" viewBox="0 0 49 48" fill="none" xmlns="http://www.w3.org/2000/svg">
<circle cx="24.5" cy="24" r="24" fill="#61C1EA"/>
<ellipse cx="23.5768" cy="22.8459" rx="21.6923" ry="21.9231" fill="#7FD0F3"/>
<path d="M18.8712 21.5104C21.6253 21.5104 23.8579 19.2778 23.8579 16.5238C23.8579 13.7697 21.6253 11.5371 18.8712 11.5371C16.1171 11.5371 13.8845 13.7697 13.8845 16.5238C13.8845 19.2778 16.1171 21.5104 18.8712 21.5104Z" fill="white"/>
<path d="M30.254 21.5104C33.008 21.5104 35.2407 19.2778 35.2407 16.5238C35.2407 13.7697 33.008 11.5371 30.254 11.5371C27.4999 11.5371 25.2673 13.7697 25.2673 16.5238C25.2673 19.2778 27.4999 21.5104 30.254 21.5104Z" fill="white"/>
<path d="M18.8712 20.2718C20.941 20.2718 22.6189 18.5939 22.6189 16.5241C22.6189 14.4543 20.941 12.7764 18.8712 12.7764C16.8014 12.7764 15.1235 14.4543 15.1235 16.5241C15.1235 18.5939 16.8014 20.2718 18.8712 20.2718Z" fill="#1C1C1C"/>
<path d="M30.2536 20.2718C32.3233 20.2718 34.0013 18.5939 34.0013 16.5241C34.0013 14.4543 32.3233 12.7764 30.2536 12.7764C28.1838 12.7764 26.5059 14.4543 26.5059 16.5241C26.5059 18.5939 28.1838 20.2718 30.2536 20.2718Z" fill="#1C1C1C"/>
<path fill-rule="evenodd" clip-rule="evenodd" d="M21.3564 21.7369C21.5018 21.6575 21.684 21.7111 21.7634 21.8566C22.249 22.7469 23.1219 23.7604 24.1556 24.0488C24.6584 24.1891 25.2106 24.1619 25.8038 23.849C26.4048 23.5319 27.0639 22.9126 27.7469 21.8392C27.8359 21.6994 28.0213 21.6582 28.1611 21.7472C28.3009 21.8361 28.3421 22.0215 28.2531 22.1613C27.5362 23.2879 26.8077 23.9978 26.0837 24.3797C25.3519 24.7657 24.6416 24.8073 23.9944 24.6267C22.7281 24.2734 21.751 23.087 21.2366 22.1439C21.1573 21.9985 21.2109 21.8162 21.3564 21.7369Z" fill="#1C1C1C"/>
</svg>
