<svg width="49" height="48" viewBox="0 0 49 48" fill="none" xmlns="http://www.w3.org/2000/svg">
<circle cx="24.5" cy="24" r="24" fill="#74C28B"/>
<ellipse cx="23.5768" cy="22.8459" rx="21.6923" ry="21.9231" fill="#84D29F"/>
<path d="M37.7184 24.5445C37.7184 25.9015 36.6199 26.9999 35.263 26.9999C33.9061 26.9999 32.8076 25.9015 32.8076 24.5445C32.8076 23.1876 35.263 20.3076 35.263 20.3076C35.263 20.3076 37.7184 23.1922 37.7184 24.5445Z" fill="white"/>
<path d="M18.8712 21.5095C21.6253 21.5095 23.8579 19.2769 23.8579 16.5228C23.8579 13.7687 21.6253 11.5361 18.8712 11.5361C16.1171 11.5361 13.8845 13.7687 13.8845 16.5228C13.8845 19.2769 16.1171 21.5095 18.8712 21.5095Z" fill="white"/>
<path d="M30.254 21.5095C33.008 21.5095 35.2407 19.2769 35.2407 16.5228C35.2407 13.7687 33.008 11.5361 30.254 11.5361C27.4999 11.5361 25.2673 13.7687 25.2673 16.5228C25.2673 19.2769 27.4999 21.5095 30.254 21.5095Z" fill="white"/>
<path d="M18.8712 20.2708C20.941 20.2708 22.6189 18.5929 22.6189 16.5231C22.6189 14.4533 20.941 12.7754 18.8712 12.7754C16.8014 12.7754 15.1235 14.4533 15.1235 16.5231C15.1235 18.5929 16.8014 20.2708 18.8712 20.2708Z" fill="#1C1C1C"/>
<path d="M30.2536 20.2708C32.3233 20.2708 34.0013 18.5929 34.0013 16.5231C34.0013 14.4533 32.3233 12.7754 30.2536 12.7754C28.1838 12.7754 26.5059 14.4533 26.5059 16.5231C26.5059 18.5929 28.1838 20.2708 30.2536 20.2708Z" fill="#1C1C1C"/>
<path d="M24.3625 23.0511C20.6025 23.0511 18.0281 24.7947 17.9891 24.8213C17.8497 24.9178 17.8148 25.1106 17.9112 25.2501C18.0076 25.3896 18.2004 25.4244 18.3399 25.328C18.3953 25.2911 23.8681 21.6008 30.4466 25.3424C30.5943 25.4265 30.7809 25.3752 30.865 25.2275C30.9491 25.0798 30.8979 24.8911 30.7502 24.809C28.4363 23.4921 26.2497 23.0531 24.3625 23.0531V23.0511Z" fill="#1C1C1C"/>
<path fill-rule="evenodd" clip-rule="evenodd" d="M27.3659 8.73193C27.514 8.65784 27.6942 8.7179 27.7683 8.8661C28.2148 9.75899 29.0952 10.2998 30.378 10.7685C31.0164 11.0017 31.7374 11.2114 32.5329 11.4401C32.5734 11.4517 32.6142 11.4634 32.6551 11.4752C33.4137 11.6931 34.2343 11.9288 35.0949 12.2157C35.2521 12.2681 35.337 12.4379 35.2846 12.5951C35.2322 12.7523 35.0623 12.8373 34.9051 12.7849C34.0569 12.5021 33.2473 12.2696 32.4868 12.0511C32.4468 12.0396 32.4069 12.0281 32.3672 12.0167C31.5752 11.7891 30.8337 11.5738 30.1721 11.332C28.8548 10.8507 27.7852 10.2415 27.2317 9.13443C27.1576 8.98623 27.2177 8.80603 27.3659 8.73193Z" fill="#1C1C1C"/>
<path fill-rule="evenodd" clip-rule="evenodd" d="M21.1341 8.73193C20.986 8.65784 20.8058 8.7179 20.7317 8.8661C20.2852 9.75899 19.4048 10.2998 18.122 10.7685C17.4836 11.0017 16.7626 11.2114 15.9671 11.4401C15.9266 11.4517 15.8858 11.4634 15.8449 11.4752C15.0863 11.6931 14.2657 11.9288 13.4051 12.2157C13.2479 12.2681 13.163 12.4379 13.2154 12.5951C13.2678 12.7523 13.4377 12.8373 13.5949 12.7849C14.4431 12.5021 15.2527 12.2696 16.0132 12.0511C16.0532 12.0396 16.0931 12.0281 16.1328 12.0167C16.9248 11.7891 17.6663 11.5738 18.3279 11.332C19.6452 10.8507 20.7148 10.2415 21.2683 9.13443C21.3424 8.98623 21.2823 8.80603 21.1341 8.73193Z" fill="#1C1C1C"/>
</svg>
