<svg width="44" height="44" viewBox="0 0 44 44" fill="none" xmlns="http://www.w3.org/2000/svg">
<circle cx="22" cy="22" r="22" fill="#FF783F"/>
<circle cx="22" cy="22" r="18" fill="white"/>
<circle cx="22" cy="22" r="14" fill="url(#paint0_linear_846_24447)"/>
<ellipse cx="21.4615" cy="21.327" rx="12.6538" ry="12.7885" fill="url(#paint1_linear_846_24447)"/>
<path d="M18.7165 20.5492C20.323 20.5492 21.6254 19.2469 21.6254 17.6403C21.6254 16.9771 21.4035 16.3658 21.0298 15.8765C20.7905 15.5632 20.0119 15.7796 19.6666 15.5848C19.245 15.3469 19.0833 15.0015 18.7165 14.7314C17.11 14.7314 15.8076 16.0338 15.8076 17.6403C15.8076 19.2469 17.11 20.5492 18.7165 20.5492Z" fill="white"/>
<path d="M25.3561 20.5496C26.9627 20.5496 28.265 19.2473 28.265 17.6407C28.265 16.0342 26.9627 14.7318 25.3561 14.7318C25.208 14.7104 25.0195 15.0931 24.6247 15.2935C23.7728 15.7259 23.4106 15.4468 23.1663 15.7259C22.7186 16.2375 22.4473 16.9074 22.4473 17.6407C22.4473 19.2473 23.7496 20.5496 25.3561 20.5496Z" fill="white"/>
<path d="M18.7164 19.8264C19.9238 19.8264 20.9026 18.8476 20.9026 17.6403C20.9026 16.4329 19.9238 15.4541 18.7164 15.4541C17.5091 15.4541 16.5303 16.4329 16.5303 17.6403C16.5303 18.8476 17.5091 19.8264 18.7164 19.8264Z" fill="#1C1C1C"/>
<path d="M25.3561 19.8264C26.5635 19.8264 27.5422 18.8476 27.5422 17.6403C27.5422 16.4329 26.5635 15.4541 25.3561 15.4541C24.1487 15.4541 23.1699 16.4329 23.1699 17.6403C23.1699 18.8476 24.1487 19.8264 25.3561 19.8264Z" fill="#1C1C1C"/>
<path fill-rule="evenodd" clip-rule="evenodd" d="M22.6595 15.6357C22.6822 15.5417 22.7767 15.4839 22.8707 15.5066C23.4368 15.6431 24.009 15.4537 24.7003 15.0578C25.0443 14.8607 25.4089 14.618 25.8099 14.3491C25.8304 14.3354 25.8509 14.3216 25.8716 14.3078C26.2539 14.0513 26.6675 13.7739 27.119 13.4979C27.2015 13.4475 27.3092 13.4735 27.3596 13.5559C27.41 13.6384 27.384 13.7461 27.3016 13.7965C26.8566 14.0686 26.4485 14.3422 26.0652 14.5993C26.045 14.6129 26.0249 14.6264 26.0048 14.6398C25.6056 14.9075 25.2308 15.1573 24.8742 15.3615C24.1643 15.7681 23.4905 16.0161 22.7886 15.8468C22.6947 15.8242 22.6369 15.7296 22.6595 15.6357Z" fill="#1C1C1C"/>
<path fill-rule="evenodd" clip-rule="evenodd" d="M21.4593 15.7571C21.4406 15.6622 21.3486 15.6006 21.2537 15.6193C20.6824 15.7321 20.1186 15.519 19.4444 15.0946C19.1089 14.8834 18.7548 14.6257 18.3653 14.3403C18.3454 14.3258 18.3255 14.3112 18.3054 14.2965C17.9341 14.0243 17.5324 13.73 17.0928 13.4354C17.0125 13.3816 16.9038 13.403 16.85 13.4833C16.7962 13.5636 16.8176 13.6723 16.8979 13.7261C17.3312 14.0165 17.7275 14.3069 18.0998 14.5797C18.1194 14.5941 18.139 14.6084 18.1584 14.6227C18.5462 14.9068 18.9102 15.1719 19.258 15.3908C19.9503 15.8267 20.6132 16.1026 21.3216 15.9627C21.4164 15.9439 21.4781 15.8519 21.4593 15.7571Z" fill="#1C1C1C"/>
<path d="M21.92 21.4474C19.7267 21.4474 18.225 22.4645 18.2023 22.4801C18.1209 22.5363 18.1006 22.6488 18.1568 22.7302C18.213 22.8115 18.3255 22.8319 18.4069 22.7757C18.4392 22.7541 21.6317 20.6015 25.4691 22.784C25.5553 22.8331 25.6641 22.8032 25.7132 22.717C25.7623 22.6309 25.7324 22.5208 25.6462 22.4729C24.2965 21.7047 23.0209 21.4486 21.92 21.4486V21.4474Z" fill="#1C1C1C"/>
<defs>
<linearGradient id="paint0_linear_846_24447" x1="22" y1="8" x2="22" y2="36" gradientUnits="userSpaceOnUse">
<stop stop-color="#E68C23"/>
<stop offset="1" stop-color="#E4D54C"/>
</linearGradient>
<linearGradient id="paint1_linear_846_24447" x1="21.4615" y1="8.53857" x2="21.4615" y2="34.1155" gradientUnits="userSpaceOnUse">
<stop stop-color="#F99E33"/>
<stop offset="1" stop-color="#F2E56B"/>
</linearGradient>
</defs>
</svg>
