<svg width="44" height="44" viewBox="0 0 44 44" fill="none" xmlns="http://www.w3.org/2000/svg">
<circle cx="22" cy="22" r="22" fill="#FBC829"/>
<circle cx="22" cy="22" r="18" fill="white"/>
<g clip-path="url(#clip0_846_24429)">
<circle cx="22" cy="22" r="14" fill="#FF993A"/>
<ellipse cx="21.4615" cy="21.3265" rx="12.6538" ry="12.7885" fill="#FF993A"/>
<g clip-path="url(#clip1_846_24429)">
<mask id="mask0_846_24429" style="mask-type:alpha" maskUnits="userSpaceOnUse" x="8" y="8" width="28" height="28">
<circle cx="22" cy="22" r="14" fill="#FF993A"/>
</mask>
<g mask="url(#mask0_846_24429)">
<path d="M28.2644 25.2012L24.6595 25.427L24.5868 24.2763L28.1917 24.0505C28.4558 24.034 28.6819 24.2324 28.6985 24.4953L28.7112 24.6968C28.7278 24.9597 28.5286 25.1847 28.2644 25.2012Z" fill="#FDE266"/>
<path d="M24.4932 23.6766L21.3926 25.521L20.7985 24.5312L23.8992 22.6868C24.1263 22.5517 24.4185 22.625 24.5543 22.8511L24.6583 23.0244C24.794 23.2505 24.7204 23.5414 24.4932 23.6766Z" fill="#FDE266"/>
<path d="M28.3631 26.7462L24.7582 26.972L24.6854 25.8212L28.2904 25.5955C28.5545 25.5789 28.7805 25.7773 28.7971 26.0402L28.8098 26.2417C28.8265 26.5046 28.6272 26.7296 28.3631 26.7462Z" fill="#FDE266"/>
<path d="M28.4578 28.2955L24.8563 28.5211L24.7836 27.3703L28.3851 27.1448C28.6492 27.1282 28.8752 27.3266 28.8918 27.5895L28.9046 27.791C28.9212 28.0539 28.7219 28.2789 28.4578 28.2955Z" fill="#FDE266"/>
<path d="M28.5598 29.8406L24.9584 30.0662L24.8856 28.9155L28.4905 28.6897C28.7547 28.6732 28.9807 28.8715 28.9973 29.1345L29.01 29.3359C29.0267 29.5988 28.8274 29.8239 28.5633 29.8404L28.5598 29.8406Z" fill="#FDE266"/>
<path d="M43.2878 18.2892C38.7444 22.6172 16.3711 21.0707 16.3711 21.0707L16.5189 15.2648C16.5189 15.2648 27.7846 15.3879 40.9543 10.9402C42.3358 10.4749 44.3429 17.2868 43.2878 18.2892Z" fill="#FDE266"/>
<path d="M12.9063 15.1751L16.5171 15.2661L16.4878 16.4187L12.877 16.3277C12.6124 16.3211 12.4048 16.1036 12.4115 15.8403L12.4166 15.6385C12.4233 15.3751 12.6417 15.1685 12.9063 15.1751Z" fill="#FDE266"/>
<path d="M17.1446 13.6488L20.3129 15.3756L19.7567 16.3869L16.5884 14.6601C16.3563 14.5336 16.2717 14.2457 16.3988 14.0146L16.4962 13.8375C16.6233 13.6065 16.9125 13.5223 17.1446 13.6488Z" fill="#FDE266"/>
<path d="M12.8706 16.7235L16.4781 16.8144L16.4488 17.9671L12.8379 17.8761C12.5734 17.8694 12.3657 17.652 12.3724 17.3886L12.3776 17.1868C12.3843 16.9235 12.6027 16.7168 12.8672 16.7235L12.8706 16.7235Z" fill="#FDE266"/>
<path d="M12.8276 18.2751L16.4385 18.3661L16.4092 19.5187L12.8018 19.4278C12.5372 19.4212 12.3296 19.2037 12.3363 18.9404L12.3414 18.7386C12.3481 18.4752 12.5665 18.2686 12.8311 18.2752L12.8276 18.2751Z" fill="#FDE266"/>
<path d="M12.792 19.827L16.4029 19.918L16.3736 21.0706L12.7627 20.9796C12.4982 20.9729 12.2905 20.7555 12.2972 20.4921L12.3024 20.2904C12.3091 20.027 12.5275 19.8203 12.792 19.827Z" fill="#FDE266"/>
<path d="M0.00484599 20.8656C-0.053579 20.8485 -0.108567 20.8485 -0.166992 20.8553V29.3505C6.86119 32.0054 24.9523 30.0724 24.9523 30.0724L24.5846 24.2767C24.5846 24.2767 13.3326 24.8206 0.00484599 20.8656Z" fill="#FDE266"/>
</g>
</g>
<path fill-rule="evenodd" clip-rule="evenodd" d="M22 36C29.732 36 36 29.732 36 22C36 14.268 29.732 8 22 8C14.268 8 8 14.268 8 22C8 29.732 14.268 36 22 36ZM21.4615 34.1153C28.45 34.1153 34.1153 28.3897 34.1153 21.3268C34.1153 14.2639 28.45 8.53833 21.4615 8.53833C14.473 8.53833 8.80764 14.2639 8.80764 21.3268C8.80764 28.3897 14.473 34.1153 21.4615 34.1153Z" fill="#FDE266" style="mix-blend-mode:multiply"/>
</g>
<defs>
<clipPath id="clip0_846_24429">
<rect width="28" height="28" fill="white" transform="translate(8 8)"/>
</clipPath>
<clipPath id="clip1_846_24429">
<rect width="43.75" height="19.8333" fill="white" transform="translate(-0.166992 10.9165)"/>
</clipPath>
</defs>
</svg>
