<svg width="44" height="44" viewBox="0 0 44 44" fill="none" xmlns="http://www.w3.org/2000/svg">
<circle cx="22" cy="22" r="22" fill="#7499F9"/>
<circle cx="22" cy="22" r="18" fill="white"/>
<circle cx="22" cy="22" r="14" fill="#6285DF"/>
<ellipse cx="21.4615" cy="21.3265" rx="12.6538" ry="12.7885" fill="#7499F9"/>
<path d="M18.0677 19.2236H13.667C13.1147 19.2236 12.667 19.6713 12.667 20.2236V27.2443C12.667 27.8143 13.1428 28.2691 13.7123 28.2432L18.0677 28.0457C18.1072 28.0457 18.1408 28.0121 18.1408 27.9726V19.2967C18.1408 19.2572 18.1072 19.2236 18.0677 19.2236Z" fill="white"/>
<path d="M19.1524 18.7282L24.0632 14.005C24.0632 14.005 25.0074 12.3062 25.762 14.005C26.5166 15.7039 24.6282 18.7262 24.6282 18.7262H30.2936C30.2936 18.7262 31.9924 19.6704 31.0482 22.1258C30.1039 24.5813 29.1597 27.7913 28.4031 27.9809C27.6485 28.1705 20.2823 27.9809 20.2823 27.9809C20.2823 27.9809 19.1484 28.1705 19.1484 27.0367V18.7282H19.1524Z" fill="white"/>
</svg>
