<svg width="44" height="44" viewBox="0 0 44 44" fill="none" xmlns="http://www.w3.org/2000/svg">
<circle cx="22" cy="22" r="22" fill="#7DCFF2"/>
<circle cx="22" cy="22" r="18" fill="white"/>
<circle cx="22" cy="22" r="14" fill="#61C1EA"/>
<ellipse cx="21.4615" cy="21.327" rx="12.6538" ry="12.7885" fill="#7FD0F3"/>
<path d="M18.7165 20.5478C20.323 20.5478 21.6254 19.2454 21.6254 17.6389C21.6254 16.0323 20.323 14.73 18.7165 14.73C17.11 14.73 15.8076 16.0323 15.8076 17.6389C15.8076 19.2454 17.11 20.5478 18.7165 20.5478Z" fill="white"/>
<path d="M25.3561 20.5478C26.9627 20.5478 28.265 19.2454 28.265 17.6389C28.265 16.0323 26.9627 14.73 25.3561 14.73C23.7496 14.73 22.4473 16.0323 22.4473 17.6389C22.4473 19.2454 23.7496 20.5478 25.3561 20.5478Z" fill="white"/>
<path d="M18.7164 19.8249C19.9238 19.8249 20.9026 18.8462 20.9026 17.6388C20.9026 16.4314 19.9238 15.4526 18.7164 15.4526C17.5091 15.4526 16.5303 16.4314 16.5303 17.6388C16.5303 18.8462 17.5091 19.8249 18.7164 19.8249Z" fill="#1C1C1C"/>
<path d="M25.3561 19.8249C26.5635 19.8249 27.5422 18.8462 27.5422 17.6388C27.5422 16.4314 26.5635 15.4526 25.3561 15.4526C24.1487 15.4526 23.1699 16.4314 23.1699 17.6388C23.1699 18.8462 24.1487 19.8249 25.3561 19.8249Z" fill="#1C1C1C"/>
<path fill-rule="evenodd" clip-rule="evenodd" d="M20.1664 20.6796C20.2513 20.6333 20.3576 20.6646 20.4039 20.7494C20.6871 21.2688 21.1964 21.86 21.7993 22.0282C22.0926 22.11 22.4147 22.0942 22.7608 21.9117C23.1114 21.7267 23.4958 21.3654 23.8943 20.7393C23.9461 20.6577 24.0543 20.6337 24.1358 20.6856C24.2174 20.7375 24.2414 20.8456 24.1895 20.9272C23.7713 21.5844 23.3464 21.9984 22.9241 22.2212C22.4972 22.4464 22.0828 22.4707 21.7053 22.3653C20.9666 22.1593 20.3967 21.4671 20.0966 20.917C20.0503 20.8322 20.0816 20.7259 20.1664 20.6796Z" fill="#1C1C1C"/>
</svg>
