<svg width="44" height="44" viewBox="0 0 44 44" fill="none" xmlns="http://www.w3.org/2000/svg">
<circle cx="22" cy="22" r="22" fill="#84D29F"/>
<circle cx="22" cy="22" r="18" fill="white"/>
<circle cx="22" cy="22" r="14" fill="#74C28B"/>
<ellipse cx="21.4615" cy="21.3265" rx="12.6538" ry="12.7885" fill="#84D29F"/>
<path d="M29.7103 22.3177C29.7103 23.1093 29.0696 23.75 28.278 23.75C27.4865 23.75 26.8457 23.1093 26.8457 22.3177C26.8457 21.5262 28.278 19.8462 28.278 19.8462C28.278 19.8462 29.7103 21.5289 29.7103 22.3177Z" fill="white"/>
<path d="M18.7165 20.5473C20.323 20.5473 21.6254 19.2449 21.6254 17.6384C21.6254 16.0318 20.323 14.7295 18.7165 14.7295C17.11 14.7295 15.8076 16.0318 15.8076 17.6384C15.8076 19.2449 17.11 20.5473 18.7165 20.5473Z" fill="white"/>
<path d="M25.3561 20.5473C26.9627 20.5473 28.265 19.2449 28.265 17.6384C28.265 16.0318 26.9627 14.7295 25.3561 14.7295C23.7496 14.7295 22.4473 16.0318 22.4473 17.6384C22.4473 19.2449 23.7496 20.5473 25.3561 20.5473Z" fill="white"/>
<path d="M18.7164 19.8245C19.9238 19.8245 20.9026 18.8457 20.9026 17.6383C20.9026 16.4309 19.9238 15.4521 18.7164 15.4521C17.5091 15.4521 16.5303 16.4309 16.5303 17.6383C16.5303 18.8457 17.5091 19.8245 18.7164 19.8245Z" fill="#1C1C1C"/>
<path d="M25.3561 19.8245C26.5635 19.8245 27.5422 18.8457 27.5422 17.6383C27.5422 16.4309 26.5635 15.4521 25.3561 15.4521C24.1487 15.4521 23.1699 16.4309 23.1699 17.6383C23.1699 18.8457 24.1487 19.8245 25.3561 19.8245Z" fill="#1C1C1C"/>
<path d="M21.92 21.4465C19.7267 21.4465 18.225 22.4636 18.2023 22.4791C18.1209 22.5354 18.1006 22.6478 18.1568 22.7292C18.213 22.8106 18.3255 22.8309 18.4069 22.7747C18.4392 22.7531 21.6317 20.6005 25.4691 22.7831C25.5553 22.8321 25.6641 22.8022 25.7132 22.716C25.7623 22.6299 25.7324 22.5198 25.6462 22.4719C24.2965 21.7037 23.0209 21.4477 21.92 21.4477V21.4465Z" fill="#1C1C1C"/>
<path fill-rule="evenodd" clip-rule="evenodd" d="M23.672 13.0937C23.7584 13.0505 23.8635 13.0855 23.9068 13.172C24.1672 13.6928 24.6808 14.0083 25.429 14.2817C25.8014 14.4178 26.222 14.5401 26.6861 14.6734C26.7097 14.6802 26.7335 14.6871 26.7574 14.6939C27.1999 14.821 27.6785 14.9585 28.1806 15.1259C28.2723 15.1564 28.3218 15.2555 28.2913 15.3472C28.2607 15.4389 28.1616 15.4885 28.0699 15.4579C27.5751 15.293 27.1028 15.1573 26.6592 15.0299C26.6359 15.0232 26.6126 15.0165 26.5894 15.0098C26.1274 14.8771 25.6949 14.7515 25.3089 14.6104C24.5405 14.3297 23.9166 13.9743 23.5937 13.3285C23.5505 13.242 23.5855 13.1369 23.672 13.0937Z" fill="#1C1C1C"/>
<path fill-rule="evenodd" clip-rule="evenodd" d="M20.037 13.0937C19.9506 13.0505 19.8454 13.0855 19.8022 13.172C19.5418 13.6928 19.0282 14.0083 18.2799 14.2817C17.9075 14.4178 17.487 14.5401 17.0229 14.6734C16.9992 14.6802 16.9755 14.6871 16.9516 14.6939C16.5091 14.821 16.0304 14.9585 15.5284 15.1259C15.4367 15.1564 15.3872 15.2555 15.4177 15.3472C15.4483 15.4389 15.5474 15.4885 15.6391 15.4579C16.1339 15.293 16.6061 15.1573 17.0498 15.0299C17.0731 15.0232 17.0964 15.0165 17.1196 15.0098C17.5816 14.8771 18.0141 14.7515 18.4001 14.6104C19.1685 14.3297 19.7924 13.9743 20.1153 13.3285C20.1585 13.242 20.1235 13.1369 20.037 13.0937Z" fill="#1C1C1C"/>
</svg>
