<svg width="1920" height="979" viewBox="0 0 1920 979" fill="none" xmlns="http://www.w3.org/2000/svg">
<g clip-path="url(#clip0_1442_22189)">
<rect width="1920" height="979" fill="#ABABAB"/>
<rect width="1920" height="979" fill="url(#paint0_linear_1442_22189)"/>
<g opacity="0.7">
<path d="M239.2 318.446C240.489 311.722 247.605 307.432 255.095 308.869C255.928 309.028 256.725 309.256 257.491 309.534C257.548 308.74 257.681 307.936 257.903 307.138C259.692 300.689 266.378 296.913 272.839 298.704C274.092 299.053 275.245 299.584 276.277 300.265C273.671 295.409 272.854 289.587 274.44 283.864C277.714 272.049 289.968 265.132 301.808 268.412C306.465 269.704 310.361 272.382 313.179 275.874C312.828 272.11 313.15 268.165 314.239 264.237C318.592 248.532 333.55 238.965 347.65 242.875C361.75 246.784 369.651 262.682 365.299 278.387C365.175 278.83 365.042 279.267 364.903 279.701C365.071 279.736 365.235 279.777 365.403 279.821C369.481 280.951 372.038 285.013 371.833 289.489C374.853 287.109 378.712 286.127 382.444 287.159C389.041 288.989 392.739 296.428 390.703 303.779C390.333 305.112 389.801 306.346 389.136 307.47C395.68 305.504 402.559 308.208 405.053 314.001C407.76 320.291 404.274 327.832 397.272 330.849C397.272 330.849 388.494 335.012 375.831 335.012C363.168 335.012 345.247 336.911 333.474 335.012C321.701 333.112 314.987 333.562 306.471 333.495C297.955 333.429 260.521 336.173 250.432 333.22C242.942 331.786 237.915 325.17 239.2 318.446Z" fill="#EFF6F8"/>
<path d="M250.433 333.22C249.743 333.087 249.075 332.909 248.432 332.694C250.81 329.747 256.432 328.414 261.798 329.468C261.228 328.835 260.766 328.139 260.449 327.388C258.695 323.248 261.877 319.056 267.556 318.027C270.769 317.445 274.09 317.999 276.689 319.338C276.509 316.818 278.712 314.529 282.223 313.893C282.365 313.868 282.511 313.846 282.653 313.827C282.533 313.583 282.419 313.336 282.314 313.086C278.566 304.238 285.369 295.282 297.503 293.082C309.641 290.882 322.515 296.267 326.264 305.115C327.201 307.327 327.479 309.55 327.175 311.671C329.6 309.705 332.953 308.195 336.964 307.467C347.154 305.618 357.702 309.515 360.519 316.169C361.884 319.395 361.181 322.671 358.94 325.407C359.829 325.024 360.82 324.723 361.9 324.527C367.462 323.517 373.217 325.644 374.755 329.278C374.945 329.728 375.062 330.18 375.11 330.627C375.768 330.469 376.459 330.342 377.174 330.25C382.223 329.617 387.073 330.962 389.473 333.394C385.873 334.258 381.204 335.005 375.835 335.005C363.172 335.005 345.251 336.904 333.478 335.005C321.705 333.106 314.991 333.555 306.475 333.489C297.959 333.422 260.525 336.167 250.436 333.213L250.433 333.22Z" fill="#D8EAF5"/>
<path d="M410.337 330.899C410.337 332.824 413.417 333.749 416.827 333.749C418.435 333.749 420.635 333.685 421.734 333.115C422.962 332.479 423 331.282 423 330.266C423 328.342 419.762 327.101 416.352 327.101C412.943 327.101 410.337 328.975 410.337 330.899Z" fill="white"/>
</g>
<path d="M259.484 538.515C256.172 521.23 237.878 510.203 218.624 513.898C216.484 514.305 214.433 514.891 212.464 515.607C212.317 513.564 211.976 511.497 211.406 509.447C206.808 492.87 189.621 483.161 173.012 487.767C169.789 488.663 166.827 490.03 164.174 491.779C170.871 479.296 172.971 464.33 168.894 449.617C160.479 419.247 128.978 401.465 98.542 409.896C86.5712 413.216 76.5535 420.101 69.3108 429.077C70.2141 419.401 69.384 409.261 66.5846 399.162C55.3951 358.79 16.9437 334.198 -19.3023 344.248C-55.5484 354.298 -75.8605 395.167 -64.6709 435.539C-64.3535 436.678 -64.0117 437.801 -63.6537 438.916C-64.085 439.005 -64.5081 439.111 -64.9394 439.225C-75.421 442.13 -81.9964 452.571 -81.4674 464.078C-89.231 457.958 -99.151 455.436 -108.746 458.089C-125.705 462.792 -135.21 481.916 -129.977 500.812C-129.025 504.238 -127.658 507.412 -125.949 510.301C-142.77 505.247 -160.454 512.197 -166.866 527.089C-173.824 543.259 -164.864 562.644 -146.863 570.399C-146.863 570.399 -124.297 581.1 -91.7456 581.1C-59.1941 581.1 -13.1257 585.983 17.139 581.1C47.4037 576.218 64.6641 577.373 86.5549 577.202C108.446 577.032 204.676 584.087 230.611 576.494C249.866 572.808 262.788 555.8 259.484 538.515Z" fill="#EFF6F8"/>
<path d="M230.611 576.495C232.385 576.153 234.103 575.697 235.755 575.144C229.643 567.567 215.19 564.141 201.396 566.851C202.861 565.224 204.049 563.433 204.863 561.505C209.372 550.86 201.193 540.086 186.594 537.441C178.334 535.944 169.797 537.368 163.116 540.81C163.58 534.332 157.916 528.449 148.891 526.813C148.525 526.748 148.15 526.691 147.784 526.642C148.094 526.015 148.386 525.381 148.655 524.738C158.29 501.992 140.802 478.97 109.61 473.315C78.409 467.659 45.3123 481.501 35.6771 504.247C33.2683 509.935 32.5522 515.648 33.3334 521.1C27.0998 516.047 18.4818 512.165 8.17116 510.293C-18.0246 505.541 -45.14 515.558 -52.3827 532.664C-55.8901 540.957 -54.0835 549.379 -48.3219 556.41C-50.6086 555.426 -53.1558 554.653 -55.9308 554.148C-70.229 551.552 -85.0236 557.021 -88.9786 566.363C-89.4669 567.519 -89.768 568.682 -89.8901 569.83C-91.5827 569.423 -93.3568 569.097 -95.1959 568.861C-108.176 567.234 -120.643 570.692 -126.812 576.942C-117.559 579.164 -105.555 581.084 -91.7536 581.084C-59.2022 581.084 -13.1338 585.967 17.1309 581.084C47.3956 576.202 64.656 577.357 86.5469 577.186C108.438 577.015 204.668 584.071 230.603 576.478L230.611 576.495Z" fill="#D8EAF5"/>
<path d="M1298.51 669C1294.2 669 1290.02 669.19 1286.01 669.55C1282.9 663.3 1276.47 659 1269.01 659C1265.89 659 1262.95 659.77 1260.35 661.1C1258.19 652.98 1250.81 647 1242.01 647C1238.28 647 1234.81 648.09 1231.87 649.95C1231.96 648.98 1232.01 647.99 1232.01 647C1232.01 629.33 1217.68 615 1200.01 615C1191.41 615 1183.62 618.4 1177.87 623.91C1175.76 590.47 1147.99 564 1114.01 564C1080.03 564 1050.01 592.65 1050.01 628C1050.01 628.13 1050.01 628.25 1050.01 628.38C1045.46 626.22 1040.37 625 1035 625C1016.37 625 1001.15 639.55 1000.07 657.91C997.15 656.08 993.7 655 990 655C980.15 655 972.05 662.5 971.1 672.11C966.37 670.77 960.87 670 955 670C937.33 670 923 676.94 923 685.5C923 694.06 937.33 701 955 701C962.56 701 969.5 699.73 974.98 697.6C978.46 702.09 983.88 705 990 705C997.59 705 1004.13 700.54 1007.17 694.1C1013 702.75 1029.97 709 1050 709C1068.67 709 1084.69 703.56 1091.5 695.82C1098.31 703.56 1114.33 709 1133 709C1147.72 709 1160.79 705.62 1169 700.4C1177.21 705.62 1190.28 709 1205 709C1219.72 709 1232.37 705.72 1240.6 700.64C1245.93 705.6 1256.64 709 1269 709C1275.44 709 1281.43 708.08 1286.45 706.49C1290.32 706.82 1294.35 707 1298.5 707C1327.49 707 1351 698.49 1351 688C1351 677.51 1327.49 669 1298.5 669H1298.51Z" fill="#EFF6F8"/>
<path d="M1297.83 706.99C1297.59 700.81 1295.48 694.08 1290.16 687.36C1272.42 664.95 1267.18 706.37 1264.32 697.12C1261.46 687.87 1243.55 692.94 1243.55 692.94C1243.55 692.94 1250.89 673.29 1204.65 656.38C1158.41 639.47 1173.23 698.83 1151.46 685.32C1129.7 671.81 1127.66 699.37 1124.53 683.26C1121.4 667.15 1101.14 676.06 1102.37 675.39C1103.59 674.72 1109.57 652 1079.37 646.32C1049.17 640.64 1067.9 687.98 1055.72 684.65C1043.54 681.32 1043.94 690.96 1043.94 690.96C1043.94 690.96 1036.17 691.11 1029.14 687.02C1022.62 683.22 1011.69 689.8 1007.6 694.69C1013.79 703.03 1030.43 709 1050.01 709C1069.59 709 1084.7 703.56 1091.51 695.82C1098.32 703.56 1114.34 709 1133.01 709C1147.73 709 1160.8 705.62 1169.01 700.4C1177.22 705.62 1190.29 709 1205.01 709C1219.73 709 1232.38 705.72 1240.61 700.64C1245.94 705.6 1256.65 709 1269.01 709C1275.45 709 1281.44 708.08 1286.46 706.49C1290.12 706.8 1293.93 706.97 1297.84 706.99H1297.83Z" fill="#D8EAF5"/>
<path d="M1005.39 697.11C1000.59 700.14 988.32 697.79 982.68 696.34C976.37 694.72 973.28 695.46 969.04 698.75L969.39 699.33C971.38 698.84 973.27 698.27 974.99 697.6C978.47 702.09 983.89 705 990.01 705C996.13 705 1001.94 701.88 1005.39 697.11Z" fill="#D8EAF5"/>
<g opacity="0.8">
<path d="M1963.51 200C1959.2 200 1955.02 200.19 1951.01 200.55C1947.9 194.3 1941.47 190 1934.01 190C1930.89 190 1927.95 190.77 1925.35 192.1C1923.19 183.98 1915.81 178 1907.01 178C1903.28 178 1899.81 179.09 1896.87 180.95C1896.96 179.98 1897.01 178.99 1897.01 178C1897.01 160.33 1882.68 146 1865.01 146C1856.41 146 1848.62 149.4 1842.87 154.91C1840.76 121.47 1812.99 95 1779.01 95C1745.03 95 1715.01 123.65 1715.01 159C1715.01 159.13 1715.01 159.25 1715.01 159.38C1710.46 157.22 1705.37 156 1700 156C1681.37 156 1666.15 170.55 1665.07 188.91C1662.15 187.08 1658.7 186 1655 186C1645.15 186 1637.05 193.5 1636.1 203.11C1631.37 201.77 1625.87 201 1620 201C1602.33 201 1588 207.94 1588 216.5C1588 225.06 1602.33 232 1620 232C1627.56 232 1634.5 230.73 1639.98 228.6C1643.46 233.09 1648.88 236 1655 236C1662.59 236 1669.13 231.54 1672.17 225.1C1678 233.75 1694.97 240 1715 240C1733.67 240 1749.69 234.56 1756.5 226.82C1763.31 234.56 1779.33 240 1798 240C1812.72 240 1825.79 236.62 1834 231.4C1842.21 236.62 1855.28 240 1870 240C1884.72 240 1897.37 236.72 1905.6 231.64C1910.93 236.6 1921.64 240 1934 240C1940.44 240 1946.43 239.08 1951.45 237.49C1955.32 237.82 1959.35 238 1963.5 238C1992.49 238 2016 229.49 2016 219C2016 208.51 1992.49 200 1963.5 200H1963.51Z" fill="#EFF6F8"/>
<path d="M1962.83 237.99C1962.59 231.81 1960.48 225.08 1955.16 218.36C1937.42 195.95 1932.18 237.37 1929.32 228.12C1926.46 218.87 1908.55 223.94 1908.55 223.94C1908.55 223.94 1915.89 204.29 1869.65 187.38C1823.41 170.47 1838.23 229.83 1816.46 216.32C1794.7 202.81 1792.66 230.37 1789.53 214.26C1786.4 198.15 1766.14 207.06 1767.37 206.39C1768.59 205.72 1774.57 183 1744.37 177.32C1714.17 171.64 1732.9 218.98 1720.72 215.65C1708.54 212.32 1708.94 221.96 1708.94 221.96C1708.94 221.96 1701.17 222.11 1694.14 218.02C1687.62 214.22 1676.69 220.8 1672.6 225.69C1678.79 234.03 1695.43 240 1715.01 240C1734.59 240 1749.7 234.56 1756.51 226.82C1763.32 234.56 1779.34 240 1798.01 240C1812.73 240 1825.8 236.62 1834.01 231.4C1842.22 236.62 1855.29 240 1870.01 240C1884.73 240 1897.38 236.72 1905.61 231.64C1910.94 236.6 1921.65 240 1934.01 240C1940.45 240 1946.44 239.08 1951.46 237.49C1955.12 237.8 1958.93 237.97 1962.84 237.99H1962.83Z" fill="#D8EAF5"/>
<path d="M1670.39 228.11C1665.59 231.14 1653.32 228.79 1647.68 227.34C1641.37 225.72 1638.28 226.46 1634.04 229.75L1634.39 230.33C1636.38 229.84 1638.27 229.27 1639.99 228.6C1643.47 233.09 1648.89 236 1655.01 236C1661.13 236 1666.94 232.88 1670.39 228.11Z" fill="#D8EAF5"/>
</g>
<path d="M1020.96 236.043C1020.96 236.043 1038.69 219.115 1062.87 227.176C1087.06 235.237 1123.43 236.849 1151.19 236.043C1178.95 235.237 1234.57 238.461 1212.8 240.879C1191.04 243.298 1121.47 239.267 1106.28 240.879C1091.09 242.492 1067.71 249.746 1045.95 246.522C1024.18 243.298 988.215 242.467 975.971 241.669C963.727 240.871 957.278 235.229 1020.96 236.035V236.043Z" fill="#D8EAF5" fill-opacity="0.5"/>
<path d="M1257.94 241.685C1257.94 241.685 1242.63 231.521 1257.94 230.562C1273.26 229.602 1300.73 230.658 1287.4 236.172C1274.06 241.685 1270.84 243.298 1257.94 241.685Z" fill="#D8EAF5" fill-opacity="0.5"/>
<path d="M1485 240.073C1459.46 240.073 1360.31 245.716 1325.65 240.073C1325.65 240.073 1299.05 237.655 1349.84 233.625" fill="#D8EAF5" fill-opacity="0.5"/>
<path d="M589.958 765.043C589.958 765.043 607.691 748.115 631.873 756.176C656.056 764.237 692.434 765.849 720.195 765.043C747.948 764.237 803.567 767.461 781.803 769.879C760.039 772.298 690.467 768.267 675.281 769.879C660.086 771.492 636.71 778.746 614.946 775.522C593.182 772.298 557.215 771.467 544.971 770.669C532.727 769.871 526.278 764.229 589.958 765.035V765.043Z" fill="#D8EAF5" fill-opacity="0.2"/>
<path d="M732.807 729.439C732.807 729.439 717.491 719.274 732.807 718.315C748.122 717.356 775.593 718.412 762.261 723.925C748.928 729.439 745.704 731.051 732.807 729.439Z" fill="#D8EAF5" fill-opacity="0.2"/>
<path d="M959.861 727.827C934.325 727.827 835.178 733.469 800.517 727.827C800.517 727.827 773.916 725.408 824.699 721.378" fill="#D8EAF5" fill-opacity="0.2"/>
<path d="M846.958 539.043C846.958 539.043 864.691 522.115 888.873 530.176C913.056 538.237 949.434 539.849 977.195 539.043C1004.95 538.237 1060.57 541.461 1038.8 543.879C1017.04 546.298 947.467 542.267 932.281 543.879C917.086 545.492 893.71 552.746 871.946 549.522C850.182 546.298 814.215 545.467 801.971 544.669C789.727 543.871 783.278 538.229 846.958 539.035V539.043Z" fill="#D8EAF5" fill-opacity="0.2"/>
<path d="M-173.042 622.043C-173.042 622.043 -155.309 605.115 -131.127 613.176C-106.944 621.237 -70.5662 622.849 -42.8051 622.043C-15.052 621.237 40.567 624.461 18.8031 626.879C-2.96089 629.298 -72.5331 625.267 -87.7195 626.879C-102.914 628.492 -126.29 635.746 -148.054 632.522C-169.818 629.298 -205.785 628.467 -218.029 627.669C-230.273 626.871 -236.722 621.229 -173.042 622.035V622.043Z" fill="#D8EAF5" fill-opacity="0.5"/>
<path d="M63.9436 627.685C63.9436 627.685 48.6282 617.521 63.9436 616.562C79.2589 615.602 106.73 616.658 93.3974 622.172C80.065 627.685 76.8407 629.298 63.9436 627.685Z" fill="#D8EAF5" fill-opacity="0.5"/>
<path d="M290.998 626.073C265.462 626.073 166.315 631.716 131.653 626.073C131.653 626.073 105.053 623.655 155.836 619.625" fill="#D8EAF5" fill-opacity="0.5"/>
<path d="M651.225 439.645C655.419 439.645 658.224 442.161 658.224 445.053C658.224 447.8 656.113 449.536 651.225 449.536C646.483 449.536 644.343 447.887 644.343 445.198C644.343 442.161 647.061 439.645 651.225 439.645ZM660.306 441.062C660.248 440.281 661.29 439.819 662.273 439.819C663.111 439.819 663.892 440.137 664.008 440.917C664.557 444.735 664.818 449.825 664.818 454.249C664.818 455.695 664.789 457.084 664.731 458.327C664.702 459.05 663.661 459.426 662.591 459.426C661.434 459.426 660.248 458.992 660.306 458.096V457.691C659.063 457.662 657.588 457.662 656.402 457.662C655.737 457.662 655.419 456.852 655.419 456.043C655.419 455.291 655.708 454.539 656.2 454.539C657.096 454.51 658.166 454.51 659.178 454.51H660.422C660.48 452.832 660.48 451.01 660.48 449.217C660.48 446.325 660.422 443.462 660.306 441.062ZM644.082 450.143C647.032 450.403 650.531 450.548 653.857 450.548C655.592 450.548 657.299 450.519 658.86 450.432C659.381 450.403 659.67 451.097 659.67 451.82C659.67 452.543 659.381 453.295 658.773 453.411C657.299 453.729 655.39 453.989 653.394 454.105C653.452 454.972 653.51 455.753 653.597 456.65C653.684 457.402 652.411 457.807 651.168 457.807C649.982 457.807 648.825 457.431 648.854 456.65L648.941 454.249C647.09 454.249 645.413 454.192 644.14 454.047C643.504 453.989 643.186 453.006 643.186 452.023C643.186 451.039 643.504 450.085 644.082 450.143ZM654.436 461.971C654.493 462.463 655.187 462.694 655.853 462.752C656.402 462.781 657.009 462.781 657.646 462.781C659.554 462.781 661.694 462.694 663.343 462.492C663.921 462.434 664.355 463.417 664.355 464.314C664.355 464.892 664.181 465.413 663.748 465.528C661.492 466.02 658.426 466.396 655.997 466.396C653.944 466.396 650.3 466.222 650.011 464.429C649.924 463.851 649.866 463.272 649.866 462.665C649.866 461.479 650.04 460.265 650.271 459.079C650.387 458.501 651.196 458.269 652.064 458.269C653.25 458.269 654.58 458.703 654.522 459.195C654.436 459.831 654.407 460.438 654.407 461.046C654.407 461.364 654.407 461.653 654.436 461.971ZM651.312 442.942C649.23 442.942 648.507 444.012 648.507 444.966C648.507 445.747 649.722 446.268 651.225 446.268C652.758 446.268 654.175 445.718 654.175 444.937C654.175 443.809 653.221 442.942 651.312 442.942ZM675.391 448.899C679.295 448.899 681.84 451.878 681.84 455.32C681.84 458.674 679.845 460.728 675.42 460.728C671.082 460.728 669.058 458.761 669.058 455.493C669.058 451.849 671.516 448.899 675.391 448.899ZM683.402 461.364C683.72 458.761 683.807 455.233 683.807 451.676C683.807 448.87 683.749 446.036 683.662 443.578C683.633 442.797 684.674 442.335 685.687 442.335C686.525 442.335 687.335 442.653 687.48 443.433C687.769 445.227 687.971 447.251 688.116 449.391C688.897 449.391 689.677 449.391 690.429 449.42C691.123 449.449 691.47 450.287 691.47 451.184C691.47 452.196 691.008 453.295 690.082 453.295C689.446 453.295 688.868 453.295 688.289 453.324C688.289 454.076 688.318 454.828 688.318 455.551C688.318 457.749 688.231 459.831 688.116 461.566C688.058 462.26 687.046 462.549 685.976 462.549C684.674 462.549 683.315 462.116 683.402 461.364ZM668.74 448.234C668.161 448.263 667.843 447.338 667.843 446.383C667.843 445.429 668.161 444.446 668.797 444.417H673.164C673.164 443.52 673.135 442.566 673.077 441.756C673.02 441.178 674.09 440.831 675.102 440.831C675.912 440.831 676.692 441.062 676.808 441.612C676.953 442.45 677.068 443.52 677.155 444.532C678.717 444.59 680.279 444.648 681.782 444.735C682.476 444.764 682.823 445.602 682.823 446.412C682.823 447.222 682.476 448.032 681.869 448.003C680.481 447.945 679.006 447.916 677.502 447.916C674.552 447.916 671.458 448.032 668.74 448.234ZM675.478 452.428C673.8 452.428 673.222 453.902 673.222 455.233C673.222 456.447 674.205 457.084 675.391 457.084C676.664 457.084 677.791 456.361 677.791 455.059C677.791 453.7 677.011 452.428 675.478 452.428ZM698.255 445.892C698.313 446.586 699.007 446.875 699.672 446.904C700.54 446.933 701.408 446.962 702.275 446.962C704.849 446.962 707.336 446.817 709.823 446.615C710.402 446.557 710.835 447.627 710.835 448.523C710.835 449.102 710.662 449.593 710.228 449.709C707.076 450.403 703.924 450.75 700.945 450.75C699.007 450.75 697.156 450.606 695.479 450.316C694.496 450.143 693.802 449.246 693.744 448.321C693.686 447.685 693.657 446.962 693.657 446.21C693.657 444.359 693.831 442.335 694.091 440.686C694.207 439.934 695.016 439.616 695.913 439.616C697.099 439.616 698.4 440.137 698.342 440.802C698.255 441.814 698.226 443.086 698.226 444.243C698.226 444.822 698.226 445.4 698.255 445.892ZM692.992 452.659C697.099 452.89 701.552 453.035 705.832 453.035C707.625 453.035 709.418 453.006 711.096 452.948C711.79 452.919 712.137 453.642 712.137 454.365C712.137 455.088 711.79 455.84 711.009 455.898C706.526 456.332 701.494 456.592 696.723 456.592C695.479 456.592 694.235 456.563 693.05 456.534C692.327 456.534 692.009 455.551 692.009 454.568C692.009 453.584 692.327 452.63 692.992 452.659ZM700.106 462.26C700.106 462.925 700.858 463.186 701.523 463.244C702.102 463.272 702.738 463.301 703.374 463.301C705.109 463.301 706.96 463.157 708.58 462.954C709.158 462.897 709.679 463.851 709.679 464.718C709.679 465.239 709.476 465.76 708.985 465.904C706.729 466.598 704.097 467.003 701.668 467.003C699.615 467.003 695.681 466.83 695.681 464.545C695.681 462.752 695.768 460.641 695.942 458.848C696.029 458.096 696.838 457.807 697.735 457.807C698.92 457.807 700.251 458.327 700.193 458.963C700.135 460.062 700.106 461.335 700.106 462.26ZM738.896 452.717C739.04 451.242 739.127 449.564 739.127 447.771C739.127 445.602 739.011 443.289 738.896 440.975C738.838 440.252 739.85 439.819 740.862 439.819C741.73 439.819 742.568 440.137 742.713 440.86C743.291 443.867 743.552 447.193 743.552 450.172C743.552 451.155 743.523 452.081 743.465 452.948C743.436 453.642 742.308 453.989 741.209 453.989C740.023 453.989 738.809 453.584 738.896 452.717ZM742.395 459.976C742.453 461.393 741.845 461.884 740.804 461.884C737.999 461.884 736.061 461.913 733.314 462C732.996 462 732.967 463.186 733.285 463.186C734.037 463.186 734.76 463.215 735.512 463.215C737.826 463.215 740.11 463.128 742.482 462.983C742.944 462.954 743.234 463.735 743.234 464.429C743.234 464.921 743.089 465.326 742.771 465.384C740.139 465.962 737.421 466.251 734.731 466.251C733.169 466.251 731.579 466.164 730.046 465.933C729.265 465.788 728.803 464.979 728.716 464.111C728.687 463.562 728.658 463.041 728.658 462.492C728.658 461.942 728.687 461.393 728.716 460.756C728.774 459.86 729.352 459.368 730.277 459.31C732.013 459.253 733.516 459.224 735.078 459.224C735.975 459.224 736.929 459.253 737.941 459.253C738.173 459.253 738.201 458.125 737.826 458.096C736.177 457.98 734.731 457.922 733.285 457.922C732.128 457.922 730.943 457.951 729.612 458.038C729.121 458.096 728.86 457.286 728.86 456.505C728.86 455.782 729.063 455.059 729.526 455.03C731.319 454.857 733.112 454.77 734.905 454.77C736.784 454.77 738.693 454.857 740.689 454.972C741.672 455.03 741.961 455.609 742.106 456.563C742.25 457.604 742.337 458.53 742.395 459.976ZM729.439 443.578C727.125 443.578 726.315 445.545 726.315 447.367C726.315 448.899 727.704 449.825 729.352 449.825C731.029 449.825 732.62 448.841 732.62 447.251C732.62 445.227 731.521 443.578 729.439 443.578ZM729.352 439.847C733.777 439.847 736.727 443.318 736.727 447.309C736.727 451.126 734.471 453.498 729.352 453.498C724.378 453.498 722.093 451.242 722.093 447.511C722.093 443.318 724.956 439.847 729.352 439.847ZM756.323 439.443C761.326 439.443 764.623 442.19 764.623 445.313C764.623 448.35 762.049 450.23 756.323 450.23C750.712 450.23 748.11 448.437 748.11 445.545C748.11 442.161 751.32 439.443 756.323 439.443ZM763.35 461.017C763.408 462.347 762.801 462.81 761.76 462.81C758.955 462.81 756.786 462.839 754.038 462.897C753.72 462.897 753.691 464.024 754.009 464.024C755.022 464.053 755.976 464.082 756.93 464.082C759.099 464.082 761.21 463.995 763.437 463.851C763.9 463.793 764.189 464.545 764.189 465.181C764.189 465.644 764.044 466.049 763.726 466.107C761.124 466.627 758.347 466.916 755.6 466.916C753.951 466.916 752.332 466.83 750.77 466.598C749.989 466.483 749.498 465.731 749.44 464.892C749.411 464.343 749.382 463.793 749.382 463.244C749.382 462.694 749.411 462.174 749.44 461.624C749.498 460.756 750.076 460.294 751.002 460.265C752.534 460.207 753.865 460.207 755.137 460.207H758.897C759.128 460.207 759.157 459.224 758.781 459.195C757.075 459.108 755.542 459.05 754.067 459.05C752.824 459.05 751.609 459.079 750.336 459.166C749.845 459.195 749.585 458.443 749.585 457.691C749.585 456.997 749.787 456.332 750.25 456.303C752.13 456.129 753.98 456.043 755.773 456.043C757.769 456.043 759.707 456.129 761.644 456.245C762.627 456.303 762.917 456.881 763.061 457.749C763.206 458.761 763.293 459.629 763.35 461.017ZM747.358 451.039C751.58 451.242 756.207 451.386 760.603 451.386C762.28 451.386 763.9 451.386 765.462 451.329C766.156 451.3 766.503 451.965 766.503 452.659C766.503 453.324 766.156 454.018 765.375 454.076C760.892 454.481 755.86 454.741 751.117 454.741C749.874 454.741 748.63 454.712 747.416 454.683C746.693 454.683 746.374 453.758 746.374 452.832C746.374 451.907 746.693 451.01 747.358 451.039ZM756.381 442.855C753.373 442.855 752.303 444.041 752.303 445.255C752.303 446.325 754.067 446.846 756.323 446.846C758.492 446.846 760.632 446.297 760.632 445.14C760.632 443.838 759.157 442.855 756.381 442.855ZM784.123 448.899C788.027 448.899 790.572 451.878 790.572 455.32C790.572 458.674 788.576 460.728 784.152 460.728C779.814 460.728 777.789 458.761 777.789 455.493C777.789 451.849 780.247 448.899 784.123 448.899ZM792.134 461.364C792.452 458.761 792.538 455.233 792.538 451.676C792.538 448.87 792.481 446.036 792.394 443.578C792.365 442.797 793.406 442.335 794.418 442.335C795.257 442.335 796.067 442.653 796.211 443.433C796.5 445.227 796.703 447.251 796.847 449.391C797.628 449.391 798.409 449.391 799.161 449.42C799.855 449.449 800.202 450.287 800.202 451.184C800.202 452.196 799.739 453.295 798.814 453.295C798.178 453.295 797.599 453.295 797.021 453.324C797.021 454.076 797.05 454.828 797.05 455.551C797.05 457.749 796.963 459.831 796.847 461.566C796.79 462.26 795.777 462.549 794.707 462.549C793.406 462.549 792.047 462.116 792.134 461.364ZM777.471 448.234C776.893 448.263 776.575 447.338 776.575 446.383C776.575 445.429 776.893 444.446 777.529 444.417H781.896C781.896 443.52 781.867 442.566 781.809 441.756C781.751 441.178 782.821 440.831 783.834 440.831C784.643 440.831 785.424 441.062 785.54 441.612C785.684 442.45 785.8 443.52 785.887 444.532C787.448 444.59 789.01 444.648 790.514 444.735C791.208 444.764 791.555 445.602 791.555 446.412C791.555 447.222 791.208 448.032 790.601 448.003C789.213 447.945 787.738 447.916 786.234 447.916C783.284 447.916 780.19 448.032 777.471 448.234ZM784.209 452.428C782.532 452.428 781.954 453.902 781.954 455.233C781.954 456.447 782.937 457.084 784.123 457.084C785.395 457.084 786.523 456.361 786.523 455.059C786.523 453.7 785.742 452.428 784.209 452.428ZM801.724 458.212C803.343 458.356 805.02 458.472 806.756 458.559C806.756 456.158 806.842 453.7 806.958 451.126C806.987 450.403 808.057 449.998 809.127 449.998C810.168 449.998 811.209 450.374 811.238 451.213C811.383 453.816 811.47 456.303 811.585 458.674H812.973C815.316 458.674 817.629 458.616 819.827 458.501C820.521 458.472 820.868 459.224 820.868 460.005C820.868 460.785 820.521 461.624 819.741 461.769C816.357 462.376 811.556 462.694 807.363 462.694C805.252 462.694 803.314 462.607 801.781 462.463C801.058 462.405 800.74 461.277 800.74 460.207C800.74 459.137 801.058 458.125 801.724 458.212ZM803.777 444.156C803.025 444.156 802.62 443.231 802.62 442.335C802.62 441.554 802.938 440.802 803.603 440.773C805.657 440.657 808.578 440.628 811.354 440.628C813.205 440.628 814.969 440.628 816.328 440.686C818.324 440.744 818.497 441.872 818.642 443.809C818.815 446.412 818.96 449.217 818.96 451.907C818.96 452.659 818.96 453.411 818.931 454.134C818.902 454.799 817.629 455.175 816.415 455.175C815.229 455.175 814.101 454.828 814.159 454.018C814.246 452.804 814.304 451.618 814.304 450.403C814.304 448.668 814.217 446.933 814.072 445.198C814.014 444.532 813.812 444.243 813.118 444.214C811.238 444.156 809.445 444.128 807.652 444.128C806.38 444.128 805.107 444.128 803.777 444.156ZM829.573 467.032C829.458 467.408 828.995 467.582 828.445 467.582C827.433 467.582 826.132 467.032 826.363 466.483C826.681 465.702 826.942 464.921 827.086 464.14C825.843 464.082 824.686 463.735 824.744 463.128C824.83 461.769 824.888 460.38 824.888 459.021C824.888 458.472 826.016 458.183 827.173 458.183C828.388 458.183 829.631 458.501 829.747 459.166C829.978 460.438 830.094 461.653 830.094 462.868C830.094 464.314 829.92 465.702 829.573 467.032ZM646.627 491.295C645.702 492.307 641.277 489.936 642.636 488.779C646.02 485.945 647.871 482.677 647.9 478.744C647.9 477.934 649.028 477.5 650.126 477.5C651.081 477.5 652.006 477.847 652.035 478.599C652.035 478.889 652.064 479.149 652.064 479.438C652.064 480.826 651.862 482.185 651.515 483.458C654.117 484.759 656.315 486.35 657.993 488.201C659.034 489.358 656.952 491.295 655.592 491.295C655.274 491.295 655.014 491.179 654.811 490.948C653.539 489.386 652.006 487.94 650.213 486.726C649.317 488.374 648.102 489.878 646.627 491.295ZM655.072 501.88C655.043 499.855 655.187 496.906 655.39 494.534C655.448 493.609 655.939 493.204 656.489 493.117C657.183 493.001 658.05 492.972 658.947 492.972C660.075 492.972 661.261 493.059 662.215 493.262C662.996 493.435 663.285 493.898 663.372 494.823C663.516 496.067 663.574 497.802 663.574 499.393C663.574 500.231 663.545 501.07 663.516 501.735C663.458 503.528 661.232 504.483 659.092 504.483C657.067 504.483 655.13 503.644 655.072 501.88ZM654.493 498.149C654.551 499.566 653.944 500.029 652.903 500.058C651.804 500.087 650.878 500.116 649.953 500.174C649.635 500.202 649.49 501.359 649.982 501.359H650.965C652.006 501.359 652.961 501.33 654.031 501.244C654.493 501.215 654.783 502.024 654.783 502.747C654.783 503.239 654.638 503.702 654.32 503.76C652.729 504.078 651.283 504.222 649.808 504.222C649.056 504.222 648.305 504.193 647.495 504.107C646.714 504.02 646.222 503.441 646.164 502.574C646.136 502.082 646.107 501.533 646.107 500.954C646.107 500.26 646.136 499.508 646.164 498.814C646.222 497.918 646.801 497.426 647.726 497.368C648.767 497.31 649.779 497.31 650.936 497.31C651.225 497.31 651.254 496.096 650.821 496.067C650.098 496.009 649.432 496.009 648.767 496.009C648.218 496.009 647.639 496.009 647.061 496.038C646.569 496.067 646.309 495.257 646.309 494.476C646.309 493.753 646.511 493.059 646.974 493.03C648.189 492.972 649.288 492.944 650.387 492.944C651.168 492.944 651.948 492.944 652.787 492.972C653.77 493.001 654.06 493.609 654.204 494.563C654.349 495.604 654.436 496.703 654.493 498.149ZM659.092 490.717C659.236 489.242 659.323 487.564 659.323 485.771C659.323 483.602 659.207 481.289 659.092 478.975C659.034 478.252 660.046 477.819 661.058 477.819C661.926 477.819 662.764 478.137 662.909 478.86C663.14 480.074 663.314 481.347 663.458 482.619C664.268 482.59 665.078 482.619 665.83 482.648C666.524 482.677 666.871 483.516 666.871 484.412C666.871 485.424 666.408 486.523 665.483 486.523C664.847 486.523 664.297 486.523 663.719 486.552C663.719 487.131 663.748 487.68 663.748 488.23C663.748 489.184 663.719 490.081 663.661 490.948C663.632 491.642 662.504 491.989 661.405 491.989C660.219 491.989 659.005 491.584 659.092 490.717ZM660.133 496.24C660.133 496.038 660.017 495.951 659.815 495.893C659.496 495.836 659.063 495.864 658.831 495.922C658.629 495.98 658.6 496.096 658.6 496.269C658.571 497.282 658.571 498.467 658.571 499.566V500.897C658.571 501.215 658.947 501.388 659.352 501.388C659.728 501.388 660.133 501.215 660.162 500.839C660.162 500.26 660.191 499.624 660.191 498.959C660.191 498.033 660.162 497.05 660.133 496.24ZM677.387 477.443C682.39 477.443 685.687 480.19 685.687 483.313C685.687 486.35 683.113 488.23 677.387 488.23C671.776 488.23 669.173 486.437 669.173 483.545C669.173 480.161 672.383 477.443 677.387 477.443ZM684.414 499.017C684.472 500.347 683.865 500.81 682.823 500.81C680.018 500.81 677.849 500.839 675.102 500.897C674.784 500.897 674.755 502.024 675.073 502.024C676.085 502.053 677.039 502.082 677.994 502.082C680.163 502.082 682.274 501.995 684.501 501.851C684.964 501.793 685.253 502.545 685.253 503.181C685.253 503.644 685.108 504.049 684.79 504.107C682.187 504.627 679.411 504.916 676.664 504.916C675.015 504.916 673.396 504.83 671.834 504.598C671.053 504.483 670.561 503.731 670.504 502.892C670.475 502.343 670.446 501.793 670.446 501.244C670.446 500.694 670.475 500.174 670.504 499.624C670.561 498.756 671.14 498.294 672.065 498.265C673.598 498.207 674.928 498.207 676.201 498.207H679.96C680.192 498.207 680.221 497.224 679.845 497.195C678.138 497.108 676.606 497.05 675.131 497.05C673.887 497.05 672.673 497.079 671.4 497.166C670.908 497.195 670.648 496.443 670.648 495.691C670.648 494.997 670.851 494.332 671.313 494.303C673.193 494.129 675.044 494.043 676.837 494.043C678.833 494.043 680.77 494.129 682.708 494.245C683.691 494.303 683.98 494.881 684.125 495.749C684.269 496.761 684.356 497.629 684.414 499.017ZM668.421 489.039C672.644 489.242 677.271 489.386 681.667 489.386C683.344 489.386 684.964 489.386 686.525 489.329C687.219 489.3 687.566 489.965 687.566 490.659C687.566 491.324 687.219 492.018 686.438 492.076C681.956 492.481 676.924 492.741 672.181 492.741C670.937 492.741 669.694 492.712 668.479 492.683C667.756 492.683 667.438 491.758 667.438 490.832C667.438 489.907 667.756 489.01 668.421 489.039ZM677.444 480.855C674.437 480.855 673.367 482.041 673.367 483.255C673.367 484.325 675.131 484.846 677.387 484.846C679.556 484.846 681.696 484.297 681.696 483.14C681.696 481.838 680.221 480.855 677.444 480.855ZM702.613 492.192C702.67 492.886 703.364 493.088 704.03 493.146C704.753 493.204 705.562 493.233 706.343 493.233C708.021 493.233 709.756 493.117 711.317 492.915C711.896 492.857 712.33 493.84 712.33 494.708C712.33 495.286 712.156 495.836 711.693 495.951C709.293 496.616 706.806 497.05 704.348 497.05C702.902 497.05 701.456 496.906 700.068 496.559C699.084 496.327 698.477 495.489 698.332 494.563C698.217 493.782 698.159 492.654 698.159 491.382C698.159 488.606 698.419 485.193 698.708 483.516C698.911 482.504 699.721 481.925 700.646 481.838C701.832 481.723 703.017 481.665 704.232 481.665C706.256 481.665 708.31 481.809 710.276 482.012C711.086 482.099 711.462 482.908 711.462 483.718C711.462 484.586 711.028 485.424 710.218 485.424C708.657 485.424 705.157 485.453 703.567 485.685C702.988 485.771 702.757 486.205 702.699 486.813C702.584 487.969 702.526 489.097 702.526 490.196C702.526 490.861 702.555 491.526 702.613 492.192ZM714.065 499.364C714.325 497.108 714.441 494.129 714.47 491.035H713.053C711.896 491.035 710.768 491.035 709.611 491.064C708.83 491.093 708.454 490.081 708.454 489.126C708.454 488.316 708.715 487.536 709.264 487.507C710.594 487.42 711.925 487.391 713.255 487.391H714.47C714.441 485.367 714.383 483.371 714.325 481.578C714.296 480.797 715.337 480.335 716.349 480.335C717.188 480.335 717.998 480.653 718.142 481.433C718.721 484.991 718.981 489.589 718.981 493.753C718.981 495.864 718.923 497.889 718.779 499.566C718.721 500.26 717.709 500.549 716.639 500.549C715.337 500.549 713.978 500.116 714.065 499.364ZM733.669 496.963C732.83 498.005 728.406 495.662 729.678 494.39C732.801 491.266 734.884 487.044 734.941 482.07C734.97 481.26 736.098 480.797 737.168 480.797C738.123 480.797 739.048 481.144 739.077 481.925C739.077 482.243 739.106 482.59 739.106 482.908C739.106 484.701 738.903 486.35 738.499 487.912C740.928 489.502 743.184 491.526 744.745 493.493C745.7 494.737 743.646 496.674 742.345 496.674C742.027 496.674 741.738 496.559 741.564 496.298C740.465 494.621 738.875 492.915 737.226 491.411C736.301 493.406 735.057 495.228 733.669 496.963ZM745.873 499.364C746.191 496.761 746.278 493.233 746.278 489.676C746.278 486.87 746.22 484.036 746.133 481.578C746.104 480.797 747.146 480.335 748.158 480.335C748.996 480.335 749.806 480.653 749.951 481.433C750.211 483.14 750.414 485.077 750.558 487.102C751.368 487.102 752.149 487.102 752.901 487.131C753.595 487.16 753.942 487.998 753.942 488.895C753.942 489.907 753.479 491.006 752.554 491.006C751.917 491.006 751.339 491.006 750.761 491.035C750.789 491.874 750.789 492.712 750.789 493.522C750.789 495.749 750.703 497.831 750.587 499.566C750.529 500.26 749.517 500.549 748.447 500.549C747.146 500.549 745.786 500.116 745.873 499.364ZM768.651 485.193C768.651 486.032 768.275 486.784 766.944 486.784C764.92 486.784 762.78 486.813 760.727 486.899C760.177 486.928 759.83 487.246 759.83 487.767C759.83 488.085 759.83 488.287 759.888 488.692C759.975 489.271 760.669 489.358 761.305 489.386C761.883 489.386 762.462 489.415 763.04 489.415C764.862 489.415 766.742 489.329 768.535 489.184C769.113 489.155 769.518 489.936 769.518 490.63C769.518 491.122 769.345 491.555 768.882 491.671C766.626 492.221 764.052 492.597 761.45 492.597C760.004 492.597 758.529 492.481 757.083 492.221C756.099 492.047 755.521 491.295 755.434 490.456C755.376 489.618 755.348 488.837 755.348 488.027C755.348 487.217 755.376 486.408 755.434 485.482C755.492 484.586 756.215 484.065 757.372 484.007C758.413 483.95 759.57 483.921 760.756 483.921C761.71 483.921 762.693 483.95 763.619 483.95C764.168 483.95 764.428 483.776 764.399 483.255C764.37 482.879 764.37 482.475 764.313 482.156C764.255 481.752 763.908 481.665 763.387 481.636C762.173 481.578 760.929 481.549 759.657 481.549C758.558 481.549 757.459 481.578 756.389 481.607C755.781 481.636 755.434 480.826 755.434 480.016C755.434 479.293 755.695 478.57 756.273 478.542C758.124 478.368 760.119 478.281 762.115 478.281C763.59 478.281 765.093 478.339 766.539 478.426C767.754 478.513 768.13 479.12 768.304 480.074C768.506 481.115 768.68 483.371 768.651 485.193ZM768.13 493.84C772.063 493.84 774.666 496.616 774.666 499.855C774.666 502.921 772.642 504.83 768.159 504.83C763.763 504.83 761.739 503.008 761.739 500.058C761.739 496.587 764.255 493.84 768.13 493.84ZM770.704 492.076C770.849 490.485 770.935 488.577 770.935 486.552C770.935 484.094 770.82 481.491 770.704 479.062C770.646 478.281 771.687 477.819 772.699 477.819C773.538 477.819 774.377 478.137 774.521 478.917C774.782 480.421 774.984 482.041 775.129 483.718C775.909 483.718 776.719 483.718 777.442 483.747C778.136 483.776 778.483 484.615 778.483 485.511C778.483 486.523 778.021 487.622 777.095 487.622C776.488 487.622 775.909 487.622 775.331 487.651C775.36 488.259 775.36 488.808 775.36 489.386C775.36 490.428 775.331 491.411 775.273 492.307C775.244 493.03 774.116 493.406 773.018 493.406C771.803 493.406 770.617 492.972 770.704 492.076ZM768.246 497.368C766.424 497.368 765.759 498.641 765.759 499.769C765.759 500.781 766.858 501.33 768.159 501.33C769.489 501.33 770.762 500.752 770.762 499.711C770.762 498.409 769.865 497.368 768.246 497.368ZM791.312 499.075C791.602 496.385 791.688 492.799 791.688 489.184C791.688 486.581 791.659 483.921 791.573 481.578C791.544 480.797 792.498 480.335 793.395 480.335C794.176 480.335 794.899 480.653 795.014 481.433C795.303 483.458 795.506 485.743 795.65 488.114C796.2 488.085 796.749 488.114 797.299 488.114C797.27 485.829 797.241 483.574 797.183 481.578C797.154 480.797 798.109 480.335 799.034 480.335C799.815 480.335 800.567 480.653 800.711 481.433C801.232 484.991 801.492 489.647 801.492 493.811C801.492 495.922 801.405 497.918 801.29 499.566C801.232 500.26 800.307 500.549 799.294 500.549C798.109 500.549 796.836 500.116 796.923 499.364C797.125 497.31 797.241 494.679 797.27 491.931C796.778 491.902 796.287 491.902 795.766 491.902C795.766 492.481 795.795 493.059 795.795 493.609C795.795 495.662 795.708 497.629 795.593 499.277C795.535 499.971 794.638 500.26 793.655 500.26C792.498 500.26 791.226 499.826 791.312 499.075ZM785.037 487.189C788.334 487.189 790.532 490.109 790.532 493.493C790.532 496.761 788.854 498.785 785.066 498.785C781.364 498.785 779.658 496.848 779.658 493.667C779.658 490.081 781.769 487.189 785.037 487.189ZM779.976 486.581C779.34 486.639 779.022 485.685 779.022 484.701C779.022 483.747 779.34 482.793 780.005 482.764H783.186C783.215 481.809 783.244 480.566 783.244 479.756C783.244 479.207 784.083 478.917 784.95 478.917C785.847 478.917 786.772 479.236 786.888 479.901C787.003 480.768 787.061 481.983 787.119 482.908L790.127 483.082C790.85 483.111 791.197 483.921 791.197 484.73C791.197 485.54 790.85 486.379 790.185 486.35C789.201 486.321 788.189 486.292 787.177 486.292C784.777 486.292 782.347 486.408 779.976 486.581ZM785.124 490.659C783.967 490.659 783.62 492.105 783.62 493.406C783.62 494.592 784.285 495.199 785.037 495.199C785.933 495.199 786.685 494.505 786.685 493.233C786.685 491.902 786.165 490.659 785.124 490.659ZM814.191 478.079C819.484 478.079 823.041 482.041 823.041 486.552C823.041 488.982 822.173 490.919 820.38 492.134C820.467 493.58 820.525 495.141 820.641 496.616C821.537 496.587 822.434 496.559 823.301 496.501C823.995 496.472 824.342 497.224 824.342 498.005C824.342 498.785 823.995 499.624 823.214 499.769C819.831 500.376 815.03 500.694 810.837 500.694C808.726 500.694 806.788 500.607 805.255 500.463C804.532 500.405 804.214 499.277 804.214 498.207C804.214 497.137 804.532 496.125 805.197 496.212C806.123 496.298 807.077 496.385 808.06 496.443C808.089 495.055 808.118 493.753 808.205 492.278C806.325 491.122 805.458 489.242 805.458 486.813C805.458 482.012 808.899 478.079 814.191 478.079ZM814.278 481.665C811.155 481.665 810.085 484.354 810.085 486.784C810.085 488.953 811.936 490.109 814.191 490.109C816.389 490.109 818.558 488.837 818.558 486.581C818.558 483.892 817.112 481.665 814.278 481.665ZM816.071 496.674C816.071 495.604 816.1 494.592 816.158 493.522C815.551 493.609 814.885 493.638 814.191 493.638C813.555 493.638 812.977 493.638 812.427 493.58C812.485 494.592 812.543 495.633 812.63 496.645C813.758 496.674 814.914 496.674 816.071 496.674ZM828.362 497.021C828.362 496.472 829.49 496.183 830.647 496.183C831.861 496.183 833.105 496.501 833.221 497.166C833.452 498.583 833.568 499.971 833.568 501.33C833.568 501.88 832.353 502.169 831.081 502.169C829.663 502.169 828.16 501.822 828.218 501.128C828.304 499.769 828.362 498.38 828.362 497.021Z" fill="white"/>
<path d="M652.016 370.304C652.955 370.261 653.701 370.432 654.256 370.816C654.853 371.2 655.323 371.691 655.664 372.288C656.005 372.843 656.24 373.44 656.368 374.08C656.496 374.72 656.581 375.275 656.624 375.744C656.923 379.243 657.136 382.72 657.264 386.176C657.435 389.589 657.52 393.024 657.52 396.48C657.52 402.411 657.264 408.256 656.752 414.016C656.667 414.741 656.155 415.275 655.216 415.616C654.32 415.915 653.275 416.064 652.08 416.064C651.312 416.064 650.523 416 649.712 415.872C648.944 415.744 648.24 415.573 647.6 415.36C647.003 415.104 646.512 414.805 646.128 414.464C645.787 414.123 645.637 413.739 645.68 413.312C646.277 407.509 646.725 401.835 647.024 396.288C647.365 390.699 647.6 384.917 647.728 378.944C646.875 379.2 646.021 379.413 645.168 379.584C644.357 379.712 643.525 379.819 642.672 379.904C642.245 379.947 641.861 379.819 641.52 379.52C641.221 379.221 640.944 378.816 640.688 378.304C640.475 377.749 640.304 377.152 640.176 376.512C640.091 375.829 640.048 375.147 640.048 374.464C640.048 373.397 640.197 372.459 640.496 371.648C640.795 370.837 641.264 370.453 641.904 370.496C642.416 370.539 642.907 370.56 643.376 370.56C643.888 370.56 644.4 370.56 644.912 370.56C646.107 370.56 647.28 370.539 648.432 370.496C649.627 370.453 650.821 370.389 652.016 370.304ZM696.485 388.416C697.381 388.416 698.234 388.331 699.045 388.16C699.898 387.989 700.645 387.733 701.285 387.392C701.925 387.008 702.437 386.539 702.821 385.984C703.248 385.387 703.461 384.683 703.461 383.872C703.461 381.995 702.97 380.416 701.989 379.136C701.008 377.856 699.386 377.216 697.125 377.216C695.504 377.216 693.754 377.387 691.877 377.728C690.042 378.027 688.165 378.517 686.245 379.2C685.818 379.371 685.434 379.349 685.093 379.136C684.752 378.923 684.453 378.603 684.197 378.176C683.984 377.749 683.813 377.237 683.685 376.64C683.557 376.043 683.493 375.445 683.493 374.848C683.493 373.909 683.642 373.077 683.941 372.352C684.282 371.584 684.816 371.136 685.541 371.008C687.802 370.539 689.936 370.197 691.941 369.984C693.946 369.728 695.845 369.6 697.637 369.6C700.154 369.6 702.373 370.005 704.293 370.816C706.256 371.584 707.898 372.629 709.221 373.952C710.586 375.275 711.61 376.811 712.293 378.56C712.976 380.267 713.317 382.08 713.317 384C713.317 388.139 711.44 391.147 707.685 393.024C709.477 394.261 710.885 395.776 711.909 397.568C712.976 399.317 713.509 401.301 713.509 403.52C713.509 407.659 712.165 410.795 709.477 412.928C706.789 415.019 702.544 416.064 696.741 416.064C695.12 416.064 693.413 416.021 691.621 415.936C689.829 415.808 687.973 415.637 686.053 415.424C685.328 415.339 684.773 414.827 684.389 413.888C684.048 412.907 683.877 411.84 683.877 410.688C683.877 410.048 683.92 409.429 684.005 408.832C684.133 408.235 684.304 407.723 684.517 407.296C684.73 406.827 684.986 406.464 685.285 406.208C685.626 405.952 686.032 405.867 686.501 405.952C688.634 406.336 690.469 406.699 692.005 407.04C693.584 407.339 695.077 407.488 696.485 407.488C697.296 407.488 698.128 407.424 698.981 407.296C699.834 407.125 700.581 406.869 701.221 406.528C701.904 406.187 702.458 405.739 702.885 405.184C703.312 404.629 703.525 403.925 703.525 403.072C703.525 399.019 701.029 396.821 696.037 396.48C695.738 396.437 695.44 396.416 695.141 396.416C694.842 396.416 694.522 396.416 694.181 396.416C693.456 396.416 692.688 396.437 691.877 396.48C691.109 396.48 690.341 396.501 689.573 396.544C688.933 396.544 688.464 396.117 688.165 395.264C687.866 394.411 687.717 393.429 687.717 392.32C687.717 391.765 687.738 391.232 687.781 390.72C687.866 390.208 687.973 389.739 688.101 389.312C688.272 388.885 688.464 388.565 688.677 388.352C688.933 388.096 689.21 387.968 689.509 387.968C689.978 387.968 690.512 388.011 691.109 388.096C691.706 388.139 692.325 388.181 692.965 388.224C693.605 388.267 694.224 388.309 694.821 388.352C695.418 388.395 695.973 388.416 696.485 388.416ZM758.125 371.648C758.125 370.795 758.594 370.155 759.533 369.728C760.472 369.259 761.496 369.024 762.605 369.024C763.629 369.024 764.589 369.237 765.485 369.664C766.381 370.091 766.872 370.773 766.957 371.712C767.298 375.168 767.533 378.56 767.661 381.888C767.832 385.216 767.917 388.544 767.917 391.872C767.917 393.109 767.896 394.368 767.853 395.648C767.853 396.928 767.832 398.208 767.789 399.488L770.733 399.104C771.373 399.061 771.906 399.467 772.333 400.32C772.76 401.131 772.973 402.005 772.973 402.944C772.973 403.541 772.866 404.096 772.653 404.608C772.44 405.12 772.077 405.44 771.565 405.568C770.968 405.739 770.306 405.888 769.581 406.016C768.898 406.144 768.194 406.272 767.469 406.4C767.384 407.723 767.298 409.045 767.213 410.368C767.128 411.648 767.042 412.971 766.957 414.336C766.872 415.061 766.381 415.595 765.485 415.936C764.589 416.277 763.565 416.448 762.413 416.448C761.688 416.448 760.941 416.384 760.173 416.256C759.448 416.128 758.786 415.957 758.189 415.744C757.592 415.488 757.122 415.189 756.781 414.848C756.44 414.507 756.29 414.123 756.333 413.696L756.845 407.872C755.352 408.043 753.88 408.171 752.429 408.256C750.978 408.299 749.57 408.32 748.205 408.32C747.224 408.32 746.264 408.299 745.325 408.256C744.429 408.213 743.576 408.149 742.765 408.064C740.589 407.808 739.16 407.168 738.477 406.144C737.837 405.077 737.602 403.584 737.773 401.664C738.114 397.952 738.37 394.283 738.541 390.656C738.712 386.987 738.797 383.275 738.797 379.52C738.797 378.667 738.797 377.813 738.797 376.96C738.797 376.107 738.776 375.253 738.733 374.4C738.733 373.973 738.861 373.589 739.117 373.248C739.416 372.907 739.8 372.629 740.269 372.416C740.781 372.16 741.336 371.968 741.933 371.84C742.53 371.712 743.128 371.648 743.725 371.648C744.792 371.648 745.73 371.861 746.541 372.288C747.394 372.672 747.864 373.291 747.949 374.144C748.162 377.088 748.333 380.011 748.461 382.912C748.589 385.771 748.653 388.672 748.653 391.616C748.653 392.725 748.632 393.813 748.589 394.88C748.589 395.947 748.568 397.035 748.525 398.144C748.482 398.912 748.802 399.467 749.485 399.808C750.21 400.107 750.936 400.277 751.661 400.32C752.13 400.363 752.6 400.384 753.069 400.384C753.538 400.384 754.008 400.384 754.477 400.384C754.946 400.384 755.416 400.384 755.885 400.384C756.397 400.384 756.888 400.363 757.357 400.32C757.613 396.053 757.805 391.808 757.933 387.584C758.061 383.36 758.125 379.029 758.125 374.592V371.648Z" fill="white"/>
<path d="M483.899 739.815L456.792 706.01C454.565 703.236 453.418 699.75 453.564 696.2L455.306 652.904C455.555 646.76 459.587 641.416 465.427 639.494L517.531 622.352C523.371 620.431 529.789 622.338 533.637 627.133L560.745 660.938C562.971 663.712 564.118 667.199 563.972 670.748L562.23 714.045C561.981 720.188 557.949 725.533 552.109 727.454L500.009 744.594C494.17 746.516 487.751 744.609 483.904 739.814L483.899 739.815Z" fill="#FEDE83"/>
<path d="M483.899 739.815L456.792 706.01C454.565 703.236 453.418 699.75 453.564 696.2L455.306 652.904C455.555 646.76 459.587 641.416 465.427 639.494L517.531 622.352C523.371 620.431 529.789 622.338 533.637 627.133L560.745 660.938C562.971 663.712 564.118 667.199 563.972 670.748L562.23 714.045C561.981 720.188 557.949 725.533 552.109 727.454L500.009 744.594C494.17 746.516 487.751 744.609 483.904 739.814L483.899 739.815Z" fill="#EFBF60"/>
<path d="M550.128 718.026L551.87 674.73C552.015 671.176 550.868 667.689 548.643 664.92L521.535 631.115C517.687 626.319 511.269 624.413 505.43 626.334L465.432 639.493C459.592 641.414 455.56 646.759 455.311 652.902L453.569 696.199C453.425 699.752 454.572 703.239 456.796 706.008L483.904 739.813C487.752 744.609 494.17 746.516 500.01 744.594L540.007 731.435C545.847 729.514 549.879 724.169 550.128 718.026Z" fill="#FDCF6A"/>
<path d="M486.414 692.393C492.676 690.845 496.498 684.514 494.951 678.253C493.404 671.991 487.073 668.169 480.811 669.716C474.549 671.264 470.727 677.594 472.274 683.856C473.822 690.118 480.153 693.94 486.414 692.393Z" fill="white"/>
<path d="M480.811 669.716C474.552 671.263 470.727 677.592 472.274 683.856C473.029 686.911 474.927 689.382 477.394 690.935C479.071 691.292 480.851 691.288 482.628 690.849C488.887 689.302 492.713 682.973 491.165 676.709C490.41 673.654 488.513 671.183 486.045 669.63C484.368 669.273 482.588 669.277 480.811 669.716Z" fill="#1C1C1C"/>
<path d="M512.295 685.997C518.557 684.449 522.379 678.118 520.832 671.857C519.284 665.595 512.954 661.773 506.692 663.32C500.43 664.868 496.608 671.198 498.155 677.46C499.703 683.722 506.033 687.544 512.295 685.997Z" fill="white"/>
<path d="M506.692 663.32C500.433 664.867 496.607 671.196 498.155 677.46C498.91 680.515 500.807 682.986 503.275 684.539C504.952 684.896 506.732 684.892 508.509 684.453C514.768 682.906 518.593 676.577 517.046 670.313C516.291 667.258 514.393 664.787 511.926 663.234C510.249 662.877 508.469 662.881 506.692 663.32Z" fill="#1C1C1C"/>
<path d="M501.078 698.115C492.529 700.227 485.696 697.709 485.592 697.67C485.221 697.53 485.033 697.111 485.174 696.739C485.315 696.368 485.734 696.181 486.105 696.321C486.252 696.374 500.769 701.69 513.624 689.486C513.913 689.212 514.371 689.223 514.645 689.511C514.919 689.8 514.908 690.258 514.619 690.527C510.098 694.822 505.372 697.048 501.082 698.109L501.078 698.115Z" fill="#1C1C1C"/>
<path d="M389.705 557.586C463.666 624.214 414.824 705.116 321.414 670.703C254.785 744.664 173.882 695.823 208.295 602.414C134.332 535.777 183.177 454.883 276.586 489.296C343.215 415.336 424.119 464.177 389.705 557.586Z" fill="#9BC1E3"/>
<path d="M389.705 557.586C463.666 624.214 414.824 705.116 321.414 670.703C254.785 744.664 173.882 695.823 208.295 602.414C134.332 535.777 183.177 454.883 276.586 489.296C343.215 415.336 424.119 464.177 389.705 557.586Z" fill="#C4A2CC"/>
<path d="M365.123 563.661C388.526 500.119 358.583 457.218 316.062 459.544C302.998 465.214 289.524 474.931 276.586 489.287C271.75 487.505 267.041 486.048 262.448 484.872C258.941 488.05 255.452 491.532 251.994 495.365C233.867 488.685 217.421 486.371 203.217 487.429C164.506 505.177 157.984 557.089 208.298 602.414C184.896 665.955 214.847 708.855 257.359 706.531C270.424 700.86 283.897 691.143 296.835 676.787C301.671 678.57 306.38 680.027 310.973 681.202C314.481 678.025 317.969 674.542 321.428 670.71C339.563 677.388 356.011 679.71 370.213 678.643C408.924 660.896 415.446 608.984 365.132 563.658L365.123 563.661Z" fill="#DFBDE6"/>
<path d="M284.441 606.034C268.214 610.044 255.244 605.265 255.047 605.191C254.343 604.924 253.986 604.129 254.254 603.424C254.521 602.719 255.316 602.363 256.021 602.63C256.299 602.731 283.854 612.82 308.254 589.657C308.802 589.137 309.671 589.157 310.191 589.704C310.712 590.252 310.692 591.121 310.142 591.633C301.56 599.784 292.592 604.01 284.447 606.023L284.441 606.034Z" fill="#1C1C1C"/>
<path d="M251.001 593.269C243.64 593.354 239.269 586.08 237.914 581.877C237.675 581.12 238.088 580.308 238.844 580.059C239.611 579.82 240.413 580.233 240.662 580.99C240.811 581.44 244.285 591.808 252.58 590.223C262.362 588.332 265.265 580.898 266.129 576.64C266.283 575.86 267.056 575.351 267.827 575.516C268.607 575.67 269.116 576.433 268.952 577.213C268.142 581.211 264.975 590.763 253.122 593.052C252.394 593.195 251.683 593.261 251.001 593.269Z" fill="#1C1C1C"/>
<path d="M304.839 580.031C311.4 576.693 311.9 568.222 311.151 563.869C311.013 563.088 310.27 562.56 309.484 562.69C308.694 562.833 308.175 563.572 308.305 564.358C308.382 564.826 310.112 575.623 302.027 578.065C292.484 580.925 286.465 575.685 283.725 572.313C283.226 571.694 282.306 571.601 281.699 572.104C281.08 572.603 280.983 573.515 281.49 574.13C284.061 577.297 291.296 584.29 302.859 580.823C303.571 580.611 304.231 580.34 304.839 580.031Z" fill="#1C1C1C"/>
<path d="M620.638 1053.58C961.905 802.244 1383.86 636.167 1983.85 688.719L2119 1086.73C1467.58 1177.78 441.663 1185.39 620.638 1053.58Z" fill="#2A4270" fill-opacity="0.63"/>
<path d="M1089.03 1046.64C812.47 795.549 228.447 752.436 -28.9951 762.265L-149 1087.62C378.911 1178.58 1365.59 1297.72 1089.03 1046.64Z" fill="#3075B5"/>
<path d="M515.507 489.522L471.872 444.651L471.765 444.543C471.708 444.485 471.651 444.424 471.594 444.37L471.445 444.219C470.423 443.215 469.084 442.665 467.663 442.665C467.638 442.665 467.609 442.665 467.584 442.665C466.135 442.686 464.781 443.276 463.77 444.327C462.612 445.533 462.071 447.177 462.281 448.85V460.599C462.281 463.625 464.714 466.09 467.709 466.09C470.423 466.09 472.677 464.064 473.072 461.426L507.829 497.28C508.854 498.317 510.215 498.889 511.664 498.889C513.114 498.889 514.478 498.317 515.5 497.28C516.526 496.244 517.089 494.866 517.089 493.398C517.089 491.93 516.526 490.555 515.504 489.519L515.507 489.522Z" fill="#6FB7E7"/>
<path d="M598.931 371.605C589.059 361.616 575.931 356.074 561.963 355.999H561.685C549.662 355.999 537.969 360.173 528.667 367.769C519.361 360.169 507.676 355.999 495.641 355.999C495.552 355.999 495.46 355.999 495.371 355.999C481.41 356.071 468.282 361.616 458.406 371.605C440.656 389.564 437.917 417.886 451.892 438.944C453.559 441.456 456.939 442.128 459.421 440.441C461.904 438.753 462.57 435.335 460.903 432.823C449.813 416.109 451.989 393.63 466.085 379.37C482.208 363.055 508.584 362.904 524.877 379.035C526.972 381.108 530.373 381.108 532.467 379.035C548.764 362.907 575.137 363.055 591.259 379.37C607.072 395.368 607.129 421.031 591.388 439.073C591.37 439.095 591.277 439.199 591.128 439.394C589.593 441.355 581.205 451.84 566.675 465.676L528.745 502.588L527.046 500.868C524.931 498.727 521.487 498.727 519.371 500.868C517.256 503.009 517.256 506.492 519.371 508.633L524.835 514.16C525.86 515.196 527.221 515.769 528.67 515.769C530.12 515.769 531.416 515.225 532.431 514.236L574.143 473.646C588.752 459.732 597.282 449.217 599.622 446.227C608.778 435.684 613.868 422.384 613.95 408.772C614.035 394.692 608.704 381.489 598.931 371.605Z" fill="#6FB7E7"/>
<path d="M528.467 443.802C526.733 443.802 525.031 443.118 523.756 441.826L523.421 441.488C514.236 432.193 509.136 419.837 509.057 406.692C508.979 393.558 513.922 381.151 522.979 371.752C523.001 371.727 523.025 371.705 523.047 371.68L523.435 371.288C523.556 371.166 523.688 371.032 523.82 370.899C526.405 368.348 530.529 368.348 533.115 370.899C533.25 371.032 533.382 371.166 533.518 371.302L533.899 371.691C533.92 371.712 533.938 371.73 533.959 371.752C543.012 381.147 547.959 393.558 547.881 406.692C547.803 419.837 542.703 432.197 533.514 441.492C533.411 441.596 533.311 441.697 533.211 441.797C532.599 442.427 531.858 442.938 531.017 443.291C530.195 443.636 529.329 443.805 528.471 443.805L528.467 443.802ZM528.467 386.199C520.404 398.344 520.422 414.457 528.467 426.587C536.513 414.457 536.531 398.344 528.467 386.199Z" fill="#6FB7E7"/>
<path d="M503.507 488.522L459.872 443.651L459.765 443.543C459.708 443.485 459.651 443.424 459.594 443.37L459.445 443.219C458.423 442.215 457.084 441.665 455.663 441.665C455.638 441.665 455.609 441.665 455.584 441.665C454.135 441.686 452.781 442.276 451.77 443.327C450.612 444.533 450.071 446.177 450.281 447.85V459.599C450.281 462.625 452.714 465.09 455.709 465.09C458.423 465.09 460.677 463.064 461.072 460.426L495.829 496.28C496.854 497.317 498.215 497.889 499.664 497.889C501.114 497.889 502.478 497.317 503.5 496.28C504.526 495.244 505.089 493.866 505.089 492.398C505.089 490.93 504.526 489.555 503.504 488.519L503.507 488.522Z" fill="white"/>
<path d="M586.931 370.605C577.059 360.616 563.931 355.074 549.963 354.999H549.685C537.662 354.999 525.969 359.173 516.667 366.769C507.361 359.169 495.676 354.999 483.641 354.999C483.552 354.999 483.46 354.999 483.371 354.999C469.41 355.071 456.282 360.616 446.406 370.605C428.656 388.564 425.917 416.886 439.892 437.944C441.559 440.456 444.939 441.128 447.421 439.441C449.904 437.753 450.57 434.335 448.903 431.823C437.813 415.109 439.989 392.63 454.085 378.37C470.208 362.055 496.584 361.904 512.877 378.035C514.972 380.108 518.373 380.108 520.467 378.035C536.764 361.907 563.137 362.055 579.259 378.37C595.072 394.368 595.129 420.031 579.388 438.073C579.37 438.095 579.277 438.199 579.128 438.394C577.593 440.355 569.205 450.84 554.675 464.676L516.745 501.588L515.046 499.868C512.931 497.727 509.487 497.727 507.371 499.868C505.256 502.009 505.256 505.492 507.371 507.633L512.835 513.16C513.86 514.196 515.221 514.769 516.67 514.769C518.12 514.769 519.416 514.225 520.431 513.236L562.143 472.646C576.752 458.732 585.282 448.217 587.622 445.227C596.778 434.684 601.868 421.384 601.95 407.772C602.035 393.692 596.704 380.489 586.931 370.605Z" fill="white"/>
<path d="M516.467 442.802C514.733 442.802 513.031 442.118 511.756 440.826L511.421 440.488C502.236 431.193 497.136 418.837 497.057 405.692C496.979 392.558 501.922 380.151 510.979 370.752C511.001 370.727 511.025 370.705 511.047 370.68L511.435 370.288C511.556 370.166 511.688 370.032 511.82 369.899C514.405 367.348 518.529 367.348 521.115 369.899C521.25 370.032 521.382 370.166 521.518 370.302L521.899 370.691C521.92 370.712 521.938 370.73 521.959 370.752C531.012 380.147 535.959 392.558 535.881 405.692C535.803 418.837 530.703 431.197 521.514 440.492C521.411 440.596 521.311 440.697 521.211 440.797C520.599 441.427 519.858 441.938 519.017 442.291C518.195 442.636 517.329 442.805 516.471 442.805L516.467 442.802ZM516.467 385.199C508.404 397.344 508.422 413.457 516.467 425.587C524.513 413.457 524.531 397.344 516.467 385.199Z" fill="white"/>
</g>
<defs>
<linearGradient id="paint0_linear_1442_22189" x1="962.56" y1="436.451" x2="962.418" y2="979.001" gradientUnits="userSpaceOnUse">
<stop offset="0.216667" stop-color="#75C7EA"/>
<stop offset="1" stop-color="#7588EA"/>
</linearGradient>
<clipPath id="clip0_1442_22189">
<rect width="1920" height="979" fill="white"/>
</clipPath>
</defs>
</svg>
