<svg width="1920" height="979" viewBox="0 0 1920 979" fill="none" xmlns="http://www.w3.org/2000/svg">
<mask id="mask0_1346_21820" style="mask-type:alpha" maskUnits="userSpaceOnUse" x="0" y="0" width="1920" height="979">
<rect width="1920" height="979" fill="url(#paint0_linear_1346_21820)"/>
</mask>
<g mask="url(#mask0_1346_21820)">
<rect width="1920" height="979" fill="url(#paint1_linear_1346_21820)"/>
<path d="M655.589 540.536C651.449 518.931 628.583 505.147 604.516 509.766C601.84 510.274 599.277 511.007 596.815 511.902C596.632 509.349 596.205 506.765 595.493 504.201C589.746 483.481 568.262 471.346 547.501 477.103C543.473 478.222 539.771 479.931 536.455 482.118C544.826 466.514 547.45 447.808 542.354 429.417C531.836 391.455 492.46 369.229 454.417 379.767C439.454 383.917 426.932 392.523 417.879 403.742C419.008 391.648 417.97 378.973 414.471 366.35C400.485 315.886 352.422 285.146 307.116 297.709C261.809 310.271 236.42 361.355 250.406 411.819C250.803 413.243 251.23 414.647 251.678 416.04C251.139 416.152 250.61 416.284 250.071 416.427C236.969 420.058 228.75 433.109 229.411 447.492C219.707 439.843 207.307 436.69 195.315 440.006C174.116 445.885 162.235 469.789 168.776 493.409C169.966 497.691 171.675 501.658 173.811 505.27C152.785 498.953 130.681 507.64 122.666 526.254C113.969 546.466 125.168 570.696 147.669 580.39C147.669 580.39 175.876 593.766 216.564 593.766C257.252 593.766 314.836 599.87 352.666 593.766C390.496 587.663 412.071 589.108 439.434 588.894C466.796 588.68 587.081 597.499 619.499 588.009C643.566 583.401 659.719 562.141 655.589 540.536Z" fill="#EFF6F8"/>
<path d="M619.499 588.009C621.716 587.582 623.863 587.012 625.928 586.32C618.288 576.85 600.223 572.568 582.981 575.955C584.812 573.921 586.297 571.683 587.315 569.272C592.95 555.967 582.727 542.499 564.478 539.193C554.154 537.322 543.483 539.102 535.132 543.404C535.712 535.308 528.632 527.953 517.351 525.909C516.893 525.827 516.426 525.756 515.968 525.695C516.354 524.912 516.721 524.118 517.056 523.315C529.1 494.884 507.24 466.107 468.251 459.038C429.251 451.968 387.881 469.271 375.838 497.701C372.827 504.812 371.932 511.953 372.908 518.768C365.116 512.451 354.344 507.599 341.456 505.259C308.712 499.319 274.819 511.841 265.766 533.222C261.382 543.588 263.64 554.116 270.842 562.904C267.983 561.673 264.8 560.707 261.331 560.076C243.459 556.832 224.966 563.667 220.022 575.345C219.412 576.789 219.036 578.244 218.883 579.678C216.767 579.169 214.55 578.763 212.251 578.468C196.026 576.433 180.443 580.756 172.732 588.568C184.298 591.345 199.302 593.746 216.554 593.746C257.242 593.746 314.826 599.849 352.656 593.746C390.485 587.643 412.06 589.087 439.423 588.874C466.786 588.66 587.07 597.479 619.489 587.989L619.499 588.009Z" fill="#D8EAF5"/>
<path d="M105.688 580.553C105.688 586.737 95.7908 589.707 84.8355 589.707C79.6681 589.707 72.5985 589.504 69.0688 587.673C65.1221 585.629 65 581.783 65 578.518C65 572.334 75.406 568.346 86.3613 568.346C97.3166 568.346 105.688 574.368 105.688 580.553Z" fill="white"/>
<path d="M1298.51 669C1294.2 669 1290.02 669.19 1286.01 669.55C1282.9 663.3 1276.47 659 1269.01 659C1265.89 659 1262.95 659.77 1260.35 661.1C1258.19 652.98 1250.81 647 1242.01 647C1238.28 647 1234.81 648.09 1231.87 649.95C1231.96 648.98 1232.01 647.99 1232.01 647C1232.01 629.33 1217.68 615 1200.01 615C1191.41 615 1183.62 618.4 1177.87 623.91C1175.76 590.47 1147.99 564 1114.01 564C1080.03 564 1050.01 592.65 1050.01 628C1050.01 628.13 1050.01 628.25 1050.01 628.38C1045.46 626.22 1040.37 625 1035 625C1016.37 625 1001.15 639.55 1000.07 657.91C997.15 656.08 993.7 655 990 655C980.15 655 972.05 662.5 971.1 672.11C966.37 670.77 960.87 670 955 670C937.33 670 923 676.94 923 685.5C923 694.06 937.33 701 955 701C962.56 701 969.5 699.73 974.98 697.6C978.46 702.09 983.88 705 990 705C997.59 705 1004.13 700.54 1007.17 694.1C1013 702.75 1029.97 709 1050 709C1068.67 709 1084.69 703.56 1091.5 695.82C1098.31 703.56 1114.33 709 1133 709C1147.72 709 1160.79 705.62 1169 700.4C1177.21 705.62 1190.28 709 1205 709C1219.72 709 1232.37 705.72 1240.6 700.64C1245.93 705.6 1256.64 709 1269 709C1275.44 709 1281.43 708.08 1286.45 706.49C1290.32 706.82 1294.35 707 1298.5 707C1327.49 707 1351 698.49 1351 688C1351 677.51 1327.49 669 1298.5 669H1298.51Z" fill="#EFF6F8"/>
<path d="M1297.83 706.99C1297.59 700.81 1295.48 694.08 1290.16 687.36C1272.42 664.95 1267.18 706.37 1264.32 697.12C1261.46 687.87 1243.55 692.94 1243.55 692.94C1243.55 692.94 1250.89 673.29 1204.65 656.38C1158.41 639.47 1173.23 698.83 1151.46 685.32C1129.7 671.81 1127.66 699.37 1124.53 683.26C1121.4 667.15 1101.14 676.06 1102.37 675.39C1103.59 674.72 1109.57 652 1079.37 646.32C1049.17 640.64 1067.9 687.98 1055.72 684.65C1043.54 681.32 1043.94 690.96 1043.94 690.96C1043.94 690.96 1036.17 691.11 1029.14 687.02C1022.62 683.22 1011.69 689.8 1007.6 694.69C1013.79 703.03 1030.43 709 1050.01 709C1069.59 709 1084.7 703.56 1091.51 695.82C1098.32 703.56 1114.34 709 1133.01 709C1147.73 709 1160.8 705.62 1169.01 700.4C1177.22 705.62 1190.29 709 1205.01 709C1219.73 709 1232.38 705.72 1240.61 700.64C1245.94 705.6 1256.65 709 1269.01 709C1275.45 709 1281.44 708.08 1286.46 706.49C1290.12 706.8 1293.93 706.97 1297.84 706.99H1297.83Z" fill="#D8EAF5"/>
<path d="M1005.39 697.11C1000.59 700.14 988.32 697.79 982.68 696.34C976.37 694.72 973.28 695.46 969.04 698.75L969.39 699.33C971.38 698.84 973.27 698.27 974.99 697.6C978.47 702.09 983.89 705 990.01 705C996.13 705 1001.94 701.88 1005.39 697.11Z" fill="#D8EAF5"/>
<path d="M1963.51 200C1959.2 200 1955.02 200.19 1951.01 200.55C1947.9 194.3 1941.47 190 1934.01 190C1930.89 190 1927.95 190.77 1925.35 192.1C1923.19 183.98 1915.81 178 1907.01 178C1903.28 178 1899.81 179.09 1896.87 180.95C1896.96 179.98 1897.01 178.99 1897.01 178C1897.01 160.33 1882.68 146 1865.01 146C1856.41 146 1848.62 149.4 1842.87 154.91C1840.76 121.47 1812.99 95 1779.01 95C1745.03 95 1715.01 123.65 1715.01 159C1715.01 159.13 1715.01 159.25 1715.01 159.38C1710.46 157.22 1705.37 156 1700 156C1681.37 156 1666.15 170.55 1665.07 188.91C1662.15 187.08 1658.7 186 1655 186C1645.15 186 1637.05 193.5 1636.1 203.11C1631.37 201.77 1625.87 201 1620 201C1602.33 201 1588 207.94 1588 216.5C1588 225.06 1602.33 232 1620 232C1627.56 232 1634.5 230.73 1639.98 228.6C1643.46 233.09 1648.88 236 1655 236C1662.59 236 1669.13 231.54 1672.17 225.1C1678 233.75 1694.97 240 1715 240C1733.67 240 1749.69 234.56 1756.5 226.82C1763.31 234.56 1779.33 240 1798 240C1812.72 240 1825.79 236.62 1834 231.4C1842.21 236.62 1855.28 240 1870 240C1884.72 240 1897.37 236.72 1905.6 231.64C1910.93 236.6 1921.64 240 1934 240C1940.44 240 1946.43 239.08 1951.45 237.49C1955.32 237.82 1959.35 238 1963.5 238C1992.49 238 2016 229.49 2016 219C2016 208.51 1992.49 200 1963.5 200H1963.51Z" fill="#EFF6F8"/>
<path d="M1962.83 237.99C1962.59 231.81 1960.48 225.08 1955.16 218.36C1937.42 195.95 1932.18 237.37 1929.32 228.12C1926.46 218.87 1908.55 223.94 1908.55 223.94C1908.55 223.94 1915.89 204.29 1869.65 187.38C1823.41 170.47 1838.23 229.83 1816.46 216.32C1794.7 202.81 1792.66 230.37 1789.53 214.26C1786.4 198.15 1766.14 207.06 1767.37 206.39C1768.59 205.72 1774.57 183 1744.37 177.32C1714.17 171.64 1732.9 218.98 1720.72 215.65C1708.54 212.32 1708.94 221.96 1708.94 221.96C1708.94 221.96 1701.17 222.11 1694.14 218.02C1687.62 214.22 1676.69 220.8 1672.6 225.69C1678.79 234.03 1695.43 240 1715.01 240C1734.59 240 1749.7 234.56 1756.51 226.82C1763.32 234.56 1779.34 240 1798.01 240C1812.73 240 1825.8 236.62 1834.01 231.4C1842.22 236.62 1855.29 240 1870.01 240C1884.73 240 1897.38 236.72 1905.61 231.64C1910.94 236.6 1921.65 240 1934.01 240C1940.45 240 1946.44 239.08 1951.46 237.49C1955.12 237.8 1958.93 237.97 1962.84 237.99H1962.83Z" fill="#D8EAF5"/>
<path d="M1670.39 228.11C1665.59 231.14 1653.32 228.79 1647.68 227.34C1641.37 225.72 1638.28 226.46 1634.04 229.75L1634.39 230.33C1636.38 229.84 1638.27 229.27 1639.99 228.6C1643.47 233.09 1648.89 236 1655.01 236C1661.13 236 1666.94 232.88 1670.39 228.11Z" fill="#D8EAF5"/>
<path d="M1020.96 236.043C1020.96 236.043 1038.69 219.115 1062.87 227.176C1087.06 235.237 1123.43 236.849 1151.19 236.043C1178.95 235.237 1234.57 238.461 1212.8 240.879C1191.04 243.298 1121.47 239.267 1106.28 240.879C1091.09 242.492 1067.71 249.746 1045.95 246.522C1024.18 243.298 988.215 242.467 975.971 241.669C963.727 240.871 957.278 235.229 1020.96 236.035V236.043Z" fill="#D8EAF5" fill-opacity="0.5"/>
<path d="M1257.94 241.685C1257.94 241.685 1242.63 231.521 1257.94 230.562C1273.26 229.602 1300.73 230.658 1287.4 236.172C1274.06 241.685 1270.84 243.298 1257.94 241.685Z" fill="#D8EAF5" fill-opacity="0.5"/>
<path d="M1485 240.073C1459.46 240.073 1360.31 245.716 1325.65 240.073C1325.65 240.073 1299.05 237.655 1349.84 233.625" fill="#D8EAF5" fill-opacity="0.5"/>
<path d="M419.622 105.594C419.622 105.594 430.21 95.4863 444.65 100.299C459.089 105.113 480.811 106.075 497.387 105.594C513.959 105.113 547.17 107.038 534.174 108.482C521.179 109.926 479.637 107.519 470.569 108.482C461.496 109.444 447.538 113.776 434.542 111.851C421.547 109.926 400.071 109.43 392.759 108.953C385.448 108.477 381.598 105.108 419.622 105.589V105.594Z" fill="#D8EAF5" fill-opacity="0.3"/>
<path d="M561.128 108.963C561.128 108.963 551.983 102.894 561.128 102.321C570.273 101.748 586.676 102.379 578.715 105.671C570.754 108.963 568.829 109.926 561.128 108.963Z" fill="#D8EAF5" fill-opacity="0.3"/>
<path d="M696.704 108C681.456 108 622.255 111.37 601.558 108C601.558 108 585.675 106.556 615.997 104.15" fill="#D8EAF5" fill-opacity="0.3"/>
<path d="M-173.042 622.043C-173.042 622.043 -155.309 605.115 -131.127 613.176C-106.944 621.237 -70.5662 622.849 -42.8051 622.043C-15.052 621.237 40.5671 624.461 18.8031 626.879C-2.96089 629.298 -72.533 625.267 -87.7195 626.879C-102.914 628.492 -126.29 635.746 -148.054 632.522C-169.818 629.298 -205.785 628.467 -218.029 627.669C-230.273 626.871 -236.722 621.229 -173.042 622.035V622.043Z" fill="#D8EAF5" fill-opacity="0.5"/>
<path d="M63.9436 627.685C63.9436 627.685 48.6282 617.521 63.9436 616.562C79.2589 615.602 106.73 616.658 93.3974 622.172C80.065 627.685 76.8407 629.298 63.9436 627.685Z" fill="#D8EAF5" fill-opacity="0.5"/>
<path d="M290.998 626.073C265.462 626.073 166.315 631.716 131.653 626.073C131.653 626.073 105.053 623.655 155.836 619.625" fill="#D8EAF5" fill-opacity="0.5"/>
<path d="M927.225 439.645C931.419 439.645 934.224 442.161 934.224 445.053C934.224 447.8 932.113 449.536 927.225 449.536C922.483 449.536 920.343 447.887 920.343 445.198C920.343 442.161 923.061 439.645 927.225 439.645ZM936.306 441.062C936.248 440.281 937.29 439.819 938.273 439.819C939.111 439.819 939.892 440.137 940.008 440.917C940.557 444.735 940.818 449.825 940.818 454.249C940.818 455.695 940.789 457.084 940.731 458.327C940.702 459.05 939.661 459.426 938.591 459.426C937.434 459.426 936.248 458.992 936.306 458.096V457.691C935.063 457.662 933.588 457.662 932.402 457.662C931.737 457.662 931.419 456.852 931.419 456.043C931.419 455.291 931.708 454.539 932.2 454.539C933.096 454.51 934.166 454.51 935.178 454.51H936.422C936.48 452.832 936.48 451.01 936.48 449.217C936.48 446.325 936.422 443.462 936.306 441.062ZM920.082 450.143C923.032 450.403 926.531 450.548 929.857 450.548C931.592 450.548 933.299 450.519 934.86 450.432C935.381 450.403 935.67 451.097 935.67 451.82C935.67 452.543 935.381 453.295 934.773 453.411C933.299 453.729 931.39 453.989 929.394 454.105C929.452 454.972 929.51 455.753 929.597 456.65C929.684 457.402 928.411 457.807 927.168 457.807C925.982 457.807 924.825 457.431 924.854 456.65L924.941 454.249C923.09 454.249 921.413 454.192 920.14 454.047C919.504 453.989 919.186 453.006 919.186 452.023C919.186 451.039 919.504 450.085 920.082 450.143ZM930.436 461.971C930.493 462.463 931.187 462.694 931.853 462.752C932.402 462.781 933.009 462.781 933.646 462.781C935.554 462.781 937.694 462.694 939.343 462.492C939.921 462.434 940.355 463.417 940.355 464.314C940.355 464.892 940.181 465.413 939.748 465.528C937.492 466.02 934.426 466.396 931.997 466.396C929.944 466.396 926.3 466.222 926.011 464.429C925.924 463.851 925.866 463.272 925.866 462.665C925.866 461.479 926.04 460.265 926.271 459.079C926.387 458.501 927.196 458.269 928.064 458.269C929.25 458.269 930.58 458.703 930.522 459.195C930.436 459.831 930.407 460.438 930.407 461.046C930.407 461.364 930.407 461.653 930.436 461.971ZM927.312 442.942C925.23 442.942 924.507 444.012 924.507 444.966C924.507 445.747 925.722 446.268 927.225 446.268C928.758 446.268 930.175 445.718 930.175 444.937C930.175 443.809 929.221 442.942 927.312 442.942ZM951.391 448.899C955.295 448.899 957.84 451.878 957.84 455.32C957.84 458.674 955.845 460.728 951.42 460.728C947.082 460.728 945.058 458.761 945.058 455.493C945.058 451.849 947.516 448.899 951.391 448.899ZM959.402 461.364C959.72 458.761 959.807 455.233 959.807 451.676C959.807 448.87 959.749 446.036 959.662 443.578C959.633 442.797 960.674 442.335 961.687 442.335C962.525 442.335 963.335 442.653 963.48 443.433C963.769 445.227 963.971 447.251 964.116 449.391C964.897 449.391 965.677 449.391 966.429 449.42C967.123 449.449 967.47 450.287 967.47 451.184C967.47 452.196 967.008 453.295 966.082 453.295C965.446 453.295 964.868 453.295 964.289 453.324C964.289 454.076 964.318 454.828 964.318 455.551C964.318 457.749 964.231 459.831 964.116 461.566C964.058 462.26 963.046 462.549 961.976 462.549C960.674 462.549 959.315 462.116 959.402 461.364ZM944.74 448.234C944.161 448.263 943.843 447.338 943.843 446.383C943.843 445.429 944.161 444.446 944.797 444.417H949.164C949.164 443.52 949.135 442.566 949.077 441.756C949.02 441.178 950.09 440.831 951.102 440.831C951.912 440.831 952.692 441.062 952.808 441.612C952.953 442.45 953.068 443.52 953.155 444.532C954.717 444.59 956.279 444.648 957.782 444.735C958.476 444.764 958.823 445.602 958.823 446.412C958.823 447.222 958.476 448.032 957.869 448.003C956.481 447.945 955.006 447.916 953.502 447.916C950.552 447.916 947.458 448.032 944.74 448.234ZM951.478 452.428C949.8 452.428 949.222 453.902 949.222 455.233C949.222 456.447 950.205 457.084 951.391 457.084C952.664 457.084 953.791 456.361 953.791 455.059C953.791 453.7 953.011 452.428 951.478 452.428ZM974.255 445.892C974.313 446.586 975.007 446.875 975.672 446.904C976.54 446.933 977.408 446.962 978.275 446.962C980.849 446.962 983.336 446.817 985.823 446.615C986.402 446.557 986.835 447.627 986.835 448.523C986.835 449.102 986.662 449.593 986.228 449.709C983.076 450.403 979.924 450.75 976.945 450.75C975.007 450.75 973.156 450.606 971.479 450.316C970.496 450.143 969.802 449.246 969.744 448.321C969.686 447.685 969.657 446.962 969.657 446.21C969.657 444.359 969.831 442.335 970.091 440.686C970.207 439.934 971.016 439.616 971.913 439.616C973.099 439.616 974.4 440.137 974.342 440.802C974.255 441.814 974.226 443.086 974.226 444.243C974.226 444.822 974.226 445.4 974.255 445.892ZM968.992 452.659C973.099 452.89 977.552 453.035 981.832 453.035C983.625 453.035 985.418 453.006 987.096 452.948C987.79 452.919 988.137 453.642 988.137 454.365C988.137 455.088 987.79 455.84 987.009 455.898C982.526 456.332 977.494 456.592 972.723 456.592C971.479 456.592 970.235 456.563 969.05 456.534C968.327 456.534 968.009 455.551 968.009 454.568C968.009 453.584 968.327 452.63 968.992 452.659ZM976.106 462.26C976.106 462.925 976.858 463.186 977.523 463.244C978.102 463.272 978.738 463.301 979.374 463.301C981.109 463.301 982.96 463.157 984.58 462.954C985.158 462.897 985.679 463.851 985.679 464.718C985.679 465.239 985.476 465.76 984.985 465.904C982.729 466.598 980.097 467.003 977.668 467.003C975.615 467.003 971.681 466.83 971.681 464.545C971.681 462.752 971.768 460.641 971.942 458.848C972.029 458.096 972.838 457.807 973.735 457.807C974.92 457.807 976.251 458.327 976.193 458.963C976.135 460.062 976.106 461.335 976.106 462.26ZM1014.9 452.717C1015.04 451.242 1015.13 449.564 1015.13 447.771C1015.13 445.602 1015.01 443.289 1014.9 440.975C1014.84 440.252 1015.85 439.819 1016.86 439.819C1017.73 439.819 1018.57 440.137 1018.71 440.86C1019.29 443.867 1019.55 447.193 1019.55 450.172C1019.55 451.155 1019.52 452.081 1019.46 452.948C1019.44 453.642 1018.31 453.989 1017.21 453.989C1016.02 453.989 1014.81 453.584 1014.9 452.717ZM1018.39 459.976C1018.45 461.393 1017.85 461.884 1016.8 461.884C1014 461.884 1012.06 461.913 1009.31 462C1009 462 1008.97 463.186 1009.29 463.186C1010.04 463.186 1010.76 463.215 1011.51 463.215C1013.83 463.215 1016.11 463.128 1018.48 462.983C1018.94 462.954 1019.23 463.735 1019.23 464.429C1019.23 464.921 1019.09 465.326 1018.77 465.384C1016.14 465.962 1013.42 466.251 1010.73 466.251C1009.17 466.251 1007.58 466.164 1006.05 465.933C1005.27 465.788 1004.8 464.979 1004.72 464.111C1004.69 463.562 1004.66 463.041 1004.66 462.492C1004.66 461.942 1004.69 461.393 1004.72 460.756C1004.77 459.86 1005.35 459.368 1006.28 459.31C1008.01 459.253 1009.52 459.224 1011.08 459.224C1011.97 459.224 1012.93 459.253 1013.94 459.253C1014.17 459.253 1014.2 458.125 1013.83 458.096C1012.18 457.98 1010.73 457.922 1009.29 457.922C1008.13 457.922 1006.94 457.951 1005.61 458.038C1005.12 458.096 1004.86 457.286 1004.86 456.505C1004.86 455.782 1005.06 455.059 1005.53 455.03C1007.32 454.857 1009.11 454.77 1010.9 454.77C1012.78 454.77 1014.69 454.857 1016.69 454.972C1017.67 455.03 1017.96 455.609 1018.11 456.563C1018.25 457.604 1018.34 458.53 1018.39 459.976ZM1005.44 443.578C1003.13 443.578 1002.32 445.545 1002.32 447.367C1002.32 448.899 1003.7 449.825 1005.35 449.825C1007.03 449.825 1008.62 448.841 1008.62 447.251C1008.62 445.227 1007.52 443.578 1005.44 443.578ZM1005.35 439.847C1009.78 439.847 1012.73 443.318 1012.73 447.309C1012.73 451.126 1010.47 453.498 1005.35 453.498C1000.38 453.498 998.093 451.242 998.093 447.511C998.093 443.318 1000.96 439.847 1005.35 439.847ZM1032.32 439.443C1037.33 439.443 1040.62 442.19 1040.62 445.313C1040.62 448.35 1038.05 450.23 1032.32 450.23C1026.71 450.23 1024.11 448.437 1024.11 445.545C1024.11 442.161 1027.32 439.443 1032.32 439.443ZM1039.35 461.017C1039.41 462.347 1038.8 462.81 1037.76 462.81C1034.95 462.81 1032.79 462.839 1030.04 462.897C1029.72 462.897 1029.69 464.024 1030.01 464.024C1031.02 464.053 1031.98 464.082 1032.93 464.082C1035.1 464.082 1037.21 463.995 1039.44 463.851C1039.9 463.793 1040.19 464.545 1040.19 465.181C1040.19 465.644 1040.04 466.049 1039.73 466.107C1037.12 466.627 1034.35 466.916 1031.6 466.916C1029.95 466.916 1028.33 466.83 1026.77 466.598C1025.99 466.483 1025.5 465.731 1025.44 464.892C1025.41 464.343 1025.38 463.793 1025.38 463.244C1025.38 462.694 1025.41 462.174 1025.44 461.624C1025.5 460.756 1026.08 460.294 1027 460.265C1028.53 460.207 1029.86 460.207 1031.14 460.207H1034.9C1035.13 460.207 1035.16 459.224 1034.78 459.195C1033.07 459.108 1031.54 459.05 1030.07 459.05C1028.82 459.05 1027.61 459.079 1026.34 459.166C1025.84 459.195 1025.58 458.443 1025.58 457.691C1025.58 456.997 1025.79 456.332 1026.25 456.303C1028.13 456.129 1029.98 456.043 1031.77 456.043C1033.77 456.043 1035.71 456.129 1037.64 456.245C1038.63 456.303 1038.92 456.881 1039.06 457.749C1039.21 458.761 1039.29 459.629 1039.35 461.017ZM1023.36 451.039C1027.58 451.242 1032.21 451.386 1036.6 451.386C1038.28 451.386 1039.9 451.386 1041.46 451.329C1042.16 451.3 1042.5 451.965 1042.5 452.659C1042.5 453.324 1042.16 454.018 1041.37 454.076C1036.89 454.481 1031.86 454.741 1027.12 454.741C1025.87 454.741 1024.63 454.712 1023.42 454.683C1022.69 454.683 1022.37 453.758 1022.37 452.832C1022.37 451.907 1022.69 451.01 1023.36 451.039ZM1032.38 442.855C1029.37 442.855 1028.3 444.041 1028.3 445.255C1028.3 446.325 1030.07 446.846 1032.32 446.846C1034.49 446.846 1036.63 446.297 1036.63 445.14C1036.63 443.838 1035.16 442.855 1032.38 442.855ZM1060.12 448.899C1064.03 448.899 1066.57 451.878 1066.57 455.32C1066.57 458.674 1064.58 460.728 1060.15 460.728C1055.81 460.728 1053.79 458.761 1053.79 455.493C1053.79 451.849 1056.25 448.899 1060.12 448.899ZM1068.13 461.364C1068.45 458.761 1068.54 455.233 1068.54 451.676C1068.54 448.87 1068.48 446.036 1068.39 443.578C1068.36 442.797 1069.41 442.335 1070.42 442.335C1071.26 442.335 1072.07 442.653 1072.21 443.433C1072.5 445.227 1072.7 447.251 1072.85 449.391C1073.63 449.391 1074.41 449.391 1075.16 449.42C1075.86 449.449 1076.2 450.287 1076.2 451.184C1076.2 452.196 1075.74 453.295 1074.81 453.295C1074.18 453.295 1073.6 453.295 1073.02 453.324C1073.02 454.076 1073.05 454.828 1073.05 455.551C1073.05 457.749 1072.96 459.831 1072.85 461.566C1072.79 462.26 1071.78 462.549 1070.71 462.549C1069.41 462.549 1068.05 462.116 1068.13 461.364ZM1053.47 448.234C1052.89 448.263 1052.57 447.338 1052.57 446.383C1052.57 445.429 1052.89 444.446 1053.53 444.417H1057.9C1057.9 443.52 1057.87 442.566 1057.81 441.756C1057.75 441.178 1058.82 440.831 1059.83 440.831C1060.64 440.831 1061.42 441.062 1061.54 441.612C1061.68 442.45 1061.8 443.52 1061.89 444.532C1063.45 444.59 1065.01 444.648 1066.51 444.735C1067.21 444.764 1067.56 445.602 1067.56 446.412C1067.56 447.222 1067.21 448.032 1066.6 448.003C1065.21 447.945 1063.74 447.916 1062.23 447.916C1059.28 447.916 1056.19 448.032 1053.47 448.234ZM1060.21 452.428C1058.53 452.428 1057.95 453.902 1057.95 455.233C1057.95 456.447 1058.94 457.084 1060.12 457.084C1061.4 457.084 1062.52 456.361 1062.52 455.059C1062.52 453.7 1061.74 452.428 1060.21 452.428ZM1077.72 458.212C1079.34 458.356 1081.02 458.472 1082.76 458.559C1082.76 456.158 1082.84 453.7 1082.96 451.126C1082.99 450.403 1084.06 449.998 1085.13 449.998C1086.17 449.998 1087.21 450.374 1087.24 451.213C1087.38 453.816 1087.47 456.303 1087.59 458.674H1088.97C1091.32 458.674 1093.63 458.616 1095.83 458.501C1096.52 458.472 1096.87 459.224 1096.87 460.005C1096.87 460.785 1096.52 461.624 1095.74 461.769C1092.36 462.376 1087.56 462.694 1083.36 462.694C1081.25 462.694 1079.31 462.607 1077.78 462.463C1077.06 462.405 1076.74 461.277 1076.74 460.207C1076.74 459.137 1077.06 458.125 1077.72 458.212ZM1079.78 444.156C1079.02 444.156 1078.62 443.231 1078.62 442.335C1078.62 441.554 1078.94 440.802 1079.6 440.773C1081.66 440.657 1084.58 440.628 1087.35 440.628C1089.2 440.628 1090.97 440.628 1092.33 440.686C1094.32 440.744 1094.5 441.872 1094.64 443.809C1094.82 446.412 1094.96 449.217 1094.96 451.907C1094.96 452.659 1094.96 453.411 1094.93 454.134C1094.9 454.799 1093.63 455.175 1092.41 455.175C1091.23 455.175 1090.1 454.828 1090.16 454.018C1090.25 452.804 1090.3 451.618 1090.3 450.403C1090.3 448.668 1090.22 446.933 1090.07 445.198C1090.01 444.532 1089.81 444.243 1089.12 444.214C1087.24 444.156 1085.45 444.128 1083.65 444.128C1082.38 444.128 1081.11 444.128 1079.78 444.156ZM1105.57 467.032C1105.46 467.408 1104.99 467.582 1104.45 467.582C1103.43 467.582 1102.13 467.032 1102.36 466.483C1102.68 465.702 1102.94 464.921 1103.09 464.14C1101.84 464.082 1100.69 463.735 1100.74 463.128C1100.83 461.769 1100.89 460.38 1100.89 459.021C1100.89 458.472 1102.02 458.183 1103.17 458.183C1104.39 458.183 1105.63 458.501 1105.75 459.166C1105.98 460.438 1106.09 461.653 1106.09 462.868C1106.09 464.314 1105.92 465.702 1105.57 467.032ZM922.627 491.295C921.702 492.307 917.277 489.936 918.636 488.779C922.02 485.945 923.871 482.677 923.9 478.744C923.9 477.934 925.028 477.5 926.126 477.5C927.081 477.5 928.006 477.847 928.035 478.599C928.035 478.889 928.064 479.149 928.064 479.438C928.064 480.826 927.862 482.185 927.515 483.458C930.117 484.759 932.315 486.35 933.993 488.201C935.034 489.358 932.952 491.295 931.592 491.295C931.274 491.295 931.014 491.179 930.811 490.948C929.539 489.386 928.006 487.94 926.213 486.726C925.317 488.374 924.102 489.878 922.627 491.295ZM931.072 501.88C931.043 499.855 931.187 496.906 931.39 494.534C931.448 493.609 931.939 493.204 932.489 493.117C933.183 493.001 934.05 492.972 934.947 492.972C936.075 492.972 937.261 493.059 938.215 493.262C938.996 493.435 939.285 493.898 939.372 494.823C939.516 496.067 939.574 497.802 939.574 499.393C939.574 500.231 939.545 501.07 939.516 501.735C939.458 503.528 937.232 504.483 935.092 504.483C933.067 504.483 931.13 503.644 931.072 501.88ZM930.493 498.149C930.551 499.566 929.944 500.029 928.903 500.058C927.804 500.087 926.878 500.116 925.953 500.174C925.635 500.202 925.49 501.359 925.982 501.359H926.965C928.006 501.359 928.961 501.33 930.031 501.244C930.493 501.215 930.783 502.024 930.783 502.747C930.783 503.239 930.638 503.702 930.32 503.76C928.729 504.078 927.283 504.222 925.808 504.222C925.056 504.222 924.305 504.193 923.495 504.107C922.714 504.02 922.222 503.441 922.164 502.574C922.136 502.082 922.107 501.533 922.107 500.954C922.107 500.26 922.136 499.508 922.164 498.814C922.222 497.918 922.801 497.426 923.726 497.368C924.767 497.31 925.779 497.31 926.936 497.31C927.225 497.31 927.254 496.096 926.821 496.067C926.098 496.009 925.432 496.009 924.767 496.009C924.218 496.009 923.639 496.009 923.061 496.038C922.569 496.067 922.309 495.257 922.309 494.476C922.309 493.753 922.511 493.059 922.974 493.03C924.189 492.972 925.288 492.944 926.387 492.944C927.168 492.944 927.948 492.944 928.787 492.972C929.77 493.001 930.06 493.609 930.204 494.563C930.349 495.604 930.436 496.703 930.493 498.149ZM935.092 490.717C935.236 489.242 935.323 487.564 935.323 485.771C935.323 483.602 935.207 481.289 935.092 478.975C935.034 478.252 936.046 477.819 937.058 477.819C937.926 477.819 938.764 478.137 938.909 478.86C939.14 480.074 939.314 481.347 939.458 482.619C940.268 482.59 941.078 482.619 941.83 482.648C942.524 482.677 942.871 483.516 942.871 484.412C942.871 485.424 942.408 486.523 941.483 486.523C940.847 486.523 940.297 486.523 939.719 486.552C939.719 487.131 939.748 487.68 939.748 488.23C939.748 489.184 939.719 490.081 939.661 490.948C939.632 491.642 938.504 491.989 937.405 491.989C936.219 491.989 935.005 491.584 935.092 490.717ZM936.133 496.24C936.133 496.038 936.017 495.951 935.815 495.893C935.496 495.836 935.063 495.864 934.831 495.922C934.629 495.98 934.6 496.096 934.6 496.269C934.571 497.282 934.571 498.467 934.571 499.566V500.897C934.571 501.215 934.947 501.388 935.352 501.388C935.728 501.388 936.133 501.215 936.162 500.839C936.162 500.26 936.191 499.624 936.191 498.959C936.191 498.033 936.162 497.05 936.133 496.24ZM953.387 477.443C958.39 477.443 961.687 480.19 961.687 483.313C961.687 486.35 959.113 488.23 953.387 488.23C947.776 488.23 945.173 486.437 945.173 483.545C945.173 480.161 948.383 477.443 953.387 477.443ZM960.414 499.017C960.472 500.347 959.865 500.81 958.823 500.81C956.018 500.81 953.849 500.839 951.102 500.897C950.784 500.897 950.755 502.024 951.073 502.024C952.085 502.053 953.039 502.082 953.994 502.082C956.163 502.082 958.274 501.995 960.501 501.851C960.964 501.793 961.253 502.545 961.253 503.181C961.253 503.644 961.108 504.049 960.79 504.107C958.187 504.627 955.411 504.916 952.664 504.916C951.015 504.916 949.396 504.83 947.834 504.598C947.053 504.483 946.561 503.731 946.504 502.892C946.475 502.343 946.446 501.793 946.446 501.244C946.446 500.694 946.475 500.174 946.504 499.624C946.561 498.756 947.14 498.294 948.065 498.265C949.598 498.207 950.928 498.207 952.201 498.207H955.96C956.192 498.207 956.221 497.224 955.845 497.195C954.138 497.108 952.606 497.05 951.131 497.05C949.887 497.05 948.673 497.079 947.4 497.166C946.908 497.195 946.648 496.443 946.648 495.691C946.648 494.997 946.851 494.332 947.313 494.303C949.193 494.129 951.044 494.043 952.837 494.043C954.833 494.043 956.77 494.129 958.708 494.245C959.691 494.303 959.98 494.881 960.125 495.749C960.269 496.761 960.356 497.629 960.414 499.017ZM944.421 489.039C948.644 489.242 953.271 489.386 957.667 489.386C959.344 489.386 960.964 489.386 962.525 489.329C963.219 489.3 963.566 489.965 963.566 490.659C963.566 491.324 963.219 492.018 962.438 492.076C957.956 492.481 952.924 492.741 948.181 492.741C946.937 492.741 945.694 492.712 944.479 492.683C943.756 492.683 943.438 491.758 943.438 490.832C943.438 489.907 943.756 489.01 944.421 489.039ZM953.444 480.855C950.437 480.855 949.367 482.041 949.367 483.255C949.367 484.325 951.131 484.846 953.387 484.846C955.556 484.846 957.696 484.297 957.696 483.14C957.696 481.838 956.221 480.855 953.444 480.855ZM978.613 492.192C978.67 492.886 979.364 493.088 980.03 493.146C980.753 493.204 981.562 493.233 982.343 493.233C984.021 493.233 985.756 493.117 987.317 492.915C987.896 492.857 988.33 493.84 988.33 494.708C988.33 495.286 988.156 495.836 987.693 495.951C985.293 496.616 982.806 497.05 980.348 497.05C978.902 497.05 977.456 496.906 976.068 496.559C975.084 496.327 974.477 495.489 974.332 494.563C974.217 493.782 974.159 492.654 974.159 491.382C974.159 488.606 974.419 485.193 974.708 483.516C974.911 482.504 975.721 481.925 976.646 481.838C977.832 481.723 979.017 481.665 980.232 481.665C982.256 481.665 984.31 481.809 986.276 482.012C987.086 482.099 987.462 482.908 987.462 483.718C987.462 484.586 987.028 485.424 986.218 485.424C984.657 485.424 981.157 485.453 979.567 485.685C978.988 485.771 978.757 486.205 978.699 486.813C978.584 487.969 978.526 489.097 978.526 490.196C978.526 490.861 978.555 491.526 978.613 492.192ZM990.065 499.364C990.325 497.108 990.441 494.129 990.47 491.035H989.053C987.896 491.035 986.768 491.035 985.611 491.064C984.83 491.093 984.454 490.081 984.454 489.126C984.454 488.316 984.715 487.536 985.264 487.507C986.594 487.42 987.925 487.391 989.255 487.391H990.47C990.441 485.367 990.383 483.371 990.325 481.578C990.296 480.797 991.337 480.335 992.349 480.335C993.188 480.335 993.998 480.653 994.142 481.433C994.721 484.991 994.981 489.589 994.981 493.753C994.981 495.864 994.923 497.889 994.779 499.566C994.721 500.26 993.709 500.549 992.639 500.549C991.337 500.549 989.978 500.116 990.065 499.364ZM1009.67 496.963C1008.83 498.005 1004.41 495.662 1005.68 494.39C1008.8 491.266 1010.88 487.044 1010.94 482.07C1010.97 481.26 1012.1 480.797 1013.17 480.797C1014.12 480.797 1015.05 481.144 1015.08 481.925C1015.08 482.243 1015.11 482.59 1015.11 482.908C1015.11 484.701 1014.9 486.35 1014.5 487.912C1016.93 489.502 1019.18 491.526 1020.75 493.493C1021.7 494.737 1019.65 496.674 1018.34 496.674C1018.03 496.674 1017.74 496.559 1017.56 496.298C1016.47 494.621 1014.87 492.915 1013.23 491.411C1012.3 493.406 1011.06 495.228 1009.67 496.963ZM1021.87 499.364C1022.19 496.761 1022.28 493.233 1022.28 489.676C1022.28 486.87 1022.22 484.036 1022.13 481.578C1022.1 480.797 1023.15 480.335 1024.16 480.335C1025 480.335 1025.81 480.653 1025.95 481.433C1026.21 483.14 1026.41 485.077 1026.56 487.102C1027.37 487.102 1028.15 487.102 1028.9 487.131C1029.59 487.16 1029.94 487.998 1029.94 488.895C1029.94 489.907 1029.48 491.006 1028.55 491.006C1027.92 491.006 1027.34 491.006 1026.76 491.035C1026.79 491.874 1026.79 492.712 1026.79 493.522C1026.79 495.749 1026.7 497.831 1026.59 499.566C1026.53 500.26 1025.52 500.549 1024.45 500.549C1023.15 500.549 1021.79 500.116 1021.87 499.364ZM1044.65 485.193C1044.65 486.032 1044.27 486.784 1042.94 486.784C1040.92 486.784 1038.78 486.813 1036.73 486.899C1036.18 486.928 1035.83 487.246 1035.83 487.767C1035.83 488.085 1035.83 488.287 1035.89 488.692C1035.97 489.271 1036.67 489.358 1037.31 489.386C1037.88 489.386 1038.46 489.415 1039.04 489.415C1040.86 489.415 1042.74 489.329 1044.53 489.184C1045.11 489.155 1045.52 489.936 1045.52 490.63C1045.52 491.122 1045.34 491.555 1044.88 491.671C1042.63 492.221 1040.05 492.597 1037.45 492.597C1036 492.597 1034.53 492.481 1033.08 492.221C1032.1 492.047 1031.52 491.295 1031.43 490.456C1031.38 489.618 1031.35 488.837 1031.35 488.027C1031.35 487.217 1031.38 486.408 1031.43 485.482C1031.49 484.586 1032.22 484.065 1033.37 484.007C1034.41 483.95 1035.57 483.921 1036.76 483.921C1037.71 483.921 1038.69 483.95 1039.62 483.95C1040.17 483.95 1040.43 483.776 1040.4 483.255C1040.37 482.879 1040.37 482.475 1040.31 482.156C1040.25 481.752 1039.91 481.665 1039.39 481.636C1038.17 481.578 1036.93 481.549 1035.66 481.549C1034.56 481.549 1033.46 481.578 1032.39 481.607C1031.78 481.636 1031.43 480.826 1031.43 480.016C1031.43 479.293 1031.69 478.57 1032.27 478.542C1034.12 478.368 1036.12 478.281 1038.11 478.281C1039.59 478.281 1041.09 478.339 1042.54 478.426C1043.75 478.513 1044.13 479.12 1044.3 480.074C1044.51 481.115 1044.68 483.371 1044.65 485.193ZM1044.13 493.84C1048.06 493.84 1050.67 496.616 1050.67 499.855C1050.67 502.921 1048.64 504.83 1044.16 504.83C1039.76 504.83 1037.74 503.008 1037.74 500.058C1037.74 496.587 1040.25 493.84 1044.13 493.84ZM1046.7 492.076C1046.85 490.485 1046.94 488.577 1046.94 486.552C1046.94 484.094 1046.82 481.491 1046.7 479.062C1046.65 478.281 1047.69 477.819 1048.7 477.819C1049.54 477.819 1050.38 478.137 1050.52 478.917C1050.78 480.421 1050.98 482.041 1051.13 483.718C1051.91 483.718 1052.72 483.718 1053.44 483.747C1054.14 483.776 1054.48 484.615 1054.48 485.511C1054.48 486.523 1054.02 487.622 1053.1 487.622C1052.49 487.622 1051.91 487.622 1051.33 487.651C1051.36 488.259 1051.36 488.808 1051.36 489.386C1051.36 490.428 1051.33 491.411 1051.27 492.307C1051.24 493.03 1050.12 493.406 1049.02 493.406C1047.8 493.406 1046.62 492.972 1046.7 492.076ZM1044.25 497.368C1042.42 497.368 1041.76 498.641 1041.76 499.769C1041.76 500.781 1042.86 501.33 1044.16 501.33C1045.49 501.33 1046.76 500.752 1046.76 499.711C1046.76 498.409 1045.87 497.368 1044.25 497.368ZM1067.31 499.075C1067.6 496.385 1067.69 492.799 1067.69 489.184C1067.69 486.581 1067.66 483.921 1067.57 481.578C1067.54 480.797 1068.5 480.335 1069.39 480.335C1070.18 480.335 1070.9 480.653 1071.01 481.433C1071.3 483.458 1071.51 485.743 1071.65 488.114C1072.2 488.085 1072.75 488.114 1073.3 488.114C1073.27 485.829 1073.24 483.574 1073.18 481.578C1073.15 480.797 1074.11 480.335 1075.03 480.335C1075.81 480.335 1076.57 480.653 1076.71 481.433C1077.23 484.991 1077.49 489.647 1077.49 493.811C1077.49 495.922 1077.41 497.918 1077.29 499.566C1077.23 500.26 1076.31 500.549 1075.29 500.549C1074.11 500.549 1072.84 500.116 1072.92 499.364C1073.13 497.31 1073.24 494.679 1073.27 491.931C1072.78 491.902 1072.29 491.902 1071.77 491.902C1071.77 492.481 1071.8 493.059 1071.8 493.609C1071.8 495.662 1071.71 497.629 1071.59 499.277C1071.53 499.971 1070.64 500.26 1069.65 500.26C1068.5 500.26 1067.23 499.826 1067.31 499.075ZM1061.04 487.189C1064.33 487.189 1066.53 490.109 1066.53 493.493C1066.53 496.761 1064.85 498.785 1061.07 498.785C1057.36 498.785 1055.66 496.848 1055.66 493.667C1055.66 490.081 1057.77 487.189 1061.04 487.189ZM1055.98 486.581C1055.34 486.639 1055.02 485.685 1055.02 484.701C1055.02 483.747 1055.34 482.793 1056 482.764H1059.19C1059.21 481.809 1059.24 480.566 1059.24 479.756C1059.24 479.207 1060.08 478.917 1060.95 478.917C1061.85 478.917 1062.77 479.236 1062.89 479.901C1063 480.768 1063.06 481.983 1063.12 482.908L1066.13 483.082C1066.85 483.111 1067.2 483.921 1067.2 484.73C1067.2 485.54 1066.85 486.379 1066.18 486.35C1065.2 486.321 1064.19 486.292 1063.18 486.292C1060.78 486.292 1058.35 486.408 1055.98 486.581ZM1061.12 490.659C1059.97 490.659 1059.62 492.105 1059.62 493.406C1059.62 494.592 1060.28 495.199 1061.04 495.199C1061.93 495.199 1062.69 494.505 1062.69 493.233C1062.69 491.902 1062.16 490.659 1061.12 490.659ZM1090.19 478.079C1095.48 478.079 1099.04 482.041 1099.04 486.552C1099.04 488.982 1098.17 490.919 1096.38 492.134C1096.47 493.58 1096.52 495.141 1096.64 496.616C1097.54 496.587 1098.43 496.559 1099.3 496.501C1100 496.472 1100.34 497.224 1100.34 498.005C1100.34 498.785 1100 499.624 1099.21 499.769C1095.83 500.376 1091.03 500.694 1086.84 500.694C1084.73 500.694 1082.79 500.607 1081.26 500.463C1080.53 500.405 1080.21 499.277 1080.21 498.207C1080.21 497.137 1080.53 496.125 1081.2 496.212C1082.12 496.298 1083.08 496.385 1084.06 496.443C1084.09 495.055 1084.12 493.753 1084.21 492.278C1082.33 491.122 1081.46 489.242 1081.46 486.813C1081.46 482.012 1084.9 478.079 1090.19 478.079ZM1090.28 481.665C1087.15 481.665 1086.08 484.354 1086.08 486.784C1086.08 488.953 1087.94 490.109 1090.19 490.109C1092.39 490.109 1094.56 488.837 1094.56 486.581C1094.56 483.892 1093.11 481.665 1090.28 481.665ZM1092.07 496.674C1092.07 495.604 1092.1 494.592 1092.16 493.522C1091.55 493.609 1090.89 493.638 1090.19 493.638C1089.56 493.638 1088.98 493.638 1088.43 493.58C1088.49 494.592 1088.54 495.633 1088.63 496.645C1089.76 496.674 1090.91 496.674 1092.07 496.674ZM1104.36 497.021C1104.36 496.472 1105.49 496.183 1106.65 496.183C1107.86 496.183 1109.1 496.501 1109.22 497.166C1109.45 498.583 1109.57 499.971 1109.57 501.33C1109.57 501.88 1108.35 502.169 1107.08 502.169C1105.66 502.169 1104.16 501.822 1104.22 501.128C1104.3 499.769 1104.36 498.38 1104.36 497.021Z" fill="white"/>
<path d="M928.016 370.304C928.955 370.261 929.701 370.432 930.256 370.816C930.853 371.2 931.323 371.691 931.664 372.288C932.005 372.843 932.24 373.44 932.368 374.08C932.496 374.72 932.581 375.275 932.624 375.744C932.923 379.243 933.136 382.72 933.264 386.176C933.435 389.589 933.52 393.024 933.52 396.48C933.52 402.411 933.264 408.256 932.752 414.016C932.667 414.741 932.155 415.275 931.216 415.616C930.32 415.915 929.275 416.064 928.08 416.064C927.312 416.064 926.523 416 925.712 415.872C924.944 415.744 924.24 415.573 923.6 415.36C923.003 415.104 922.512 414.805 922.128 414.464C921.787 414.123 921.637 413.739 921.68 413.312C922.277 407.509 922.725 401.835 923.024 396.288C923.365 390.699 923.6 384.917 923.728 378.944C922.875 379.2 922.021 379.413 921.168 379.584C920.357 379.712 919.525 379.819 918.672 379.904C918.245 379.947 917.861 379.819 917.52 379.52C917.221 379.221 916.944 378.816 916.688 378.304C916.475 377.749 916.304 377.152 916.176 376.512C916.091 375.829 916.048 375.147 916.048 374.464C916.048 373.397 916.197 372.459 916.496 371.648C916.795 370.837 917.264 370.453 917.904 370.496C918.416 370.539 918.907 370.56 919.376 370.56C919.888 370.56 920.4 370.56 920.912 370.56C922.107 370.56 923.28 370.539 924.432 370.496C925.627 370.453 926.821 370.389 928.016 370.304ZM972.485 388.416C973.381 388.416 974.234 388.331 975.045 388.16C975.898 387.989 976.645 387.733 977.285 387.392C977.925 387.008 978.437 386.539 978.821 385.984C979.248 385.387 979.461 384.683 979.461 383.872C979.461 381.995 978.97 380.416 977.989 379.136C977.008 377.856 975.386 377.216 973.125 377.216C971.504 377.216 969.754 377.387 967.877 377.728C966.042 378.027 964.165 378.517 962.245 379.2C961.818 379.371 961.434 379.349 961.093 379.136C960.752 378.923 960.453 378.603 960.197 378.176C959.984 377.749 959.813 377.237 959.685 376.64C959.557 376.043 959.493 375.445 959.493 374.848C959.493 373.909 959.642 373.077 959.941 372.352C960.282 371.584 960.816 371.136 961.541 371.008C963.802 370.539 965.936 370.197 967.941 369.984C969.946 369.728 971.845 369.6 973.637 369.6C976.154 369.6 978.373 370.005 980.293 370.816C982.256 371.584 983.898 372.629 985.221 373.952C986.586 375.275 987.61 376.811 988.293 378.56C988.976 380.267 989.317 382.08 989.317 384C989.317 388.139 987.44 391.147 983.685 393.024C985.477 394.261 986.885 395.776 987.909 397.568C988.976 399.317 989.509 401.301 989.509 403.52C989.509 407.659 988.165 410.795 985.477 412.928C982.789 415.019 978.544 416.064 972.741 416.064C971.12 416.064 969.413 416.021 967.621 415.936C965.829 415.808 963.973 415.637 962.053 415.424C961.328 415.339 960.773 414.827 960.389 413.888C960.048 412.907 959.877 411.84 959.877 410.688C959.877 410.048 959.92 409.429 960.005 408.832C960.133 408.235 960.304 407.723 960.517 407.296C960.73 406.827 960.986 406.464 961.285 406.208C961.626 405.952 962.032 405.867 962.501 405.952C964.634 406.336 966.469 406.699 968.005 407.04C969.584 407.339 971.077 407.488 972.485 407.488C973.296 407.488 974.128 407.424 974.981 407.296C975.834 407.125 976.581 406.869 977.221 406.528C977.904 406.187 978.458 405.739 978.885 405.184C979.312 404.629 979.525 403.925 979.525 403.072C979.525 399.019 977.029 396.821 972.037 396.48C971.738 396.437 971.44 396.416 971.141 396.416C970.842 396.416 970.522 396.416 970.181 396.416C969.456 396.416 968.688 396.437 967.877 396.48C967.109 396.48 966.341 396.501 965.573 396.544C964.933 396.544 964.464 396.117 964.165 395.264C963.866 394.411 963.717 393.429 963.717 392.32C963.717 391.765 963.738 391.232 963.781 390.72C963.866 390.208 963.973 389.739 964.101 389.312C964.272 388.885 964.464 388.565 964.677 388.352C964.933 388.096 965.21 387.968 965.509 387.968C965.978 387.968 966.512 388.011 967.109 388.096C967.706 388.139 968.325 388.181 968.965 388.224C969.605 388.267 970.224 388.309 970.821 388.352C971.418 388.395 971.973 388.416 972.485 388.416ZM1034.13 371.648C1034.13 370.795 1034.59 370.155 1035.53 369.728C1036.47 369.259 1037.5 369.024 1038.61 369.024C1039.63 369.024 1040.59 369.237 1041.49 369.664C1042.38 370.091 1042.87 370.773 1042.96 371.712C1043.3 375.168 1043.53 378.56 1043.66 381.888C1043.83 385.216 1043.92 388.544 1043.92 391.872C1043.92 393.109 1043.9 394.368 1043.85 395.648C1043.85 396.928 1043.83 398.208 1043.79 399.488L1046.73 399.104C1047.37 399.061 1047.91 399.467 1048.33 400.32C1048.76 401.131 1048.97 402.005 1048.97 402.944C1048.97 403.541 1048.87 404.096 1048.65 404.608C1048.44 405.12 1048.08 405.44 1047.57 405.568C1046.97 405.739 1046.31 405.888 1045.58 406.016C1044.9 406.144 1044.19 406.272 1043.47 406.4C1043.38 407.723 1043.3 409.045 1043.21 410.368C1043.13 411.648 1043.04 412.971 1042.96 414.336C1042.87 415.061 1042.38 415.595 1041.49 415.936C1040.59 416.277 1039.57 416.448 1038.41 416.448C1037.69 416.448 1036.94 416.384 1036.17 416.256C1035.45 416.128 1034.79 415.957 1034.19 415.744C1033.59 415.488 1033.12 415.189 1032.78 414.848C1032.44 414.507 1032.29 414.123 1032.33 413.696L1032.85 407.872C1031.35 408.043 1029.88 408.171 1028.43 408.256C1026.98 408.299 1025.57 408.32 1024.21 408.32C1023.22 408.32 1022.26 408.299 1021.33 408.256C1020.43 408.213 1019.58 408.149 1018.77 408.064C1016.59 407.808 1015.16 407.168 1014.48 406.144C1013.84 405.077 1013.6 403.584 1013.77 401.664C1014.11 397.952 1014.37 394.283 1014.54 390.656C1014.71 386.987 1014.8 383.275 1014.8 379.52C1014.8 378.667 1014.8 377.813 1014.8 376.96C1014.8 376.107 1014.78 375.253 1014.73 374.4C1014.73 373.973 1014.86 373.589 1015.12 373.248C1015.42 372.907 1015.8 372.629 1016.27 372.416C1016.78 372.16 1017.34 371.968 1017.93 371.84C1018.53 371.712 1019.13 371.648 1019.73 371.648C1020.79 371.648 1021.73 371.861 1022.54 372.288C1023.39 372.672 1023.86 373.291 1023.95 374.144C1024.16 377.088 1024.33 380.011 1024.46 382.912C1024.59 385.771 1024.65 388.672 1024.65 391.616C1024.65 392.725 1024.63 393.813 1024.59 394.88C1024.59 395.947 1024.57 397.035 1024.53 398.144C1024.48 398.912 1024.8 399.467 1025.49 399.808C1026.21 400.107 1026.94 400.277 1027.66 400.32C1028.13 400.363 1028.6 400.384 1029.07 400.384C1029.54 400.384 1030.01 400.384 1030.48 400.384C1030.95 400.384 1031.42 400.384 1031.89 400.384C1032.4 400.384 1032.89 400.363 1033.36 400.32C1033.61 396.053 1033.81 391.808 1033.93 387.584C1034.06 383.36 1034.13 379.029 1034.13 374.592V371.648Z" fill="white"/>
<path d="M762.143 751.842L739.518 723.627C737.66 721.312 736.703 718.402 736.825 715.44L738.279 679.304C738.486 674.177 741.852 669.716 746.726 668.112L790.213 653.805C795.087 652.202 800.443 653.793 803.655 657.796L826.279 686.01C828.137 688.325 829.095 691.235 828.973 694.197L827.519 730.333C827.311 735.461 823.946 739.922 819.072 741.525L775.589 755.831C770.715 757.434 765.358 755.843 762.147 751.841L762.143 751.842Z" fill="#FEDE83"/>
<path d="M762.143 751.842L739.518 723.627C737.66 721.312 736.703 718.402 736.825 715.44L738.279 679.304C738.486 674.177 741.852 669.716 746.726 668.112L790.213 653.805C795.087 652.202 800.443 653.793 803.655 657.796L826.279 686.01C828.137 688.325 829.095 691.235 828.973 694.197L827.519 730.333C827.311 735.461 823.946 739.922 819.072 741.525L775.589 755.831C770.715 757.434 765.358 755.843 762.147 751.841L762.143 751.842Z" fill="#EFBF60"/>
<path d="M817.419 733.656L818.873 697.52C818.993 694.554 818.036 691.644 816.179 689.333L793.554 661.118C790.343 657.116 784.986 655.525 780.112 657.128L746.73 668.111C741.856 669.714 738.49 674.175 738.283 679.302L736.829 715.438C736.708 718.405 737.665 721.314 739.522 723.626L762.147 751.84C765.358 755.843 770.715 757.434 775.589 755.831L808.972 744.848C813.846 743.244 817.211 738.783 817.419 733.656Z" fill="#FDCF6A"/>
<path d="M764.242 712.263C769.468 710.971 772.658 705.688 771.366 700.461C770.075 695.235 764.791 692.045 759.565 693.337C754.338 694.628 751.149 699.912 752.44 705.138C753.731 710.365 759.015 713.554 764.242 712.263Z" fill="white"/>
<path d="M759.565 693.337C754.341 694.628 751.148 699.91 752.44 705.138C753.07 707.688 754.654 709.75 756.713 711.046C758.112 711.345 759.598 711.341 761.081 710.974C766.305 709.684 769.498 704.401 768.206 699.173C767.576 696.623 765.993 694.561 763.933 693.265C762.534 692.967 761.048 692.97 759.565 693.337Z" fill="#1C1C1C"/>
<path d="M785.842 706.924C791.068 705.633 794.258 700.349 792.967 695.123C791.675 689.897 786.392 686.707 781.165 687.998C775.939 689.29 772.749 694.574 774.041 699.8C775.332 705.026 780.616 708.216 785.842 706.924Z" fill="white"/>
<path d="M781.165 687.998C775.941 689.289 772.749 694.572 774.041 699.8C774.671 702.35 776.254 704.412 778.313 705.708C779.713 706.006 781.199 706.003 782.682 705.636C787.906 704.345 791.099 699.062 789.807 693.835C789.177 691.285 787.593 689.223 785.534 687.927C784.134 687.628 782.648 687.632 781.165 687.998Z" fill="#1C1C1C"/>
<path d="M776.48 717.038C769.345 718.801 763.642 716.7 763.556 716.667C763.246 716.55 763.089 716.2 763.207 715.89C763.324 715.581 763.674 715.424 763.984 715.541C764.106 715.586 776.222 720.022 786.952 709.837C787.192 709.608 787.575 709.617 787.803 709.858C788.032 710.099 788.024 710.481 787.782 710.706C784.008 714.29 780.065 716.148 776.483 717.033L776.48 717.038Z" fill="#1C1C1C"/>
<path d="M668.903 587.116C738.724 650.015 692.616 726.389 604.435 693.903C541.535 763.723 465.161 717.616 497.648 629.436C427.825 566.529 473.935 490.163 562.116 522.65C625.016 452.829 701.391 498.936 668.903 587.116Z" fill="#9BC1E3"/>
<path d="M668.903 587.116C738.724 650.015 692.616 726.389 604.435 693.903C541.535 763.723 465.161 717.616 497.648 629.436C427.825 566.529 473.935 490.163 562.116 522.65C625.016 452.829 701.391 498.936 668.903 587.116Z" fill="#C4A2CC"/>
<path d="M645.698 592.851C667.79 532.866 639.524 492.366 599.382 494.562C587.049 499.915 574.33 509.088 562.117 522.641C557.551 520.958 553.105 519.583 548.77 518.473C545.458 521.472 542.165 524.76 538.9 528.378C521.788 522.072 506.263 519.888 492.854 520.887C456.31 537.641 450.153 586.647 497.65 629.435C475.558 689.42 503.832 729.918 543.965 727.724C556.299 722.371 569.018 713.198 581.231 699.646C585.797 701.328 590.243 702.704 594.578 703.814C597.89 700.814 601.183 697.526 604.448 693.909C621.568 700.212 637.096 702.405 650.503 701.398C687.047 684.644 693.204 635.637 645.706 592.849L645.698 592.851Z" fill="#DFBDE6"/>
<path d="M569.531 632.853C554.212 636.638 541.968 632.126 541.783 632.057C541.117 631.805 540.781 631.054 541.033 630.389C541.286 629.723 542.036 629.387 542.702 629.64C542.964 629.734 568.977 639.259 592.011 617.393C592.528 616.901 593.349 616.92 593.84 617.437C594.331 617.954 594.312 618.775 593.793 619.258C585.692 626.952 577.225 630.942 569.537 632.842L569.531 632.853Z" fill="#1C1C1C"/>
<path d="M537.963 620.802C531.014 620.882 526.888 614.016 525.609 610.048C525.383 609.334 525.773 608.567 526.487 608.332C527.21 608.106 527.968 608.497 528.203 609.211C528.344 609.635 531.623 619.424 539.454 617.927C548.688 616.142 551.429 609.124 552.244 605.105C552.39 604.368 553.12 603.888 553.847 604.043C554.584 604.189 555.064 604.909 554.909 605.646C554.145 609.42 551.155 618.436 539.966 620.598C539.278 620.733 538.607 620.795 537.963 620.802Z" fill="#1C1C1C"/>
<path d="M588.788 608.305C594.982 605.154 595.453 597.157 594.747 593.048C594.616 592.311 593.915 591.812 593.173 591.935C592.428 592.07 591.937 592.768 592.06 593.509C592.132 593.951 593.766 604.144 586.134 606.449C577.125 609.15 571.442 604.203 568.856 601.02C568.385 600.435 567.516 600.348 566.943 600.822C566.358 601.293 566.267 602.154 566.746 602.735C569.173 605.724 576.003 612.326 586.919 609.053C587.591 608.853 588.214 608.597 588.788 608.305Z" fill="#1C1C1C"/>
<path d="M620.638 1053.58C961.905 802.244 1383.86 636.167 1983.85 688.719L2119 1086.73C1467.58 1177.78 441.663 1185.39 620.638 1053.58Z" fill="#2A4270" fill-opacity="0.63"/>
<path d="M1089.03 1046.64C812.47 795.549 228.447 752.436 -28.9951 762.265L-149 1087.62C378.911 1178.58 1365.59 1297.72 1089.03 1046.64Z" fill="#3075B5"/>
<path d="M791.507 489.522L747.872 444.651L747.765 444.543C747.708 444.485 747.651 444.424 747.594 444.37L747.445 444.219C746.423 443.215 745.084 442.665 743.663 442.665C743.638 442.665 743.609 442.665 743.584 442.665C742.135 442.686 740.781 443.276 739.77 444.327C738.612 445.533 738.071 447.177 738.281 448.85V460.599C738.281 463.625 740.714 466.09 743.709 466.09C746.423 466.09 748.677 464.064 749.072 461.426L783.829 497.28C784.854 498.317 786.215 498.889 787.664 498.889C789.114 498.889 790.478 498.317 791.5 497.28C792.526 496.244 793.089 494.866 793.089 493.398C793.089 491.93 792.526 490.555 791.504 489.519L791.507 489.522Z" fill="#6FB7E7"/>
<path d="M874.931 371.605C865.059 361.616 851.931 356.074 837.963 355.999H837.685C825.662 355.999 813.969 360.173 804.667 367.769C795.361 360.169 783.676 355.999 771.641 355.999C771.552 355.999 771.46 355.999 771.371 355.999C757.41 356.071 744.282 361.616 734.406 371.605C716.656 389.564 713.917 417.886 727.892 438.944C729.559 441.456 732.939 442.128 735.421 440.441C737.904 438.753 738.57 435.335 736.903 432.823C725.813 416.109 727.989 393.63 742.085 379.37C758.208 363.055 784.584 362.904 800.877 379.035C802.972 381.108 806.373 381.108 808.467 379.035C824.764 362.907 851.137 363.055 867.259 379.37C883.072 395.368 883.129 421.031 867.388 439.073C867.37 439.095 867.277 439.199 867.128 439.394C865.593 441.355 857.205 451.84 842.675 465.676L804.745 502.588L803.046 500.868C800.931 498.727 797.487 498.727 795.371 500.868C793.256 503.009 793.256 506.492 795.371 508.633L800.835 514.16C801.86 515.196 803.221 515.769 804.67 515.769C806.12 515.769 807.416 515.225 808.431 514.236L850.143 473.646C864.752 459.732 873.282 449.217 875.622 446.227C884.778 435.684 889.868 422.384 889.95 408.772C890.035 394.692 884.704 381.489 874.931 371.605Z" fill="#6FB7E7"/>
<path d="M804.467 443.802C802.733 443.802 801.031 443.118 799.756 441.826L799.421 441.488C790.236 432.193 785.136 419.837 785.057 406.692C784.979 393.558 789.922 381.151 798.979 371.752C799.001 371.727 799.025 371.705 799.047 371.68L799.435 371.288C799.556 371.166 799.688 371.032 799.82 370.899C802.405 368.348 806.529 368.348 809.115 370.899C809.25 371.032 809.382 371.166 809.518 371.302L809.899 371.691C809.92 371.712 809.938 371.73 809.959 371.752C819.012 381.147 823.959 393.558 823.881 406.692C823.803 419.837 818.703 432.197 809.514 441.492C809.411 441.596 809.311 441.697 809.211 441.797C808.599 442.427 807.858 442.938 807.017 443.291C806.195 443.636 805.329 443.805 804.471 443.805L804.467 443.802ZM804.467 386.199C796.404 398.344 796.422 414.457 804.467 426.587C812.513 414.457 812.531 398.344 804.467 386.199Z" fill="#6FB7E7"/>
<path d="M779.507 488.522L735.872 443.651L735.765 443.543C735.708 443.485 735.651 443.424 735.594 443.37L735.445 443.219C734.423 442.215 733.084 441.665 731.663 441.665C731.638 441.665 731.609 441.665 731.584 441.665C730.135 441.686 728.781 442.276 727.77 443.327C726.612 444.533 726.071 446.177 726.281 447.85V459.599C726.281 462.625 728.714 465.09 731.709 465.09C734.423 465.09 736.677 463.064 737.072 460.426L771.829 496.28C772.854 497.317 774.215 497.889 775.664 497.889C777.114 497.889 778.478 497.317 779.5 496.28C780.526 495.244 781.089 493.866 781.089 492.398C781.089 490.93 780.526 489.555 779.504 488.519L779.507 488.522Z" fill="white"/>
<path d="M862.931 370.605C853.059 360.616 839.931 355.074 825.963 354.999H825.685C813.662 354.999 801.969 359.173 792.667 366.769C783.361 359.169 771.676 354.999 759.641 354.999C759.552 354.999 759.46 354.999 759.371 354.999C745.41 355.071 732.282 360.616 722.406 370.605C704.656 388.564 701.917 416.886 715.892 437.944C717.559 440.456 720.939 441.128 723.421 439.441C725.904 437.753 726.57 434.335 724.903 431.823C713.813 415.109 715.989 392.63 730.085 378.37C746.208 362.055 772.584 361.904 788.877 378.035C790.972 380.108 794.373 380.108 796.467 378.035C812.764 361.907 839.137 362.055 855.259 378.37C871.072 394.368 871.129 420.031 855.388 438.073C855.37 438.095 855.277 438.199 855.128 438.394C853.593 440.355 845.205 450.84 830.675 464.676L792.745 501.588L791.046 499.868C788.931 497.727 785.487 497.727 783.371 499.868C781.256 502.009 781.256 505.492 783.371 507.633L788.835 513.16C789.86 514.196 791.221 514.769 792.67 514.769C794.12 514.769 795.416 514.225 796.431 513.236L838.143 472.646C852.752 458.732 861.282 448.217 863.622 445.227C872.778 434.684 877.868 421.384 877.95 407.772C878.035 393.692 872.704 380.489 862.931 370.605Z" fill="white"/>
<path d="M792.467 442.802C790.733 442.802 789.031 442.118 787.756 440.826L787.421 440.488C778.236 431.193 773.136 418.837 773.057 405.692C772.979 392.558 777.922 380.151 786.979 370.752C787.001 370.727 787.025 370.705 787.047 370.68L787.435 370.288C787.556 370.166 787.688 370.032 787.82 369.899C790.405 367.348 794.529 367.348 797.115 369.899C797.25 370.032 797.382 370.166 797.518 370.302L797.899 370.691C797.92 370.712 797.938 370.73 797.959 370.752C807.012 380.147 811.959 392.558 811.881 405.692C811.803 418.837 806.703 431.197 797.514 440.492C797.411 440.596 797.311 440.697 797.211 440.797C796.599 441.427 795.858 441.938 795.017 442.291C794.195 442.636 793.329 442.805 792.471 442.805L792.467 442.802ZM792.467 385.199C784.404 397.344 784.422 413.457 792.467 425.587C800.513 413.457 800.531 397.344 792.467 385.199Z" fill="white"/>
</g>
<defs>
<linearGradient id="paint0_linear_1346_21820" x1="962.56" y1="436.451" x2="962.418" y2="979.001" gradientUnits="userSpaceOnUse">
<stop offset="0.216667" stop-color="#75C7EA"/>
<stop offset="1" stop-color="#7588EA"/>
</linearGradient>
<linearGradient id="paint1_linear_1346_21820" x1="962.56" y1="436.451" x2="962.418" y2="979.001" gradientUnits="userSpaceOnUse">
<stop offset="0.216667" stop-color="#75C7EA"/>
<stop offset="1" stop-color="#7588EA"/>
</linearGradient>
</defs>
</svg>
