<svg width="109" height="110" viewBox="0 0 109 110" fill="none" xmlns="http://www.w3.org/2000/svg">
<path d="M51.5 6.73205C53.3564 5.66025 55.6436 5.66025 57.5 6.73205L94.8013 28.268C96.6577 29.3397 97.8013 31.3205 97.8013 33.4641V76.5359C97.8013 78.6795 96.6577 80.6603 94.8013 81.732L57.5 103.268C55.6436 104.34 53.3564 104.34 51.5 103.268L14.1987 81.732C12.3423 80.6603 11.1987 78.6795 11.1987 76.5359V33.4641C11.1987 31.3205 12.3423 29.3397 14.1987 28.268L51.5 6.73205Z" fill="#D9D9D9"/>
<g clip-path="url(#clip0_81_6806)">
<circle cx="54.5" cy="55" r="12" fill="#F58548"/>
<path fill-rule="evenodd" clip-rule="evenodd" d="M60.7071 50.2929C61.0976 50.6834 61.0976 51.3166 60.7071 51.7071L53.7074 58.7071C53.3169 59.0976 52.6837 59.0976 52.2932 58.7071L48.7929 55.2071C48.4024 54.8166 48.4024 54.1835 48.7929 53.7929C49.1834 53.4024 49.8165 53.4024 50.2071 53.7929L53.0002 56.5858L59.2929 50.2929C59.6834 49.9024 60.3166 49.9024 60.7071 50.2929Z" fill="white"/>
</g>
<path d="M52 2.59808C53.547 1.70491 55.453 1.70491 57 2.59808L98.6314 26.634C100.178 27.5271 101.131 29.1778 101.131 30.9641V79.0359C101.131 80.8222 100.178 82.4729 98.6314 83.366L57 107.402C55.453 108.295 53.547 108.295 52 107.402L10.3686 83.366C8.8216 82.4729 7.8686 80.8222 7.8686 79.0359V30.9641C7.8686 29.1778 8.8216 27.5271 10.3686 26.634L52 2.59808Z" stroke="#F58548" stroke-width="2"/>
<mask id="mask0_81_6806" style="mask-type:alpha" maskUnits="userSpaceOnUse" x="11" y="5" width="87" height="100">
<path d="M51.5 6.73205C53.3564 5.66025 55.6436 5.66025 57.5 6.73205L94.8013 28.268C96.6577 29.3397 97.8013 31.3205 97.8013 33.4641V76.5359C97.8013 78.6795 96.6577 80.6603 94.8013 81.732L57.5 103.268C55.6436 104.34 53.3564 104.34 51.5 103.268L14.1987 81.732C12.3423 80.6603 11.1987 78.6795 11.1987 76.5359V33.4641C11.1987 31.3205 12.3423 29.3397 14.1987 28.268L51.5 6.73205Z" fill="#D9D9D9"/>
</mask>
<g mask="url(#mask0_81_6806)">
<path d="M2.5 3H104.5V105H2.5V3Z" fill="#F58548" fill-opacity="0.3"/>
</g>
<defs>
<clipPath id="clip0_81_6806">
<rect width="24" height="24" fill="white" transform="translate(42.5 43)"/>
</clipPath>
</defs>
</svg>
