<svg width="108" height="108" viewBox="0 0 108 108" fill="none" xmlns="http://www.w3.org/2000/svg">
<path d="M59.25 3.76314L94.8814 24.3349C98.1301 26.2106 100.131 29.6769 100.131 33.4282V74.5718C100.131 78.3231 98.1301 81.7894 94.8814 83.6651L59.25 104.237C56.0013 106.113 51.9987 106.113 48.75 104.237L13.1186 83.6651C9.86989 81.7894 7.8686 78.3231 7.8686 74.5718V33.4282C7.8686 29.6769 9.86989 26.2106 13.1186 24.3349L48.75 3.76314C51.9987 1.8875 56.0013 1.8875 59.25 3.76314Z" stroke="url(#paint0_linear_699_23416)" stroke-width="3"/>
<g clip-path="url(#clip0_699_23416)">
<circle cx="92" cy="26" r="12" fill="#4059DE"/>
<path fill-rule="evenodd" clip-rule="evenodd" d="M98.2071 21.2929C98.5976 21.6834 98.5976 22.3166 98.2071 22.7071L91.2074 29.7071C90.8169 30.0976 90.1837 30.0976 89.7932 29.7071L86.2929 26.2071C85.9024 25.8166 85.9024 25.1835 86.2929 24.7929C86.6834 24.4024 87.3165 24.4024 87.7071 24.7929L90.5002 27.5858L96.7929 21.2929C97.1834 20.9024 97.8166 20.9024 98.2071 21.2929Z" fill="white"/>
</g>
<defs>
<linearGradient id="paint0_linear_699_23416" x1="54" y1="54" x2="54.1041" y2="109" gradientUnits="userSpaceOnUse">
<stop stop-color="#75C7EA"/>
<stop offset="1" stop-color="#7588EA"/>
</linearGradient>
<clipPath id="clip0_699_23416">
<rect width="24" height="24" fill="white" transform="translate(80 14)"/>
</clipPath>
</defs>
</svg>
