<svg width="280" height="280" viewBox="0 0 280 280" fill="none" xmlns="http://www.w3.org/2000/svg">
<rect width="280" height="280" fill="white"/>
<g filter="url(#filter0_f_477_15242)">
<ellipse cx="142" cy="149" rx="76" ry="75" fill="#FDEFDB"/>
</g>
<g filter="url(#filter1_f_477_15242)">
<ellipse cx="144.5" cy="249.316" rx="112.5" ry="7.5" fill="#D9D3FF"/>
</g>
<path d="M202.443 46H86.5569C85.6971 46 85 46.7014 85 47.5667V55.6494C85 56.5147 85.6971 57.2161 86.5569 57.2161H202.443C203.303 57.2161 204 56.5147 204 55.6494V47.5667C204 46.7014 203.303 46 202.443 46Z" fill="#7D9A9B"/>
<path d="M202.443 235.782H86.5569C85.6971 235.782 85 236.483 85 237.348V245.431C85 246.296 85.6971 246.998 86.5569 246.998H202.443C203.303 246.998 204 246.296 204 245.431V237.348C204 236.483 203.303 235.782 202.443 235.782Z" fill="#7D9A9B"/>
<path d="M202.443 46H175.601C176.462 46 177.158 46.7007 177.158 47.5667V55.6516C177.158 56.5176 176.462 57.2183 175.601 57.2183H202.443C203.304 57.2183 204 56.5176 204 55.6516V47.5667C204 46.7007 203.304 46 202.443 46Z" fill="#215773"/>
<path d="M202.443 235.782H175.601C176.462 235.782 177.158 236.482 177.158 237.348V245.433C177.158 246.299 176.462 247 175.601 247H202.443C203.304 247 204 246.299 204 245.433V237.348C204 236.482 203.304 235.782 202.443 235.782Z" fill="#215773"/>
<path d="M98.2546 57.2161H91.3262V235.779H98.2546V57.2161Z" fill="#215773"/>
<path d="M198.878 57.2161H191.95V235.779H198.878V57.2161Z" fill="#215773"/>
<path d="M158.208 158.626C152.484 152.562 147.664 148.016 154.895 142.456C162.125 136.899 182.913 106.481 183.515 91.6269C184.117 76.7727 175.38 66.1604 175.38 66.1604H113.62C113.62 66.1604 104.883 76.7705 105.485 91.6269C106.087 106.481 126.875 136.899 134.105 142.456C141.336 148.014 136.516 152.562 130.792 158.626C125.068 164.69 89.5197 196.521 113.318 226.837H175.68C199.48 196.521 163.93 164.688 158.206 158.626H158.208Z" fill="url(#paint0_radial_477_15242)"/>
<path d="M117.686 112.545C117.686 112.545 127.628 126.188 133.954 131.038C140.28 135.888 144.8 148.014 144.498 152.866C144.498 152.866 146.304 140.74 150.824 137.404C155.344 134.068 174.322 108.907 174.322 108.907C174.322 108.907 169.803 103.753 161.67 108.907C153.537 114.061 150.824 111.939 143.593 108.907C136.363 105.875 116.78 104.965 117.684 112.545H117.686Z" fill="#F3BDC6"/>
<path d="M108.649 205.617C108.649 205.617 112.567 225.324 120.097 228.658C127.628 231.992 170.409 230.326 170.409 230.326C170.409 230.326 180.351 212.287 180.351 205.617C180.351 205.617 147.211 198.341 144.5 191.065C144.5 191.065 119.495 208.649 108.649 205.617Z" fill="#F3BDC6"/>
<path d="M140.149 108.907C144.971 110.928 147.785 112.543 151.536 111.867C149.201 111.452 146.858 110.273 143.598 108.907C140.116 107.448 133.77 106.481 128.228 106.715C132.785 106.893 137.377 107.744 140.151 108.907H140.149Z" fill="#DD9FAC"/>
<path d="M166.809 106.779C169.47 107.301 170.878 108.907 170.878 108.907C170.878 108.907 151.897 134.07 147.38 137.404C145.411 138.858 143.955 141.98 142.941 145.041C144.04 148.164 144.614 151.033 144.5 152.864C144.5 152.864 146.307 140.738 150.826 137.401C155.346 134.065 174.324 108.905 174.324 108.905C174.324 108.905 171.684 105.895 166.807 106.776L166.809 106.779Z" fill="#DD9FAC"/>
<path d="M109.862 205.862C109.442 205.804 109.037 205.725 108.649 205.617C108.649 205.617 108.673 205.734 108.719 205.95C109.094 205.932 109.473 205.904 109.862 205.862Z" fill="#DD9FAC"/>
<path d="M144.5 191.065C144.5 191.065 143.622 191.682 142.122 192.667C148.461 199.372 176.902 205.617 176.902 205.617C176.902 212.287 166.96 230.326 166.96 230.326C166.96 230.326 157.312 230.702 146.372 230.74C158.646 230.784 170.407 230.326 170.407 230.326C170.407 230.326 180.348 212.287 180.348 205.617C180.348 205.617 147.209 198.341 144.498 191.065H144.5Z" fill="#DD9FAC"/>
<path d="M181.956 224.563H107.042C106.182 224.563 105.485 225.265 105.485 226.13V234.213C105.485 235.078 106.182 235.779 107.042 235.779H181.956C182.816 235.779 183.513 235.078 183.513 234.213V226.13C183.513 225.265 182.816 224.563 181.956 224.563Z" fill="#EACC75"/>
<path d="M181.956 57.2161H107.042C106.182 57.2161 105.485 57.9176 105.485 58.7829V66.8655C105.485 67.7308 106.182 68.4322 107.042 68.4322H181.956C182.816 68.4322 183.513 67.7308 183.513 66.8655V58.7829C183.513 57.9176 182.816 57.2161 181.956 57.2161Z" fill="#EACC75"/>
<path d="M181.958 224.563H161.473C162.333 224.563 163.03 225.264 163.03 226.13V234.215C163.03 235.081 162.333 235.782 161.473 235.782H181.958C182.819 235.782 183.515 235.081 183.515 234.215V226.13C183.515 225.264 182.819 224.563 181.958 224.563Z" fill="#D3B466"/>
<path d="M181.958 57.2161H161.473C162.333 57.2161 163.03 57.9169 163.03 58.7829V66.8677C163.03 67.7337 162.333 68.4345 161.473 68.4345H181.958C182.819 68.4345 183.515 67.7337 183.515 66.8677V58.7829C183.515 57.9169 182.819 57.2161 181.958 57.2161Z" fill="#D3B466"/>
<path d="M196.688 57.2161H191.95V235.779H196.688V57.2161Z" fill="#7A999E"/>
<path d="M96.0648 57.2161H91.3262V235.779H96.0648V57.2161Z" fill="#7A999E"/>
<path d="M140.458 135.923C140.405 135.85 138.739 133.585 121.724 115.732C112.398 105.946 111.049 95.4766 111.56 88.4163C112.114 80.7788 114.838 75.5167 114.954 75.2963L116.502 76.1205C116.476 76.1712 113.813 81.3275 113.3 88.6147C112.617 98.3346 115.876 107.047 122.988 114.511C140.464 132.849 141.864 134.867 141.914 134.945L140.456 135.923H140.458Z" fill="white"/>
<path d="M174.324 213.885C174.149 213.885 173.972 213.839 173.812 213.739C173.348 213.455 173.199 212.845 173.484 212.378C177.473 205.787 176.891 197.341 171.754 187.275C167.854 179.633 162.655 173.908 162.603 173.851C162.235 173.447 162.261 172.822 162.66 172.449C163.06 172.079 163.682 172.103 164.052 172.506C164.271 172.747 169.461 178.456 173.486 186.329C178.899 196.917 179.479 206.28 175.165 213.409C174.979 213.715 174.655 213.885 174.322 213.885H174.324Z" fill="white"/>
<path d="M145.817 155.12C146.091 155.427 146.124 155.612 146.246 155.976M143.249 161.97V163.254M147.102 167.107V168.82M138.539 171.389C138.588 171.783 138.678 171.672 138.967 171.817M149.242 177.811L149.67 178.239M150.955 187.229L152.239 188.514M140.251 187.229V188.514M128.264 191.083L127.835 191.939M134.686 192.795V194.08M141.964 179.951V181.236" stroke="#F3BDC6" stroke-width="2" stroke-linecap="round"/>
<defs>
<filter id="filter0_f_477_15242" x="46" y="54" width="192" height="190" filterUnits="userSpaceOnUse" color-interpolation-filters="sRGB">
<feFlood flood-opacity="0" result="BackgroundImageFix"/>
<feBlend mode="normal" in="SourceGraphic" in2="BackgroundImageFix" result="shape"/>
<feGaussianBlur stdDeviation="10" result="effect1_foregroundBlur_477_15242"/>
</filter>
<filter id="filter1_f_477_15242" x="12" y="221.816" width="265" height="55" filterUnits="userSpaceOnUse" color-interpolation-filters="sRGB">
<feFlood flood-opacity="0" result="BackgroundImageFix"/>
<feBlend mode="normal" in="SourceGraphic" in2="BackgroundImageFix" result="shape"/>
<feGaussianBlur stdDeviation="10" result="effect1_foregroundBlur_477_15242"/>
</filter>
<radialGradient id="paint0_radial_477_15242" cx="0" cy="0" r="1" gradientUnits="userSpaceOnUse" gradientTransform="translate(155.677 145.363) scale(138.407 115.075)">
<stop stop-color="white"/>
<stop offset="0.19" stop-color="#FDFEFF"/>
<stop offset="1" stop-color="#D7EBF9"/>
</radialGradient>
</defs>
</svg>
