<svg width="280" height="280" viewBox="0 0 280 280" fill="none" xmlns="http://www.w3.org/2000/svg">
<rect width="280" height="280" fill="white"/>
<g filter="url(#filter0_f_477_15044)">
<ellipse cx="118" cy="129.51" rx="76" ry="75" fill="#FDEFDB"/>
</g>
<g filter="url(#filter1_f_477_15044)">
<ellipse cx="140.5" cy="249.01" rx="112.5" ry="7.5" fill="#D9D3FF"/>
</g>
<path d="M194.106 178.611C159.703 195.81 125.306 195.81 90.9036 178.611C73.705 144.209 73.705 109.812 90.9036 75.4092C125.306 58.2106 159.703 58.2106 194.106 75.4092C211.304 109.812 211.304 144.209 194.106 178.611Z" fill="#A48B68"/>
<path d="M194.106 178.611C159.703 195.81 125.306 195.81 90.9036 178.611C73.705 144.209 73.705 109.812 90.9036 75.4092C125.306 58.2106 159.703 58.2106 194.106 75.4092C211.304 109.812 211.304 144.209 194.106 178.611Z" fill="#64BF7F"/>
<path d="M135.338 62.7679C120.528 63.7948 105.714 68.0054 90.899 75.4102C73.7003 109.813 73.7003 144.21 90.899 178.612C105.714 186.017 120.523 190.228 135.338 191.255C150.147 190.228 164.962 186.017 179.771 178.612C196.97 144.21 196.97 109.813 179.771 75.4102C164.957 68.0054 150.147 63.7948 135.338 62.7679Z" fill="#6ECE8F"/>
<path d="M117.159 129.597C124.087 129.597 129.704 123.981 129.704 117.053C129.704 110.125 124.087 104.509 117.159 104.509C110.231 104.509 104.615 110.125 104.615 117.053C104.615 123.981 110.231 129.597 117.159 129.597Z" fill="white"/>
<path d="M145.793 129.597C152.721 129.597 158.337 123.981 158.337 117.053C158.337 110.125 152.721 104.509 145.793 104.509C138.865 104.509 133.249 110.125 133.249 117.053C133.249 123.981 138.865 129.597 145.793 129.597Z" fill="white"/>
<path d="M117.159 126.48C122.366 126.48 126.586 122.259 126.586 117.053C126.586 111.846 122.366 107.625 117.159 107.625C111.952 107.625 107.731 111.846 107.731 117.053C107.731 122.259 111.952 126.48 117.159 126.48Z" fill="#1C1C1C"/>
<path d="M145.793 126.48C151 126.48 155.221 122.259 155.221 117.053C155.221 111.846 151 107.625 145.793 107.625C140.586 107.625 136.365 111.846 136.365 117.053C136.365 122.259 140.586 126.48 145.793 126.48Z" fill="#1C1C1C"/>
<path d="M130.973 139.339C121.514 139.339 115.038 134.953 114.94 134.886C114.589 134.644 114.502 134.159 114.744 133.808C114.987 133.457 115.472 133.369 115.823 133.612C115.962 133.705 129.729 142.988 146.278 133.576C146.649 133.364 147.119 133.493 147.33 133.865C147.542 134.236 147.413 134.711 147.041 134.917C141.221 138.23 135.72 139.334 130.973 139.334V139.339Z" fill="#1C1C1C"/>
<path d="M114.068 105.353C104.507 105.353 102.5 102.892 102.288 102.587C102.045 102.236 102.133 101.751 102.484 101.509C102.825 101.271 103.299 101.349 103.547 101.679C103.624 101.767 105.869 104.197 116.612 103.748C128.217 103.268 130.921 103.263 131.03 103.263C131.458 103.263 131.804 103.609 131.804 104.037C131.804 104.465 131.458 104.811 131.03 104.811C131.004 104.811 128.223 104.816 116.674 105.296C115.751 105.332 114.884 105.353 114.074 105.353H114.068Z" fill="#1C1C1C"/>
<path d="M173.768 163.491C184.68 167.129 191.035 147.045 193.213 140.51" stroke="black" stroke-width="3" stroke-linecap="round"/>
<path d="M80.2856 133.675C70.6868 140.013 59.3504 122.259 55.5547 116.51" stroke="black" stroke-width="3" stroke-linecap="round"/>
<path d="M52 53.0103C52.2432 53.527 52.3652 53.971 52.5 54.5103" stroke="black" stroke-width="3" stroke-linecap="round"/>
<path d="M59 47.5103C59.4751 48.2089 59.9748 48.8537 60.5 49.5103" stroke="black" stroke-width="3" stroke-linecap="round"/>
<path d="M68 40.5103C68.5188 40.9985 68.9046 41.2125 69.5 41.5103" stroke="black" stroke-width="3" stroke-linecap="round"/>
<path d="M72.4998 23.5102C63.1332 28.3779 54.0649 33.1892 44.972 38.538C42.395 40.0539 40.1161 41.9129 37.722 43.6769C36.2148 44.7875 33.0653 45.9484 32.1109 47.5102C30.6883 49.8382 34.0613 55.6076 35.3053 57.5102C37.1384 60.3138 39.6146 64.1525 42.1109 66.3991C43.4076 67.5662 47.9217 67.3101 49.3609 66.6769C53.9764 64.6461 58.6434 62.3161 63.3887 60.6214C64.1073 60.3647 64.9253 59.3104 65.722 59.538C66.1835 59.6699 66.7184 60.7853 66.9998 61.1214C68.0205 62.3406 69.1649 63.1641 70.6664 63.7047C72.8921 64.5059 72.4998 61.2891 72.4998 59.7602C72.4998 54.4543 75.2107 53.6587 79.1942 50.288C80.4427 49.2316 82.6564 47.4747 83.3887 46.0102C84.2157 44.3561 82.9998 42.3115 82.9998 40.7325C82.9998 39.047 81.857 37.4214 81.3887 35.8991C80.5784 33.2658 79.4998 30.0326 79.4998 27.288C79.4998 22.5805 77.2232 23.0102 72.9998 23.0102" stroke="#BFBFBF" stroke-width="2" stroke-linecap="round"/>
<defs>
<filter id="filter0_f_477_15044" x="22" y="34.5103" width="192" height="190" filterUnits="userSpaceOnUse" color-interpolation-filters="sRGB">
<feFlood flood-opacity="0" result="BackgroundImageFix"/>
<feBlend mode="normal" in="SourceGraphic" in2="BackgroundImageFix" result="shape"/>
<feGaussianBlur stdDeviation="10" result="effect1_foregroundBlur_477_15044"/>
</filter>
<filter id="filter1_f_477_15044" x="8" y="221.51" width="265" height="55" filterUnits="userSpaceOnUse" color-interpolation-filters="sRGB">
<feFlood flood-opacity="0" result="BackgroundImageFix"/>
<feBlend mode="normal" in="SourceGraphic" in2="BackgroundImageFix" result="shape"/>
<feGaussianBlur stdDeviation="10" result="effect1_foregroundBlur_477_15044"/>
</filter>
</defs>
</svg>
