<svg width="280" height="280" viewBox="0 0 280 280" fill="none" xmlns="http://www.w3.org/2000/svg">
<rect width="280" height="280" fill="white"/>
<path d="M182.783 210.007C169.565 212.529 162.372 204.196 166.795 191.486L186.948 133.612C191.371 120.906 202.188 118.842 210.979 129.027L251.024 175.416C259.815 185.605 256.195 196.001 242.977 198.523L182.783 210.007Z" fill="#FDCF6A"/>
<path d="M182.783 210.007C169.565 212.529 162.372 204.196 166.795 191.486L186.948 133.612C191.371 120.906 202.188 118.842 210.979 129.027L251.024 175.416C259.815 185.605 256.195 196.001 242.977 198.523L182.783 210.007Z" fill="#EFBF60"/>
<path d="M241.041 177.321L200.996 130.932C198.299 127.811 195.413 125.843 192.58 124.975C190.265 126.825 188.305 129.714 186.948 133.612L166.795 191.486C162.372 204.196 169.565 212.529 182.783 210.007L232.995 200.428C246.213 197.906 249.836 187.509 241.041 177.321Z" fill="#FDCF6A"/>
<path d="M187.791 168.67C192.617 167.749 195.784 163.09 194.863 158.264C193.942 153.437 189.283 150.271 184.457 151.192C179.63 152.113 176.464 156.772 177.385 161.598C178.306 166.425 182.965 169.591 187.791 168.67Z" fill="white"/>
<path d="M179.512 153.979C176.226 157.631 176.52 163.253 180.173 166.542C181.954 168.147 184.205 168.895 186.426 168.818C187.636 168.326 188.757 167.561 189.688 166.526C192.974 162.874 192.68 157.252 189.028 153.963C187.246 152.358 184.995 151.61 182.774 151.687C181.564 152.179 180.443 152.944 179.512 153.979Z" fill="#1C1C1C"/>
<path d="M207.738 164.864C212.564 163.944 215.73 159.285 214.81 154.458C213.889 149.632 209.23 146.466 204.404 147.387C199.577 148.307 196.411 152.966 197.332 157.793C198.253 162.619 202.912 165.785 207.738 164.864Z" fill="white"/>
<path d="M199.419 150.218C196.156 153.892 196.49 159.513 200.164 162.777C201.958 164.368 204.214 165.1 206.432 165.012C207.638 164.514 208.753 163.742 209.679 162.697C212.942 159.024 212.608 153.402 208.934 150.139C207.14 148.548 204.884 147.816 202.665 147.904C201.46 148.402 200.345 149.173 199.419 150.218Z" fill="#1C1C1C"/>
<path d="M197.562 173.682C196.667 173.853 195.732 173.58 195.159 172.922C193.806 171.358 194.212 168.405 194.229 168.282C194.231 168.271 194.231 168.256 194.237 168.244C194.447 167.276 195.036 166.694 195.87 166.65C197.272 166.577 198.878 168.062 199.521 170.03C200.074 171.716 199.312 172.86 198.419 173.37C198.146 173.522 197.856 173.626 197.562 173.682ZM195.313 168.456C195.214 169.186 195.145 171.23 195.991 172.205C196.406 172.684 197.236 172.776 197.879 172.414C198.561 172.027 198.781 171.285 198.48 170.374C197.955 168.775 196.716 167.707 195.927 167.75C195.813 167.757 195.466 167.774 195.313 168.459L195.313 168.456Z" fill="#1C1C1C"/>
<path d="M99.7744 163.759L127.348 139.367C129.612 137.366 131.075 134.613 131.465 131.62L136.254 95.1195C136.932 89.9403 134.327 84.8835 129.715 82.4324L88.5654 60.5625C83.9534 58.1114 78.3048 58.7818 74.3916 62.2415L46.8182 86.6328C44.5541 88.634 43.0907 91.3874 42.7007 94.3802L37.9119 130.881C37.2339 136.06 39.8387 141.117 44.4506 143.568L85.5971 165.436C90.2091 167.887 95.8577 167.217 99.771 163.757L99.7744 163.759Z" fill="#FEDE83"/>
<path d="M99.7744 163.759L127.348 139.367C129.612 137.366 131.075 134.613 131.465 131.62L136.254 95.1195C136.932 89.9403 134.327 84.8835 129.715 82.4324L88.5654 60.5625C83.9534 58.1114 78.3048 58.7818 74.3916 62.2415L46.8182 86.6328C44.5541 88.634 43.0907 91.3874 42.7007 94.3802L37.9119 130.881C37.2339 136.06 39.8387 141.117 44.4506 143.568L85.5971 165.436C90.2091 167.887 95.8577 167.217 99.771 163.757L99.7744 163.759Z" fill="#C4A2CC"/>
<path d="M47.4698 135.961L52.2586 99.46C52.6505 96.4637 54.1138 93.7103 56.3761 91.7126L83.9495 67.3213C87.8628 63.8615 93.5114 63.1912 98.1233 65.6423L129.712 82.4307C134.324 84.8818 136.929 89.9386 136.251 95.1177L131.462 131.618C131.07 134.615 129.607 137.368 127.344 139.366L99.7711 163.757C95.8578 167.217 90.2092 167.887 85.5972 165.436L54.0086 148.648C49.3966 146.197 46.7918 141.14 47.4698 135.961Z" fill="#DFBDE6"/>
<path d="M83.3674 114.925C78.7465 112.469 76.9913 106.732 79.4472 102.111C81.9031 97.4899 87.64 95.7348 92.261 98.1907C96.8819 100.647 98.637 106.383 96.1812 111.004C93.7253 115.625 87.9884 117.38 83.3674 114.925Z" fill="white"/>
<path d="M84.5647 115.454C79.6487 113.658 77.1179 108.222 78.914 103.306C79.7914 100.907 81.5351 99.0797 83.662 98.0428C85.0447 97.8994 86.4809 98.0624 87.8754 98.5695C92.7914 100.366 95.3222 105.802 93.5261 110.718C92.6487 113.117 90.905 114.944 88.7782 115.981C87.3954 116.125 85.9592 115.962 84.5647 115.454Z" fill="#1C1C1C"/>
<path d="M103.685 122.342C99.0638 119.886 97.3087 114.149 99.7646 109.528C102.22 104.907 107.957 103.152 112.578 105.608C117.199 108.064 118.954 113.8 116.499 118.421C114.043 123.042 108.306 124.797 103.685 122.342Z" fill="white"/>
<path d="M104.882 122.872C99.9656 121.076 97.4348 115.64 99.2309 110.724C100.108 108.325 101.852 106.498 103.979 105.461C105.362 105.317 106.798 105.48 108.192 105.988C113.108 107.784 115.639 113.22 113.843 118.136C112.966 120.535 111.222 122.362 109.095 123.399C107.712 123.543 106.276 123.38 104.882 122.872Z" fill="#1C1C1C"/>
<path d="M90.9427 129.208C93.3107 130.467 96.5659 129.84 100.628 127.346C100.81 127.236 100.918 127.033 100.908 126.82C100.897 126.607 100.78 126.421 100.58 126.324L88.0115 120.24C87.8323 120.153 87.6193 120.164 87.4493 120.267C87.2794 120.371 87.1737 120.554 87.1722 120.756C87.1693 121.01 87.1054 127.019 90.8103 129.134C90.8551 129.157 90.9032 129.183 90.948 129.207L90.9427 129.208ZM99.0818 126.9C95.8443 128.706 93.295 129.134 91.4915 128.176C91.4571 128.158 91.4226 128.139 91.3882 128.121C89.0706 126.801 88.5138 123.389 88.3809 121.72L99.0853 126.902L99.0818 126.9Z" fill="#1C1C1C"/>
<path d="M101.893 105.522C101.935 105.544 101.978 105.563 102.025 105.574C109.589 107.503 115.337 101.429 115.576 101.172C115.794 100.935 115.783 100.567 115.546 100.348C115.311 100.126 114.941 100.141 114.718 100.377C114.665 100.436 109.193 106.197 102.313 104.443C102.001 104.365 101.68 104.553 101.603 104.865C101.535 105.133 101.663 105.4 101.897 105.524L101.893 105.522Z" fill="#1C1C1C"/>
<g filter="url(#filter0_f_477_14916)">
<ellipse cx="140.5" cy="249.5" rx="112.5" ry="7.5" fill="#D9D3FF"/>
</g>
<path d="M48.3581 106C40.1278 110.115 47.8935 125.071 50.3581 130" stroke="black" stroke-width="3" stroke-linecap="round"/>
<path d="M128.358 134C129.107 140.739 142.955 140 147.358 140" stroke="black" stroke-width="3" stroke-linecap="round"/>
<path d="M167.358 45C162.786 51.7773 160.358 56.1853 160.358 64" stroke="black" stroke-width="3" stroke-linecap="round"/>
<path d="M167.358 45C170.954 45.4495 165.379 68.525 176.025 69.9444C185.019 71.1437 199.13 68.4264 205.914 62C206.96 61.009 208.181 57.7324 208.136 57.7778C204.77 61.1437 203.358 68.3218 203.358 73C203.358 80.7608 207.439 82.8829 215.136 84.3889C221.738 85.6806 222.601 83.4522 218.58 88.5556C216.021 91.804 212.377 94.9237 211.358 99" stroke="black" stroke-width="3" stroke-linecap="round"/>
<path d="M233.358 161C237.885 161 252.322 159.684 255.136 165C258.413 171.191 253.87 176.976 251.358 182" stroke="black" stroke-width="3" stroke-linecap="round"/>
<path d="M171.358 178C162.784 175.618 158.038 171.36 154.358 164" stroke="black" stroke-width="3" stroke-linecap="round"/>
<path d="M191.358 150.319C194.07 150.735 195.435 152.041 198.198 149.329C200.259 147.306 203.557 142.95 204.358 140" stroke="black" stroke-linecap="round"/>
<defs>
<filter id="filter0_f_477_14916" x="7.99976" y="222" width="265" height="55" filterUnits="userSpaceOnUse" color-interpolation-filters="sRGB">
<feFlood flood-opacity="0" result="BackgroundImageFix"/>
<feBlend mode="normal" in="SourceGraphic" in2="BackgroundImageFix" result="shape"/>
<feGaussianBlur stdDeviation="10" result="effect1_foregroundBlur_477_14916"/>
</filter>
</defs>
</svg>
