<svg width="280" height="280" viewBox="0 0 280 280" fill="none" xmlns="http://www.w3.org/2000/svg">
<rect width="280" height="280" fill="white"/>
<g filter="url(#filter0_f_477_15109)">
<ellipse cx="126" cy="132.816" rx="76" ry="75" fill="#FDEFDB"/>
</g>
<g filter="url(#filter1_f_477_15109)">
<ellipse cx="139.5" cy="249.316" rx="112.5" ry="7.5" fill="#D9D3FF"/>
</g>
<path d="M92.4248 177.505L92.5949 146.258C92.5949 146.258 68.7732 129.396 67.7076 128.638C55.3447 120.034 55.6765 109.47 67.6021 103.79L100.595 93.2662L110.353 61.0421C115.32 48.7807 125.167 47.1471 133.821 57.149L153.461 84.4959L188.091 83.8013C201.207 85.3327 204.931 95.2183 196.015 107.353C195.239 108.41 178.145 132.066 178.145 132.066L188.395 161.583C192.985 176.51 184.593 184.523 169.21 179.427C167.821 178.974 140.523 170.226 140.523 170.226C140.523 170.226 117.511 187.314 116.344 188.197C103.43 197.988 92.9064 193.113 92.4248 177.505Z" fill="#EF9679"/>
<path d="M92.4248 177.505L92.5949 146.258C92.5949 146.258 68.7732 129.396 67.7076 128.638C55.3447 120.034 55.6765 109.47 67.6021 103.79L100.595 93.2662L110.353 61.0421C115.32 48.7807 125.167 47.1471 133.821 57.149L153.461 84.4959L188.091 83.8013C201.207 85.3327 204.931 95.2183 196.015 107.353C195.239 108.41 178.145 132.066 178.145 132.066L188.395 161.583C192.985 176.51 184.593 184.523 169.21 179.427C167.821 178.974 140.523 170.226 140.523 170.226C140.523 170.226 117.511 187.314 116.344 188.197C103.43 197.988 92.9064 193.113 92.4248 177.505Z" fill="#EF8B8B"/>
<path d="M83.3815 101.172L116.375 90.648L126.133 58.4238C127.006 56.2646 128.031 54.4483 129.177 52.9502C130.74 53.993 132.302 55.3861 133.826 57.1475L153.467 84.4944L188.097 83.7998C201.213 85.3313 204.937 95.2168 196.021 107.351C195.244 108.408 178.15 132.064 178.15 132.064L188.401 161.582C190.555 168.581 189.852 174.057 186.911 177.377C186.282 177.207 185.65 177.026 184.995 176.807C183.606 176.355 156.308 167.607 156.308 167.607C156.308 167.607 153.137 169.96 149.088 172.967C144.29 171.428 140.529 170.224 140.529 170.224C140.529 170.224 117.517 187.313 116.35 188.195C115.8 188.614 115.261 188.989 114.72 189.353C110.871 187.16 108.436 182.198 108.21 174.885L108.38 143.639C108.38 143.639 84.5582 126.777 83.4926 126.019C71.1297 117.415 71.4615 106.851 83.3872 101.171L83.3815 101.172Z" fill="#FF9A9A"/>
<path d="M158.285 119.398C151.294 120.943 144.373 116.528 142.827 109.536C141.281 102.544 145.697 95.6232 152.688 94.0777C159.68 92.5321 166.601 96.9472 168.147 103.939C169.692 110.931 165.277 117.852 158.285 119.398Z" fill="white"/>
<path d="M152.688 94.0777C159.677 92.5328 166.601 96.9452 168.147 103.939C168.901 107.35 168.231 110.743 166.541 113.503C165.049 114.685 163.276 115.558 161.292 115.996C154.303 117.541 147.379 113.129 145.833 106.135C145.079 102.724 145.749 99.3313 147.439 96.5709C148.931 95.389 150.704 94.5163 152.688 94.0777Z" fill="#1C1C1C"/>
<path d="M129.388 125.785C122.396 127.331 115.475 122.916 113.929 115.924C112.384 108.932 116.799 102.011 123.791 100.465C130.782 98.9197 137.703 103.335 139.249 110.327C140.795 117.319 136.379 124.24 129.388 125.785Z" fill="white"/>
<path d="M123.791 100.465C130.779 98.9204 137.703 103.333 139.249 110.327C140.003 113.738 139.333 117.13 137.643 119.891C136.151 121.073 134.378 121.945 132.394 122.384C125.405 123.929 118.481 119.517 116.935 112.523C116.181 109.112 116.851 105.719 118.541 102.958C120.033 101.777 121.806 100.904 123.791 100.465Z" fill="#1C1C1C"/>
<path d="M146.518 132.314C156.064 130.204 161.621 124.332 161.705 124.243C162.005 123.92 161.985 123.411 161.662 123.111C161.339 122.811 160.83 122.83 160.53 123.153C160.41 123.278 148.587 135.718 129.786 129.911C129.364 129.781 128.914 130.017 128.783 130.439C128.652 130.861 128.888 131.311 129.309 131.437C135.923 133.482 141.721 133.369 146.512 132.31L146.518 132.314Z" fill="#1C1C1C"/>
<g clip-path="url(#clip0_477_15109)">
<circle cx="227.856" cy="171.672" r="16" transform="rotate(30 227.856 171.672)" fill="#E15256"/>
<ellipse cx="227.708" cy="170.698" rx="14.4615" ry="14.6154" transform="rotate(30 227.708 170.698)" fill="#F85F63"/>
<path d="M237.375 169.589C236.642 166.954 233.897 165.37 231.249 166.052L231.076 166.096L231.028 165.924C230.294 163.289 227.55 161.705 224.901 162.387C222.253 163.069 220.699 165.76 221.433 168.394L224.128 178.073L229.018 176.835L233.907 175.596C236.556 174.915 238.109 172.224 237.375 169.589Z" fill="#BF0000"/>
</g>
<circle cx="50" cy="181.816" r="24" fill="#6285DF"/>
<ellipse cx="49.0768" cy="180.662" rx="21.6923" ry="21.9231" fill="#7499F9"/>
<path d="M43.2584 177.057H35C34.4477 177.057 34 177.505 34 178.057V191.554C34 192.124 34.4758 192.579 35.0453 192.553L43.2584 192.18C43.3261 192.18 43.3836 192.123 43.3836 192.055V177.182C43.3836 177.114 43.3261 177.057 43.2584 177.057Z" fill="white"/>
<path d="M45.1176 176.207L53.5361 168.11C53.5361 168.11 55.1548 165.198 56.4484 168.11C57.742 171.023 54.5046 176.204 54.5046 176.204H64.2168C64.2168 176.204 67.1291 177.822 65.5104 182.032C63.8917 186.241 62.273 191.744 60.976 192.069C59.6824 192.394 47.0546 192.069 47.0546 192.069C47.0546 192.069 45.1108 192.394 45.1108 190.45V176.207H45.1176Z" fill="white"/>
<g clip-path="url(#clip1_477_15109)">
<circle cx="215.912" cy="61.9119" r="20.5" transform="rotate(40.7554 215.912 61.9119)" fill="#FF993A"/>
<ellipse cx="215.958" cy="60.6503" rx="18.5288" ry="18.726" transform="rotate(40.7554 215.958 60.6503)" fill="#FF993A"/>
<g clip-path="url(#clip2_477_15109)">
<mask id="mask0_477_15109" style="mask-type:alpha" maskUnits="userSpaceOnUse" x="195" y="41" width="42" height="42">
<ellipse cx="215.912" cy="61.9119" rx="20.5" ry="20.5" transform="rotate(40.7554 215.912 61.9119)" fill="#FF993A"/>
</mask>
<g mask="url(#mask0_477_15109)">
<path d="M219.8 71.4514L215.586 68.2558L216.605 66.9099L220.82 70.1055C221.128 70.3396 221.189 70.7757 220.957 71.0833L220.778 71.3189C220.545 71.6264 220.109 71.6855 219.8 71.4514Z" fill="#FDE266"/>
<path d="M217.075 66.1554L211.873 65.2373L212.16 63.5715L217.362 64.4897C217.743 64.557 217.998 64.9176 217.932 65.2982L217.882 65.5898C217.816 65.9704 217.456 66.2227 217.075 66.1554Z" fill="#FDE266"/>
<path d="M218.432 73.2594L214.218 70.0638L215.237 68.7179L219.452 71.9135C219.76 72.1476 219.822 72.5837 219.589 72.8913L219.41 73.1269C219.177 73.4344 218.741 73.4935 218.432 73.2594Z" fill="#FDE266"/>
<path d="M217.057 75.0683L212.847 71.8758L213.866 70.5299L218.076 73.7224C218.385 73.9566 218.446 74.3927 218.213 74.7002L218.035 74.9358C217.802 75.2434 217.366 75.3025 217.057 75.0683Z" fill="#FDE266"/>
<path d="M215.693 76.8796L211.483 73.6871L212.502 72.3412L216.716 75.5368C217.025 75.7709 217.086 76.207 216.853 76.5145L216.675 76.7502C216.442 77.0577 216.006 77.1168 215.697 76.8827L215.693 76.8796Z" fill="#FDE266"/>
<path d="M243.071 78.1459C233.894 78.6033 210.556 55.5007 210.556 55.5007L216.27 49.2019C216.27 49.2019 228.648 60.1078 247.508 67.7637C249.485 68.5683 245.2 78.0426 243.071 78.1459Z" fill="#FDE266"/>
<path d="M212.35 45.6495L216.268 49.2022L215.133 50.4527L211.215 46.9C210.928 46.6397 210.906 46.2001 211.165 45.9144L211.363 45.6955C211.623 45.4097 212.062 45.3893 212.35 45.6495Z" fill="#FDE266"/>
<path d="M218.51 48.008L220.373 52.952L218.79 53.5421L216.926 48.5981C216.79 48.2359 216.971 47.8357 217.333 47.7008L217.61 47.5975C217.972 47.4627 218.373 47.6458 218.51 48.008Z" fill="#FDE266"/>
<path d="M210.83 47.3326L214.744 50.8819L213.61 52.1324L209.691 48.5797C209.404 48.3194 209.382 47.8798 209.641 47.5941L209.84 47.3751C210.099 47.0894 210.539 47.069 210.826 47.3292L210.83 47.3326Z" fill="#FDE266"/>
<path d="M209.299 49.0129L213.217 52.5655L212.083 53.816L208.168 50.2667C207.881 50.0064 207.859 49.5668 208.118 49.2811L208.316 49.0622C208.575 48.7764 209.015 48.756 209.302 49.0162L209.299 49.0129Z" fill="#FDE266"/>
<path d="M207.775 50.6997L211.694 54.2524L210.559 55.5029L206.641 51.9502C206.354 51.6899 206.331 51.2503 206.591 50.9646L206.789 50.7456C207.048 50.4599 207.488 50.4394 207.775 50.6997Z" fill="#FDE266"/>
<path d="M192.599 39.6284C192.551 39.5536 192.49 39.501 192.419 39.4527L184.298 48.8755C189.556 58.5389 211.47 73.6886 211.47 73.6886L216.602 66.9084C216.602 66.9084 203.602 56.7557 192.599 39.6284Z" fill="#FDE266"/>
</g>
</g>
<path fill-rule="evenodd" clip-rule="evenodd" d="M202.529 77.4407C211.105 84.8319 224.05 83.8712 231.441 75.2949C238.832 66.7186 237.871 53.7743 229.295 46.383C220.719 38.9918 207.774 39.9525 200.383 48.5288C192.992 57.1052 193.953 70.0494 202.529 77.4407ZM203.733 74.8353C211.485 81.5159 223.242 80.5807 229.994 72.7466C236.745 64.9124 235.935 53.1459 228.183 46.4654C220.431 39.7848 208.674 40.72 201.922 48.5542C195.171 56.3883 195.982 68.1548 203.733 74.8353Z" fill="#FDE266" style="mix-blend-mode:multiply"/>
</g>
<defs>
<filter id="filter0_f_477_15109" x="30" y="37.8159" width="192" height="190" filterUnits="userSpaceOnUse" color-interpolation-filters="sRGB">
<feFlood flood-opacity="0" result="BackgroundImageFix"/>
<feBlend mode="normal" in="SourceGraphic" in2="BackgroundImageFix" result="shape"/>
<feGaussianBlur stdDeviation="10" result="effect1_foregroundBlur_477_15109"/>
</filter>
<filter id="filter1_f_477_15109" x="7" y="221.816" width="265" height="55" filterUnits="userSpaceOnUse" color-interpolation-filters="sRGB">
<feFlood flood-opacity="0" result="BackgroundImageFix"/>
<feBlend mode="normal" in="SourceGraphic" in2="BackgroundImageFix" result="shape"/>
<feGaussianBlur stdDeviation="10" result="effect1_foregroundBlur_477_15109"/>
</filter>
<clipPath id="clip0_477_15109">
<rect width="32" height="32" fill="white" transform="translate(222 149.816) rotate(30)"/>
</clipPath>
<clipPath id="clip1_477_15109">
<rect width="41" height="41" fill="white" transform="translate(213.766 33) rotate(40.7554)"/>
</clipPath>
<clipPath id="clip2_477_15109">
<rect width="64.0625" height="29.0417" fill="white" transform="translate(201.919 28.4285) rotate(40.7554)"/>
</clipPath>
</defs>
</svg>
