<svg width="280" height="280" viewBox="0 0 280 280" fill="none" xmlns="http://www.w3.org/2000/svg">
<rect width="280" height="280" fill="white"/>
<g filter="url(#filter0_f_477_14989)">
<ellipse cx="136" cy="134" rx="76" ry="75" fill="#FDEFDB"/>
</g>
<path d="M189.281 132.001C221.111 179.005 183.004 217.111 136 185.281C88.996 217.111 50.8894 179.005 82.7194 132.001C50.8894 84.9915 88.996 46.8902 136 78.7202C183.004 46.8902 221.111 84.9967 189.281 132.001Z" fill="#9BC1E3"/>
<path d="M189.281 132.001C221.111 179.005 183.004 217.111 136 185.281C88.996 217.111 50.8894 179.005 82.7194 132.001C50.8894 84.9915 88.996 46.8902 136 78.7202C183.004 46.8902 221.111 84.9967 189.281 132.001Z" fill="#8DB5D3"/>
<path d="M174.84 132.001C196.488 100.025 185.781 72.1785 161.923 67.6492C153.915 69.0012 145.126 72.5373 136 78.715C133.566 77.0666 131.159 75.6158 128.777 74.3365C126.401 75.6158 123.993 77.0666 121.554 78.715C112.433 72.5373 103.645 69.0064 95.6366 67.6492C71.7784 72.1785 61.0662 100.025 82.7195 132.001C61.0714 163.976 71.7836 191.823 95.6366 196.352C103.645 195 112.433 191.464 121.559 185.287C123.993 186.935 126.401 188.386 128.782 189.665C131.159 188.386 133.566 186.935 136.005 185.287C145.131 191.464 153.92 195 161.928 196.352C185.786 191.823 196.498 163.976 174.845 132.001H174.84Z" fill="#9BC1E3"/>
<path d="M79.0507 127.9C71.3024 136.401 87.0857 150.351 92.177 154.991" stroke="black" stroke-width="3" stroke-linecap="round"/>
<path d="M187.877 127.767C195.625 136.268 179.842 150.218 174.75 154.859" stroke="black" stroke-width="3" stroke-linecap="round"/>
<g filter="url(#filter1_f_477_14989)">
<ellipse cx="131" cy="158.742" rx="18.7501" ry="20.6251" fill="#FDEFDB"/>
</g>
<path d="M141.388 150.214C138.571 147.418 134.001 147.418 131.184 150.214L131 150.397L130.816 150.214C128 147.418 123.429 147.418 120.613 150.214C117.796 153.011 117.796 157.548 120.613 160.345L130.96 170.617L136.174 165.481L141.388 160.345C144.205 157.548 144.205 153.011 141.388 150.214Z" fill="white"/>
<path d="M114.943 116.694C110.593 115.677 109.071 110.758 108.881 108.084C108.85 107.604 109.211 107.185 109.693 107.148C110.179 107.118 110.592 107.478 110.629 107.96C110.652 108.247 111.197 114.86 116.315 115.128C122.354 115.431 125.142 111.471 126.268 109.087C126.472 108.649 127.001 108.461 127.431 108.67C127.869 108.874 128.058 109.397 127.848 109.833C126.792 112.072 123.542 117.242 116.225 116.874C115.775 116.852 115.346 116.788 114.943 116.694Z" fill="#1C1C1C"/>
<path d="M148.589 116.694C152.94 115.677 154.461 110.758 154.651 108.084C154.683 107.604 154.321 107.185 153.839 107.148C153.353 107.118 152.94 107.478 152.903 107.96C152.88 108.247 152.335 114.86 147.217 115.128C141.179 115.431 138.391 111.471 137.265 109.087C137.061 108.649 136.532 108.461 136.101 108.67C135.664 108.874 135.475 109.397 135.684 109.833C136.741 112.072 139.991 117.242 147.308 116.874C147.758 116.852 148.186 116.788 148.589 116.694Z" fill="#1C1C1C"/>
<path d="M131.252 127.75C120.074 127.75 112.422 122.567 112.306 122.488C111.891 122.201 111.788 121.628 112.074 121.213C112.361 120.799 112.934 120.695 113.349 120.981C113.513 121.091 129.782 132.061 149.337 120.939C149.776 120.689 150.337 120.841 150.587 121.28C150.837 121.719 150.685 122.28 150.246 122.524C143.368 126.439 136.867 127.744 131.258 127.744L131.252 127.75Z" fill="#1C1C1C"/>
<g filter="url(#filter2_f_477_14989)">
<ellipse cx="139.5" cy="249.5" rx="112.5" ry="7.5" fill="#D9D3FF"/>
</g>
<defs>
<filter id="filter0_f_477_14989" x="40" y="39" width="192" height="190" filterUnits="userSpaceOnUse" color-interpolation-filters="sRGB">
<feFlood flood-opacity="0" result="BackgroundImageFix"/>
<feBlend mode="normal" in="SourceGraphic" in2="BackgroundImageFix" result="shape"/>
<feGaussianBlur stdDeviation="10" result="effect1_foregroundBlur_477_14989"/>
</filter>
<filter id="filter1_f_477_14989" x="92.2502" y="118.117" width="77.5002" height="81.2502" filterUnits="userSpaceOnUse" color-interpolation-filters="sRGB">
<feFlood flood-opacity="0" result="BackgroundImageFix"/>
<feBlend mode="normal" in="SourceGraphic" in2="BackgroundImageFix" result="shape"/>
<feGaussianBlur stdDeviation="10" result="effect1_foregroundBlur_477_14989"/>
</filter>
<filter id="filter2_f_477_14989" x="7" y="222" width="265" height="55" filterUnits="userSpaceOnUse" color-interpolation-filters="sRGB">
<feFlood flood-opacity="0" result="BackgroundImageFix"/>
<feBlend mode="normal" in="SourceGraphic" in2="BackgroundImageFix" result="shape"/>
<feGaussianBlur stdDeviation="10" result="effect1_foregroundBlur_477_14989"/>
</filter>
</defs>
</svg>
