<svg width="280" height="280" viewBox="0 0 280 280" fill="none" xmlns="http://www.w3.org/2000/svg">
<rect width="280" height="280" fill="white"/>
<g filter="url(#filter0_f_477_15286)">
<ellipse cx="142" cy="149" rx="76" ry="75" fill="#FDEFDB"/>
</g>
<g filter="url(#filter1_f_477_15286)">
<ellipse cx="144.5" cy="249.316" rx="112.5" ry="7.5" fill="#D9D3FF"/>
</g>
<path d="M115.216 166.9L104.36 137.889C103.468 135.508 103.468 132.884 104.36 130.507L115.216 101.496C116.757 97.3804 120.689 94.6519 125.084 94.6519H164.294C168.688 94.6519 172.62 97.3804 174.162 101.496L185.017 130.507C185.909 132.888 185.909 135.511 185.017 137.889L174.162 166.9C172.62 171.015 168.688 173.744 164.294 173.744H125.087C120.692 173.744 116.76 171.015 115.219 166.9H115.216Z" fill="#FEDE83"/>
<path d="M115.216 166.9L104.36 137.889C103.468 135.508 103.468 132.884 104.36 130.507L115.216 101.496C116.757 97.3804 120.689 94.6519 125.084 94.6519H164.294C168.688 94.6519 172.62 97.3804 174.162 101.496L185.017 130.507C185.909 132.888 185.909 135.511 185.017 137.889L174.162 166.9C172.62 171.015 168.688 173.744 164.294 173.744H125.087C120.692 173.744 116.76 171.015 115.219 166.9H115.216Z" fill="#C4A2CC"/>
<path d="M165.056 166.9L175.911 137.889C176.803 135.508 176.803 132.884 175.911 130.507L165.056 101.496C163.514 97.3804 159.582 94.6519 155.188 94.6519H125.088C120.694 94.6519 116.761 97.3804 115.22 101.496L104.365 130.507C103.473 132.888 103.473 135.511 104.365 137.889L115.22 166.9C116.761 171.015 120.694 173.744 125.088 173.744H155.188C159.582 173.744 163.514 171.015 165.056 166.9Z" fill="#DFBDE6"/>
<path d="M146.69 137.095C151.093 137.095 154.662 133.526 154.662 129.122C154.662 124.719 151.093 121.15 146.69 121.15C142.287 121.15 138.717 124.719 138.717 129.122C138.717 133.526 142.287 137.095 146.69 137.095Z" fill="white"/>
<path d="M145.591 137.015C149.952 137.622 153.98 134.582 154.586 130.22C154.882 128.092 154.308 126.045 153.137 124.435C152.166 123.783 151.035 123.337 149.798 123.163C145.437 122.556 141.409 125.596 140.803 129.958C140.507 132.086 141.081 134.133 142.252 135.743C143.223 136.396 144.354 136.842 145.591 137.015Z" fill="#1C1C1C"/>
<path d="M128.665 134.583C133.068 134.583 136.638 131.013 136.638 126.61C136.638 122.207 133.068 118.638 128.665 118.638C124.262 118.638 120.693 122.207 120.693 126.61C120.693 131.013 124.262 134.583 128.665 134.583Z" fill="white"/>
<path d="M127.566 134.504C131.928 135.111 135.955 132.071 136.562 127.709C136.857 125.581 136.283 123.535 135.112 121.924C134.142 121.272 133.01 120.826 131.774 120.652C127.412 120.045 123.385 123.085 122.778 127.447C122.483 129.575 123.057 131.622 124.228 133.232C125.199 133.885 126.33 134.331 127.566 134.504Z" fill="#1C1C1C"/>
<path d="M135.422 144.716C133.165 144.716 130.994 142.965 128.961 139.508C128.869 139.354 128.869 139.161 128.961 139.007C129.053 138.852 129.213 138.761 129.4 138.767L141.141 139.21C141.308 139.216 141.462 139.308 141.548 139.453C141.633 139.597 141.64 139.774 141.561 139.925C141.462 140.115 139.137 144.605 135.55 144.713C135.507 144.713 135.461 144.713 135.418 144.713L135.422 144.716ZM130.286 139.787C131.978 142.407 133.703 143.732 135.422 143.732C135.454 143.732 135.487 143.732 135.52 143.732C137.763 143.667 139.524 141.351 140.282 140.164L130.283 139.787H130.286Z" fill="#1C1C1C"/>
<path d="M196.421 212.582C187.473 211.32 184.706 204.464 190.272 197.343L215.625 164.922C221.191 157.804 228.514 158.836 231.894 167.216L247.296 205.382C250.677 213.764 246.123 219.588 237.174 218.327L196.421 212.582Z" fill="#FDCF6A"/>
<path d="M196.421 212.582C187.473 211.32 184.706 204.464 190.272 197.343L215.625 164.922C221.191 157.804 228.514 158.836 231.894 167.216L247.296 205.382C250.677 213.764 246.123 219.588 237.174 218.327L196.421 212.582Z" fill="#EFBF60"/>
<path d="M240.538 204.43L225.136 166.263C224.098 163.694 222.69 161.818 221.077 160.652C219.204 161.327 217.333 162.738 215.625 164.922L190.272 197.344C184.706 204.464 187.472 211.32 196.421 212.582L230.415 217.374C239.364 218.636 243.921 212.812 240.538 204.43Z" fill="#FDCF6A"/>
<path d="M208.564 187.39C211.831 187.851 214.853 185.575 215.314 182.308C215.775 179.04 213.499 176.018 210.232 175.557C206.964 175.097 203.942 177.372 203.481 180.64C203.021 183.907 205.296 186.93 208.564 187.39Z" fill="white"/>
<path d="M206.484 176.257C203.604 177.867 202.572 181.504 204.181 184.387C204.966 185.793 206.235 186.756 207.663 187.188C208.539 187.138 209.417 186.895 210.234 186.439C213.114 184.829 214.145 181.192 212.536 178.309C211.752 176.903 210.483 175.94 209.054 175.508C208.178 175.558 207.3 175.802 206.484 176.257Z" fill="#1C1C1C"/>
<path d="M222.067 189.294C225.335 189.754 228.357 187.479 228.818 184.211C229.278 180.944 227.003 177.922 223.735 177.461C220.468 177 217.445 179.276 216.985 182.543C216.524 185.811 218.8 188.833 222.067 189.294Z" fill="white"/>
<path d="M219.953 178.181C217.082 179.809 216.077 183.455 217.705 186.325C218.5 187.726 219.776 188.68 221.205 189.105C222.079 189.049 222.956 188.8 223.771 188.337C226.641 186.709 227.647 183.063 226.018 180.192C225.223 178.792 223.948 177.838 222.518 177.413C221.644 177.468 220.768 177.717 219.953 178.181Z" fill="#1C1C1C"/>
<path d="M213.688 192.694C213.082 192.608 212.547 192.232 212.325 191.69C211.804 190.403 212.702 188.613 212.74 188.539C212.743 188.532 212.747 188.523 212.753 188.516C213.096 187.946 213.597 187.704 214.136 187.857C215.043 188.114 215.742 189.407 215.725 190.797C215.711 191.989 214.979 192.551 214.3 192.681C214.094 192.719 213.888 192.722 213.688 192.694ZM213.391 188.884C213.17 189.327 212.683 190.611 213.01 191.414C213.17 191.809 213.677 192.047 214.164 191.957C214.682 191.858 214.982 191.434 214.989 190.79C215.002 189.66 214.445 188.712 213.934 188.568C213.86 188.548 213.636 188.484 213.391 188.886L213.391 188.884Z" fill="#1C1C1C"/>
<path d="M247.229 95.1145C231.125 103.165 215.024 103.165 198.92 95.1145C190.869 79.0105 190.869 62.9091 198.92 46.8051C215.024 38.7544 231.125 38.7544 247.229 46.8051C255.28 62.9091 255.28 79.0105 247.229 95.1145Z" fill="#A48B68"/>
<path d="M247.229 95.1145C231.125 103.165 215.024 103.165 198.92 95.1145C190.869 79.0105 190.869 62.9091 198.92 46.8051C215.024 38.7544 231.125 38.7544 247.229 46.8051C255.28 62.9091 255.28 79.0105 247.229 95.1145Z" fill="#64BF7F"/>
<path d="M219.72 40.8879C212.788 41.3686 205.853 43.3396 198.918 46.8058C190.867 62.9097 190.867 79.0112 198.918 95.1151C205.853 98.5813 212.785 100.552 219.72 101.033C226.652 100.552 233.587 98.5813 240.519 95.1151C248.57 79.0112 248.57 62.9097 240.519 46.8058C233.585 43.3396 226.652 41.3686 219.72 40.8879Z" fill="#6ECE8F"/>
<path d="M211.21 72.1709C214.453 72.1709 217.082 69.5419 217.082 66.2989C217.082 63.0559 214.453 60.4269 211.21 60.4269C207.967 60.4269 205.338 63.0559 205.338 66.2989C205.338 69.5419 207.967 72.1709 211.21 72.1709Z" fill="white"/>
<path d="M224.614 72.171C227.857 72.171 230.486 69.542 230.486 66.299C230.486 63.056 227.857 60.427 224.614 60.427C221.371 60.427 218.742 63.056 218.742 66.299C218.742 69.542 221.371 72.171 224.614 72.171Z" fill="white"/>
<path d="M211.21 70.7121C213.648 70.7121 215.623 68.7363 215.623 66.299C215.623 63.8618 213.648 61.886 211.21 61.886C208.773 61.886 206.797 63.8618 206.797 66.299C206.797 68.7363 208.773 70.7121 211.21 70.7121Z" fill="#1C1C1C"/>
<path d="M224.614 70.7121C227.051 70.7121 229.027 68.7363 229.027 66.299C229.027 63.8618 227.051 61.886 224.614 61.886C222.176 61.886 220.201 63.8618 220.201 66.299C220.201 68.7363 222.176 70.7121 224.614 70.7121Z" fill="#1C1C1C"/>
<path d="M217.676 76.7314C213.249 76.7314 210.217 74.6783 210.172 74.6469C210.007 74.5333 209.966 74.3063 210.08 74.142C210.193 73.9778 210.42 73.9367 210.585 74.0502C210.65 74.0937 217.094 78.4391 224.841 74.0333C225.015 73.9343 225.234 73.9947 225.333 74.1686C225.433 74.3425 225.372 74.5647 225.198 74.6614C222.474 76.2121 219.899 76.729 217.676 76.729V76.7314Z" fill="#1C1C1C"/>
<path d="M37.663 181.079C23.9 203.757 42.5712 220.656 63.769 204.707C86.4469 218.47 103.346 199.799 87.3975 178.601C101.16 155.921 82.4893 139.024 61.2915 154.973C38.6136 141.21 21.7143 159.881 37.663 181.079Z" fill="#9BC1E3"/>
<path d="M37.663 181.079C23.9 203.757 42.5712 220.656 63.769 204.707C86.4469 218.47 103.346 199.799 87.3975 178.601C101.16 155.921 82.4893 139.024 61.2915 154.973C38.6136 141.21 21.7143 159.881 37.663 181.079Z" fill="#8DB5D3"/>
<path d="M44.4023 180.743C33.5552 166.323 37.905 153.077 48.9349 150.408C52.7039 150.853 56.8878 152.299 61.2909 154.97C62.3884 154.144 63.4784 153.411 64.5602 152.759C65.6991 153.301 66.8565 153.922 68.0331 154.635C72.1465 151.539 76.1661 149.687 79.8721 148.867C91.1126 150.426 96.7597 163.174 87.397 178.601C98.2441 193.022 93.8919 206.267 82.8645 208.936C79.0954 208.491 74.9115 207.045 70.5085 204.374C69.411 205.2 68.321 205.933 67.2391 206.585C66.1002 206.044 64.9428 205.423 63.7662 204.71C59.6504 207.805 55.631 209.66 51.9248 210.477C40.6843 208.918 35.0372 196.17 44.3999 180.743L44.4023 180.743Z" fill="#9BC1E3"/>
<path d="M74.5124 180.46C71.2539 180.623 68.4808 178.113 68.3184 174.854C68.1561 171.596 70.6661 168.822 73.9246 168.66C77.1831 168.498 79.9563 171.008 80.1186 174.266C80.2809 177.525 77.771 180.298 74.5124 180.46Z" fill="white"/>
<path d="M73.9246 168.66C77.1817 168.498 79.9562 171.007 80.1186 174.266C80.1978 175.856 79.6386 177.329 78.6697 178.441C77.9094 178.858 77.0464 179.115 76.1217 179.161C72.8646 179.323 70.09 176.814 69.9277 173.555C69.8485 171.965 70.4077 170.492 71.3766 169.381C72.1368 168.963 72.9999 168.706 73.9246 168.66Z" fill="#1C1C1C"/>
<path d="M61.0447 181.131C57.7861 181.294 55.013 178.784 54.8507 175.525C54.6883 172.266 57.1983 169.493 60.4568 169.331C63.7154 169.169 66.4885 171.679 66.6508 174.937C66.8132 178.196 64.3032 180.969 61.0447 181.131Z" fill="white"/>
<path d="M60.4568 169.331C63.7139 169.169 66.4885 171.678 66.6508 174.937C66.73 176.527 66.1708 178 65.2019 179.111C64.4417 179.529 63.5786 179.786 62.6539 179.832C59.3968 179.994 56.6223 177.485 56.4599 174.226C56.3807 172.636 56.9399 171.163 57.9088 170.052C58.6691 169.634 59.5322 169.377 60.4568 169.331Z" fill="#1C1C1C"/>
<path d="M68.2432 185.367C72.6919 185.145 75.6351 182.931 75.6796 182.897C75.839 182.774 75.8689 182.544 75.7466 182.385C75.6243 182.226 75.3941 182.196 75.2347 182.318C75.1714 182.365 68.9136 187.054 60.9096 183.015C60.7299 182.924 60.5096 182.995 60.4188 183.175C60.328 183.355 60.3998 183.575 60.5794 183.664C63.3947 185.085 66.0078 185.476 68.2406 185.365L68.2432 185.367Z" fill="#1C1C1C"/>
<path d="M44.4397 77.1283L49.0285 62.2159C49.0285 62.2159 40.0733 50.7188 39.6732 50.2031C35.0045 44.3066 36.687 39.3043 43.2073 38.3094L60.4972 38.0381L69.8104 24.0415C73.9532 18.8966 78.8961 19.5361 81.59 25.5657L87.0341 41.4717L103.688 46.1351C109.738 48.7593 110.092 54.0222 104.079 58.5366C103.555 58.9299 91.9714 67.7723 91.9714 67.7723L92.6135 83.3615C92.6544 91.159 87.487 93.7789 80.8684 89.1236C80.2699 88.7069 68.4823 80.5872 68.4823 80.5872C68.4823 80.5872 55.0168 85.4365 54.3315 85.69C46.746 88.5074 42.4184 84.6589 44.4397 77.1283Z" fill="#EF9679"/>
<path d="M44.4397 77.1283L49.0285 62.2159C49.0285 62.2159 40.0733 50.7188 39.6732 50.2031C35.0045 44.3066 36.687 39.3043 43.2073 38.3094L60.4972 38.0381L69.8104 24.0415C73.9532 18.8966 78.8961 19.5361 81.59 25.5657L87.0341 41.4717L103.688 46.1351C109.738 48.7593 110.092 54.0222 104.079 58.5366C103.555 58.9299 91.9714 67.7723 91.9714 67.7723L92.6135 83.3615C92.6544 91.159 87.487 93.7789 80.8684 89.1236C80.2699 88.7069 68.4823 80.5872 68.4823 80.5872C68.4823 80.5872 55.0168 85.4365 54.3315 85.69C46.746 88.5074 42.4184 84.6589 44.4397 77.1283Z" fill="#EF8B8B"/>
<path d="M51.1281 39.3343L68.418 39.063L77.7312 25.0664C78.4603 24.1603 79.2119 23.4397 79.9762 22.8891C80.5727 23.6129 81.1186 24.5043 81.5931 25.5661L87.0372 41.4722L103.691 46.1355C109.741 48.7597 110.095 54.0226 104.082 58.537C103.558 58.9303 91.9745 67.7727 91.9745 67.7727L92.6166 83.3619C92.6365 87.0184 91.5105 89.5349 89.6259 90.6976C89.3495 90.5255 89.0738 90.3477 88.7921 90.1489C88.1935 89.7321 76.406 81.6124 76.406 81.6124C76.406 81.6124 74.5506 82.28 72.1812 83.1334C70.1098 81.7054 68.4854 80.5876 68.4854 80.5876C68.4854 80.5876 55.0198 85.4369 54.3345 85.6904C54.0115 85.811 53.6997 85.9127 53.3885 86.0088C51.8648 84.4051 51.4167 81.6821 52.3634 78.1535L56.9522 63.2412C56.9522 63.2412 47.997 51.7441 47.5969 51.2283C42.9282 45.3318 44.6107 40.3296 51.131 39.3347L51.1281 39.3343Z" fill="#FF9A9A"/>
<path d="M69.8189 55.9826C65.9895 55.4871 63.2868 51.9811 63.7823 48.1517C64.2778 44.3223 67.7838 41.6197 71.6132 42.1152C75.4426 42.6107 78.1452 46.1167 77.6497 49.9461C77.1542 53.7754 73.6482 56.4781 69.8189 55.9826Z" fill="white"/>
<path d="M71.6132 42.1152C75.4408 42.6104 78.1453 46.1155 77.6497 49.9461C77.408 51.8143 76.4472 53.4125 75.0852 54.5036C74.112 54.83 73.0528 54.9482 71.9661 54.8076C68.1384 54.3123 65.4339 50.8072 65.9295 46.9767C66.1712 45.1085 67.132 43.5102 68.4941 42.4192C69.4672 42.0927 70.5265 41.9746 71.6132 42.1152Z" fill="#1C1C1C"/>
<path d="M78.2169 62.4226C78.9271 62.5145 79.6477 62.2569 80.066 61.7136C81.0537 60.4233 80.597 58.1255 80.5774 58.0301C80.5757 58.0212 80.5743 58.0094 80.5697 58.0001C80.3593 57.2508 79.8667 56.8217 79.2135 56.8271C78.1105 56.8352 76.9204 58.0761 76.508 59.6496C76.1537 60.9986 76.8049 61.8601 77.53 62.2178C77.7511 62.3247 77.983 62.3924 78.2169 62.4226ZM79.7354 58.217C79.8475 58.7854 79.9972 60.3852 79.3798 61.1898C79.0763 61.5856 78.4298 61.6962 77.9086 61.4432C77.3551 61.1715 77.1478 60.5994 77.3408 59.8704C77.6773 58.5916 78.5994 57.6959 79.2205 57.6922C79.3104 57.6922 79.5833 57.6898 79.7351 58.2198L79.7354 58.217Z" fill="#1C1C1C"/>
<path d="M84.4703 53.2443C86.6551 53.527 88.2084 51.5182 88.7583 50.3163C88.8559 50.0998 88.7614 49.844 88.5453 49.7436C88.326 49.6456 88.073 49.7404 87.9725 49.9565C87.9124 50.0851 86.5173 53.0452 84.1073 52.2839C81.2663 51.3798 80.6635 49.0688 80.5556 47.7731C80.537 47.5358 80.3252 47.3576 80.0904 47.3794C79.8531 47.398 79.6753 47.607 79.6967 47.8446C79.7974 49.0612 80.4046 52.0107 83.8473 53.1057C84.0589 53.1737 84.2678 53.2181 84.4703 53.2443Z" fill="#1C1C1C"/>
<path d="M73.6669 102.977C77.0274 100.938 80.8724 99.2319 84.9762 99.8808C85.5011 100.422 88.3757 100.469 89.2203 100.972C90.0549 101.469 90.8574 102.464 91.4892 103.177C93.1286 105.027 92.9589 107.732 93.4956 109.851C93.781 110.977 92.5683 113.132 91.8522 113.891C90.6416 115.172 92.1227 116.282 92.5319 117.574C92.9511 118.896 93.5602 120.079 94.1205 121.049C95.2181 122.949 94.325 123.232 92.7509 122.756C91.7877 122.465 90.6881 121.715 89.217 120.952C86.5942 119.592 84.4611 126.357 81.7292 127.223C76.6756 128.825 71.7826 129.812 67.3775 126.357C63.705 123.476 63.3588 118.235 64.6375 114.122C65.9147 110.015 69.269 104.479 73.6669 102.977Z" stroke="#BFBFBF" stroke-width="3" stroke-linecap="round"/>
<path d="M244 164.878C246.186 167.179 249 172.462 249 175.878" stroke="#BFBFBF" stroke-width="3" stroke-linecap="round"/>
<path d="M252 166.878C252.832 168.693 254 170.842 254 172.878" stroke="#BFBFBF" stroke-width="3" stroke-linecap="round"/>
<path d="M28 202.878C28.303 206.363 27.9147 212.517 32 213.878" stroke="#BFBFBF" stroke-width="3" stroke-linecap="round"/>
<path d="M23 211.878C23.358 212.974 23.5805 215.311 25 215.878" stroke="#BFBFBF" stroke-width="3" stroke-linecap="round"/>
<path d="M120 49.8784C120 52.2728 120 54.634 120 56.8784" stroke="#BFBFBF" stroke-width="3" stroke-linecap="round"/>
<path d="M126 52.8784C125.941 53.9179 125.762 54.8981 125 55.8784" stroke="#BFBFBF" stroke-width="3" stroke-linecap="round"/>
<defs>
<filter id="filter0_f_477_15286" x="46" y="54" width="192" height="190" filterUnits="userSpaceOnUse" color-interpolation-filters="sRGB">
<feFlood flood-opacity="0" result="BackgroundImageFix"/>
<feBlend mode="normal" in="SourceGraphic" in2="BackgroundImageFix" result="shape"/>
<feGaussianBlur stdDeviation="10" result="effect1_foregroundBlur_477_15286"/>
</filter>
<filter id="filter1_f_477_15286" x="12" y="221.816" width="265" height="55" filterUnits="userSpaceOnUse" color-interpolation-filters="sRGB">
<feFlood flood-opacity="0" result="BackgroundImageFix"/>
<feBlend mode="normal" in="SourceGraphic" in2="BackgroundImageFix" result="shape"/>
<feGaussianBlur stdDeviation="10" result="effect1_foregroundBlur_477_15286"/>
</filter>
</defs>
</svg>
