<svg width="280" height="280" viewBox="0 0 280 280" fill="none" xmlns="http://www.w3.org/2000/svg">
<rect width="280" height="280" fill="white"/>
<g filter="url(#filter0_f_477_15167)">
<ellipse cx="148.336" cy="140.299" rx="76" ry="75" fill="#FDEFDB"/>
</g>
<g filter="url(#filter1_f_477_15167)">
<ellipse cx="137.5" cy="249.799" rx="112.5" ry="7.5" fill="#D9D3FF"/>
</g>
<path d="M113.506 174.502L132.574 143.011C134.14 140.427 134.718 137.363 134.2 134.39L127.912 98.1173C127.018 92.971 123.027 88.9182 117.894 87.9503L72.1008 79.3144C66.9684 78.3465 61.7751 80.6671 59.0684 85.1345L40.0011 116.625C38.4349 119.209 37.857 122.273 38.3751 125.247L44.6633 161.519C45.557 166.665 49.5484 170.718 54.6808 171.686L100.47 180.321C105.603 181.289 110.796 178.969 113.503 174.501L113.506 174.502Z" fill="#FEDE83"/>
<path d="M113.506 174.502L132.574 143.011C134.14 140.427 134.718 137.363 134.2 134.39L127.912 98.1173C127.018 92.971 123.027 88.9182 117.894 87.9503L72.1008 79.3144C66.9684 78.3465 61.7751 80.6671 59.0684 85.1345L40.0011 116.625C38.4349 119.209 37.857 122.273 38.3751 125.247L44.6633 161.519C45.557 166.665 49.5484 170.718 54.6808 171.686L100.47 180.321C105.603 181.289 110.796 178.969 113.503 174.501L113.506 174.502Z" fill="#C4A2CC"/>
<path d="M55.2998 163.525L49.0116 127.253C48.4942 124.275 49.072 121.211 50.6375 118.631L69.7049 87.1403C72.4116 82.673 77.6049 80.3523 82.7373 81.3202L117.89 87.9496C123.023 88.9175 127.014 92.9702 127.908 98.1166L134.196 134.389C134.714 137.366 134.136 140.43 132.57 143.011L113.503 174.501C110.796 178.969 105.603 181.289 100.47 180.321L65.3173 173.692C60.1849 172.724 56.1935 168.671 55.2998 163.525Z" fill="#DFBDE6"/>
<path d="M109.255 133.92C114.475 134.289 119.006 130.356 119.374 125.136C119.743 119.916 115.81 115.385 110.59 115.017C105.37 114.648 100.84 118.581 100.471 123.801C100.102 129.021 104.035 133.551 109.255 133.92Z" fill="white"/>
<path d="M107.959 133.734C113.079 134.819 118.108 131.552 119.193 126.432C119.721 123.933 119.212 121.459 117.959 119.452C116.863 118.597 115.559 117.973 114.107 117.664C108.987 116.579 103.958 119.846 102.874 124.966C102.346 127.465 102.855 129.939 104.108 131.946C105.204 132.801 106.508 133.425 107.959 133.734Z" fill="#1C1C1C"/>
<path d="M88.097 129.433C93.317 129.801 97.8476 125.869 98.2163 120.649C98.5849 115.428 94.6522 110.898 89.4321 110.529C84.2121 110.161 79.6816 114.093 79.3129 119.313C78.9442 124.533 82.877 129.064 88.097 129.433Z" fill="white"/>
<path d="M86.8008 129.248C91.921 130.332 96.95 127.066 98.0345 121.945C98.5626 119.447 98.0536 116.973 96.8004 114.966C95.7042 114.111 94.4002 113.487 92.949 113.177C87.8288 112.093 82.7998 115.36 81.7153 120.48C81.1871 122.979 81.6962 125.453 82.9494 127.46C84.0456 128.315 85.3496 128.938 86.8008 129.248Z" fill="#1C1C1C"/>
<path d="M95.998 139.147C102.839 140.016 107.926 137.439 108.003 137.399C108.279 137.256 108.387 136.913 108.244 136.637C108.101 136.361 107.758 136.253 107.482 136.396C107.373 136.451 96.5622 141.9 85.458 133.572C85.2087 133.385 84.8535 133.434 84.6663 133.684C84.4792 133.933 84.5289 134.288 84.7786 134.472C88.6841 137.403 92.5611 138.707 95.9947 139.143L95.998 139.147Z" fill="#1C1C1C"/>
<path d="M47.2338 134.657C40.6007 141.035 52.4645 153.002 56.2841 156.975" stroke="black" stroke-width="3" stroke-linecap="round"/>
<path d="M131.942 137.586C134.662 143.797 147.662 138.971 151.866 137.661" stroke="black" stroke-width="3" stroke-linecap="round"/>
<path d="M182.728 193.143C169.51 195.664 162.316 187.332 166.739 174.622L186.892 116.748C191.316 104.041 202.133 101.978 210.923 112.163L250.968 158.552C259.76 168.741 256.14 179.137 242.922 181.658L182.728 193.143Z" fill="#FDCF6A"/>
<path d="M182.728 193.143C169.51 195.664 162.316 187.332 166.739 174.622L186.892 116.748C191.316 104.041 202.133 101.978 210.923 112.163L250.968 158.552C259.76 168.741 256.14 179.137 242.922 181.658L182.728 193.143Z" fill="#EFBF60"/>
<path d="M240.986 160.457L200.941 114.068C198.244 110.946 195.358 108.978 192.524 108.111C190.21 109.961 188.25 112.849 186.892 116.748L166.739 174.622C162.317 187.332 169.51 195.665 182.728 193.143L232.939 183.563C246.157 181.042 249.781 170.645 240.986 160.457Z" fill="#FDCF6A"/>
<path d="M198.98 156.049C205.713 154.561 209.633 150.419 209.693 150.356C209.904 150.128 209.89 149.769 209.662 149.558C209.435 149.346 209.075 149.36 208.864 149.588C208.779 149.676 200.439 158.451 187.177 154.355C186.879 154.263 186.562 154.429 186.47 154.727C186.377 155.025 186.544 155.342 186.841 155.431C191.506 156.873 195.596 156.794 198.975 156.047L198.98 156.049Z" fill="#1C1C1C"/>
<path d="M187.736 151.806C192.562 150.885 195.728 146.226 194.807 141.4C193.887 136.573 189.228 133.407 184.401 134.328C179.575 135.249 176.409 139.908 177.33 144.734C178.25 149.56 182.909 152.726 187.736 151.806Z" fill="white"/>
<path d="M179.456 137.115C176.17 140.767 176.464 146.389 180.117 149.678C181.899 151.283 184.15 152.031 186.371 151.954C187.581 151.462 188.702 150.697 189.633 149.662C192.919 146.01 192.625 140.388 188.972 137.099C187.191 135.494 184.939 134.746 182.719 134.823C181.509 135.315 180.388 136.08 179.456 137.115Z" fill="#1C1C1C"/>
<path d="M207.683 148C212.509 147.079 215.675 142.42 214.754 137.594C213.833 132.768 209.174 129.602 204.348 130.522C199.522 131.443 196.356 136.102 197.276 140.929C198.197 145.755 202.856 148.921 207.683 148Z" fill="white"/>
<path d="M199.363 133.354C196.1 137.028 196.435 142.649 200.109 145.912C201.903 147.504 204.158 148.236 206.377 148.148C207.582 147.65 208.698 146.878 209.624 145.833C212.887 142.159 212.552 136.538 208.878 133.275C207.084 131.683 204.828 130.951 202.61 131.039C201.405 131.537 200.289 132.309 199.363 133.354Z" fill="#1C1C1C"/>
<path d="M233.303 144.136C237.83 144.136 252.266 142.82 255.081 148.136C258.358 154.326 253.815 160.112 251.303 165.136" stroke="black" stroke-width="3" stroke-linecap="round"/>
<path d="M171.303 161.136C162.729 158.754 157.983 154.496 154.303 147.136" stroke="black" stroke-width="3" stroke-linecap="round"/>
<g clip-path="url(#clip0_477_15167)">
<circle cx="77.9128" cy="160.59" r="16" transform="rotate(32.3601 77.9128 160.59)" fill="#E15256"/>
<ellipse cx="77.8048" cy="159.61" rx="14.4615" ry="14.6154" transform="rotate(32.3601 77.8048 159.61)" fill="#F85F63"/>
<path d="M87.5096 158.9C86.8849 156.237 84.2083 154.541 81.5338 155.113L81.3592 155.151L81.3184 154.977C80.6937 152.314 78.017 150.618 75.3425 151.19C72.668 151.763 71.005 154.387 71.6297 157.05L73.9245 166.832L78.8606 165.796L83.7968 164.76C86.4713 164.187 88.1343 161.563 87.5096 158.9Z" fill="#BF0000"/>
</g>
<circle cx="249.879" cy="173.841" r="15" transform="rotate(22.1094 249.879 173.841)" fill="#6285DF"/>
<ellipse cx="249.616" cy="172.956" rx="13.5577" ry="13.7019" transform="rotate(22.1094 249.616 172.956)" fill="#7499F9"/>
<path d="M247.095 169.499L242.66 167.698C242.148 167.49 241.565 167.736 241.357 168.248L238.471 175.352C238.257 175.881 238.526 176.481 239.064 176.671L243.537 178.257C243.576 178.273 243.623 178.253 243.639 178.214L247.138 169.601C247.154 169.562 247.134 169.515 247.095 169.499Z" fill="white"/>
<path d="M248.371 169.445L255.15 166.737C255.15 166.737 256.773 165.431 256.837 167.422C256.901 169.412 253.807 171.651 253.807 171.651L259.431 173.936C259.431 173.936 260.737 175.558 258.809 177.615C256.882 179.671 254.65 182.477 253.822 182.36C252.997 182.244 245.761 179.085 245.761 179.085C245.761 179.085 244.559 178.816 245.017 177.691L248.367 169.443L248.371 169.445Z" fill="white"/>
<defs>
<filter id="filter0_f_477_15167" x="52.3359" y="45.2993" width="192" height="190" filterUnits="userSpaceOnUse" color-interpolation-filters="sRGB">
<feFlood flood-opacity="0" result="BackgroundImageFix"/>
<feBlend mode="normal" in="SourceGraphic" in2="BackgroundImageFix" result="shape"/>
<feGaussianBlur stdDeviation="10" result="effect1_foregroundBlur_477_15167"/>
</filter>
<filter id="filter1_f_477_15167" x="4.99976" y="222.299" width="265" height="55" filterUnits="userSpaceOnUse" color-interpolation-filters="sRGB">
<feFlood flood-opacity="0" result="BackgroundImageFix"/>
<feBlend mode="normal" in="SourceGraphic" in2="BackgroundImageFix" result="shape"/>
<feGaussianBlur stdDeviation="10" result="effect1_foregroundBlur_477_15167"/>
</filter>
<clipPath id="clip0_477_15167">
<rect width="32" height="32" fill="white" transform="translate(72.9614 138.511) rotate(32.3601)"/>
</clipPath>
</defs>
</svg>
