<svg width="245" height="147" viewBox="0 0 245 147" fill="none" xmlns="http://www.w3.org/2000/svg">
<circle cx="218" cy="27" r="25" fill="white"/>
<circle cx="218" cy="27" r="26" stroke="url(#paint0_linear_848_24951)" stroke-width="2" stroke-linejoin="round" stroke-dasharray="4 4"/>
<path d="M67.4922 96.6914C69.1738 96.6914 70.4316 98.0723 70.6777 100.314H72.8379V95.8164H74.5605V108.285H72.8379V101.709H70.6982C70.5137 104.102 69.2285 105.564 67.4922 105.564C65.6055 105.564 64.252 103.855 64.2656 101.121C64.252 98.4072 65.6055 96.6914 67.4922 96.6914ZM65.9336 101.121C65.9268 102.974 66.5625 103.985 67.4922 103.979C68.4287 103.985 69.0508 102.974 69.0508 101.121C69.0508 99.2754 68.4287 98.2637 67.4922 98.2637C66.5625 98.2637 65.9268 99.2754 65.9336 101.121ZM86.9473 103.062V104.389H77.7461V103.062H81.4785V102.092H83.2285V103.062H86.9473ZM76.3652 101.668V96.3223H79.6328V97.6758H78.0605V100.301C78.6211 100.273 79.1543 100.212 79.7559 100.082L79.8652 101.449C78.8193 101.654 78.04 101.668 76.9668 101.668H76.3652ZM78.6621 106.508C78.6553 105.394 80.0293 104.765 82.3262 104.758C84.6162 104.765 85.9902 105.394 85.9902 106.508C85.9902 107.656 84.6162 108.271 82.3262 108.271C80.0293 108.271 78.6553 107.656 78.6621 106.508ZM80.207 101.668V96.3223H83.6934V97.6758H81.9297V100.308C82.8115 100.287 83.3652 100.232 84.0078 100.082L84.1309 101.449C83.2627 101.647 82.5176 101.668 80.877 101.668H80.207ZM80.5215 106.508C80.5215 106.911 81.1572 107.082 82.3262 107.082C83.4746 107.082 84.0967 106.911 84.1035 106.508C84.0967 106.132 83.4746 105.968 82.3262 105.961C81.1572 105.968 80.5215 106.132 80.5215 106.508ZM83.3516 99.5488V98.2227H85.0469V95.8164H86.7559V102.447H85.0469V99.5488H83.3516ZM99.0469 95.8164V108.258H97.4062V95.8164H99.0469ZM88.1094 104.443C90.625 102.953 91.7324 101.142 91.9717 98.7012H88.793V97.293H93.7012C93.7012 98.4824 93.5713 99.5898 93.2705 100.615H94.7676V96.0898H96.3945V107.711H94.7676V101.996H92.7305C92.0195 103.418 90.8643 104.648 89.0938 105.674L88.1094 104.443ZM113.99 95.8164V102.201H112.254V95.8164H113.99ZM103.641 100.957C105.575 100.424 106.532 99.1182 106.648 97.7852H104.105V96.3906H110.941V97.7852H108.453C108.569 99.0225 109.513 100.239 111.42 100.738L110.586 102.078C109.144 101.682 108.146 100.848 107.585 99.7812C107.018 100.964 105.965 101.9 104.434 102.338L103.641 100.957ZM105.65 104.02V102.693H114.004V106.016H107.387V106.836H114.346V108.176H105.678V104.771H112.268V104.02H105.65ZM127.061 101.969V103.35H122.371V105.496H120.648V103.35H115.672V101.969H127.061ZM117.012 108.039V104.416H118.748V106.645H125.803V108.039H117.012ZM117.094 100.943V96.3633H125.598V100.943H117.094ZM118.803 99.5898H123.889V97.7168H118.803V99.5898ZM137.602 95.8164V100.684H139.434V102.119H137.602V108.258H135.879V95.8164H137.602ZM127.717 99.0703V97.6758H130.533V96.0078H132.283V97.6758H135.031V99.0703H127.717ZM128.223 102.734C128.216 100.998 129.569 99.7607 131.408 99.7676C133.22 99.7607 134.58 100.998 134.58 102.734C134.58 104.471 133.22 105.694 131.408 105.701C129.569 105.694 128.216 104.471 128.223 102.734ZM129.891 102.734C129.891 103.698 130.526 104.272 131.408 104.266C132.276 104.272 132.912 103.698 132.912 102.734C132.912 101.777 132.276 101.189 131.408 101.176C130.526 101.189 129.891 101.777 129.891 102.734ZM149.988 99.207V100.574H141.293V96.2539H143.029V99.207H149.988ZM139.871 103.281V101.914H151.26V103.281H139.871ZM141.184 107.984V104.293H142.934V106.59H150.07V107.984H141.184ZM165.998 95.8164V108.258H164.357V95.8164H165.998ZM155.061 104.443C157.576 102.953 158.684 101.142 158.923 98.7012H155.744V97.293H160.652C160.652 98.4824 160.522 99.5898 160.222 100.615H161.719V96.0898H163.346V107.711H161.719V101.996H159.682C158.971 103.418 157.815 104.648 156.045 105.674L155.061 104.443ZM177.059 99.5215V100.67H181.912V102.064H170.523V100.67H175.336V99.5215H177.059ZM171.016 98.9336C173.258 98.8105 174.529 98.1543 174.898 97.4434H171.576V96.1172H180.859V97.4434H177.503C177.858 98.1611 179.116 98.8105 181.393 98.9336L180.846 100.232C178.446 100.062 176.847 99.2959 176.211 98.1885C175.568 99.2959 173.969 100.062 171.576 100.232L171.016 98.9336ZM171.562 104.635V103.336H175.322V102.406H177.072V103.336H180.832V104.635H171.562ZM172.369 106.645C172.362 105.578 173.75 105.004 176.184 105.004C178.597 105.004 180.019 105.578 180.025 106.645C180.019 107.731 178.597 108.306 176.184 108.299C173.75 108.306 172.362 107.731 172.369 106.645ZM174.16 106.645C174.16 106.993 174.851 107.15 176.184 107.15C177.537 107.15 178.193 106.993 178.207 106.645C178.193 106.289 177.537 106.166 176.184 106.152C174.851 106.166 174.16 106.289 174.16 106.645ZM188.311 95.9941C191.175 95.9941 192.829 96.7461 192.836 98.1133C192.829 99.501 191.175 100.246 188.311 100.246C185.439 100.246 183.771 99.501 183.771 98.1133C183.771 96.7461 185.439 95.9941 188.311 95.9941ZM182.637 102.215V100.834H193.984V102.215H182.637ZM183.949 104.211V102.939H192.604V106.111H185.672V106.863H192.932V108.176H183.963V104.895H190.881V104.211H183.949ZM185.604 98.1133C185.597 98.7217 186.485 98.9609 188.311 98.9609C190.149 98.9609 191.031 98.7217 191.031 98.1133C191.031 97.5596 190.149 97.2656 188.311 97.2656C186.485 97.2656 185.597 97.5596 185.604 98.1133ZM204.703 95.8164V100.697H206.357V102.133H204.703V108.258H202.953V95.8164H204.703ZM194.49 104.648C196.186 102.81 196.678 100.991 196.787 98.5098H195.037V97.0879H198.455C198.441 100.506 198.086 103.172 195.857 105.619L194.49 104.648ZM198.004 105.455C199.692 103.377 200.157 101.244 200.253 98.5098H198.865V97.0879H201.9C201.894 100.636 201.586 103.719 199.385 106.426L198.004 105.455ZM209.01 103.883C209.017 102.181 209.475 101.661 210.295 101.148C210.883 100.766 211.341 100.342 211.334 99.7129C211.341 99.0293 210.808 98.585 210.145 98.5781C209.509 98.585 208.914 99.0088 208.887 99.8086H206.945C206.979 97.8877 208.408 96.9648 210.158 96.9648C212.065 96.9648 213.412 97.9561 213.412 99.6445C213.412 100.772 212.831 101.483 211.936 102.023C211.163 102.481 210.821 102.926 210.814 103.883V104.033H209.01V103.883ZM208.805 105.975C208.791 105.346 209.311 104.833 209.953 104.84C210.562 104.833 211.088 105.346 211.088 105.975C211.088 106.61 210.562 107.123 209.953 107.123C209.311 107.123 208.791 106.61 208.805 105.975ZM93.6602 113.816V126.258H92.0059V120.01H90.8027V125.656H89.2031V114.021H90.8027V118.615H92.0059V113.816H93.6602ZM83.2559 123.441V115.252H87.8906V116.66H85.0059V121.979C86.209 121.958 87.2754 121.89 88.4785 121.678L88.6016 123.1C87.084 123.387 85.7578 123.435 84.1172 123.441H83.2559ZM104.953 113.816V118.875H106.58V120.324H104.953V126.258H103.189V113.816H104.953ZM94.8496 122.744C95.7588 122.744 96.8184 122.744 97.9258 122.717V121.65C96.6064 121.391 95.7451 120.55 95.752 119.395C95.7451 118.007 97.0029 117.057 98.8145 117.057C100.592 117.057 101.863 118.007 101.877 119.395C101.863 120.55 100.988 121.397 99.6758 121.65V122.655C100.66 122.601 101.651 122.519 102.574 122.389L102.684 123.66C100.038 124.152 97.1807 124.173 95.082 124.166L94.8496 122.744ZM95.0957 116.564V115.197H97.9258V113.885H99.6758V115.197H102.479V116.564H95.0957ZM97.4062 119.395C97.3994 120.051 97.96 120.406 98.8145 120.406C99.6416 120.406 100.195 120.051 100.195 119.395C100.195 118.752 99.6416 118.39 98.8145 118.383C97.96 118.39 97.3994 118.752 97.4062 119.395ZM120.143 113.816V118.588H121.906V120.023H120.143V126.23H118.393V113.816H120.143ZM110.189 122.744C113.136 121.268 114.722 119.285 115.05 116.51H110.9V115.088H116.82C116.807 118.807 115.357 122.026 111.174 124.084L110.189 122.744ZM132.844 113.816V126.285H131.08V113.816H132.844ZM122.795 119.121C122.788 116.407 124.176 114.691 126.09 114.691C127.963 114.691 129.357 116.407 129.357 119.121C129.357 121.855 127.963 123.564 126.09 123.564C124.176 123.564 122.788 121.855 122.795 119.121ZM124.477 119.121C124.47 120.974 125.119 121.985 126.09 121.979C127.033 121.985 127.669 120.974 127.676 119.121C127.669 117.275 127.033 116.264 126.09 116.264C125.119 116.264 124.47 117.275 124.477 119.121ZM144.67 119.572V120.967H135.865V114.855H144.574V116.264H137.588V119.572H144.67ZM134.525 124.74V123.305H145.914V124.74H134.525ZM158 119.395V120.693H146.611V119.395H158ZM147.91 122.512V121.309H156.633V124.248H149.66V124.959H157.002V126.148H147.924V123.141H154.91V122.512H147.91ZM148.006 115.225V114.035H156.619V116.961H149.77V117.631H156.838V118.807H148.033V115.854H154.869V115.225H148.006ZM171.904 113.83V117.385H173.49V118.82H171.904V122.279H170.154V113.83H171.904ZM161.814 120.68C162.724 120.68 163.756 120.68 164.836 120.652V119.955C163.482 119.764 162.642 119.101 162.648 118.15C162.642 116.995 163.852 116.284 165.697 116.291C167.529 116.284 168.739 116.995 168.746 118.15C168.739 119.101 167.905 119.757 166.572 119.948V120.591C167.598 120.536 168.623 120.461 169.58 120.338L169.703 121.541C167.071 122.006 164.187 122.033 161.992 122.033L161.814 120.68ZM162.143 116.004V114.732H164.836V113.721H166.572V114.732H169.266V116.004H162.143ZM163.4 124.125V122.785H171.904V126.258H170.154V124.125H163.4ZM164.316 118.15C164.31 118.602 164.809 118.868 165.697 118.861C166.572 118.868 167.071 118.602 167.078 118.15C167.071 117.665 166.572 117.453 165.697 117.453C164.809 117.453 164.31 117.665 164.316 118.15ZM184.469 113.83V122.771H182.719V113.83H184.469ZM174.242 117.754C174.242 115.929 175.732 114.616 177.646 114.623C179.554 114.616 181.044 115.929 181.051 117.754C181.044 119.606 179.554 120.912 177.646 120.912C175.732 120.912 174.242 119.606 174.242 117.754ZM175.951 117.754C175.938 118.793 176.669 119.395 177.646 119.395C178.59 119.395 179.321 118.793 179.328 117.754C179.321 116.742 178.59 116.134 177.646 116.141C176.669 116.134 175.938 116.742 175.951 117.754ZM176.129 126.039V121.869H177.893V124.645H184.797V126.039H176.129ZM195.967 113.816V118.684H197.799V120.119H195.967V126.258H194.244V113.816H195.967ZM186.082 117.07V115.676H188.898V114.008H190.648V115.676H193.396V117.07H186.082ZM186.588 120.734C186.581 118.998 187.935 117.761 189.773 117.768C191.585 117.761 192.945 118.998 192.945 120.734C192.945 122.471 191.585 123.694 189.773 123.701C187.935 123.694 186.581 122.471 186.588 120.734ZM188.256 120.734C188.256 121.698 188.892 122.272 189.773 122.266C190.642 122.272 191.277 121.698 191.277 120.734C191.277 119.777 190.642 119.189 189.773 119.176C188.892 119.189 188.256 119.777 188.256 120.734ZM208.504 114.896V116.072C208.497 117.631 208.497 119.381 207.998 122.02L206.248 121.842C206.727 119.49 206.747 117.74 206.754 116.277H199.426V114.896H208.504ZM198.25 124.74V123.318H202.311V119.039H204.047V123.318H209.598V124.74H198.25ZM212.975 123.988L211.799 127.885H210.35L211.033 123.988H212.975ZM11.4238 131.816V144.258H9.74219V138.037H8.58008V143.656H6.93945V132.021H8.58008V136.629H9.74219V131.816H11.4238ZM1.19727 141.223V133.197H2.94727V139.698C3.94531 139.671 5.0459 139.582 6.24219 139.35L6.41992 140.854C4.75195 141.141 3.33008 141.229 2.04492 141.223H1.19727ZM22.6074 131.816V136.588H24.3711V138.023H22.6074V144.23H20.8574V131.816H22.6074ZM12.6543 140.744C15.6006 139.268 17.1865 137.285 17.5146 134.51H13.3652V133.088H19.2852C19.2715 136.807 17.8223 140.026 13.6387 142.084L12.6543 140.744ZM33.7227 139.568C36.4434 139.568 38.1523 140.43 38.166 141.92C38.1523 143.39 36.4434 144.265 33.7227 144.258C31.0225 144.265 29.2861 143.39 29.293 141.92C29.2861 140.43 31.0225 139.568 33.7227 139.568ZM28.1445 138.775V137.367H32.3828V135.193H34.1055V137.367H39.4375V138.775H28.1445ZM29.416 133.744V132.377H38.0977V133.389C38.1045 134.38 38.1045 135.446 37.7422 136.725L36.0332 136.561C36.3135 135.433 36.3477 134.592 36.3613 133.744H29.416ZM31.0293 141.92C31.0225 142.59 32.0068 142.932 33.7227 142.932C35.4385 142.932 36.4297 142.59 36.4297 141.92C36.4297 141.229 35.4385 140.86 33.7227 140.867C32.0068 140.86 31.0225 141.229 31.0293 141.92ZM50.0879 131.816V134.537H51.7695V135.973H50.0879V138.775H48.3379V131.816H50.0879ZM40.0801 137.668C42.876 136.971 44.4141 135.59 44.6943 133.936H40.6953V132.541H46.6016C46.5947 135.836 44.5098 138.064 40.7773 139.049L40.0801 137.668ZM41.9531 144.107V139.24H50.0879V144.107H41.9531ZM43.6895 142.74H48.3652V140.648H43.6895V142.74ZM62.1875 131.816V134.646H63.8691V136.082H62.1875V139.076H60.4375V131.816H62.1875ZM52.6855 138.461V132.541H54.4219V134.127H56.9648V132.541H58.7148V138.461H52.6855ZM54.0527 144.094V139.637H62.2559V141.018H55.7891V142.727H62.4883V144.094H54.0527ZM54.4219 137.094H56.9648V135.48H54.4219V137.094ZM75.7637 138.174V139.568H64.416V138.174H75.7637ZM65.5508 134.742C65.5508 133.156 67.3486 132.186 70.0898 132.199C72.8105 132.186 74.6084 133.156 74.6152 134.742C74.6084 136.335 72.8105 137.312 70.0898 137.312C67.3486 137.312 65.5508 136.335 65.5508 134.742ZM65.7832 144.039V140.402H67.5332V142.645H74.4785V144.039H65.7832ZM67.3691 134.742C67.3555 135.515 68.3604 135.904 70.0898 135.904C71.8057 135.904 72.8105 135.515 72.8105 134.742C72.8105 133.99 71.8057 133.58 70.0898 133.566C68.3604 133.58 67.3555 133.99 67.3691 134.742ZM89.6133 131.816V134.537H91.2949V135.973H89.6133V138.775H87.8633V131.816H89.6133ZM79.6055 137.668C82.4014 136.971 83.9395 135.59 84.2197 133.936H80.2207V132.541H86.127C86.1201 135.836 84.0352 138.064 80.3027 139.049L79.6055 137.668ZM81.4785 144.107V139.24H89.6133V144.107H81.4785ZM83.2148 142.74H87.8906V140.648H83.2148V142.74ZM102.328 131.816V139.199H100.592V136.26H98.6504V134.852H100.592V131.816H102.328ZM91.7598 137.832C93.7969 137.148 94.7266 135.521 94.7676 133.963H92.2656V132.568H99.0195V133.963H96.5449C96.5791 135.412 97.4678 136.875 99.4023 137.518L98.541 138.885C97.1738 138.44 96.2236 137.538 95.6836 136.424C95.1367 137.688 94.1387 138.707 92.6621 139.213L91.7598 137.832ZM93.7969 141.879C93.7969 140.368 95.4238 139.479 98.0762 139.473C100.735 139.479 102.362 140.368 102.369 141.879C102.362 143.39 100.735 144.271 98.0762 144.271C95.4238 144.271 93.7969 143.39 93.7969 141.879ZM95.5332 141.879C95.5332 142.59 96.4287 142.945 98.0762 142.945C99.7305 142.945 100.626 142.59 100.633 141.879C100.626 141.161 99.7305 140.806 98.0762 140.812C96.4287 140.806 95.5332 141.161 95.5332 141.879ZM114.086 137.381V138.762H110.477V141.414H115.33V142.836H103.941V141.414H108.74V138.762H105.281V132.691H113.99V134.086H107.031V137.381H114.086ZM129.221 131.83V135.385H130.807V136.82H129.221V140.279H127.471V131.83H129.221ZM119.131 138.68C120.04 138.68 121.072 138.68 122.152 138.652V137.955C120.799 137.764 119.958 137.101 119.965 136.15C119.958 134.995 121.168 134.284 123.014 134.291C124.846 134.284 126.056 134.995 126.062 136.15C126.056 137.101 125.222 137.757 123.889 137.948V138.591C124.914 138.536 125.939 138.461 126.896 138.338L127.02 139.541C124.388 140.006 121.503 140.033 119.309 140.033L119.131 138.68ZM119.459 134.004V132.732H122.152V131.721H123.889V132.732H126.582V134.004H119.459ZM120.717 142.125V140.785H129.221V144.258H127.471V142.125H120.717ZM121.633 136.15C121.626 136.602 122.125 136.868 123.014 136.861C123.889 136.868 124.388 136.602 124.395 136.15C124.388 135.665 123.889 135.453 123.014 135.453C122.125 135.453 121.626 135.665 121.633 136.15ZM141.785 131.83V140.771H140.035V131.83H141.785ZM131.559 135.754C131.559 133.929 133.049 132.616 134.963 132.623C136.87 132.616 138.36 133.929 138.367 135.754C138.36 137.606 136.87 138.912 134.963 138.912C133.049 138.912 131.559 137.606 131.559 135.754ZM133.268 135.754C133.254 136.793 133.985 137.395 134.963 137.395C135.906 137.395 136.638 136.793 136.645 135.754C136.638 134.742 135.906 134.134 134.963 134.141C133.985 134.134 133.254 134.742 133.268 135.754ZM133.445 144.039V139.869H135.209V142.645H142.113V144.039H133.445ZM153.338 131.789V134.496H155.02V135.891H153.338V138.529H151.588V131.789H153.338ZM143.467 134.072V132.746H146.297V131.734H148.033V132.746H150.85V134.072H143.467ZM144.068 136.41C144.068 135.166 145.306 134.38 147.158 134.373C149.024 134.38 150.221 135.166 150.221 136.41C150.221 137.682 149.024 138.44 147.158 138.447C145.306 138.44 144.068 137.682 144.068 136.41ZM145.08 140.293V139.035H153.338V142.18H146.816V142.891H153.693V144.176H145.107V140.99H151.602V140.293H145.08ZM145.777 136.41C145.771 136.943 146.297 137.196 147.158 137.203C148.026 137.196 148.566 136.943 148.566 136.41C148.566 135.884 148.026 135.597 147.158 135.604C146.297 135.597 145.771 135.884 145.777 136.41ZM165.396 132.787C165.39 134.257 166.894 135.877 169.744 136.232L169.061 137.641C166.887 137.326 165.294 136.321 164.48 134.975C163.66 136.314 162.074 137.326 159.928 137.641L159.23 136.232C162.061 135.877 163.558 134.257 163.564 132.787V132.186H165.396V132.787ZM158.793 140.006V138.584H170.141V140.006H165.301V144.258H163.578V140.006H158.793ZM178.645 139.801C178.645 140.799 179.068 141.838 180.073 142.521C181.105 141.79 181.557 140.724 181.557 139.801V139.377H183.279V139.801C183.266 141.1 183.956 142.296 185.617 142.809L184.77 144.08C183.58 143.677 182.801 142.918 182.37 141.954C181.96 142.918 181.235 143.752 180.121 144.189C178.952 143.766 178.221 142.959 177.817 142.002C177.373 142.925 176.607 143.677 175.473 144.08L174.611 142.809C176.245 142.248 176.942 141.011 176.949 139.801V139.377H178.645V139.801ZM174.311 135.453C174.311 133.689 175.773 132.459 177.715 132.459C179.649 132.459 181.112 133.689 181.119 135.453C181.112 137.183 179.649 138.427 177.715 138.42C175.773 138.427 174.311 137.183 174.311 135.453ZM176.02 135.453C176.006 136.39 176.717 136.978 177.715 136.971C178.686 136.978 179.39 136.39 179.396 135.453C179.39 134.489 178.686 133.922 177.715 133.922C176.717 133.922 176.006 134.489 176.02 135.453ZM182.787 138.857V131.83H184.537V138.857H182.787ZM189.65 132.691C191.332 132.691 192.59 134.072 192.836 136.314H194.996V131.816H196.719V144.285H194.996V137.709H192.856C192.672 140.102 191.387 141.564 189.65 141.564C187.764 141.564 186.41 139.855 186.424 137.121C186.41 134.407 187.764 132.691 189.65 132.691ZM188.092 137.121C188.085 138.974 188.721 139.985 189.65 139.979C190.587 139.985 191.209 138.974 191.209 137.121C191.209 135.275 190.587 134.264 189.65 134.264C188.721 134.264 188.085 135.275 188.092 137.121ZM209.707 141.373V142.809H198.318V141.373H200.861V138.324C199.897 137.743 199.316 136.861 199.316 135.768C199.316 133.751 201.285 132.425 203.992 132.418C206.686 132.425 208.675 133.751 208.682 135.768C208.675 136.841 208.114 137.709 207.178 138.29V141.373H209.707ZM201.039 135.768C201.039 136.984 202.208 137.736 203.992 137.736C205.749 137.736 206.952 136.984 206.959 135.768C206.952 134.517 205.749 133.792 203.992 133.799C202.208 133.792 201.039 134.517 201.039 135.768ZM202.584 141.373H205.414V138.953C204.97 139.042 204.491 139.09 203.992 139.09C203.493 139.09 203.021 139.042 202.584 138.96V141.373ZM212.031 143.123C211.389 143.123 210.869 142.61 210.883 141.975C210.869 141.346 211.389 140.833 212.031 140.84C212.64 140.833 213.166 141.346 213.166 141.975C213.166 142.61 212.64 143.123 212.031 143.123Z" fill="white"/>
<path fill-rule="evenodd" clip-rule="evenodd" d="M182.5 35.1054C182.914 35.6575 182.803 36.441 182.251 36.8555L173.254 43.61C172.702 44.0245 171.918 43.9129 171.504 43.3609C171.089 42.8088 171.201 42.0252 171.753 41.6107L178.048 36.8842C176.295 36.8671 174.457 36.9622 173.052 37.0998C168.281 37.567 162.957 39.4022 159.002 42.0474C155.661 44.2826 153.413 48.3837 152.01 52.3987C151.369 54.235 150.962 57.1237 151.21 59.8754C151.558 59.2157 151.93 58.567 152.334 57.944C153.895 55.5328 155.993 53.3852 159.093 52.3181C159.97 52.0164 161.351 51.884 162.728 52.1525C164.126 52.4255 165.691 53.151 166.664 54.7402C167.277 55.7422 167.413 56.9221 167.314 58.0458C167.215 59.1773 166.871 60.3563 166.404 61.4667C165.48 63.6663 163.976 65.8273 162.51 67.0629C161.304 68.0786 159.606 68.8189 157.884 69.1013C156.17 69.3825 154.244 69.2374 152.691 68.2369C151.994 67.7881 151.408 67.2259 150.918 66.5847C148.217 72.9847 148.524 78.6456 149.303 85.7317C149.378 86.418 148.883 87.0354 148.197 87.1108C147.511 87.1862 146.893 86.691 146.818 86.0048C146.025 78.7876 145.639 72.5148 148.709 65.3911C148.846 65.0732 148.985 64.747 149.126 64.4147C149.228 64.1757 149.331 63.9334 149.435 63.6888C149.062 62.564 148.842 61.3717 148.731 60.2112C148.432 57.094 148.874 53.7942 149.65 51.5741C151.114 47.385 153.593 42.6578 157.612 39.9694C161.928 37.0823 167.65 35.1168 172.808 34.6117C174.455 34.4504 176.727 34.3379 178.843 34.3992L173.746 27.6097C173.331 27.0577 173.443 26.2741 173.995 25.8596C174.547 25.4451 175.331 25.5567 175.745 26.1088L182.5 35.1054ZM152.135 63.7479C152.603 64.7927 153.238 65.616 154.044 66.135C154.902 66.6876 156.134 66.8549 157.48 66.6343C158.818 66.4148 160.082 65.8391 160.899 65.1511C161.997 64.2253 163.292 62.4201 164.099 60.4984C164.498 59.5481 164.753 58.6276 164.824 57.8272C164.894 57.019 164.77 56.4345 164.532 56.0457C164.038 55.2386 163.206 54.793 162.249 54.6062C161.269 54.4151 160.336 54.5343 159.907 54.682C157.507 55.5078 155.806 57.1806 154.432 59.3027C153.54 60.6808 152.815 62.1978 152.135 63.7479Z" fill="white"/>
<path d="M210 27.5833C209.586 27.5833 209.25 27.9191 209.25 28.3333C209.25 28.7475 209.586 29.0833 210 29.0833V27.5833ZM226 29.0833C226.414 29.0833 226.75 28.7475 226.75 28.3333C226.75 27.9191 226.414 27.5833 226 27.5833V29.0833ZM210 32.9167C209.586 32.9167 209.25 33.2525 209.25 33.6667C209.25 34.0809 209.586 34.4167 210 34.4167V32.9167ZM226 34.4167C226.414 34.4167 226.75 34.0809 226.75 33.6667C226.75 33.2525 226.414 32.9167 226 32.9167V34.4167ZM210 22.25C209.586 22.25 209.25 22.5858 209.25 23C209.25 23.4142 209.586 23.75 210 23.75V22.25ZM226 23.75C226.414 23.75 226.75 23.4142 226.75 23C226.75 22.5858 226.414 22.25 226 22.25V23.75ZM210 29.0833H226V27.5833H210V29.0833ZM210 34.4167H226V32.9167H210V34.4167ZM210 23.75H226V22.25H210V23.75Z" fill="#111111"/>
<circle cx="228" cy="23" r="7" fill="#4059DE"/>
<path d="M231.066 19.6367V26H230.179L226.953 21.3506H226.9V26H225.934V19.6367H226.83L230.056 24.2949H230.117V19.6367H231.066Z" fill="white"/>
<defs>
<linearGradient id="paint0_linear_848_24951" x1="218" y1="2" x2="218" y2="52" gradientUnits="userSpaceOnUse">
<stop offset="0.583333" stop-color="#63E9F1"/>
<stop offset="1" stop-color="#ECF7D5"/>
</linearGradient>
</defs>
</svg>
