<svg width="375" height="205" viewBox="0 0 375 205" fill="none" xmlns="http://www.w3.org/2000/svg">
<path d="M140.954 171.816V184.258H139.3V178.01H138.097V183.656H136.497V172.021H138.097V176.615H139.3V171.816H140.954ZM130.55 181.441V173.252H135.185V174.66H132.3V179.979C133.503 179.958 134.569 179.89 135.772 179.678L135.896 181.1C134.378 181.387 133.052 181.435 131.411 181.441H130.55ZM152.247 171.816V176.875H153.874V178.324H152.247V184.258H150.483V171.816H152.247ZM142.144 180.744C143.053 180.744 144.112 180.744 145.22 180.717V179.65C143.9 179.391 143.039 178.55 143.046 177.395C143.039 176.007 144.297 175.057 146.108 175.057C147.886 175.057 149.157 176.007 149.171 177.395C149.157 178.55 148.282 179.397 146.97 179.65V180.655C147.954 180.601 148.945 180.519 149.868 180.389L149.978 181.66C147.332 182.152 144.475 182.173 142.376 182.166L142.144 180.744ZM142.39 174.564V173.197H145.22V171.885H146.97V173.197H149.772V174.564H142.39ZM144.7 177.395C144.693 178.051 145.254 178.406 146.108 178.406C146.936 178.406 147.489 178.051 147.489 177.395C147.489 176.752 146.936 176.39 146.108 176.383C145.254 176.39 144.693 176.752 144.7 177.395ZM165.181 171.816V184.258H163.513V171.816H165.181ZM154.503 177.203C154.503 174.421 155.562 172.698 157.21 172.705C158.707 172.698 159.732 174.1 159.924 176.424H160.942V171.994H162.583V183.684H160.942V177.805H159.938C159.787 180.245 158.741 181.729 157.21 181.729C155.562 181.729 154.503 179.999 154.503 177.203ZM156.116 177.203C156.103 179.117 156.513 180.061 157.21 180.047C157.928 180.061 158.352 179.117 158.345 177.203C158.352 175.296 157.928 174.346 157.21 174.346C156.513 174.346 156.103 175.296 156.116 177.203ZM175.325 179.568C178.046 179.568 179.755 180.43 179.769 181.92C179.755 183.39 178.046 184.265 175.325 184.258C172.625 184.265 170.889 183.39 170.896 181.92C170.889 180.43 172.625 179.568 175.325 179.568ZM169.747 178.775V177.367H173.985V175.193H175.708V177.367H181.04V178.775H169.747ZM171.019 173.744V172.377H179.7V173.389C179.707 174.38 179.707 175.446 179.345 176.725L177.636 176.561C177.916 175.433 177.95 174.592 177.964 173.744H171.019ZM172.632 181.92C172.625 182.59 173.609 182.932 175.325 182.932C177.041 182.932 178.032 182.59 178.032 181.92C178.032 181.229 177.041 180.86 175.325 180.867C173.609 180.86 172.625 181.229 172.632 181.92ZM191.69 171.816V174.537H193.372V175.973H191.69V178.775H189.94V171.816H191.69ZM181.683 177.668C184.479 176.971 186.017 175.59 186.297 173.936H182.298V172.541H188.204C188.197 175.836 186.112 178.064 182.38 179.049L181.683 177.668ZM183.556 184.107V179.24H191.69V184.107H183.556ZM185.292 182.74H189.968V180.648H185.292V182.74ZM204.337 171.816V184.285H202.573V171.816H204.337ZM194.288 177.121C194.281 174.407 195.669 172.691 197.583 172.691C199.456 172.691 200.851 174.407 200.851 177.121C200.851 179.855 199.456 181.564 197.583 181.564C195.669 181.564 194.281 179.855 194.288 177.121ZM195.97 177.121C195.963 178.974 196.612 179.985 197.583 179.979C198.526 179.985 199.162 178.974 199.169 177.121C199.162 175.275 198.526 174.264 197.583 174.264C196.612 174.264 195.963 175.275 195.97 177.121ZM216.505 175.631V177.025H214.276V178.283C215.261 178.235 216.238 178.174 217.161 178.078L217.284 179.322C214.646 179.691 211.836 179.76 209.532 179.76L209.3 178.379C210.298 178.379 211.398 178.365 212.526 178.338V177.025H210.353V172.568H216.396V173.963H212.103V175.631H216.505ZM211.228 184.039V180.471H212.991V182.645H220.032V184.039H211.228ZM217.927 181.182V171.803H219.704V181.182H217.927ZM231.161 171.816V176.438H232.993V177.859H231.161V184.285H229.411V171.816H231.161ZM221.837 181.264V172.965H227.675V174.373H223.573V179.828C225.378 179.814 226.868 179.719 228.522 179.432L228.714 180.895C226.779 181.223 225.084 181.271 222.89 181.264H221.837ZM239.87 172.828V173.771H242.194V171.83H243.931V180.881H242.194V177.832H239.87V178.885H233.964V172.828H239.87ZM235.646 184.039V180.02H237.409V182.645H244.19V184.039H235.646ZM235.7 177.531H238.161V174.209H235.7V177.531ZM239.87 176.451H242.194V175.18H239.87V176.451ZM123.454 189.816V202.258H121.772V196.037H120.61V201.656H118.97V190.021H120.61V194.629H121.772V189.816H123.454ZM113.228 199.223V191.197H114.978V197.698C115.976 197.671 117.076 197.582 118.272 197.35L118.45 198.854C116.782 199.141 115.36 199.229 114.075 199.223H113.228ZM137.919 189.816V192.537H139.601V193.973H137.919V196.775H136.169V189.816H137.919ZM127.911 195.668C130.707 194.971 132.245 193.59 132.525 191.936H128.526V190.541H134.433C134.426 193.836 132.341 196.064 128.608 197.049L127.911 195.668ZM129.784 202.107V197.24H137.919V202.107H129.784ZM131.521 200.74H136.196V198.648H131.521V200.74ZM150.634 189.816V197.199H148.897V194.26H146.956V192.852H148.897V189.816H150.634ZM140.065 195.832C142.103 195.148 143.032 193.521 143.073 191.963H140.571V190.568H147.325V191.963H144.851C144.885 193.412 145.773 194.875 147.708 195.518L146.847 196.885C145.479 196.44 144.529 195.538 143.989 194.424C143.442 195.688 142.444 196.707 140.968 197.213L140.065 195.832ZM142.103 199.879C142.103 198.368 143.729 197.479 146.382 197.473C149.041 197.479 150.668 198.368 150.675 199.879C150.668 201.39 149.041 202.271 146.382 202.271C143.729 202.271 142.103 201.39 142.103 199.879ZM143.839 199.879C143.839 200.59 144.734 200.945 146.382 200.945C148.036 200.945 148.932 200.59 148.938 199.879C148.932 199.161 148.036 198.806 146.382 198.812C144.734 198.806 143.839 199.161 143.839 199.879ZM157.921 189.994C160.785 189.994 162.439 190.746 162.446 192.113C162.439 193.501 160.785 194.246 157.921 194.246C155.05 194.246 153.382 193.501 153.382 192.113C153.382 190.746 155.05 189.994 157.921 189.994ZM152.247 196.215V194.834H163.595V196.215H152.247ZM153.56 198.211V196.939H162.214V200.111H155.282V200.863H162.542V202.176H153.573V198.895H160.491V198.211H153.56ZM155.214 192.113C155.207 192.722 156.096 192.961 157.921 192.961C159.76 192.961 160.642 192.722 160.642 192.113C160.642 191.56 159.76 191.266 157.921 191.266C156.096 191.266 155.207 191.56 155.214 192.113ZM172.714 190.295V190.992C172.714 191.819 172.714 193.063 172.249 194.684H175.476C175.824 193.433 175.899 192.469 175.92 191.703H173.479V190.295H177.608V191.088C177.602 191.97 177.602 193.132 177.226 194.684H178.921V196.092H174.095V197.814H177.458V202.244H175.681V199.209H168.899V197.814H172.372V196.092H167.573V194.684H170.485C170.875 193.412 170.978 192.455 171.005 191.703H168.585V190.295H172.714ZM192.962 192.332V193.713H184.308V189.967H186.044V192.332H192.962ZM182.886 195.846V194.451H194.274V195.846H189.407V196.816H192.907V200.057H185.962V200.836H193.29V202.176H184.212V198.84H191.171V198.129H184.185V196.816H187.698V195.846H182.886ZM205.485 189.816V202.285H203.749V195.723H201.739V194.301H203.749V189.816H205.485ZM195.409 192.264V190.855H201.042V195.518H197.173V197.951C198.889 197.938 200.338 197.876 201.944 197.596L202.081 199.018C200.235 199.325 198.547 199.394 196.462 199.387H195.437V194.137H199.347V192.264H195.409ZM221.714 199.482V200.877H210.325V199.482H213.155V197.117H211.269V195.709H212.937V192.209H211.214V190.814H220.757V192.209H219.007V195.709H220.702V197.117H218.829V199.482H221.714ZM214.687 195.709H217.284V192.209H214.687V195.709ZM214.905 199.482H217.079V197.117H214.905V199.482ZM232.911 189.83V199.305H231.175V196.953H229.493V195.572H231.175V194.328H229.493V192.92H231.175V189.83H232.911ZM222.452 192.51V191.129H225.132V189.803H226.868V191.129H229.37V192.51H222.452ZM223.067 195.395C223.054 193.959 224.291 192.947 225.979 192.947C227.688 192.947 228.919 193.959 228.933 195.395C228.919 196.83 227.688 197.828 225.979 197.828C224.291 197.828 223.054 196.83 223.067 195.395ZM224.626 202.039V198.498H226.39V200.645H233.171V202.039H224.626ZM224.694 195.395C224.688 196.112 225.221 196.502 225.979 196.502C226.731 196.502 227.285 196.112 227.292 195.395C227.285 194.697 226.731 194.308 225.979 194.301C225.221 194.308 224.688 194.697 224.694 195.395ZM240.526 191.717V193.098H234.511V191.717H236.671V190.158H238.394V191.717H240.526ZM234.798 196.611C234.798 194.882 235.96 193.665 237.546 193.658C239.139 193.665 240.273 194.882 240.28 196.611C240.273 198.348 239.139 199.578 237.546 199.578C235.96 199.578 234.798 198.348 234.798 196.611ZM236.329 196.611C236.329 197.562 236.821 198.102 237.546 198.102C238.243 198.102 238.742 197.562 238.749 196.611C238.742 195.675 238.243 195.107 237.546 195.107C236.821 195.107 236.329 195.675 236.329 196.611ZM240.991 201.725V190.062H242.618V194.875H243.63V189.816H245.284V202.258H243.63V196.27H242.618V201.725H240.991ZM258.013 199.373V200.809H246.624V199.373H249.167V196.324C248.203 195.743 247.622 194.861 247.622 193.768C247.622 191.751 249.591 190.425 252.298 190.418C254.991 190.425 256.98 191.751 256.987 193.768C256.98 194.841 256.42 195.709 255.483 196.29V199.373H258.013ZM249.345 193.768C249.345 194.984 250.514 195.736 252.298 195.736C254.055 195.736 255.258 194.984 255.265 193.768C255.258 192.517 254.055 191.792 252.298 191.799C250.514 191.792 249.345 192.517 249.345 193.768ZM250.89 199.373H253.72V196.953C253.275 197.042 252.797 197.09 252.298 197.09C251.799 197.09 251.327 197.042 250.89 196.96V199.373ZM261.554 191.102L261.376 198.033H259.626L259.448 191.102H261.554ZM259.366 199.975C259.353 199.346 259.872 198.833 260.515 198.84C261.123 198.833 261.649 199.346 261.649 199.975C261.649 200.61 261.123 201.123 260.515 201.123C259.872 201.123 259.353 200.61 259.366 199.975Z" fill="white"/>
<circle cx="107.5" cy="32" r="32" fill="#F4F6F9"/>
<g clip-path="url(#clip0_848_24963)">
<circle cx="107.5" cy="32" r="24" fill="#E15256"/>
<ellipse cx="106.577" cy="30.8459" rx="21.6923" ry="21.9231" fill="#F85F63"/>
<path d="M118.303 22.1542C115.374 19.2819 110.621 19.2819 107.691 22.1542L107.5 22.3418L107.309 22.1542C104.379 19.2819 99.6263 19.2819 96.697 22.1542C93.7677 25.0265 93.7677 29.6872 96.697 32.5595L107.458 43.1111L112.881 37.8353L118.303 32.5595C121.232 29.6872 121.232 25.0265 118.303 22.1542Z" fill="#BF0000"/>
</g>
<circle cx="187.5" cy="32" r="32" fill="#F4F6F9"/>
<circle cx="187.5" cy="32" r="24" fill="#6285DF"/>
<ellipse cx="186.577" cy="30.8459" rx="21.6923" ry="21.9231" fill="#7499F9"/>
<path d="M180.758 27.241H172.5C171.948 27.241 171.5 27.6887 171.5 28.241V41.7381C171.5 42.3081 171.976 42.7629 172.545 42.737L180.758 42.3645C180.826 42.3645 180.884 42.307 180.884 42.2392V27.3663C180.884 27.2985 180.826 27.241 180.758 27.241Z" fill="white"/>
<path d="M182.617 26.3912L191.036 18.2943C191.036 18.2943 192.654 15.3821 193.948 18.2943C195.242 21.2066 192.004 26.3878 192.004 26.3878H201.716C201.716 26.3878 204.629 28.0065 203.01 32.2157C201.391 36.425 199.773 41.9279 198.476 42.253C197.182 42.5781 184.554 42.253 184.554 42.253C184.554 42.253 182.61 42.5781 182.61 40.6343V26.3912H182.617Z" fill="white"/>
<circle cx="267.5" cy="32" r="32" fill="#F4F6F9"/>
<g clip-path="url(#clip1_848_24963)">
<circle cx="267.5" cy="32" r="24" fill="#FF993A"/>
<ellipse cx="266.577" cy="30.8459" rx="21.6923" ry="21.9231" fill="#FF993A"/>
<g clip-path="url(#clip2_848_24963)">
<mask id="mask0_848_24963" style="mask-type:alpha" maskUnits="userSpaceOnUse" x="243" y="8" width="49" height="48">
<circle cx="267.5" cy="32" r="24" fill="#FF993A"/>
</mask>
<g mask="url(#mask0_848_24963)">
<path d="M278.239 37.488L272.059 37.875L271.935 35.9024L278.115 35.5153C278.567 35.487 278.955 35.827 278.983 36.2778L279.005 36.6231C279.034 37.0738 278.692 37.4596 278.239 37.488Z" fill="#FDE266"/>
<path d="M271.776 34.8742L266.46 38.0361L265.442 36.3394L270.757 33.1775C271.147 32.9459 271.647 33.0715 271.88 33.4592L272.058 33.7562C272.291 34.1439 272.165 34.6426 271.776 34.8742Z" fill="#FDE266"/>
<path d="M278.408 40.1369L272.228 40.5239L272.104 38.5513L278.284 38.1642C278.736 38.1359 279.124 38.476 279.152 38.9267L279.174 39.2721C279.203 39.7228 278.861 40.1085 278.408 40.1369Z" fill="#FDE266"/>
<path d="M278.571 42.7922L272.397 43.1788L272.273 41.2062L278.447 40.8195C278.899 40.7912 279.287 41.1312 279.315 41.582L279.337 41.9273C279.366 42.378 279.024 42.7638 278.571 42.7922Z" fill="#FDE266"/>
<path d="M278.745 45.4412L272.571 45.8279L272.447 43.8553L278.626 43.4682C279.079 43.4398 279.467 43.7799 279.495 44.2306L279.517 44.576C279.545 45.0267 279.204 45.4125 278.751 45.4408L278.745 45.4412Z" fill="#FDE266"/>
<path d="M303.994 25.6392C296.205 33.0586 257.851 30.4075 257.851 30.4075L258.104 20.4545C258.104 20.4545 277.417 20.6656 299.993 13.041C302.362 12.2433 305.802 23.9207 303.994 25.6392Z" fill="#FDE266"/>
<path d="M251.911 20.3007L258.102 20.4566L258.051 22.4325L251.861 22.2766C251.408 22.2651 251.052 21.8924 251.063 21.4409L251.072 21.095C251.084 20.6435 251.458 20.2892 251.911 20.3007Z" fill="#FDE266"/>
<path d="M259.177 17.684L264.609 20.6442L263.655 22.3779L258.224 19.4177C257.826 19.2008 257.681 18.7072 257.899 18.3111L258.066 18.0076C258.284 17.6114 258.779 17.4671 259.177 17.684Z" fill="#FDE266"/>
<path d="M251.85 22.9551L258.034 23.1109L257.984 25.0868L251.794 24.9309C251.34 24.9194 250.984 24.5467 250.996 24.0952L251.005 23.7493C251.016 23.2978 251.391 22.9435 251.844 22.955L251.85 22.9551Z" fill="#FDE266"/>
<path d="M251.777 25.6152L257.967 25.7712L257.916 27.7471L251.732 27.5913C251.279 27.5798 250.923 27.2071 250.934 26.7556L250.943 26.4097C250.955 25.9582 251.329 25.6039 251.783 25.6154L251.777 25.6152Z" fill="#FDE266"/>
<path d="M251.715 28.2755L257.905 28.4315L257.855 30.4074L251.665 30.2514C251.211 30.24 250.855 29.8673 250.867 29.4158L250.876 29.0699C250.887 28.6184 251.262 28.2641 251.715 28.2755Z" fill="#FDE266"/>
<path d="M229.795 30.0557C229.694 30.0264 229.6 30.0264 229.5 30.0381V44.6011C241.548 49.1525 272.562 45.8387 272.562 45.8387L271.931 35.9032C271.931 35.9032 252.642 36.8357 229.795 30.0557Z" fill="#FDE266"/>
</g>
</g>
<path fill-rule="evenodd" clip-rule="evenodd" d="M267.5 56C280.755 56 291.5 45.2548 291.5 32C291.5 18.7452 280.755 8 267.5 8C254.245 8 243.5 18.7452 243.5 32C243.5 45.2548 254.245 56 267.5 56ZM266.577 52.769C278.557 52.769 288.269 42.9537 288.269 30.8459C288.269 18.7381 278.557 8.92285 266.577 8.92285C254.596 8.92285 244.885 18.7381 244.885 30.8459C244.885 42.9537 254.596 52.769 266.577 52.769Z" fill="#FDE266" style="mix-blend-mode:multiply"/>
</g>
<circle cx="107.5" cy="104" r="32" fill="#F4F6F9"/>
<circle cx="107.5" cy="104" r="24" fill="#74C28B"/>
<ellipse cx="106.577" cy="102.846" rx="21.6923" ry="21.9231" fill="#84D29F"/>
<path d="M120.718 104.545C120.718 105.901 119.62 107 118.263 107C116.906 107 115.808 105.901 115.808 104.545C115.808 103.188 118.263 100.308 118.263 100.308C118.263 100.308 120.718 103.192 120.718 104.545Z" fill="white"/>
<path d="M101.871 101.509C104.626 101.509 106.858 99.2769 106.858 96.5228C106.858 93.7687 104.626 91.5361 101.871 91.5361C99.1174 91.5361 96.8848 93.7687 96.8848 96.5228C96.8848 99.2769 99.1174 101.509 101.871 101.509Z" fill="white"/>
<path d="M113.254 101.509C116.008 101.509 118.241 99.2769 118.241 96.5228C118.241 93.7687 116.008 91.5361 113.254 91.5361C110.5 91.5361 108.268 93.7687 108.268 96.5228C108.268 99.2769 110.5 101.509 113.254 101.509Z" fill="white"/>
<path d="M101.872 100.271C103.942 100.271 105.619 98.5926 105.619 96.5228C105.619 94.453 103.942 92.7751 101.872 92.7751C99.8019 92.7751 98.124 94.453 98.124 96.5228C98.124 98.5926 99.8019 100.271 101.872 100.271Z" fill="#1C1C1C"/>
<path d="M113.254 100.271C115.323 100.271 117.001 98.5926 117.001 96.5228C117.001 94.453 115.323 92.7751 113.254 92.7751C111.184 92.7751 109.506 94.453 109.506 96.5228C109.506 98.5926 111.184 100.271 113.254 100.271Z" fill="#1C1C1C"/>
<path d="M107.363 103.051C103.603 103.051 101.029 104.795 100.99 104.822C100.85 104.918 100.816 105.111 100.912 105.25C101.008 105.39 101.201 105.425 101.341 105.328C101.396 105.291 106.869 101.601 113.447 105.343C113.595 105.427 113.782 105.375 113.866 105.228C113.95 105.08 113.899 104.891 113.751 104.809C111.437 103.492 109.25 103.053 107.363 103.053V103.051Z" fill="#1C1C1C"/>
<path fill-rule="evenodd" clip-rule="evenodd" d="M110.366 88.7324C110.514 88.6583 110.694 88.7184 110.769 88.8666C111.215 89.7595 112.095 90.3003 113.378 90.769C114.017 91.0022 114.738 91.2119 115.533 91.4405C115.574 91.4522 115.614 91.4639 115.655 91.4757C116.414 91.6936 117.235 91.9293 118.095 92.2161C118.252 92.2685 118.337 92.4384 118.285 92.5956C118.232 92.7528 118.063 92.8377 117.905 92.7854C117.057 92.5026 116.248 92.27 115.487 92.0516C115.447 92.0401 115.407 92.0286 115.367 92.0172C114.575 91.7896 113.834 91.5743 113.172 91.3325C111.855 90.8512 110.785 90.242 110.232 89.1349C110.158 88.9867 110.218 88.8065 110.366 88.7324Z" fill="#1C1C1C"/>
<path fill-rule="evenodd" clip-rule="evenodd" d="M104.134 88.7324C103.986 88.6583 103.806 88.7184 103.731 88.8666C103.285 89.7595 102.405 90.3003 101.122 90.769C100.483 91.0022 99.7624 91.2119 98.9669 91.4405C98.9263 91.4522 98.8856 91.4639 98.8446 91.4757C98.086 91.6936 97.2655 91.9293 96.4049 92.2161C96.2477 92.2685 96.1627 92.4384 96.2151 92.5956C96.2675 92.7528 96.4374 92.8377 96.5946 92.7854C97.4429 92.5026 98.2524 92.27 99.0129 92.0516C99.053 92.0401 99.0929 92.0286 99.1326 92.0172C99.9246 91.7896 100.666 91.5743 101.328 91.3325C102.645 90.8512 103.715 90.242 104.268 89.1349C104.342 88.9867 104.282 88.8065 104.134 88.7324Z" fill="#1C1C1C"/>
<circle cx="187.5" cy="104" r="32" fill="#F4F6F9"/>
<circle cx="187.5" cy="104" r="24" fill="#61C1EA"/>
<ellipse cx="186.577" cy="102.846" rx="21.6923" ry="21.9231" fill="#7FD0F3"/>
<path d="M181.871 101.51C184.626 101.51 186.858 99.2778 186.858 96.5238C186.858 93.7697 184.626 91.5371 181.871 91.5371C179.117 91.5371 176.885 93.7697 176.885 96.5238C176.885 99.2778 179.117 101.51 181.871 101.51Z" fill="white"/>
<path d="M193.254 101.51C196.008 101.51 198.241 99.2778 198.241 96.5238C198.241 93.7697 196.008 91.5371 193.254 91.5371C190.5 91.5371 188.268 93.7697 188.268 96.5238C188.268 99.2778 190.5 101.51 193.254 101.51Z" fill="white"/>
<path d="M181.872 100.272C183.942 100.272 185.619 98.5936 185.619 96.5238C185.619 94.454 183.942 92.7761 181.872 92.7761C179.802 92.7761 178.124 94.454 178.124 96.5238C178.124 98.5936 179.802 100.272 181.872 100.272Z" fill="#1C1C1C"/>
<path d="M193.254 100.272C195.323 100.272 197.001 98.5936 197.001 96.5238C197.001 94.454 195.323 92.7761 193.254 92.7761C191.184 92.7761 189.506 94.454 189.506 96.5238C189.506 98.5936 191.184 100.272 193.254 100.272Z" fill="#1C1C1C"/>
<path fill-rule="evenodd" clip-rule="evenodd" d="M184.357 101.737C184.502 101.657 184.684 101.711 184.764 101.856C185.249 102.747 186.122 103.76 187.156 104.049C187.659 104.189 188.211 104.162 188.804 103.849C189.405 103.532 190.064 102.912 190.747 101.839C190.836 101.699 191.022 101.658 191.161 101.747C191.301 101.836 191.342 102.021 191.253 102.161C190.536 103.288 189.808 103.998 189.084 104.379C188.352 104.765 187.642 104.807 186.995 104.626C185.728 104.273 184.751 103.087 184.237 102.144C184.158 101.998 184.211 101.816 184.357 101.737Z" fill="#1C1C1C"/>
<circle cx="267.5" cy="104" r="32" fill="#F4F6F9"/>
<circle cx="267.5" cy="104" r="24" fill="url(#paint0_linear_848_24963)"/>
<ellipse cx="266.577" cy="102.847" rx="21.6923" ry="21.9231" fill="url(#paint1_linear_848_24963)"/>
<path d="M261.871 101.513C264.626 101.513 266.858 99.2803 266.858 96.5262C266.858 95.3893 266.478 94.3412 265.837 93.5024C265.427 92.9653 264.092 93.3364 263.5 93.0024C262.777 92.5946 262.5 92.0024 261.871 91.5396C259.117 91.5396 256.885 93.7722 256.885 96.5262C256.885 99.2803 259.117 101.513 261.871 101.513Z" fill="white"/>
<path d="M273.254 101.513C276.008 101.513 278.241 99.2806 278.241 96.5265C278.241 93.7724 276.008 91.5398 273.254 91.5398C273 91.5032 272.677 92.1591 272 92.5027C270.54 93.244 269.919 92.7654 269.5 93.244C268.733 94.121 268.268 95.2695 268.268 96.5265C268.268 99.2806 270.5 101.513 273.254 101.513Z" fill="white"/>
<path d="M261.872 100.274C263.942 100.274 265.619 98.596 265.619 96.5263C265.619 94.4565 263.942 92.7786 261.872 92.7786C259.802 92.7786 258.124 94.4565 258.124 96.5263C258.124 98.596 259.802 100.274 261.872 100.274Z" fill="#1C1C1C"/>
<path d="M273.254 100.274C275.323 100.274 277.001 98.596 277.001 96.5263C277.001 94.4565 275.323 92.7786 273.254 92.7786C271.184 92.7786 269.506 94.4565 269.506 96.5263C269.506 98.596 271.184 100.274 273.254 100.274Z" fill="#1C1C1C"/>
<path fill-rule="evenodd" clip-rule="evenodd" d="M268.631 93.0896C268.67 92.9286 268.832 92.8295 268.993 92.8683C269.964 93.1024 270.945 92.7777 272.13 92.0989C272.719 91.7611 273.344 91.345 274.032 90.884C274.067 90.8605 274.102 90.8369 274.138 90.8132C274.793 90.3736 275.502 89.8981 276.276 89.4249C276.417 89.3385 276.602 89.383 276.688 89.5244C276.775 89.6657 276.73 89.8504 276.589 89.9368C275.826 90.4032 275.127 90.8723 274.469 91.313C274.435 91.3362 274.4 91.3594 274.366 91.3824C273.682 91.8413 273.039 92.2695 272.428 92.6196C271.211 93.3166 270.056 93.7418 268.852 93.4516C268.691 93.4128 268.592 93.2507 268.631 93.0896Z" fill="#1C1C1C"/>
<path fill-rule="evenodd" clip-rule="evenodd" d="M266.574 93.2974C266.541 93.1349 266.384 93.0291 266.221 93.0612C265.242 93.2547 264.275 92.8894 263.119 92.1618C262.544 91.7997 261.937 91.3579 261.269 90.8687C261.235 90.8438 261.201 90.8187 261.167 90.7936C260.53 90.327 259.842 89.8224 259.088 89.3174C258.95 89.2251 258.764 89.2619 258.672 89.3996C258.58 89.5372 258.616 89.7236 258.754 89.8158C259.497 90.3136 260.176 90.8114 260.814 91.2791C260.848 91.3038 260.881 91.3283 260.915 91.3527C261.58 91.8397 262.204 92.2944 262.8 92.6696C263.987 93.4167 265.123 93.8897 266.337 93.6499C266.5 93.6177 266.606 93.46 266.574 93.2974Z" fill="#1C1C1C"/>
<path d="M267.362 103.053C263.602 103.053 261.028 104.796 260.989 104.823C260.849 104.919 260.815 105.112 260.911 105.252C261.007 105.391 261.2 105.426 261.34 105.329C261.395 105.293 266.868 101.602 273.446 105.344C273.594 105.428 273.781 105.377 273.865 105.229C273.949 105.081 273.898 104.893 273.75 104.811C271.436 103.494 269.249 103.055 267.362 103.055V103.053Z" fill="#1C1C1C"/>
<g filter="url(#filter0_f_848_24963)">
<circle cx="187" cy="127" r="14" fill="url(#paint2_linear_848_24963)"/>
</g>
<path d="M188.402 136.591C188.402 135.31 189.491 134.273 190.835 134.273C192.179 134.273 193.268 135.31 193.268 136.591V138.136C193.268 136.856 194.357 135.818 195.701 135.818C197.045 135.818 198.134 136.856 198.134 138.136V140.455V139.634C198.134 138.353 199.223 137.316 200.567 137.316C201.911 137.316 203 138.353 203 139.634V147.409C203 153.81 197.553 159 190.835 159C187.475 159 184.434 157.703 182.232 155.605L173.526 145.16C172.76 144.24 172.839 142.92 173.71 142.089C174.657 141.186 176.193 141.186 177.14 142.089L180.566 145.354C181.662 146.398 183.535 145.658 183.535 144.182V127.318C183.535 126.038 184.624 125 185.968 125C187.312 125 188.401 126.038 188.401 127.318V138.136" stroke="white" stroke-width="2" stroke-miterlimit="10" stroke-linecap="round" stroke-linejoin="round"/>
<defs>
<filter id="filter0_f_848_24963" x="165" y="105" width="44" height="44" filterUnits="userSpaceOnUse" color-interpolation-filters="sRGB">
<feFlood flood-opacity="0" result="BackgroundImageFix"/>
<feBlend mode="normal" in="SourceGraphic" in2="BackgroundImageFix" result="shape"/>
<feGaussianBlur stdDeviation="4" result="effect1_foregroundBlur_848_24963"/>
</filter>
<linearGradient id="paint0_linear_848_24963" x1="267.5" y1="80" x2="267.5" y2="128" gradientUnits="userSpaceOnUse">
<stop stop-color="#E68C23"/>
<stop offset="1" stop-color="#E4D54C"/>
</linearGradient>
<linearGradient id="paint1_linear_848_24963" x1="266.577" y1="80.9236" x2="266.577" y2="124.77" gradientUnits="userSpaceOnUse">
<stop stop-color="#F99E33"/>
<stop offset="1" stop-color="#F2E56B"/>
</linearGradient>
<linearGradient id="paint2_linear_848_24963" x1="187" y1="113" x2="187" y2="141" gradientUnits="userSpaceOnUse">
<stop offset="0.583333" stop-color="#63E9F1"/>
<stop offset="1" stop-color="#ECF7D5"/>
</linearGradient>
<clipPath id="clip0_848_24963">
<rect width="48" height="48" fill="white" transform="translate(83.5 8)"/>
</clipPath>
<clipPath id="clip1_848_24963">
<rect width="48" height="48" fill="white" transform="translate(243.5 8)"/>
</clipPath>
<clipPath id="clip2_848_24963">
<rect width="75" height="34" fill="white" transform="translate(229.5 13)"/>
</clipPath>
</defs>
</svg>
