<svg width="12" height="12" viewBox="0 0 12 12" fill="none" xmlns="http://www.w3.org/2000/svg">
<g clip-path="url(#clip0_231_8603)">
<path fill-rule="evenodd" clip-rule="evenodd" d="M6.75 1.53033C6.75 1.11611 6.41421 0.780326 6 0.780326C5.58579 0.780326 5.25 1.11611 5.25 1.53033L5.25 5.25107L1.52926 5.25107C1.11505 5.25107 0.77926 5.58685 0.779261 6.00107C0.77926 6.41528 1.11505 6.75107 1.52926 6.75107L5.25 6.75107L5.25 10.4718C5.25 10.886 5.58579 11.2218 6 11.2218C6.41421 11.2218 6.75 10.886 6.75 10.4718L6.75 6.75107L10.4707 6.75107C10.885 6.75107 11.2207 6.41528 11.2207 6.00107C11.2207 5.58685 10.885 5.25107 10.4707 5.25107L6.75 5.25107L6.75 1.53033Z" fill="white"/>
</g>
<defs>
<clipPath id="clip0_231_8603">
<rect width="12" height="12" fill="white"/>
</clipPath>
</defs>
</svg>
