<svg width="80" height="68" viewBox="0 0 80 68" fill="none" xmlns="http://www.w3.org/2000/svg">
<g clip-path="url(#clip0_667_18093)">
<path d="M11.0986 68H68.9045L78.8585 41.4975C79.718 39.2124 79.718 36.6943 78.8585 34.4123L68.3989 6.56897C66.9137 2.61877 63.1249 0 58.8905 0H21.1095C16.8751 0 13.0863 2.61877 11.6011 6.56897L1.14464 34.4123C0.28512 36.6975 0.28512 39.2155 1.14464 41.4975L11.0986 68Z" fill="#C4A2CC"/>
<path d="M11.0986 68H60.1292L70.0832 41.4975C70.9427 39.2124 70.9427 36.6943 70.0832 34.4123L59.6236 6.56897C58.1384 2.61877 54.3496 0 50.1152 0H21.1127C16.8783 0 13.0894 2.61877 11.6042 6.56897L1.14464 34.4123C0.28512 36.6975 0.28512 39.2155 1.14464 41.4975L11.0986 68Z" fill="#DFBDE6"/>
<path d="M46.2659 39.823C50.5086 39.823 53.9479 36.3972 53.9479 32.1713C53.9479 27.9453 50.5086 24.5195 46.2659 24.5195C42.0233 24.5195 38.584 27.9453 38.584 32.1713C38.584 36.3972 42.0233 39.823 46.2659 39.823Z" fill="white"/>
<path d="M46.0098 39.82C50.2505 39.9616 53.7992 36.6504 53.9414 32.4295C54.0109 30.3678 53.2525 28.473 51.9695 27.0534C50.9741 26.5278 49.846 26.2162 48.6421 26.1753C44.4013 26.0336 40.8527 29.3449 40.7105 33.5658C40.6409 35.6274 41.3993 37.5223 42.6823 38.9418C43.6777 39.4674 44.8058 39.7791 46.0098 39.82Z" fill="#1C1C1C"/>
<path d="M24.4808 39.2407C28.7234 39.2407 32.1627 35.8149 32.1627 31.589C32.1627 27.3631 28.7234 23.9373 24.4808 23.9373C20.2382 23.9373 16.7988 27.3631 16.7988 31.589C16.7988 35.8149 20.2382 39.2407 24.4808 39.2407Z" fill="white"/>
<path d="M24.2246 39.2375C28.4653 39.3791 32.014 36.0679 32.1562 31.847C32.2257 29.7853 31.4673 27.8905 30.1844 26.4709C29.189 25.9453 28.0609 25.6337 26.8569 25.5928C22.6162 25.4511 19.0675 28.7624 18.9253 32.9832C18.8558 35.0449 19.6142 36.9397 20.8971 38.3593C21.8925 38.8849 23.0207 39.1965 24.2246 39.2375Z" fill="#1C1C1C"/>
<path d="M33.0894 47.8776C30.9153 47.8776 28.8234 46.1968 26.8642 42.8793C26.7757 42.7313 26.7757 42.5456 26.8642 42.3977C26.9527 42.2498 27.1075 42.1522 27.2877 42.1679L38.6005 42.5928C38.7616 42.5991 38.9101 42.6873 38.9923 42.8258C39.0745 42.9643 39.0808 43.1342 39.0049 43.279C38.9101 43.4616 36.6697 47.7706 33.2127 47.8745C33.1716 47.8745 33.1273 47.8745 33.0863 47.8745L33.0894 47.8776ZM28.1409 43.1468C29.7999 45.7089 31.4968 46.9774 33.1842 46.9333C35.3457 46.8704 37.0457 44.6482 37.7757 43.5088L28.1409 43.1468Z" fill="#111111"/>
<path d="M36.5114 67.9999L34.4353 60.0901H31.9895L29.8027 67.9999H36.5114Z" fill="#83ACC6"/>
<path d="M35.4277 55.9228L35.7185 55.5608L46.3203 53.0585L46.5794 52.4636L47.8244 60.0367L35.4277 55.9228Z" fill="#C4A2CC"/>
<path d="M45.6117 52.9421L35.6104 55.6143L47.157 59.1491L46.5787 52.4636L45.6117 52.9421Z" fill="white"/>
<path d="M31.0576 63.4678H35.3205L35.1151 62.687H31.2725L31.0576 63.4678Z" fill="#6392AA"/>
<path d="M31.5061 56.2501L20.0068 59.7753L20.5883 57.273L26.2636 56.0958L30.103 55.6143H31.3828L31.5061 56.2501Z" fill="#C4A2CC"/>
<path d="M21.1917 52.9421L31.19 55.6143L19.6465 59.1491L20.2248 52.4636L21.1917 52.9421Z" fill="white"/>
<path d="M29.3066 59.0294L31.19 55.6143H35.6108L37.0613 59.0294L35.6108 62.6868H30.9972L29.3066 59.0294Z" fill="#83ACC6"/>
<path d="M52.5196 23.7263C50.551 21.63 47.8839 20.4245 45.0052 20.3301C42.1264 20.2388 39.3835 21.2618 37.279 23.2195C35.2787 25.0829 34.0874 27.5758 33.8946 30.2827H32.4189C32.2451 27.837 31.2434 25.5425 29.5401 23.7263C27.5714 21.63 24.9044 20.4245 22.0256 20.3301C19.1469 20.2388 16.404 21.2618 14.2994 23.2195C12.1949 25.1805 10.9846 27.837 10.8898 30.7045C10.795 33.5719 11.8252 36.304 13.7907 38.4003C15.7594 40.4965 18.4264 41.7021 21.3052 41.7965C21.4284 41.7996 21.5516 41.8028 21.6749 41.8028C24.4178 41.8028 27.0184 40.783 29.0314 38.907C30.8705 37.1916 32.0302 34.9442 32.3525 32.486H33.9578C34.2485 34.6893 35.2155 36.7446 36.7702 38.4003C38.7389 40.4965 41.4059 41.7021 44.2847 41.7965C44.4079 41.7996 44.5312 41.8028 44.6544 41.8028C47.3973 41.8028 49.998 40.783 52.0109 38.907C54.1154 36.9461 55.3257 34.2895 55.4205 31.4221C55.5153 28.5547 54.4852 25.8226 52.5196 23.7263ZM30.2322 31.3466C30.1563 33.6254 29.1925 35.7374 27.5209 37.2955C25.8492 38.8535 23.6752 39.6719 21.381 39.5932C19.0932 39.5176 16.9728 38.5576 15.4086 36.8926C13.8444 35.2275 13.026 33.0557 13.1018 30.7769C13.1776 28.498 14.1414 26.386 15.8131 24.828C17.412 23.336 19.4787 22.5239 21.6591 22.5239C21.757 22.5239 21.855 22.5239 21.953 22.5302C24.2408 22.6058 26.3612 23.5658 27.9254 25.2308C29.4896 26.8959 30.308 29.0677 30.2322 31.3466ZM53.2117 31.3466C53.1358 33.6254 52.172 35.7374 50.5004 37.2955C48.8288 38.8535 46.6515 39.6719 44.3605 39.5932C42.0727 39.5176 39.9523 38.5576 38.3881 36.8926C36.8239 35.2275 36.0055 33.0557 36.0813 30.7769C36.1572 28.498 37.121 26.386 38.7926 24.828C40.3916 23.336 42.4582 22.5239 44.6386 22.5239C44.7366 22.5239 44.8345 22.5239 44.9325 22.5302C47.2203 22.6058 49.3407 23.5658 50.9049 25.2308C52.4691 26.8959 53.2875 29.0677 53.2117 31.3466Z" fill="#FDCF6A"/>
<path d="M29.5409 23.7264C31.2473 25.5425 32.2459 27.8371 32.4197 30.2828H33.0959C32.9221 27.8371 31.9204 25.5425 30.2171 23.7264C28.2485 21.6301 25.5814 20.4246 22.7027 20.3302C22.4815 20.3239 22.2603 20.3239 22.0391 20.3302C24.9115 20.4277 27.5754 21.6364 29.5409 23.7264Z" fill="#CC9927"/>
<path d="M44.3612 39.5964C44.5697 39.6027 44.7783 39.5995 44.9837 39.5964C42.718 39.5083 40.6166 38.5514 39.065 36.8989C37.5008 35.2339 36.6824 33.0621 36.7582 30.7832C36.8341 28.5044 37.7979 26.3924 39.4695 24.8343C40.9863 23.4211 42.9265 22.6184 44.9837 22.5397C44.9679 22.5397 44.9521 22.5397 44.9331 22.5397C44.8352 22.5366 44.7372 22.5334 44.6393 22.5334C42.4589 22.5334 40.3922 23.3455 38.7933 24.8375C37.1216 26.3955 36.1578 28.5075 36.082 30.7864C36.0061 33.0652 36.8246 35.237 38.3888 36.9021C39.953 38.5671 42.0733 39.5272 44.3612 39.6027V39.5964Z" fill="#CC9927"/>
<path d="M16.0855 36.8958C14.5213 35.2307 13.7029 33.0589 13.7787 30.78C13.8546 28.5012 14.8184 26.3892 16.49 24.8311C18.0068 23.4179 19.9471 22.6153 22.0042 22.5366C21.9884 22.5366 21.9726 22.5366 21.9537 22.5366C21.8557 22.5334 21.7577 22.5303 21.6598 22.5303C19.4794 22.5303 17.4127 23.3423 15.8138 24.8343C14.1421 26.3923 13.1783 28.5044 13.1025 30.7832C13.0267 33.062 13.8451 35.2338 15.4093 36.8989C16.9735 38.564 19.0939 39.524 21.3817 39.5995C21.5903 39.6058 21.7988 39.6027 22.0042 39.5995C19.7385 39.5114 17.6371 38.5545 16.0855 36.9021V36.8958Z" fill="#CC9927"/>
<path d="M53.1968 23.7264C51.2281 21.6301 48.5611 20.4246 45.6823 20.3302C45.4611 20.3239 45.2399 20.3239 45.0187 20.3302C47.8912 20.4277 50.5551 21.6333 52.5206 23.7264C54.4893 25.8227 55.5194 28.5548 55.4215 31.4222C55.3267 34.2896 54.1132 36.9462 52.0118 38.9071C50.0716 40.7169 47.5847 41.7273 44.9492 41.7966C44.9524 41.7966 44.9587 41.7966 44.9619 41.7966C45.0851 41.7997 45.2083 41.8029 45.3316 41.8029C48.0745 41.8029 50.6751 40.783 52.6881 38.9071C54.7926 36.9462 56.0029 34.2896 56.0977 31.4222C56.1925 28.5548 55.1623 25.8227 53.1968 23.7264Z" fill="#CC9927"/>
<path d="M29.0323 38.9071C27.0921 40.717 24.6052 41.7273 21.9697 41.7966C21.9729 41.7966 21.9792 41.7966 21.9824 41.7966C22.1056 41.7997 22.2288 41.8029 22.3521 41.8029C25.095 41.8029 27.6956 40.7831 29.7086 38.9071C31.5477 37.1917 32.7074 34.9443 33.0297 32.4861H32.3535C32.028 34.9412 30.8714 37.1917 29.0323 38.9071Z" fill="#CC9927"/>
</g>
<defs>
<clipPath id="clip0_667_18093">
<rect width="79" height="68" fill="white" transform="translate(0.5)"/>
</clipPath>
</defs>
</svg>
