<svg width="41" height="41" viewBox="0 0 41 41" fill="none" xmlns="http://www.w3.org/2000/svg">
<path d="M32.4584 14.5208C32.4584 21.1252 27.1045 26.4792 20.5001 26.4792C13.8957 26.4792 8.54175 21.1252 8.54175 14.5208C8.54175 7.91643 13.8957 2.5625 20.5001 2.5625C27.1045 2.5625 32.4584 7.91643 32.4584 14.5208Z" stroke="#F58548" stroke-width="2" stroke-linecap="round" stroke-linejoin="round"/>
<path d="M15.6759 25.4658C11.3248 26.7637 7.92304 29.7678 6.59029 33.5298C5.86732 35.5706 7.36515 37.4902 9.50863 37.7949C11.1664 38.0305 13.4695 38.2596 16.5438 38.3696M25.325 25.4658C29.6762 26.7637 33.0779 29.7678 34.4107 33.5298C35.1336 35.5706 33.6358 37.4902 31.4922 37.7949C29.7075 38.0485 27.894 38.2946 24.4561 38.3927M18.3421 26.6141L17.2631 29.1317L20.5 30.5703L22.1184 29.851M22.6579 26.6141L23.7368 29.1317L22.1184 29.851M18.3421 29.851L16.5438 38.3696M16.5438 38.3696C17.7429 38.4125 19.0593 38.4373 20.5005 38.4373C21.6585 38.4373 23.4553 38.4213 24.4561 38.3927M24.4561 38.3927L22.1184 29.851" stroke="#F58548" stroke-width="2" stroke-linecap="round" stroke-linejoin="round"/>
<path d="M32.4584 14.5208C25.854 14.5208 20.5001 9.16692 20.5001 2.5625C20.5001 9.16692 15.1462 14.5208 8.54175 14.5208" stroke="#F58548" stroke-width="2" stroke-linecap="round" stroke-linejoin="round"/>
<path d="M23.9168 20.073C22.422 22.3508 18.5782 22.3508 17.0834 20.073" stroke="#F58548" stroke-width="2" stroke-linecap="round" stroke-linejoin="round"/>
<path d="M16.2292 15.375V15.8021" stroke="#F58548" stroke-width="2" stroke-linecap="round" stroke-linejoin="round"/>
<path d="M24.7717 15.375V15.8021" stroke="#F58548" stroke-width="2" stroke-linecap="round" stroke-linejoin="round"/>
</svg>
