<svg width="265" height="84" viewBox="0 0 265 84" fill="none" xmlns="http://www.w3.org/2000/svg">
<g opacity="0.8">
<g opacity="0.3" filter="url(#filter0_f_753_20045)">
<path d="M245 56.5C245 60.6421 194.632 64 132.5 64C70.368 64 20 60.6421 20 56.5C20 52.3579 70.368 49 132.5 49C194.632 49 245 52.3579 245 56.5Z" fill="#D5DAE0"/>
</g>
<path fill-rule="evenodd" clip-rule="evenodd" d="M25.3278 21.8281C16.1923 36.0848 27.198 47.5094 41.3458 39.1026C41.803 38.832 42.2637 38.5406 42.728 38.2268C43.6119 38.8251 44.4858 39.3457 45.3458 39.7928C59.0808 46.9377 69.2848 35.338 59.7273 21.2243C68.9438 7.61402 59.7837 -3.65833 46.8015 1.96194C45.4778 2.53431 44.1143 3.28237 42.7263 4.22192C42.3249 3.95 41.9257 3.69492 41.5286 3.45556C31.3124 -2.7269 22.6904 1.42981 22.0273 9.56267C21.7528 12.9209 22.8361 16.9574 25.7256 21.2244C25.589 21.4261 25.4564 21.6274 25.3278 21.8281Z" fill="white"/>
<path fill-rule="evenodd" clip-rule="evenodd" d="M77.6498 1.22469C75.5451 1.33909 73.6935 2.68852 72.9478 4.67967L67.4557 19.3575C67.0044 20.5604 67.0044 21.8879 67.4557 23.0925L72.9478 37.7703H72.9495C73.7293 39.8527 75.7188 41.2332 77.9422 41.2332H97.7787C100.002 41.2332 101.992 39.8527 102.771 37.7703L108.264 23.0925C108.715 21.8895 108.715 20.5621 108.264 19.3575L102.771 4.67967C101.992 2.5973 100.002 1.2168 97.7787 1.2168H93.2037C93.1929 1.21673 93.182 1.2167 93.1711 1.2167H77.9424C77.8443 1.2167 77.7468 1.21938 77.6498 1.22469Z" fill="white"/>
<path fill-rule="evenodd" clip-rule="evenodd" d="M147.007 36.0334L145.486 27.1613C145.486 27.1613 151.461 21.246 151.728 20.9806C154.836 17.9524 154.243 14.9657 150.586 13.9138L140.714 12.4785L136.421 3.78066C134.649 0.884679 132.173 0.568834 130.248 2.83313C130.012 3.10991 129.784 3.42552 129.567 3.78074L125.274 12.4786L115.4 13.9138C111.745 14.9675 111.152 17.9525 114.258 20.9806C114.529 21.2444 120.502 27.1614 120.502 27.1614L118.981 36.0334C118.698 38.1241 119.156 39.6473 120.149 40.452C120.149 40.452 120.149 40.452 120.149 40.4519C121.272 41.3647 123.081 41.3546 125.276 40.1998C125.647 40.0069 132.897 36.2825 132.994 36.233C133.083 36.2789 140.341 40.0052 140.712 40.1998C140.798 40.2456 140.884 40.2885 140.968 40.3296C144.958 42.2944 147.594 40.3995 147.007 36.0334Z" fill="white"/>
<path fill-rule="evenodd" clip-rule="evenodd" d="M165.613 39.6877C169.016 40.9702 172.419 41.7288 175.823 41.9647C180.585 41.6346 185.349 40.2806 190.111 37.8996C195.641 26.8373 195.641 15.7766 190.111 4.71436C185.347 2.33332 180.585 0.979363 175.823 0.64917C171.061 0.979363 166.297 2.33332 161.533 4.71436C156.003 15.7766 156.003 26.8373 161.533 37.8996C162.893 38.5793 164.253 39.1753 165.613 39.6877Z" fill="white"/>
<path fill-rule="evenodd" clip-rule="evenodd" d="M218.138 6.28006C217.993 6.49735 217.851 6.7255 217.713 6.96455L203.82 31.0271C201.914 34.3301 202.174 37.2572 204.127 38.988C204.224 39.0745 204.326 39.1581 204.432 39.2386C205.598 40.1236 207.27 40.6343 209.367 40.6343H237.151C243.252 40.6343 245.748 36.312 242.698 31.0272L228.805 6.96462C225.893 1.92053 221.21 1.69234 218.138 6.28006Z" fill="white"/>
</g>
<defs>
<filter id="filter0_f_753_20045" x="0" y="29" width="265" height="55" filterUnits="userSpaceOnUse" color-interpolation-filters="sRGB">
<feFlood flood-opacity="0" result="BackgroundImageFix"/>
<feBlend mode="normal" in="SourceGraphic" in2="BackgroundImageFix" result="shape"/>
<feGaussianBlur stdDeviation="10" result="effect1_foregroundBlur_753_20045"/>
</filter>
</defs>
</svg>
