<svg width="254" height="300" viewBox="0 0 254 300" fill="none" xmlns="http://www.w3.org/2000/svg">
<g clip-path="url(#clip0_431_15431)">
<g filter="url(#filter0_f_431_15431)">
<ellipse cx="124.5" cy="265.5" rx="112.5" ry="7.5" fill="#D9D3FF"/>
</g>
<path d="M168.814 247.931C160.071 247.931 156.495 241.736 160.865 234.163L180.775 199.678C185.146 192.107 192.301 192.107 196.671 199.678L216.582 234.163C220.952 241.736 217.376 247.931 208.632 247.931H168.814Z" fill="#FDCF6A"/>
<path d="M168.814 247.931C160.071 247.931 156.495 241.736 160.865 234.163L180.775 199.678C185.146 192.107 192.301 192.107 196.671 199.678L216.582 234.163C220.952 241.736 217.376 247.931 208.632 247.931H168.814Z" fill="#EFBF60"/>
<path d="M209.978 234.163L190.068 199.679C188.727 197.358 187.124 195.75 185.422 194.852C183.719 195.75 182.116 197.355 180.775 199.679L160.865 234.163C156.495 241.737 160.071 247.931 168.814 247.931H202.029C210.772 247.931 214.351 241.737 209.978 234.163Z" fill="#FDCF6A"/>
<path d="M177.044 222.157C180.237 222.157 182.825 219.569 182.825 216.376C182.825 213.184 180.237 210.596 177.044 210.596C173.852 210.596 171.264 213.184 171.264 216.376C171.264 219.569 173.852 222.157 177.044 222.157Z" fill="white"/>
<path d="M173.549 211.772C171.007 213.703 170.51 217.327 172.441 219.871C173.382 221.113 174.728 221.864 176.155 222.085C176.987 221.919 177.796 221.567 178.516 221.02C181.058 219.089 181.555 215.465 179.624 212.921C178.683 211.68 177.337 210.928 175.91 210.707C175.078 210.873 174.269 211.225 173.549 211.772Z" fill="#1C1C1C"/>
<path d="M190.239 222.157C193.432 222.157 196.02 219.569 196.02 216.376C196.02 213.184 193.432 210.596 190.239 210.596C187.047 210.596 184.459 213.184 184.459 216.376C184.459 219.569 187.047 222.157 190.239 222.157Z" fill="white"/>
<path d="M186.713 211.796C184.183 213.743 183.712 217.372 185.659 219.902C186.611 221.136 187.961 221.878 189.388 222.092C190.218 221.921 191.024 221.564 191.742 221.01C194.272 219.063 194.743 215.434 192.796 212.904C191.844 211.67 190.494 210.928 189.067 210.714C188.237 210.885 187.431 211.242 186.713 211.796Z" fill="#1C1C1C"/>
<path d="M182.67 226.546C182.078 226.546 181.515 226.258 181.229 225.768C180.556 224.605 181.175 222.77 181.201 222.694C181.203 222.686 181.206 222.677 181.21 222.67C181.462 222.078 181.91 221.778 182.447 221.852C183.351 221.975 184.195 223.119 184.366 224.453C184.513 225.597 183.888 226.234 183.255 226.451C183.063 226.515 182.865 226.546 182.67 226.546ZM181.871 222.936C181.719 223.39 181.427 224.686 181.848 225.412C182.055 225.768 182.573 225.928 183.027 225.775C183.51 225.611 183.74 225.164 183.66 224.546C183.519 223.462 182.858 222.629 182.349 222.56C182.276 222.551 182.052 222.52 181.871 222.939V222.936Z" fill="#1C1C1C"/>
<path d="M247.501 143.89C230.167 152.555 212.835 152.555 195.502 143.89C186.836 126.556 186.836 109.225 195.502 91.8908C212.835 83.2252 230.167 83.2252 247.501 91.8908C256.166 109.225 256.166 126.556 247.501 143.89Z" fill="#A48B68"/>
<path d="M247.501 143.89C230.167 152.555 212.835 152.555 195.502 143.89C186.836 126.556 186.836 109.225 195.502 91.8908C212.835 83.2252 230.167 83.2252 247.501 91.8908C256.166 109.225 256.166 126.556 247.501 143.89Z" fill="#64BF7F"/>
<path d="M217.89 85.5215C210.428 86.0389 202.964 88.1604 195.499 91.8914C186.834 109.225 186.834 126.556 195.499 143.89C202.964 147.621 210.426 149.743 217.89 150.26C225.352 149.743 232.816 147.621 240.278 143.89C248.944 126.556 248.944 109.225 240.278 91.8914C232.814 88.1604 225.352 86.0389 217.89 85.5215Z" fill="#6ECE8F"/>
<path d="M208.731 119.194C212.221 119.194 215.051 116.364 215.051 112.873C215.051 109.383 212.221 106.553 208.731 106.553C205.24 106.553 202.41 109.383 202.41 112.873C202.41 116.364 205.24 119.194 208.731 119.194Z" fill="white"/>
<path d="M223.158 119.194C226.649 119.194 229.478 116.364 229.478 112.873C229.478 109.383 226.649 106.553 223.158 106.553C219.667 106.553 216.837 109.383 216.837 112.873C216.837 116.364 219.667 119.194 223.158 119.194Z" fill="white"/>
<path d="M208.731 117.623C211.354 117.623 213.481 115.497 213.481 112.873C213.481 110.25 211.354 108.123 208.731 108.123C206.107 108.123 203.981 110.25 203.981 112.873C203.981 115.497 206.107 117.623 208.731 117.623Z" fill="#1C1C1C"/>
<path d="M223.158 117.623C225.781 117.623 227.908 115.497 227.908 112.873C227.908 110.25 225.781 108.123 223.158 108.123C220.534 108.123 218.407 110.25 218.407 112.873C218.407 115.497 220.534 117.623 223.158 117.623Z" fill="#1C1C1C"/>
<path d="M215.691 124.102C210.925 124.102 207.662 121.892 207.613 121.859C207.436 121.736 207.392 121.492 207.514 121.315C207.636 121.138 207.881 121.094 208.057 121.216C208.127 121.263 215.064 125.941 223.402 121.198C223.589 121.092 223.826 121.157 223.933 121.344C224.039 121.531 223.974 121.77 223.787 121.874C220.854 123.543 218.083 124.1 215.691 124.1V124.102Z" fill="#1C1C1C"/>
<path d="M207.173 106.978C202.355 106.978 201.344 105.738 201.237 105.584C201.115 105.408 201.159 105.163 201.336 105.041C201.508 104.921 201.747 104.96 201.872 105.127C201.911 105.171 203.042 106.396 208.455 106.169C214.302 105.928 215.665 105.925 215.719 105.925C215.935 105.925 216.109 106.099 216.109 106.315C216.109 106.531 215.935 106.705 215.719 106.705C215.706 106.705 214.305 106.708 208.486 106.949C208.021 106.968 207.584 106.978 207.176 106.978H207.173Z" fill="#1C1C1C"/>
<path d="M186.355 67.2301L183.407 50.0361C183.407 50.0361 194.986 38.5724 195.504 38.0579C201.527 32.1893 200.379 26.4012 193.291 24.3625L174.158 21.5809L165.84 4.72458C161.984 -1.57486 156.411 -1.57486 152.559 4.72458L144.24 21.5809L125.104 24.3625C118.02 26.4044 116.872 32.1893 122.891 38.0579C123.416 38.5692 134.992 50.0361 134.992 50.0361L132.043 67.2301C130.879 75.8705 136.233 79.5171 144.24 75.3046C144.964 74.9284 159.199 67.616 159.199 67.616C159.199 67.616 173.435 74.9251 174.158 75.3046C182.165 79.5171 187.516 75.8705 186.355 67.2301Z" fill="#EF9679"/>
<path d="M186.355 67.2301L183.407 50.0361C183.407 50.0361 194.986 38.5724 195.504 38.0579C201.527 32.1893 200.379 26.4012 193.291 24.3625L174.158 21.5809L165.84 4.72458C161.984 -1.57486 156.411 -1.57486 152.559 4.72458L144.24 21.5809L125.104 24.3625C118.02 26.4044 116.872 32.1893 122.891 38.0579C123.416 38.5692 134.992 50.0361 134.992 50.0361L132.043 67.2301C130.879 75.8705 136.233 79.5171 144.24 75.3046C144.964 74.9284 159.199 67.616 159.199 67.616C159.199 67.616 173.435 74.9251 174.158 75.3046C182.165 79.5171 187.516 75.8705 186.355 67.2301Z" fill="#EF8B8B"/>
<path d="M184.361 24.3622L165.228 21.5807L156.91 4.7243C156.231 3.61491 155.501 2.7081 154.733 1.98779C153.967 2.70488 153.234 3.61491 152.556 4.7243L144.237 21.5807L125.1 24.3622C118.016 26.4041 116.868 32.1891 122.888 38.0576C123.412 38.5689 134.989 50.0358 134.989 50.0358L132.04 67.2299C131.493 71.2816 132.381 74.2335 134.304 75.7931C134.635 75.642 134.966 75.4844 135.307 75.3043C136.03 74.9281 150.266 67.6157 150.266 67.6157C150.266 67.6157 152.228 68.6222 154.733 69.9085C157.234 68.6222 159.196 67.6157 159.196 67.6157C159.196 67.6157 173.432 74.9249 174.155 75.3043C174.496 75.4844 174.827 75.642 175.158 75.7931C177.078 74.2335 177.966 71.2784 177.422 67.2299L174.473 50.0358C174.473 50.0358 186.053 38.5721 186.571 38.0576C192.594 32.1891 191.446 26.4009 184.358 24.3622H184.361Z" fill="#FF9A9A"/>
<path d="M161.247 40.1413C165.565 40.1413 169.065 36.6414 169.065 32.324C169.065 28.0067 165.565 24.5068 161.247 24.5068C156.93 24.5068 153.43 28.0067 153.43 32.324C153.43 36.6414 156.93 40.1413 161.247 40.1413Z" fill="white"/>
<path d="M161.247 24.5068C156.932 24.5068 153.43 28.0054 153.43 32.324C153.43 34.4303 154.266 36.3404 155.62 37.7456C156.652 38.2473 157.81 38.5302 159.035 38.5302C163.35 38.5302 166.852 35.0316 166.852 30.713C166.852 28.6068 166.016 26.6967 164.662 25.2915C163.63 24.7898 162.473 24.5068 161.247 24.5068Z" fill="#1C1C1C"/>
<path d="M151.012 46.0774C150.211 46.0774 149.449 45.6883 149.063 45.0259C148.153 43.4534 148.989 40.971 149.025 40.8681C149.028 40.8584 149.031 40.8455 149.038 40.8359C149.378 40.0352 149.986 39.63 150.71 39.7297C151.932 39.8969 153.073 41.4436 153.305 43.2476C153.504 44.7943 152.658 45.6561 151.803 45.9488C151.543 46.0356 151.276 46.0774 151.012 46.0774ZM149.932 41.196C149.726 41.8102 149.33 43.5628 149.899 44.5435C150.179 45.0259 150.88 45.2413 151.494 45.0355C152.147 44.8136 152.459 44.2091 152.35 43.373C152.16 41.9067 151.266 40.7812 150.578 40.688C150.478 40.6751 150.176 40.6333 149.932 41.1993V41.196Z" fill="#1C1C1C"/>
<path d="M145.394 35.0026C142.931 35.0026 141.497 32.5523 141.06 31.1407C140.983 30.8866 141.124 30.6165 141.378 30.5361C141.635 30.4589 141.902 30.6004 141.983 30.8545C142.031 31.0056 143.153 34.4881 145.935 33.9897C149.215 33.3948 150.215 30.9188 150.52 29.4975C150.575 29.237 150.835 29.0698 151.093 29.1277C151.353 29.1823 151.52 29.4396 151.462 29.7001C151.176 31.0345 150.08 34.218 146.105 34.9383C145.861 34.9833 145.623 35.0026 145.394 35.0026Z" fill="#1C1C1C"/>
<path d="M85.6964 186.866L72.7951 152.387C71.735 149.557 71.735 146.439 72.7951 143.613L85.6964 109.134C87.5283 104.243 92.2016 101 97.4245 101H144.025C149.248 101 153.921 104.243 155.753 109.134L168.654 143.613C169.714 146.443 169.714 149.561 168.654 152.387L155.753 186.866C153.921 191.757 149.248 195 144.025 195H97.4284C92.2055 195 87.5322 191.757 85.7003 186.866H85.6964Z" fill="#FEDE83"/>
<path d="M85.6964 186.866L72.7951 152.387C71.735 149.557 71.735 146.439 72.7951 143.613L85.6964 109.134C87.5283 104.243 92.2016 101 97.4245 101H144.025C149.248 101 153.921 104.243 155.753 109.134L168.654 143.613C169.714 146.443 169.714 149.561 168.654 152.387L155.753 186.866C153.921 191.757 149.248 195 144.025 195H97.4284C92.2055 195 87.5322 191.757 85.7003 186.866H85.6964Z" fill="#C4A2CC"/>
<path d="M144.929 186.866L157.83 152.387C158.89 149.557 158.89 146.439 157.83 143.613L144.929 109.134C143.097 104.243 138.424 101 133.201 101H97.4282C92.2053 101 87.532 104.243 85.7001 109.134L72.7988 143.613C71.7387 146.443 71.7387 149.561 72.7988 152.387L85.7001 186.866C87.532 191.757 92.2053 195 97.4282 195H133.201C138.424 195 143.097 191.757 144.929 186.866Z" fill="#DFBDE6"/>
<path d="M123.102 151.443C128.336 151.443 132.578 147.201 132.578 141.968C132.578 136.735 128.336 132.493 123.102 132.493C117.869 132.493 113.627 136.735 113.627 141.968C113.627 147.201 117.869 151.443 123.102 151.443Z" fill="white"/>
<path d="M121.797 151.349C126.98 152.07 131.767 148.457 132.488 143.273C132.839 140.743 132.157 138.311 130.765 136.397C129.611 135.622 128.267 135.092 126.797 134.885C121.613 134.164 116.827 137.777 116.106 142.961C115.755 145.491 116.437 147.923 117.829 149.837C118.982 150.612 120.327 151.142 121.797 151.349Z" fill="#1C1C1C"/>
<path d="M101.681 148.457C106.914 148.457 111.156 144.215 111.156 138.982C111.156 133.749 106.914 129.507 101.681 129.507C96.4477 129.507 92.2055 133.749 92.2055 138.982C92.2055 144.215 96.4477 148.457 101.681 148.457Z" fill="white"/>
<path d="M100.375 148.364C105.559 149.086 110.345 145.472 111.066 140.288C111.417 137.759 110.735 135.327 109.343 133.413C108.19 132.637 106.845 132.107 105.375 131.901C100.192 131.18 95.4053 134.793 94.6842 139.977C94.3334 142.506 95.0155 144.938 96.407 146.852C97.5607 147.628 98.9054 148.158 100.375 148.364Z" fill="#1C1C1C"/>
<path d="M109.71 160.501C107.028 160.501 104.448 158.42 102.031 154.311C101.922 154.128 101.922 153.898 102.031 153.715C102.14 153.532 102.331 153.423 102.554 153.431L116.507 153.957C116.706 153.965 116.889 154.074 116.991 154.245C117.092 154.417 117.1 154.627 117.006 154.806C116.889 155.033 114.126 160.368 109.862 160.497C109.811 160.497 109.757 160.497 109.706 160.497L109.71 160.501ZM103.606 154.643C105.617 157.757 107.667 159.332 109.71 159.332C109.749 159.332 109.788 159.332 109.827 159.332C112.493 159.254 114.586 156.502 115.486 155.091L103.602 154.643H103.606Z" fill="#1C1C1C"/>
<path d="M111.156 134.446C111.109 134.446 111.062 134.442 111.016 134.43C103.431 132.583 101.205 124.522 101.116 124.183C101.034 123.872 101.217 123.552 101.529 123.47C101.84 123.384 102.16 123.571 102.246 123.883C102.265 123.961 104.393 131.616 111.292 133.296C111.604 133.374 111.799 133.69 111.721 134.002C111.655 134.27 111.417 134.446 111.152 134.446H111.156Z" fill="#1C1C1C"/>
<path d="M59.4942 82.6949C75.5044 106.338 56.3371 125.505 32.6945 109.495C9.05184 125.505 -10.1155 106.338 5.89478 82.6949C-10.1155 59.0496 9.05184 39.8849 32.6945 55.8952C56.3371 39.8849 75.5044 59.0522 59.4942 82.6949Z" fill="#9BC1E3"/>
<path d="M59.4942 82.6949C75.5044 106.338 56.3371 125.505 32.6945 109.495C9.05184 125.505 -10.1155 106.338 5.89478 82.6949C-10.1155 59.0496 9.05184 39.8849 32.6945 55.8952C56.3371 39.8849 75.5044 59.0522 59.4942 82.6949Z" fill="#8DB5D3"/>
<path d="M52.2306 82.695C63.1195 66.6115 57.7339 52.6049 45.7334 50.3267C41.7054 51.0067 37.2849 52.7853 32.6945 55.8927C31.4704 55.0636 30.2594 54.3338 29.0614 53.6904C27.8661 54.3338 26.655 55.0636 25.4283 55.8927C20.8405 52.7853 16.4201 51.0093 12.392 50.3267C0.391545 52.6049 -4.99664 66.6115 5.89482 82.695C-4.99403 98.7785 0.394161 112.785 12.392 115.063C16.4201 114.383 20.8405 112.605 25.4309 109.497C26.655 110.326 27.8661 111.056 29.064 111.7C30.2594 111.056 31.4704 110.326 32.6971 109.497C37.2876 112.605 41.708 114.383 45.736 115.063C57.7365 112.785 63.1247 98.7785 52.2332 82.695H52.2306Z" fill="#9BC1E3"/>
<path d="M19.8464 84.0038C23.3581 84.0038 26.205 81.157 26.205 77.6452C26.205 74.1335 23.3581 71.2866 19.8464 71.2866C16.3346 71.2866 13.4878 74.1335 13.4878 77.6452C13.4878 81.157 16.3346 84.0038 19.8464 84.0038Z" fill="white"/>
<path d="M19.8464 71.2866C16.3362 71.2866 13.4878 74.1324 13.4878 77.6452C13.4878 79.3584 14.1679 80.9121 15.269 82.0552C16.1087 82.4632 17.0503 82.6934 18.0468 82.6934C21.557 82.6934 24.4054 79.8476 24.4054 76.3348C24.4054 74.6215 23.7254 73.0679 22.6242 71.9248C21.7846 71.5168 20.8429 71.2866 19.8464 71.2866Z" fill="#1C1C1C"/>
<path d="M34.3604 84.0038C37.8722 84.0038 40.719 81.157 40.719 77.6452C40.719 74.1335 37.8722 71.2866 34.3604 71.2866C30.8487 71.2866 28.0018 74.1335 28.0018 77.6452C28.0018 81.157 30.8487 84.0038 34.3604 84.0038Z" fill="white"/>
<path d="M34.3604 71.2866C30.8502 71.2866 28.0018 74.1324 28.0018 77.6452C28.0018 79.3584 28.6819 80.9121 29.7831 82.0552C30.6227 82.4632 31.5643 82.6934 32.5609 82.6934C36.071 82.6934 38.9195 79.8476 38.9195 76.3348C38.9195 74.6215 38.2394 73.0679 37.1382 71.9248C36.2986 71.5168 35.357 71.2866 34.3604 71.2866Z" fill="#1C1C1C"/>
<path d="M26.8486 88.9429C22.0542 88.9429 18.7716 86.7197 18.7219 86.6857C18.544 86.5627 18.4996 86.3169 18.6225 86.139C18.7454 85.9611 18.9913 85.9167 19.1692 86.0396C19.2398 86.0867 26.2183 90.7922 34.6066 86.0213C34.7949 85.914 35.0356 85.9794 35.1428 86.1678C35.25 86.3561 35.1846 86.5967 34.9963 86.7014C32.0459 88.3806 29.2576 88.9403 26.8513 88.9403L26.8486 88.9429Z" fill="#1C1C1C"/>
</g>
<defs>
<filter id="filter0_f_431_15431" x="-8" y="238" width="265" height="55" filterUnits="userSpaceOnUse" color-interpolation-filters="sRGB">
<feFlood flood-opacity="0" result="BackgroundImageFix"/>
<feBlend mode="normal" in="SourceGraphic" in2="BackgroundImageFix" result="shape"/>
<feGaussianBlur stdDeviation="10" result="effect1_foregroundBlur_431_15431"/>
</filter>
<clipPath id="clip0_431_15431">
<rect width="254" height="300" fill="white"/>
</clipPath>
</defs>
</svg>
