<svg width="25" height="24" viewBox="0 0 25 24" fill="none" xmlns="http://www.w3.org/2000/svg">
<path fill-rule="evenodd" clip-rule="evenodd" d="M2.625 11.7498C2.62483 15.3892 4.65172 18.7257 7.88164 20.4029C11.1116 22.0802 15.0068 21.8188 17.9836 19.7251L22.1245 20.1067V11.7498C22.1245 6.36511 17.7594 2 12.3748 2C6.99011 2 2.625 6.36511 2.625 11.7498Z" stroke="black" stroke-width="1.5" stroke-linecap="round" stroke-linejoin="round"/>
<path d="M8.19628 13.7852C7.78207 13.7852 7.44628 14.121 7.44628 14.5352C7.44628 14.9494 7.78207 15.2852 8.19628 15.2852V13.7852ZM13.7676 15.2852C14.1818 15.2852 14.5176 14.9494 14.5176 14.5352C14.5176 14.121 14.1818 13.7852 13.7676 13.7852V15.2852ZM8.19628 9.60677C7.78207 9.60677 7.44628 9.94255 7.44628 10.3568C7.44628 10.771 7.78207 11.1068 8.19628 11.1068V9.60677ZM16.5532 11.1068C16.9674 11.1068 17.3032 10.771 17.3032 10.3568C17.3032 9.94255 16.9674 9.60677 16.5532 9.60677V11.1068ZM8.19628 15.2852H13.7676V13.7852H8.19628V15.2852ZM8.19628 11.1068H16.5532V9.60677H8.19628V11.1068Z" fill="black"/>
</svg>
