<svg width="25" height="24" viewBox="0 0 25 24" fill="none" xmlns="http://www.w3.org/2000/svg">
<path fill-rule="evenodd" clip-rule="evenodd" d="M2.625 11.7498C2.62483 15.3892 4.65172 18.7257 7.88164 20.4029C11.1116 22.0802 15.0068 21.8188 17.9836 19.7251L22.1245 20.1067V11.7498C22.1245 6.36511 17.7594 2 12.3748 2C6.99011 2 2.625 6.36511 2.625 11.7498Z" fill="black" stroke="black" stroke-width="1.5" stroke-linecap="round" stroke-linejoin="round"/>
<path fill-rule="evenodd" clip-rule="evenodd" d="M8.19629 14.5354H13.7676H8.19629ZM8.19629 10.3569H16.5532H8.19629Z" fill="black"/>
<path d="M8.19629 13.7854C7.78208 13.7854 7.44629 14.1212 7.44629 14.5354C7.44629 14.9496 7.78208 15.2854 8.19629 15.2854V13.7854ZM13.7676 15.2854C14.1818 15.2854 14.5176 14.9496 14.5176 14.5354C14.5176 14.1212 14.1818 13.7854 13.7676 13.7854V15.2854ZM8.19629 9.60693C7.78208 9.60693 7.44629 9.94272 7.44629 10.3569C7.44629 10.7711 7.78208 11.1069 8.19629 11.1069V9.60693ZM16.5532 11.1069C16.9674 11.1069 17.3032 10.7711 17.3032 10.3569C17.3032 9.94272 16.9674 9.60693 16.5532 9.60693V11.1069ZM8.19629 15.2854H13.7676V13.7854H8.19629V15.2854ZM8.19629 11.1069H16.5532V9.60693H8.19629V11.1069Z" fill="white"/>
</svg>
