<svg width="24" height="24" viewBox="0 0 24 24" fill="none" xmlns="http://www.w3.org/2000/svg">
<path d="M4 11.5833C3.58579 11.5833 3.25 11.9191 3.25 12.3333C3.25 12.7475 3.58579 13.0833 4 13.0833V11.5833ZM20 13.0833C20.4142 13.0833 20.75 12.7475 20.75 12.3333C20.75 11.9191 20.4142 11.5833 20 11.5833V13.0833ZM4 16.9167C3.58579 16.9167 3.25 17.2525 3.25 17.6667C3.25 18.0809 3.58579 18.4167 4 18.4167V16.9167ZM20 18.4167C20.4142 18.4167 20.75 18.0809 20.75 17.6667C20.75 17.2525 20.4142 16.9167 20 16.9167V18.4167ZM4 6.25C3.58579 6.25 3.25 6.58579 3.25 7C3.25 7.41421 3.58579 7.75 4 7.75V6.25ZM20 7.75C20.4142 7.75 20.75 7.41421 20.75 7C20.75 6.58579 20.4142 6.25 20 6.25V7.75ZM4 13.0833H20V11.5833H4V13.0833ZM4 18.4167H20V16.9167H4V18.4167ZM4 7.75H20V6.25H4V7.75Z" fill="#111111"/>
</svg>
