<svg width="17" height="16" viewBox="0 0 17 16" fill="none" xmlns="http://www.w3.org/2000/svg">
<path fill-rule="evenodd" clip-rule="evenodd" d="M13.6667 2.58315C12.6669 1.5834 11.046 1.5834 10.0463 2.58315L7.16063 5.4688C6.68052 5.94888 6.41078 6.60004 6.41078 7.279C6.41078 7.95796 6.68051 8.60911 7.16062 9.0892C7.35589 9.28446 7.3559 9.60104 7.16064 9.79631C6.96539 9.99157 6.6488 9.99158 6.45354 9.79633C5.78587 9.1287 5.41078 8.22319 5.41078 7.279C5.41078 6.33482 5.78587 5.42931 6.45353 4.76169C6.45353 4.76168 6.45352 4.76169 6.45353 4.76169L9.33917 1.87604C10.7294 0.485765 12.9835 0.485765 14.3738 1.87604C15.7641 3.26631 15.7641 5.52039 14.3738 6.91067L12.931 8.35349C12.7357 8.54875 12.4191 8.54875 12.2239 8.35349C12.0286 8.15823 12.0286 7.84165 12.2239 7.64638L13.6667 6.20356C14.6664 5.20381 14.6664 3.5829 13.6667 2.58315ZM9.33918 6.20358C9.53444 6.00832 9.85102 6.00831 10.0463 6.20356C10.7139 6.87119 11.089 7.7767 11.089 8.72089C11.089 9.66507 10.714 10.5706 10.0463 11.2382C10.0463 11.2382 10.0463 11.2382 10.0463 11.2382L7.16065 14.1239C5.77037 15.5141 3.51629 15.5141 2.12602 14.1239C0.735744 12.7336 0.735744 10.4795 2.12602 9.08922L3.56884 7.6464C3.76411 7.45114 4.08069 7.45114 4.27595 7.6464C4.47121 7.84166 4.47121 8.15824 4.27595 8.35351L2.83313 9.79633C1.83338 10.7961 1.83338 12.417 2.83313 13.4167C3.83288 14.4165 5.45379 14.4165 6.45354 13.4167L9.33919 10.5311C9.8193 10.051 10.089 9.39985 10.089 8.72089C10.089 8.04193 9.81931 7.39078 9.3392 6.91069C9.14393 6.71543 9.14392 6.39885 9.33918 6.20358Z" fill="white"/>
</svg>
