<svg width="78" height="68" viewBox="0 0 78 68" fill="none" xmlns="http://www.w3.org/2000/svg">
<path d="M70.8898 67.9996C80.5906 47.9004 80.366 27.8073 70.2033 7.70803C49.4006 -2.56986 28.601 -2.56986 7.7983 7.71111C-2.36747 27.8073 -2.59213 47.9034 7.11185 67.9996H70.8929H70.8898Z" fill="#64BF7F"/>
<path d="M62.2248 67.9996C71.9257 47.9034 71.701 27.8072 61.5384 7.71108C52.5832 3.28468 43.625 0.767644 34.6699 0.153809C25.7117 0.767644 16.7565 3.28468 7.7983 7.71108C-2.36747 27.8072 -2.59213 47.9034 7.11185 67.9996H62.2279H62.2248Z" fill="#6ECE8F"/>
<path d="M30.7595 32.6036C30.7595 36.4635 27.5927 39.6023 23.6742 39.6023C19.7556 39.6023 16.5889 36.4635 16.5889 32.6036C16.5889 28.7438 19.7556 25.605 23.6742 25.605C27.5927 25.605 30.7595 28.7438 30.7595 32.6036Z" fill="white" stroke="#111111"/>
<path d="M16.5889 32.6036C16.5889 28.7427 19.7574 25.605 23.6742 25.605C24.7545 25.605 25.7758 25.8445 26.6913 26.2704C27.8823 27.5235 28.6128 29.2064 28.6128 31.0583C28.6128 34.9192 25.4443 38.0569 21.5275 38.0569C20.4472 38.0569 19.4259 37.8174 18.5104 37.3915C17.3193 36.1384 16.5889 34.4555 16.5889 32.6036Z" fill="#111111" stroke="#111111"/>
<path d="M48.074 32.6036C48.074 36.4635 44.9072 39.6023 40.9886 39.6023C37.0701 39.6023 33.9033 36.4635 33.9033 32.6036C33.9033 28.7438 37.0701 25.605 40.9886 25.605C44.9072 25.605 48.074 28.7438 48.074 32.6036Z" fill="white" stroke="#111111"/>
<path d="M33.9033 32.6036C33.9033 28.7427 37.0718 25.605 40.9886 25.605C42.0689 25.605 43.0903 25.8445 44.0057 26.2704C45.1968 27.5235 45.9272 29.2064 45.9272 31.0583C45.9272 34.9192 42.7587 38.0569 38.8419 38.0569C37.7617 38.0569 36.7403 37.8174 35.8249 37.3915C34.6338 36.1384 33.9033 34.4555 33.9033 32.6036Z" fill="#111111" stroke="#111111"/>
<path d="M32.0269 45.926C26.3075 45.926 22.3916 43.3041 22.3323 43.264C22.1202 43.119 22.0671 42.829 22.2138 42.6193C22.3604 42.4095 22.6537 42.3571 22.8659 42.5021C22.9501 42.5576 31.275 48.1068 41.2816 42.4805C41.5031 42.354 41.7902 42.4311 41.9181 42.6532C42.0461 42.8753 41.9681 43.1591 41.7434 43.2825C38.2238 45.2628 34.8976 45.9229 32.0269 45.9229V45.926Z" fill="#111111"/>
</svg>
