<svg width="101" height="100" viewBox="0 0 101 100" fill="none" xmlns="http://www.w3.org/2000/svg">
<path d="M90.1287 10.372C103.291 36.8002 103.291 63.1998 90.1287 89.628C63.7014 102.791 37.3028 102.791 10.8755 89.628C-2.28664 63.1998 -2.28664 36.8002 10.8755 10.372C37.3028 -2.79066 63.7014 -2.79066 90.1287 10.372Z" stroke="#AFBBCA"/>
<path d="M10.8716 89.6292C-2.29054 63.201 -2.29054 36.8014 10.8716 10.3732C22.2418 4.71122 33.6005 1.49306 44.9463 0.701404C56.2921 1.49306 67.6468 4.7112 79.017 10.3732C92.1791 36.8014 92.1791 63.201 79.017 89.6292C67.6508 95.2912 56.2921 98.5093 44.9463 99.301C33.5965 98.5093 22.2418 95.2912 10.8716 89.6292Z" stroke="#AFBBCA"/>
<path d="M40.0786 42.2828C40.0786 47.3772 35.9489 51.507 30.8547 51.507C25.7606 51.507 21.6309 47.3772 21.6309 42.2828C21.6309 37.1884 25.7606 33.0586 30.8547 33.0586C35.9489 33.0586 40.0786 37.1884 40.0786 42.2828Z" stroke="#AFBBCA"/>
<path d="M62.2748 42.2828C62.2748 47.3772 58.1451 51.507 53.051 51.507C47.9568 51.507 43.8271 47.3772 43.8271 42.2828C43.8271 37.1884 47.9568 33.0586 53.051 33.0586C58.1451 33.0586 62.2748 37.1884 62.2748 42.2828Z" stroke="#AFBBCA"/>
<path d="M30.8548 49.5919C34.8908 49.5919 38.1627 46.3199 38.1627 42.2837C38.1627 38.2476 34.8908 34.9756 30.8548 34.9756C26.8187 34.9756 23.5469 38.2476 23.5469 42.2837C23.5469 46.3199 26.8187 49.5919 30.8548 49.5919Z" fill="#AFBBCA"/>
<path d="M53.0501 49.5919C57.0861 49.5919 60.358 46.3199 60.358 42.2837C60.358 38.2476 57.0861 34.9756 53.0501 34.9756C49.014 34.9756 45.7422 38.2476 45.7422 42.2837C45.7422 46.3199 49.014 49.5919 53.0501 49.5919Z" fill="#AFBBCA"/>
<path d="M59.0001 49.0029C56.8334 53.8364 53.8001 64.2035 59.0001 67.0036C65.5001 70.5037 67.0001 55.0032 59.0001 49.0029Z" fill="#E9ECEF" stroke="#AFBBCA"/>
<path d="M41.5993 55.0128C48.9303 54.8973 54.0032 58.2179 54.08 58.2687C54.3549 58.4524 54.4288 58.8273 54.2451 59.1022C54.0614 59.3772 53.6865 59.4511 53.4116 59.2674C53.3025 59.1971 42.5186 52.1699 29.8073 59.6673C29.522 59.8358 29.1565 59.7415 28.988 59.4561C28.8194 59.1708 28.9136 58.8012 29.1991 58.6367C33.67 55.9979 37.9199 55.0748 41.5994 55.0168L41.5993 55.0128Z" fill="#AFBBCA"/>
</svg>
