<svg width="100" height="100" viewBox="0 0 100 100" fill="none" xmlns="http://www.w3.org/2000/svg">
<g id="Character">
<g id="Group 111">
<g id="Group">
<path id="Vector" d="M89.6287 10.372C102.791 36.8002 102.791 63.1998 89.6287 89.628C63.2014 102.791 36.8028 102.791 10.3755 89.628C-2.78664 63.1998 -2.78664 36.8002 10.3755 10.372C36.8028 -2.79066 63.2014 -2.79066 89.6287 10.372Z" stroke="#111111"/>
<path id="Vector_2" d="M10.3716 89.6292C-2.79054 63.201 -2.79054 36.8014 10.3716 10.3732C21.7418 4.71122 33.1005 1.49306 44.4463 0.701404C55.7921 1.49306 67.1468 4.7112 78.517 10.3732C91.6791 36.8014 91.6791 63.201 78.517 89.6292C67.1508 95.2912 55.7921 98.5093 44.4463 99.301C33.0965 98.5093 21.7418 95.2912 10.3716 89.6292Z" stroke="#111111"/>
<g id="Group_2">
<g id="Group_3">
<path id="Vector_3" d="M39.5786 42.2828C39.5786 47.3772 35.4489 51.507 30.3547 51.507C25.2606 51.507 21.1309 47.3772 21.1309 42.2828C21.1309 37.1884 25.2606 33.0586 30.3547 33.0586C35.4489 33.0586 39.5786 37.1884 39.5786 42.2828Z" stroke="#111111"/>
<path id="Vector_4" d="M61.7748 42.2828C61.7748 47.3772 57.6451 51.507 52.551 51.507C47.4568 51.507 43.3271 47.3772 43.3271 42.2828C43.3271 37.1884 47.4568 33.0586 52.551 33.0586C57.6451 33.0586 61.7748 37.1884 61.7748 42.2828Z" stroke="#111111"/>
<path id="Vector_5" d="M30.3548 49.5919C34.3908 49.5919 37.6627 46.3199 37.6627 42.2837C37.6627 38.2476 34.3908 34.9756 30.3548 34.9756C26.3187 34.9756 23.0469 38.2476 23.0469 42.2837C23.0469 46.3199 26.3187 49.5919 30.3548 49.5919Z" fill="#111111"/>
<path id="Vector_6" d="M52.5501 49.5919C56.5861 49.5919 59.858 46.3199 59.858 42.2837C59.858 38.2476 56.5861 34.9756 52.5501 34.9756C48.514 34.9756 45.2422 38.2476 45.2422 42.2837C45.2422 46.3199 48.514 49.5919 52.5501 49.5919Z" fill="#111111"/>
<path id="Vector 39" d="M58.5001 49.0029C56.3334 53.8364 53.3001 64.2035 58.5001 67.0036C65.0001 70.5037 66.5001 55.0032 58.5001 49.0029Z" fill="#EAF4F3" stroke="#111111"/>
</g>
<path id="Vector_7" d="M41.0993 55.0128C48.4303 54.8973 53.5032 58.2179 53.58 58.2687C53.8549 58.4524 53.9288 58.8273 53.7451 59.1022C53.5614 59.3772 53.1865 59.4511 52.9116 59.2674C52.8025 59.1971 42.0186 52.1699 29.3073 59.6673C29.022 59.8358 28.6565 59.7415 28.488 59.4561C28.3194 59.1708 28.4136 58.8012 28.6991 58.6367C33.17 55.9979 37.4199 55.0748 41.0994 55.0168L41.0993 55.0128Z" fill="#111111"/>
</g>
</g>
</g>
</g>
</svg>
