<?xml version="1.0" encoding="utf-8"?>
<!-- Generator: Adobe Illustrator 27.5.0, SVG Export Plug-In . SVG Version: 6.00 Build 0)  -->
<svg version="1.1" id="레이어_1" xmlns="http://www.w3.org/2000/svg" xmlns:xlink="http://www.w3.org/1999/xlink" x="0px"
	 y="0px" viewBox="0 0 421 852" style="enable-background:new 0 0 421 852;" xml:space="preserve">
<style type="text/css">
	.st0{fill-rule:evenodd;clip-rule:evenodd;fill:#EEF5FF;}
	.st1{fill-rule:evenodd;clip-rule:evenodd;fill:#76D7FA;filter:url(#Adobe_OpacityMaskFilter);}
	.st2{mask:url(#mask0_169_10577_00000130624797299644471890000016628751047949208983_);}
	.st3{opacity:0.5;}
	.st4{fill:url(#SVGID_1_);}
	.st5{fill:none;}
	.st6{fill:url(#SVGID_00000098913764117705000880000009303200603638253986_);fill-opacity:0.3;}
	.st7{fill:url(#SVGID_00000115504540286048613380000012661528549024888999_);fill-opacity:0.3;}
	.st8{fill:url(#SVGID_00000078046633125199571280000001041280826682474932_);fill-opacity:0.3;}
	.st9{fill:url(#SVGID_00000155130104169638777850000002095335483477844371_);fill-opacity:0.3;}
	.st10{fill:url(#SVGID_00000038391088389140637710000011368602587749691025_);fill-opacity:0.3;}
	.st11{fill:url(#SVGID_00000172404171140799666450000014825975922867034756_);fill-opacity:0.3;}
	.st12{fill:url(#SVGID_00000119825176244592081670000001417736032559623095_);fill-opacity:0.3;}
	.st13{fill:url(#SVGID_00000001632825066641168930000010232122806630335401_);fill-opacity:0.3;}
	.st14{fill:url(#SVGID_00000104664553816678868730000007729131482500759705_);fill-opacity:0.3;}
	.st15{fill:url(#SVGID_00000084503963934345289280000018015391420105854348_);fill-opacity:0.3;}
	.st16{opacity:0.2;}
	.st17{opacity:0.5;fill:url(#SVGID_00000159451596103002085530000002045659203232251812_);enable-background:new    ;}
	.st18{fill-rule:evenodd;clip-rule:evenodd;fill:url(#SVGID_00000033351580578245646920000001972219065117979063_);}
	.st19{opacity:0.1;}
	.st20{fill:url(#SVGID_00000003077583553915396490000005128247747980577430_);}
	.st21{opacity:0.5;fill:url(#SVGID_00000126293703649314891930000002031843730322432154_);enable-background:new    ;}
	.st22{fill-rule:evenodd;clip-rule:evenodd;fill:url(#SVGID_00000139997586347681462950000016460598208909366957_);}
	
		.st23{fill-rule:evenodd;clip-rule:evenodd;fill:#C4C4C4;filter:url(#Adobe_OpacityMaskFilter_00000124859519510352447290000003715695336756848551_);}
	.st24{mask:url(#mask1_169_10577_00000160178117987779742980000007856925982705880235_);}
	.st25{fill:url(#SVGID_00000077313085436275918390000011188936401246729389_);}
	.st26{fill:#FFFFFF;}
</style>
<path class="st0" d="M2,62C2,27.8,29.8,0,64,0h291c34.2,0,62,27.8,62,62v195h2c1.1,0,2,0.9,2,2v97c0,1.1-0.9,2-2,2h-2v432
	c0,34.2-27.8,62-62,62H64c-34.2,0-62-27.8-62-62V382c-1.1,0-2-0.9-2-2v-61c0-1.1,0.9-2,2-2v-17c-1.1,0-2-0.9-2-2v-61
	c0-1.1,0.9-2,2-2v-27c-1.1,0-2-0.9-2-2v-29c0-1.1,0.9-2,2-2V62z"/>
<defs>
	<filter id="Adobe_OpacityMaskFilter" filterUnits="userSpaceOnUse" x="-3.7" y="-6.3" width="426.4" height="864.5">
		<feColorMatrix  type="matrix" values="1 0 0 0 0  0 1 0 0 0  0 0 1 0 0  0 0 0 1 0"/>
	</filter>
</defs>
<mask maskUnits="userSpaceOnUse" x="-3.7" y="-6.3" width="426.4" height="864.5" id="mask0_169_10577_00000130624797299644471890000016628751047949208983_">
	<path class="st1" d="M2,62C2,27.8,29.8,0,64,0h291c34.2,0,62,27.8,62,62v195h2c1.1,0,2,0.9,2,2v97c0,1.1-0.9,2-2,2h-2v432
		c0,34.2-27.8,62-62,62H64c-34.2,0-62-27.8-62-62V382c-1.1,0-2-0.9-2-2v-61c0-1.1,0.9-2,2-2v-17c-1.1,0-2-0.9-2-2v-61
		c0-1.1,0.9-2,2-2v-27c-1.1,0-2-0.9-2-2v-29c0-1.1,0.9-2,2-2V62z"/>
</mask>
<g class="st2">
	<g class="st3">
		
			<radialGradient id="SVGID_1_" cx="-749.2846" cy="967.6743" r="0.9997" gradientTransform="matrix(-464.0675 823.9235 915.8403 515.8389 -1233594.875 118352.6719)" gradientUnits="userSpaceOnUse">
			<stop  offset="5.832000e-02" style="stop-color:#C3CFD8;stop-opacity:0"/>
			<stop  offset="1" style="stop-color:#FFD2D8"/>
		</radialGradient>
		<rect x="0" class="st4" width="422" height="852"/>
	</g>
	<g>
		<rect x="-3.3" class="st5" width="424.3" height="852"/>
	</g>
	<g class="st3">
		<rect x="-3.7" y="-6.3" class="st5" width="426.4" height="864.5"/>
	</g>
</g>
<g>
	
		<linearGradient id="SVGID_00000175288564537649190170000010763431336833407124_" gradientUnits="userSpaceOnUse" x1="417" y1="307.5" x2="421" y2="307.5">
		<stop  offset="0" style="stop-color:#5C94CC"/>
		<stop  offset="1" style="stop-color:#FFFFFF"/>
	</linearGradient>
	<path style="fill:url(#SVGID_00000175288564537649190170000010763431336833407124_);fill-opacity:0.3;" d="M421,356
		c0,1.1-0.7,2-1.6,2H417V257h2.4c0.9,0,1.6,0.9,1.6,2V356z"/>
	
		<linearGradient id="SVGID_00000116945900991802757650000004318067565717756810_" gradientUnits="userSpaceOnUse" x1="419" y1="496" x2="419" y2="597" gradientTransform="matrix(1 0 0 -1 0 854)">
		<stop  offset="0" style="stop-color:#BBC6EA"/>
		<stop  offset="0.1016" style="stop-color:#C3CFD8;stop-opacity:0"/>
		<stop  offset="0.8904" style="stop-color:#BBC6EA;stop-opacity:0"/>
		<stop  offset="1" style="stop-color:#BBC6EA"/>
	</linearGradient>
	<path style="fill:url(#SVGID_00000116945900991802757650000004318067565717756810_);fill-opacity:0.3;" d="M421,356
		c0,1.1-0.7,2-1.6,2H417V257h2.4c0.9,0,1.6,0.9,1.6,2V356z"/>
	
		<linearGradient id="SVGID_00000106124736759475941550000004245327745664938163_" gradientUnits="userSpaceOnUse" x1="2.6935" y1="504.5" x2="0" y2="504.5" gradientTransform="matrix(1 0 0 -1 0 854)">
		<stop  offset="0" style="stop-color:#5C94CC"/>
		<stop  offset="1" style="stop-color:#FFFFFF"/>
	</linearGradient>
	<path style="fill:url(#SVGID_00000106124736759475941550000004245327745664938163_);fill-opacity:0.3;" d="M0,319c0-1.1,0.9-2,2-2
		v65c-1.1,0-2-0.9-2-2V319z"/>
	
		<linearGradient id="SVGID_00000171690146742961426300000008213565043030556311_" gradientUnits="userSpaceOnUse" x1="1" y1="537" x2="1" y2="472" gradientTransform="matrix(1 0 0 -1 0 854)">
		<stop  offset="0" style="stop-color:#000000"/>
		<stop  offset="0.1016" style="stop-color:#000000;stop-opacity:0"/>
		<stop  offset="0.8904" style="stop-color:#000000;stop-opacity:0"/>
		<stop  offset="1" style="stop-color:#000000"/>
	</linearGradient>
	<path style="fill:url(#SVGID_00000171690146742961426300000008213565043030556311_);fill-opacity:0.3;" d="M0,319c0-1.1,0.9-2,2-2
		v65c-1.1,0-2-0.9-2-2V319z"/>
	<g>
		
			<linearGradient id="SVGID_00000074411072697556695910000001066455456840569790_" gradientUnits="userSpaceOnUse" x1="2.6935" y1="586.5" x2="0" y2="586.5" gradientTransform="matrix(1 0 0 -1 0 854)">
			<stop  offset="0" style="stop-color:#5C94CC"/>
			<stop  offset="1" style="stop-color:#FFFFFF"/>
		</linearGradient>
		<path style="fill:url(#SVGID_00000074411072697556695910000001066455456840569790_);fill-opacity:0.3;" d="M0,237c0-1.1,0.9-2,2-2
			v65c-1.1,0-2-0.9-2-2V237z"/>
		
			<linearGradient id="SVGID_00000171717201217708929070000002926483457923892905_" gradientUnits="userSpaceOnUse" x1="1" y1="619" x2="1" y2="554" gradientTransform="matrix(1 0 0 -1 0 854)">
			<stop  offset="0" style="stop-color:#BBC6EA"/>
			<stop  offset="0.1016" style="stop-color:#B1CBE5;stop-opacity:0"/>
			<stop  offset="0.888" style="stop-color:#B1CBE5;stop-opacity:0"/>
			<stop  offset="1" style="stop-color:#B1CBE5"/>
		</linearGradient>
		<path style="fill:url(#SVGID_00000171717201217708929070000002926483457923892905_);fill-opacity:0.3;" d="M0,237c0-1.1,0.9-2,2-2
			v65c-1.1,0-2-0.9-2-2V237z"/>
	</g>
	<g>
		
			<linearGradient id="SVGID_00000050659775923527227210000011947540381033901737_" gradientUnits="userSpaceOnUse" x1="2.6935" y1="504.5" x2="0" y2="504.5" gradientTransform="matrix(1 0 0 -1 0 854)">
			<stop  offset="0" style="stop-color:#5C94CC"/>
			<stop  offset="1" style="stop-color:#FFFFFF"/>
		</linearGradient>
		<path style="fill:url(#SVGID_00000050659775923527227210000011947540381033901737_);fill-opacity:0.3;" d="M0,319c0-1.1,0.9-2,2-2
			v65c-1.1,0-2-0.9-2-2V319z"/>
		
			<linearGradient id="SVGID_00000113344640641454485710000011250498654228674953_" gradientUnits="userSpaceOnUse" x1="1" y1="537" x2="1" y2="472" gradientTransform="matrix(1 0 0 -1 0 854)">
			<stop  offset="0" style="stop-color:#BBC6EA"/>
			<stop  offset="0.1016" style="stop-color:#B1CBE5;stop-opacity:0"/>
			<stop  offset="0.888" style="stop-color:#B1CBE5;stop-opacity:0"/>
			<stop  offset="1" style="stop-color:#B1CBE5"/>
		</linearGradient>
		<path style="fill:url(#SVGID_00000113344640641454485710000011250498654228674953_);fill-opacity:0.3;" d="M0,319c0-1.1,0.9-2,2-2
			v65c-1.1,0-2-0.9-2-2V319z"/>
	</g>
	
		<linearGradient id="SVGID_00000003797515534811288880000000170761440291640757_" gradientUnits="userSpaceOnUse" x1="2.6935" y1="662.5" x2="0" y2="662.5" gradientTransform="matrix(1 0 0 -1 0 854)">
		<stop  offset="0" style="stop-color:#5C94CC"/>
		<stop  offset="1" style="stop-color:#FFFFFF"/>
	</linearGradient>
	<path style="fill:url(#SVGID_00000003797515534811288880000000170761440291640757_);fill-opacity:0.3;" d="M0,177c0-1.1,0.9-2,2-2
		v33c-1.1,0-2-0.9-2-2V177z"/>
	
		<linearGradient id="SVGID_00000098913149697683546440000004573393272687908244_" gradientUnits="userSpaceOnUse" x1="1" y1="679" x2="1" y2="646" gradientTransform="matrix(1 0 0 -1 0 854)">
		<stop  offset="0" style="stop-color:#9BB2C9"/>
		<stop  offset="0.1202" style="stop-color:#B1CBE5;stop-opacity:0"/>
		<stop  offset="0.8821" style="stop-color:#A6CDED;stop-opacity:0"/>
		<stop  offset="1" style="stop-color:#87A7C1"/>
	</linearGradient>
	<path style="fill:url(#SVGID_00000098913149697683546440000004573393272687908244_);fill-opacity:0.3;" d="M0,177c0-1.1,0.9-2,2-2
		v33c-1.1,0-2-0.9-2-2V177z"/>
</g>
<g class="st16">
	
		<linearGradient id="SVGID_00000134933219821022796690000015858076005156609189_" gradientUnits="userSpaceOnUse" x1="210.5" y1="848" x2="210.5" y2="842" gradientTransform="matrix(1 0 0 -1 0 854)">
		<stop  offset="0" style="stop-color:#121212"/>
		<stop  offset="1" style="stop-color:#585858"/>
	</linearGradient>
	<path style="opacity:0.5;fill:url(#SVGID_00000134933219821022796690000015858076005156609189_);enable-background:new    ;" d="
		M175,6h71v2c0,2.2-1.8,4-4,4h-63c-2.2,0-4-1.8-4-4V6z"/>
	<g>
		
			<linearGradient id="SVGID_00000096775162158829920370000009311410543020866181_" gradientUnits="userSpaceOnUse" x1="210.5" y1="842" x2="210.5" y2="844.5" gradientTransform="matrix(1 0 0 -1 0 854)">
			<stop  offset="0" style="stop-color:#BBC6EA"/>
			<stop  offset="1" style="stop-color:#BBC6EA;stop-opacity:0"/>
		</linearGradient>
		<path style="fill-rule:evenodd;clip-rule:evenodd;fill:url(#SVGID_00000096775162158829920370000009311410543020866181_);" d="
			M245,7h-69v1c0,1.7,1.3,3,3,3h63c1.7,0,3-1.3,3-3V7z M175,6v2c0,2.2,1.8,4,4,4h63c2.2,0,4-1.8,4-4V6H175z"/>
	</g>
	<g class="st19">
		
			<linearGradient id="SVGID_00000086683451885746164680000011730471346284234134_" gradientUnits="userSpaceOnUse" x1="155" y1="833" x2="155" y2="815" gradientTransform="matrix(1 0 0 -1 0 854)">
			<stop  offset="0" style="stop-color:#FFFFFF"/>
			<stop  offset="1" style="stop-color:#FFFFFF;stop-opacity:0"/>
		</linearGradient>
		<path style="fill:url(#SVGID_00000086683451885746164680000011730471346284234134_);" d="M164,30c0,5-4,9-9,9c-5,0-9-4-9-9
			s4-9,9-9C160,21,164,25,164,30z"/>
	</g>
	
		<linearGradient id="SVGID_00000093884342042563981610000006941035336392594578_" gradientUnits="userSpaceOnUse" x1="155.1755" y1="829" x2="155.1755" y2="818.8086" gradientTransform="matrix(1 0 0 -1 0 854)">
		<stop  offset="0" style="stop-color:#121212"/>
		<stop  offset="1" style="stop-color:#464646"/>
	</linearGradient>
	<path style="opacity:0.5;fill:url(#SVGID_00000093884342042563981610000006941035336392594578_);enable-background:new    ;" d="
		M160.4,30.1c0,2.8-2.3,5.1-5.2,5.1c-2.9,0-5.2-2.3-5.2-5.1s2.3-5.1,5.2-5.1C158,25,160.4,27.3,160.4,30.1z"/>
	<g>
		
			<linearGradient id="SVGID_00000099622474886709675200000012395695303365210250_" gradientUnits="userSpaceOnUse" x1="155.1755" y1="818.6892" x2="155.1755" y2="828.907" gradientTransform="matrix(1 0 0 -1 0 854)">
			<stop  offset="0" style="stop-color:#2A2A2A"/>
			<stop  offset="0.4931" style="stop-color:#000000;stop-opacity:0"/>
		</linearGradient>
		<path style="fill-rule:evenodd;clip-rule:evenodd;fill:url(#SVGID_00000099622474886709675200000012395695303365210250_);" d="
			M155.2,34.5c2.5,0,4.5-2,4.5-4.4s-2-4.4-4.5-4.4s-4.5,2-4.5,4.4S152.7,34.5,155.2,34.5z M155.2,35.2c2.9,0,5.2-2.3,5.2-5.1
			S158,25,155.2,25c-2.9,0-5.2,2.3-5.2,5.1S152.3,35.2,155.2,35.2z"/>
	</g>
</g>
<defs>
	
		<filter id="Adobe_OpacityMaskFilter_00000149374806939779035170000001574588019233924260_" filterUnits="userSpaceOnUse" x="22" y="20" width="375" height="812">
		<feColorMatrix  type="matrix" values="1 0 0 0 0  0 1 0 0 0  0 0 1 0 0  0 0 0 1 0"/>
	</filter>
</defs>
<mask maskUnits="userSpaceOnUse" x="22" y="20" width="375" height="812" id="mask1_169_10577_00000160178117987779742980000007856925982705880235_">
	
		<path style="fill-rule:evenodd;clip-rule:evenodd;fill:#C4C4C4;filter:url(#Adobe_OpacityMaskFilter_00000149374806939779035170000001574588019233924260_);" d="
		M64,20c-23.2,0-42,18.8-42,42v728c0,23.2,18.8,42,42,42h291c23.2,0,42-18.8,42-42V62c0-23.2-18.8-42-42-42h-63.1
		c-3.9,0-4.9,2.5-4.9,6.4c0,12.2-3,24.1-21.1,24.1H153.1C135,50.5,132,38.6,132,26.4c0-3.9-1-6.4-4.9-6.4H64z"/>
</mask>
<g class="st24">
	
		<linearGradient id="SVGID_00000086651715507963424970000005267575805979395474_" gradientUnits="userSpaceOnUse" x1="353.3808" y1="840.3227" x2="-30.3407" y2="-259.3173" gradientTransform="matrix(1 0 0 -1 0 854)">
		<stop  offset="0" style="stop-color:#FFFFFF"/>
		<stop  offset="1" style="stop-color:#B5ADA8"/>
	</linearGradient>
	<path style="fill:url(#SVGID_00000086651715507963424970000005267575805979395474_);" d="M26,20h367c2.2,0,4,1.8,4,4v804
		c0,2.2-1.8,4-4,4H26c-2.2,0-4-1.8-4-4V24C22,21.8,23.8,20,26,20z"/>
</g>
<path class="st26" d="M355.8,832H63.2C40.4,832,22,813.6,22,790.8V61.2C22,38.4,40.4,20,63.2,20h292.6c22.7,0,41.2,18.4,41.2,41.2
	v729.6C397,813.6,378.6,832,355.8,832z"/>
</svg>
