<svg width="18" height="18" viewBox="0 0 18 18" fill="none" xmlns="http://www.w3.org/2000/svg">
<path fill-rule="evenodd" clip-rule="evenodd" d="M15.7061 9.75163C16.1203 9.75163 16.4561 9.41585 16.4561 9.00163C16.4561 8.58742 16.1203 8.25163 15.7061 8.25163L9.75 8.25163L9.75 2.29552C9.75 1.88131 9.41421 1.54552 9 1.54552C8.58579 1.54552 8.25 1.88131 8.25 2.29552L8.25 8.25163L2.29389 8.25163C1.87968 8.25163 1.54389 8.58742 1.54389 9.00163C1.54389 9.41585 1.87968 9.75163 2.29389 9.75163L8.25 9.75163V15.7077C8.25 16.122 8.58579 16.4577 9 16.4577C9.41421 16.4577 9.75 16.122 9.75 15.7077V9.75163L15.7061 9.75163Z" fill="#111111"/>
</svg>
