<svg width="14" height="13" viewBox="0 0 14 13" fill="none" xmlns="http://www.w3.org/2000/svg">
<path d="M12.4909 9.02137C12.6521 8.63982 12.4735 8.19982 12.0919 8.03861C11.7104 7.8774 11.2704 8.05603 11.1092 8.43758L12.4909 9.02137ZM1.88543 4.15803C1.70109 4.52896 1.85235 4.9791 2.22329 5.16344C2.59422 5.34778 3.04436 5.19651 3.2287 4.82558L1.88543 4.15803ZM7.11368 2.41669C9.14934 2.41669 10.859 3.82046 11.324 5.71375L12.7807 5.35599C12.1548 2.80773 9.85603 0.916687 7.11368 0.916687V2.41669ZM11.1092 8.43758C10.4508 9.99586 8.9088 11.0871 7.11368 11.0871V12.5871C9.53268 12.5871 11.6062 11.1153 12.4909 9.02137L11.1092 8.43758ZM3.2287 4.82558C3.93899 3.3963 5.41262 2.41669 7.11368 2.41669V0.916687C4.82147 0.916687 2.83936 2.23848 1.88543 4.15803L3.2287 4.82558ZM7.11368 11.0871C4.88273 11.0871 3.04449 9.4013 2.80497 7.23451L1.31405 7.39933C1.63666 10.3177 4.10963 12.5871 7.11368 12.5871V11.0871Z" fill="white"/>
<path d="M12.4909 9.02137C12.6521 8.63982 12.4735 8.19982 12.0919 8.03861C11.7104 7.8774 11.2704 8.05603 11.1092 8.43758L12.4909 9.02137ZM1.88543 4.15803C1.70109 4.52896 1.85235 4.9791 2.22329 5.16344C2.59422 5.34778 3.04436 5.19651 3.2287 4.82558L1.88543 4.15803ZM7.11368 2.41669C9.14934 2.41669 10.859 3.82046 11.324 5.71375L12.7807 5.35599C12.1548 2.80773 9.85603 0.916687 7.11368 0.916687V2.41669ZM11.1092 8.43758C10.4508 9.99586 8.9088 11.0871 7.11368 11.0871V12.5871C9.53268 12.5871 11.6062 11.1153 12.4909 9.02137L11.1092 8.43758ZM3.2287 4.82558C3.93899 3.3963 5.41262 2.41669 7.11368 2.41669V0.916687C4.82147 0.916687 2.83936 2.23848 1.88543 4.15803L3.2287 4.82558ZM7.11368 11.0871C4.88273 11.0871 3.04449 9.4013 2.80497 7.23451L1.31405 7.39933C1.63666 10.3177 4.10963 12.5871 7.11368 12.5871V11.0871Z" fill="#475467"/>
<path d="M3.60797 7.97069L1.7513 6.71332L0.77206 8.73057" stroke="white" stroke-width="1.5" stroke-linecap="round" stroke-linejoin="round"/>
<path d="M3.60797 7.97069L1.7513 6.71332L0.77206 8.73057" stroke="#475467" stroke-width="1.5" stroke-linecap="round" stroke-linejoin="round"/>
<path d="M10.2765 5.33936L12.3954 6.07334L12.8191 3.87138" stroke="white" stroke-width="1.5" stroke-linecap="round" stroke-linejoin="round"/>
<path d="M10.2765 5.33936L12.3954 6.07334L12.8191 3.87138" stroke="#475467" stroke-width="1.5" stroke-linecap="round" stroke-linejoin="round"/>
</svg>
