<svg width="25" height="24" viewBox="0 0 25 24" fill="none" xmlns="http://www.w3.org/2000/svg">
<path fill-rule="evenodd" clip-rule="evenodd" d="M3.37502 19.9292V8.42879C3.37126 7.84168 3.84377 7.36248 4.43088 7.358H8.65295C9.24006 7.36248 9.71257 7.84168 9.70881 8.42879V3.07079C9.70504 2.4842 10.1767 2.00523 10.7633 2H14.9867C15.5738 2.00448 16.0464 2.48368 16.0426 3.07079V6.28586C16.0388 5.69875 16.5113 5.21955 17.0985 5.21507H21.3205C21.9071 5.2203 22.3788 5.69927 22.375 6.28586V19.9292C22.3788 20.5163 21.9063 20.9955 21.3192 21H4.43088C3.84377 20.9955 3.37126 20.5163 3.37502 19.9292V19.9292Z" stroke="black" stroke-width="1.5" stroke-linecap="round" stroke-linejoin="round"/>
<path d="M8.95893 20.9999C8.95893 21.4142 9.29472 21.7499 9.70893 21.7499C10.1231 21.7499 10.4589 21.4142 10.4589 20.9999H8.95893ZM10.4589 8.42873C10.4589 8.01452 10.1231 7.67873 9.70893 7.67873C9.29472 7.67873 8.95893 8.01452 8.95893 8.42873H10.4589ZM15.2914 20.9999C15.2914 21.4141 15.6272 21.7499 16.0414 21.7499C16.4556 21.7499 16.7914 21.4141 16.7914 20.9999H15.2914ZM16.7914 6.28578C16.7914 5.87157 16.4556 5.53578 16.0414 5.53578C15.6272 5.53578 15.2914 5.87157 15.2914 6.28578H16.7914ZM10.4589 20.9999V8.42873H8.95893V20.9999H10.4589ZM16.7914 20.9999V6.28578H15.2914V20.9999H16.7914Z" fill="black"/>
</svg>
