<svg width="15" height="14" viewBox="0 0 15 14" fill="none" xmlns="http://www.w3.org/2000/svg">
    <circle cx="7.814" cy="7" r="7" fill="#00C1EC"/>
    <path fill-rule="evenodd" clip-rule="evenodd" d="M8.07 3.138a3.69 3.69 0 0 0-3.306 2.05.402.402 0 1 1-.721-.358 4.495 4.495 0 0 1 8.12.14l.104-.536a.402.402 0 1 1 .79.152l-.341 1.772a.402.402 0 0 1-.527.304l-1.705-.59a.402.402 0 0 1 .263-.76l.8.276a3.692 3.692 0 0 0-3.477-2.45zM3.33 8.596l.363-.748a4.496 4.496 0 0 0 8.52.728.402.402 0 1 0-.741-.313 3.691 3.691 0 0 1-6.963-.47l.515.35a.402.402 0 1 0 .452-.667L3.98 6.464a.402.402 0 0 0-.587.157l-.788 1.624a.402.402 0 1 0 .724.351z" fill="#fff"/>
</svg>
