<svg width="12" height="10" viewBox="0 0 12 10" fill="none" xmlns="http://www.w3.org/2000/svg">
<path fill-rule="evenodd" clip-rule="evenodd" d="M6.25602 1.13814C4.80778 1.13814 3.55365 1.9724 2.94935 3.18839C2.85045 3.3874 2.60895 3.46855 2.40994 3.36965C2.21093 3.27075 2.12977 3.02925 2.22867 2.83024C2.96369 1.35121 4.49062 0.333374 6.25602 0.333374C8.0758 0.333374 9.64232 1.41453 10.3495 2.96922L10.4525 2.43395C10.4945 2.21573 10.7054 2.07286 10.9237 2.11486C11.1419 2.15686 11.2847 2.36781 11.2427 2.58604L10.9017 4.3581C10.8796 4.47275 10.8089 4.57216 10.7078 4.63053C10.6067 4.68891 10.4852 4.70049 10.3749 4.66227L8.6697 4.07159C8.45971 3.99884 8.34845 3.76965 8.42119 3.55966C8.49393 3.34967 8.72313 3.23841 8.93312 3.31115L9.73263 3.58811C9.22327 2.16002 7.85855 1.13814 6.25602 1.13814ZM1.51446 6.59624L1.87757 5.84823C2.33972 7.83936 4.12438 9.32295 6.25602 9.32295C8.11907 9.32295 9.71647 8.18955 10.3981 6.57625C10.4846 6.37155 10.3888 6.13548 10.184 6.04899C9.97934 5.9625 9.74328 6.05834 9.65679 6.26305C9.09658 7.58895 7.78436 8.51818 6.25602 8.51818C4.55196 8.51818 3.1173 7.36281 2.6933 5.79286L3.20909 6.14216C3.39309 6.26677 3.64327 6.21863 3.76789 6.03462C3.8925 5.85062 3.84435 5.60043 3.66035 5.47582L2.16616 4.46393C2.06949 4.39846 1.94916 4.37821 1.83639 4.40843C1.72362 4.43865 1.62953 4.51635 1.57854 4.62138L0.790488 6.2448C0.69344 6.44472 0.776835 6.68546 0.976755 6.7825C1.17667 6.87955 1.41741 6.79615 1.51446 6.59624Z" fill="white"/>
</svg>
