<svg width="24" height="24" viewBox="0 0 24 24" fill="none" xmlns="http://www.w3.org/2000/svg">
<path fill-rule="evenodd" clip-rule="evenodd" d="M5.93423 15.4792C5.00759 14.533 4.37909 13.3356 4.12669 12.0356C3.8722 10.7318 4.00288 9.38223 4.50277 8.15155C4.99839 6.92778 5.84454 5.87773 6.93497 5.13327C9.14736 3.62224 12.0599 3.62224 14.2723 5.13327C15.3627 5.87773 16.2089 6.92778 16.7045 8.15155C17.2044 9.38223 17.335 10.7318 17.0806 12.0356C16.8282 13.3356 16.1997 14.533 15.273 15.4792C14.0458 16.7385 12.362 17.4488 10.6036 17.4488C8.84525 17.4488 7.16142 16.7385 5.93423 15.4792V15.4792Z" stroke="black" stroke-width="1.5" stroke-linecap="round" stroke-linejoin="round"/>
<path d="M15.9004 14.8455C15.6073 14.5529 15.1324 14.5533 14.8398 14.8465C14.5471 15.1396 14.5476 15.6145 14.8407 15.9071L15.9004 14.8455ZM18.4708 19.5308C18.764 19.8234 19.2388 19.823 19.5315 19.5299C19.8241 19.2367 19.8237 18.7618 19.5305 18.4692L18.4708 19.5308ZM14.8407 15.9071L18.4708 19.5308L19.5305 18.4692L15.9004 14.8455L14.8407 15.9071Z" fill="black"/>
</svg>
