<svg width="24" height="24" viewBox="0 0 24 24" fill="none" xmlns="http://www.w3.org/2000/svg">
<path fill-rule="evenodd" clip-rule="evenodd" d="M11 22C10.4763 22 10.0296 21.621 9.9443 21.1043C9.8658 20.6863 9.56484 20.3447 9.16001 20.2143C8.83015 20.101 8.50763 19.9675 8.1943 19.8143C7.82146 19.6236 7.3742 19.6521 7.02859 19.8886C6.61034 20.1893 6.03579 20.1428 5.67144 19.7786L4.2543 18.3614C3.87291 17.98 3.82336 17.3787 4.13716 16.94C4.37917 16.5864 4.41402 16.1305 4.22859 15.7443C4.1064 15.4759 3.99863 15.2013 3.90573 14.9214C3.77268 14.4805 3.40541 14.1501 2.95287 14.0643C2.40713 13.9771 2.00425 13.5084 2.00001 12.9557V11.1829C1.99711 10.5458 2.45721 10.001 3.08573 9.89714C3.56253 9.80644 3.96068 9.47986 4.14287 9.03C4.19716 8.90333 4.2543 8.77762 4.3143 8.65286C4.55662 8.18635 4.52315 7.62444 4.22716 7.19C3.857 6.67554 3.91383 5.9687 4.36144 5.52L5.40287 4.47857C5.91651 3.96475 6.7266 3.89825 7.31716 4.32143L7.35001 4.34429C7.791 4.64109 8.35214 4.69484 8.84144 4.48714C9.3649 4.29873 9.7507 3.84891 9.85716 3.30286L9.87144 3.25429C9.98908 2.53139 10.6133 2.00029 11.3457 2H12.6029C13.355 1.99966 13.997 2.54367 14.12 3.28571L14.1429 3.38571C14.2438 3.90882 14.6097 4.34174 15.1086 4.52857C15.5894 4.73495 16.1424 4.68106 16.5743 4.38571L16.6457 4.33429C17.2516 3.89763 18.0848 3.96479 18.6129 4.49286L19.5714 5.45286C20.0518 5.93594 20.1122 6.69561 19.7143 7.24857C19.4026 7.71074 19.3627 8.30464 19.61 8.80429L19.6714 8.94714C19.8717 9.43494 20.3049 9.78855 20.8229 9.88714C21.4999 9.9975 21.9978 10.5812 22 11.2671V12.8571C21.9998 13.462 21.5624 13.978 20.9657 14.0771C20.475 14.1712 20.0753 14.5266 19.9243 15.0029C19.8576 15.1933 19.7833 15.3838 19.7014 15.5743C19.5108 15.9928 19.5531 16.4805 19.8129 16.86C20.1557 17.3369 20.1024 17.9919 19.6872 18.4071L18.3572 19.7386C17.9768 20.1189 17.377 20.1678 16.94 19.8543C16.5752 19.6051 16.1027 19.5776 15.7114 19.7829C15.4327 19.9209 15.1466 20.0435 14.8543 20.15C14.4457 20.291 14.1445 20.6407 14.0657 21.0657C13.9824 21.6004 13.524 21.9959 12.9829 22H11Z" stroke="black" stroke-width="1.5" stroke-linecap="round" stroke-linejoin="round"/>
<path fill-rule="evenodd" clip-rule="evenodd" d="M15.3329 12C15.3329 13.8407 13.8407 15.3328 12.0001 15.3328C10.1594 15.3328 8.66721 13.8407 8.66721 12C8.66721 10.1593 10.1594 8.66711 12.0001 8.66711C13.8407 8.66711 15.3329 10.1593 15.3329 12Z" stroke="black" stroke-width="1.5" stroke-linecap="round" stroke-linejoin="round"/>
</svg>
