<svg width="16" height="16" viewBox="0 0 16 16" fill="none" xmlns="http://www.w3.org/2000/svg">
<path d="M4.36235 6.35443C4.55809 6.15966 4.55888 5.84308 4.36411 5.64733C4.16933 5.45158 3.85275 5.45079 3.657 5.64557L4.36235 6.35443ZM1.647 7.64557C1.45126 7.84034 1.45047 8.15692 1.64524 8.35267C1.84002 8.54842 2.1566 8.54921 2.35235 8.35443L1.647 7.64557ZM2.35235 7.64557C2.1566 7.45079 1.84002 7.45158 1.64524 7.64733C1.45047 7.84308 1.45126 8.15966 1.647 8.35443L2.35235 7.64557ZM3.657 10.3544C3.85275 10.5492 4.16933 10.5484 4.36411 10.3527C4.55888 10.1569 4.55809 9.84034 4.36235 9.64557L3.657 10.3544ZM1.99968 7.5C1.72353 7.5 1.49968 7.72386 1.49968 8C1.49968 8.27614 1.72353 8.5 1.99968 8.5V7.5ZM11.333 8.5C11.6092 8.5 11.833 8.27614 11.833 8C11.833 7.72386 11.6092 7.5 11.333 7.5V8.5ZM3.657 5.64557L1.647 7.64557L2.35235 8.35443L4.36235 6.35443L3.657 5.64557ZM1.647 8.35443L3.657 10.3544L4.36235 9.64557L2.35235 7.64557L1.647 8.35443ZM1.99968 8.5L11.333 8.5V7.5L1.99968 7.5V8.5Z" fill="#8B95A7"/>
<path d="M6 10.0002C6 11.4729 7.19391 12.6668 8.66667 12.6668H11.3333C12.8061 12.6668 14 11.4729 14 10.0002V6.00016C14 4.5274 12.8061 3.3335 11.3333 3.3335H8.66667C7.19391 3.3335 6 4.5274 6 6.00016" stroke="#8B95A7" stroke-linecap="round" stroke-linejoin="round"/>
</svg>
