<svg width="10" height="12" viewBox="0 0 10 12" fill="none" xmlns="http://www.w3.org/2000/svg">
<path fill-rule="evenodd" clip-rule="evenodd" d="M3.8415 11.015C3.64901 10.8171 3.65347 10.5005 3.85146 10.308L8.28272 5.99984L3.85146 1.69167C3.65347 1.49918 3.64901 1.18262 3.8415 0.984631C4.034 0.786639 4.35055 0.78218 4.54854 0.974673L9.34854 5.64134C9.44537 5.73548 9.5 5.86479 9.5 5.99984C9.5 6.13489 9.44537 6.26419 9.34854 6.35833L4.54854 11.025C4.35055 11.2175 4.034 11.213 3.8415 11.015ZM0.641493 10.237C0.449005 10.039 0.453473 9.72248 0.651471 9.53L4.2827 5.99984L0.651471 2.46968C0.453473 2.27719 0.449005 1.96064 0.641493 1.76264C0.83398 1.56464 1.15053 1.56018 1.34853 1.75266L5.34853 5.64133C5.44537 5.73547 5.5 5.86478 5.5 5.99984C5.5 6.13489 5.44537 6.2642 5.34853 6.35834L1.34853 10.247C1.15053 10.4395 0.83398 10.435 0.641493 10.237Z" fill="#667085"/>
</svg>
