<svg width="67" height="13" viewBox="0 0 67 13" fill="none" xmlns="http://www.w3.org/2000/svg">
<rect opacity="0.35" x="42.8333" y="1.33496" width="21" height="10.3333" rx="2.16667" stroke="black"/>
<path opacity="0.4" d="M65.3333 4.50146V8.50146C66.138 8.16269 66.6613 7.3746 66.6613 6.50146C66.6613 5.62833 66.138 4.84024 65.3333 4.50146Z" fill="black"/>
<rect x="44.3333" y="2.83496" width="18" height="7.33333" rx="1.33333" fill="black"/>
<path fill-rule="evenodd" clip-rule="evenodd" d="M29.6637 3.10936C31.8796 3.10946 34.0108 3.96089 35.6167 5.48769C35.7376 5.60557 35.9309 5.60408 36.05 5.48436L37.206 4.31769C37.2663 4.25697 37.3 4.17472 37.2995 4.08914C37.299 4.00356 37.2644 3.9217 37.2034 3.86169C32.9883 -0.177856 26.3385 -0.177856 22.1234 3.86169C22.0623 3.92166 22.0277 4.00349 22.0271 4.08907C22.0265 4.17465 22.0601 4.25693 22.1204 4.31769L23.2767 5.48436C23.3957 5.60426 23.5892 5.60575 23.71 5.48769C25.3162 3.96079 27.4476 3.10935 29.6637 3.10936ZM29.6637 6.90503C30.8812 6.90495 32.0552 7.35748 32.9577 8.17469C33.0798 8.29067 33.272 8.28816 33.391 8.16903L34.5457 7.00236C34.6065 6.94116 34.6403 6.85815 34.6394 6.77188C34.6385 6.68562 34.6031 6.6033 34.541 6.54336C31.7928 3.98698 27.5369 3.98698 24.7887 6.54336C24.7266 6.6033 24.6912 6.68566 24.6904 6.77195C24.6896 6.85824 24.7234 6.94125 24.7844 7.00236L25.9387 8.16903C26.0577 8.28816 26.25 8.29067 26.372 8.17469C27.2739 7.35802 28.447 6.90553 29.6637 6.90503ZM31.9767 9.45884C31.9785 9.54535 31.9445 9.62875 31.8827 9.68936L29.8854 11.705C29.8268 11.7643 29.747 11.7976 29.6637 11.7976C29.5804 11.7976 29.5006 11.7643 29.442 11.705L27.4444 9.68936C27.3827 9.62871 27.3487 9.54528 27.3505 9.45877C27.3524 9.37226 27.3898 9.29035 27.454 9.23236C28.7296 8.15347 30.5978 8.15347 31.8734 9.23236C31.9375 9.29039 31.9749 9.37234 31.9767 9.45884Z" fill="black"/>
<path fill-rule="evenodd" clip-rule="evenodd" d="M16 1.16797H15C14.4477 1.16797 14 1.61568 14 2.16797V10.8346C14 11.3869 14.4477 11.8346 15 11.8346H16C16.5523 11.8346 17 11.3869 17 10.8346V2.16797C17 1.61568 16.5523 1.16797 16 1.16797ZM10.3333 3.5013H11.3333C11.8856 3.5013 12.3333 3.94902 12.3333 4.5013V10.8346C12.3333 11.3869 11.8856 11.8346 11.3333 11.8346H10.3333C9.78105 11.8346 9.33333 11.3869 9.33333 10.8346V4.5013C9.33333 3.94902 9.78105 3.5013 10.3333 3.5013ZM6.66667 5.83464H5.66667C5.11438 5.83464 4.66667 6.28235 4.66667 6.83464V10.8346C4.66667 11.3869 5.11438 11.8346 5.66667 11.8346H6.66667C7.21895 11.8346 7.66667 11.3869 7.66667 10.8346V6.83464C7.66667 6.28235 7.21895 5.83464 6.66667 5.83464ZM2 7.83464H1C0.447715 7.83464 0 8.28235 0 8.83464V10.8346C0 11.3869 0.447715 11.8346 1 11.8346H2C2.55228 11.8346 3 11.3869 3 10.8346V8.83464C3 8.28235 2.55228 7.83464 2 7.83464Z" fill="black"/>
</svg>
