<svg width="12" height="12" viewBox="0 0 12 12" fill="none" xmlns="http://www.w3.org/2000/svg">
<path d="M11.6152 9.55371L6.831 1.37793C6.44917 0.749023 5.52827 0.749023 5.16889 1.37793L0.362252 9.55371C0.00287659 10.1826 0.452095 10.9688 1.19331 10.9688H10.7841C11.5253 10.9688 11.9746 10.1826 11.6152 9.55371ZM5.46088 3.96094C5.46088 3.66895 5.68549 3.42188 5.99995 3.42188C6.29194 3.42188 6.53901 3.66895 6.53901 3.96094V6.83594C6.53901 7.15039 6.29194 7.375 5.99995 7.375C5.73042 7.375 5.46088 7.15039 5.46088 6.83594V3.96094ZM5.99995 9.53125C5.59565 9.53125 5.2812 9.2168 5.2812 8.83496C5.2812 8.45312 5.59565 8.13867 5.99995 8.13867C6.38178 8.13867 6.69624 8.45312 6.69624 8.83496C6.69624 9.2168 6.38178 9.53125 5.99995 9.53125Z" fill="#F0153D"/>
</svg>
