<svg width="20" height="22" viewBox="0 0 20 22" fill="none" xmlns="http://www.w3.org/2000/svg">
<path fill-rule="evenodd" clip-rule="evenodd" d="M14.0095 4.94227C14.0095 7.11952 12.2445 8.88454 10.0672 8.88454C7.88996 8.88454 6.12495 7.11952 6.12495 4.94227C6.12495 2.76501 7.88996 1 10.0672 1C12.2445 1 14.0095 2.76501 14.0095 4.94227Z" fill="black" stroke="black" stroke-width="1.5" stroke-linecap="round" stroke-linejoin="round"/>
<path d="M1.87457 16.394C1.86055 15.9801 1.51359 15.6558 1.09961 15.6699C0.685634 15.6839 0.361408 16.0308 0.37543 16.4448L1.87457 16.394ZM6.66409 20.9982V20.2482C6.65787 20.2482 6.65166 20.2483 6.64544 20.2484L6.66409 20.9982ZM13.5859 20.9982L13.6046 20.2484C13.5983 20.2483 13.5921 20.2482 13.5859 20.2482V20.9982ZM19.8746 16.4448C19.8886 16.0308 19.5644 15.6839 19.1504 15.6699C18.7364 15.6558 18.3895 15.9801 18.3754 16.394L19.8746 16.4448ZM18.3754 16.237C18.3895 16.6509 18.7364 16.9752 19.1504 16.9611C19.5644 16.9471 19.8886 16.6002 19.8746 16.1862L18.3754 16.237ZM13.5859 11.6328V12.3828C13.5921 12.3828 13.5983 12.3827 13.6046 12.3826L13.5859 11.6328ZM6.66409 11.6328L6.64544 12.3826C6.65166 12.3827 6.65787 12.3828 6.66409 12.3828V11.6328ZM0.37543 16.1862C0.361408 16.6002 0.685634 16.9471 1.09961 16.9611C1.51359 16.9752 1.86055 16.6509 1.87457 16.237L0.37543 16.1862ZM0.37543 16.4448C0.480561 19.5486 3.39399 21.8298 6.68274 21.748L6.64544 20.2484C3.98996 20.3145 1.94582 18.4976 1.87457 16.394L0.37543 16.4448ZM6.66409 21.7482H13.5859V20.2482H6.66409V21.7482ZM13.5673 21.748C16.856 21.8298 19.7694 19.5486 19.8746 16.4448L18.3754 16.394C18.3042 18.4976 16.26 20.3145 13.6046 20.2484L13.5673 21.748ZM19.8746 16.1862C19.7694 13.0824 16.856 10.8012 13.5673 10.883L13.6046 12.3826C16.26 12.3165 18.3042 14.1334 18.3754 16.237L19.8746 16.1862ZM13.5859 10.8828H6.66409V12.3828H13.5859V10.8828ZM6.68274 10.883C3.39399 10.8012 0.480561 13.0824 0.37543 16.1862L1.87457 16.237C1.94582 14.1334 3.98996 12.3165 6.64544 12.3826L6.68274 10.883Z" fill="black"/>
</svg>
