<svg width="25" height="24" viewBox="0 0 25 24" fill="none" xmlns="http://www.w3.org/2000/svg">
<rect x="3.125" y="13" width="18" height="9" rx="4.5" fill="black"/>
<path fill-rule="evenodd" clip-rule="evenodd" d="M16.0095 5.94227C16.0095 8.11952 14.2445 9.88454 12.0672 9.88454C9.88996 9.88454 8.12495 8.11952 8.12495 5.94227C8.12495 3.76501 9.88996 2 12.0672 2C14.2445 2 16.0095 3.76501 16.0095 5.94227Z" fill="black" stroke="black" stroke-width="1.5" stroke-linecap="round" stroke-linejoin="round"/>
<path d="M3.87457 17.394C3.86055 16.9801 3.51359 16.6558 3.09961 16.6699C2.68563 16.6839 2.36141 17.0308 2.37543 17.4448L3.87457 17.394ZM8.66409 21.9982V21.2482C8.65787 21.2482 8.65166 21.2483 8.64544 21.2484L8.66409 21.9982ZM15.5859 21.9982L15.6046 21.2484C15.5983 21.2483 15.5921 21.2482 15.5859 21.2482V21.9982ZM21.8746 17.4448C21.8886 17.0308 21.5644 16.6839 21.1504 16.6699C20.7364 16.6558 20.3895 16.9801 20.3754 17.394L21.8746 17.4448ZM20.3754 17.237C20.3895 17.6509 20.7364 17.9752 21.1504 17.9611C21.5644 17.9471 21.8886 17.6002 21.8746 17.1862L20.3754 17.237ZM15.5859 12.6328V13.3828C15.5921 13.3828 15.5983 13.3827 15.6046 13.3826L15.5859 12.6328ZM8.66409 12.6328L8.64544 13.3826C8.65166 13.3827 8.65787 13.3828 8.66409 13.3828V12.6328ZM2.37543 17.1862C2.36141 17.6002 2.68563 17.9471 3.09961 17.9611C3.51359 17.9752 3.86055 17.6509 3.87457 17.237L2.37543 17.1862ZM2.37543 17.4448C2.48056 20.5486 5.39399 22.8298 8.68274 22.748L8.64544 21.2484C5.98996 21.3145 3.94582 19.4976 3.87457 17.394L2.37543 17.4448ZM8.66409 22.7482H15.5859V21.2482H8.66409V22.7482ZM15.5673 22.748C18.856 22.8298 21.7694 20.5486 21.8746 17.4448L20.3754 17.394C20.3042 19.4976 18.26 21.3145 15.6046 21.2484L15.5673 22.748ZM21.8746 17.1862C21.7694 14.0824 18.856 11.8012 15.5673 11.883L15.6046 13.3826C18.26 13.3165 20.3042 15.1334 20.3754 17.237L21.8746 17.1862ZM15.5859 11.8828H8.66409V13.3828H15.5859V11.8828ZM8.68274 11.883C5.39399 11.8012 2.48056 14.0824 2.37543 17.1862L3.87457 17.237C3.94582 15.1334 5.98996 13.3165 8.64544 13.3826L8.68274 11.883Z" fill="black"/>
</svg>
