<svg width="25" height="24" viewBox="0 0 25 24" fill="none" xmlns="http://www.w3.org/2000/svg">
<path fill-rule="evenodd" clip-rule="evenodd" d="M15.9291 5.24324C15.9291 7.03444 14.4771 8.48649 12.6859 8.48649C10.8947 8.48649 9.44263 7.03444 9.44263 5.24324C9.44263 3.45205 10.8947 2 12.6859 2C14.4771 2 15.9291 3.45205 15.9291 5.24324Z" stroke="white" stroke-width="1.5" stroke-linecap="round" stroke-linejoin="round"/>
<path fill-rule="evenodd" clip-rule="evenodd" d="M15.9291 5.24324C15.9291 7.03444 14.4771 8.48649 12.6859 8.48649C10.8947 8.48649 9.44263 7.03444 9.44263 5.24324C9.44263 3.45205 10.8947 2 12.6859 2C14.4771 2 15.9291 3.45205 15.9291 5.24324Z" stroke="#1D2939" stroke-width="1.5" stroke-linecap="round" stroke-linejoin="round"/>
<path fill-rule="evenodd" clip-rule="evenodd" d="M18.0912 15.8641C18.0912 18.6938 15.6707 21 12.6858 21C9.70091 21 7.28042 18.7001 7.28042 15.8641C7.28042 13.0281 9.70091 10.7297 12.6858 10.7297C15.6707 10.7297 18.0912 13.0281 18.0912 15.8641Z" stroke="white" stroke-width="1.5" stroke-linecap="round" stroke-linejoin="round"/>
<path fill-rule="evenodd" clip-rule="evenodd" d="M18.0912 15.8641C18.0912 18.6938 15.6707 21 12.6858 21C9.70091 21 7.28042 18.7001 7.28042 15.8641C7.28042 13.0281 9.70091 10.7297 12.6858 10.7297C15.6707 10.7297 18.0912 13.0281 18.0912 15.8641Z" stroke="#1D2939" stroke-width="1.5" stroke-linecap="round" stroke-linejoin="round"/>
<path fill-rule="evenodd" clip-rule="evenodd" d="M21.4439 6.27203C21.4557 6.94191 21.0612 7.5524 20.4456 7.81694C19.8301 8.08148 19.1157 7.94755 18.6378 7.478C18.1598 7.00846 18.0133 6.29654 18.2669 5.6764C18.5205 5.05627 19.1239 4.65104 19.7939 4.65094C20.6971 4.64323 21.4356 5.36885 21.4439 6.27203V6.27203Z" stroke="white" stroke-width="1.5" stroke-linecap="round" stroke-linejoin="round"/>
<path fill-rule="evenodd" clip-rule="evenodd" d="M21.4439 6.27203C21.4557 6.94191 21.0612 7.5524 20.4456 7.81694C19.8301 8.08148 19.1157 7.94755 18.6378 7.478C18.1598 7.00846 18.0133 6.29654 18.2669 5.6764C18.5205 5.05627 19.1239 4.65104 19.7939 4.65094C20.6971 4.64323 21.4356 5.36885 21.4439 6.27203V6.27203Z" stroke="#1D2939" stroke-width="1.5" stroke-linecap="round" stroke-linejoin="round"/>
<path fill-rule="evenodd" clip-rule="evenodd" d="M4.30675 6.27203C4.29499 6.94191 4.68947 7.5524 5.30502 7.81694C5.92058 8.08148 6.63498 7.94755 7.11291 7.478C7.59083 7.00846 7.73739 6.29654 7.48379 5.6764C7.23018 5.05627 6.62677 4.65104 5.95678 4.65094C5.0536 4.64323 4.31502 5.36885 4.30675 6.27203Z" stroke="white" stroke-width="1.5" stroke-linecap="round" stroke-linejoin="round"/>
<path fill-rule="evenodd" clip-rule="evenodd" d="M4.30675 6.27203C4.29499 6.94191 4.68947 7.5524 5.30502 7.81694C5.92058 8.08148 6.63498 7.94755 7.11291 7.478C7.59083 7.00846 7.73739 6.29654 7.48379 5.6764C7.23018 5.05627 6.62677 4.65104 5.95678 4.65094C5.0536 4.64323 4.31502 5.36885 4.30675 6.27203Z" stroke="#1D2939" stroke-width="1.5" stroke-linecap="round" stroke-linejoin="round"/>
<path d="M20.6702 18.7707C20.2593 18.7184 19.8838 19.0091 19.8314 19.4199C19.7791 19.8308 20.0698 20.2064 20.4807 20.2587L20.6702 18.7707ZM23.8755 15.6707L24.6233 15.7283C24.6262 15.6899 24.6262 15.6513 24.6233 15.6129L23.8755 15.6707ZM20.4806 11.0844C20.0697 11.1367 19.7791 11.5122 19.8314 11.9231C19.8838 12.334 20.2593 12.6247 20.6702 12.5723L20.4806 11.0844ZM5.26982 20.2587C5.68072 20.2064 5.97139 19.8308 5.91906 19.42C5.86673 19.0091 5.49121 18.7184 5.08031 18.7707L5.26982 20.2587ZM1.875 15.6707L1.12723 15.6129C1.12426 15.6513 1.12426 15.6899 1.12721 15.7283L1.875 15.6707ZM5.08027 12.5723C5.49116 12.6247 5.8667 12.334 5.91905 11.9231C5.97141 11.5123 5.68076 11.1367 5.26987 11.0844L5.08027 12.5723ZM20.4807 20.2587C21.6152 20.4032 22.6286 19.8759 23.3464 19.0398C24.0615 18.2068 24.5226 17.0349 24.6233 15.7283L23.1277 15.6131C23.0477 16.6521 22.685 17.5075 22.2083 18.0627C21.7344 18.6147 21.188 18.8367 20.6702 18.7707L20.4807 20.2587ZM24.6233 15.6129C24.5223 14.3067 24.0611 13.1352 23.3459 12.3026C22.6281 11.4667 21.6149 10.9398 20.4806 11.0844L20.6702 12.5723C21.1879 12.5064 21.7342 12.7281 22.208 13.2799C22.6847 13.8348 23.0474 14.6898 23.1277 15.7285L24.6233 15.6129ZM5.08031 18.7707C4.56248 18.8367 4.01613 18.6148 3.5422 18.0627C3.06553 17.5075 2.70281 16.6522 2.62279 15.6131L1.12721 15.7283C1.22785 17.0349 1.68897 18.2068 2.40407 19.0398C3.12191 19.8759 4.13526 20.4032 5.26982 20.2587L5.08031 18.7707ZM2.62277 15.7285C2.70305 14.6898 3.06584 13.8348 3.54246 13.2799C4.01634 12.7281 4.56256 12.5064 5.08027 12.5723L5.26987 11.0844C4.13558 10.9398 3.1224 11.4668 2.40455 12.3026C1.68944 13.1352 1.22819 14.3067 1.12723 15.6129L2.62277 15.7285Z" fill="white"/>
<path d="M20.6702 18.7707C20.2593 18.7184 19.8838 19.0091 19.8314 19.4199C19.7791 19.8308 20.0698 20.2064 20.4807 20.2587L20.6702 18.7707ZM23.8755 15.6707L24.6233 15.7283C24.6262 15.6899 24.6262 15.6513 24.6233 15.6129L23.8755 15.6707ZM20.4806 11.0844C20.0697 11.1367 19.7791 11.5122 19.8314 11.9231C19.8838 12.334 20.2593 12.6247 20.6702 12.5723L20.4806 11.0844ZM5.26982 20.2587C5.68072 20.2064 5.97139 19.8308 5.91906 19.42C5.86673 19.0091 5.49121 18.7184 5.08031 18.7707L5.26982 20.2587ZM1.875 15.6707L1.12723 15.6129C1.12426 15.6513 1.12426 15.6899 1.12721 15.7283L1.875 15.6707ZM5.08027 12.5723C5.49116 12.6247 5.8667 12.334 5.91905 11.9231C5.97141 11.5123 5.68076 11.1367 5.26987 11.0844L5.08027 12.5723ZM20.4807 20.2587C21.6152 20.4032 22.6286 19.8759 23.3464 19.0398C24.0615 18.2068 24.5226 17.0349 24.6233 15.7283L23.1277 15.6131C23.0477 16.6521 22.685 17.5075 22.2083 18.0627C21.7344 18.6147 21.188 18.8367 20.6702 18.7707L20.4807 20.2587ZM24.6233 15.6129C24.5223 14.3067 24.0611 13.1352 23.3459 12.3026C22.6281 11.4667 21.6149 10.9398 20.4806 11.0844L20.6702 12.5723C21.1879 12.5064 21.7342 12.7281 22.208 13.2799C22.6847 13.8348 23.0474 14.6898 23.1277 15.7285L24.6233 15.6129ZM5.08031 18.7707C4.56248 18.8367 4.01613 18.6148 3.5422 18.0627C3.06553 17.5075 2.70281 16.6522 2.62279 15.6131L1.12721 15.7283C1.22785 17.0349 1.68897 18.2068 2.40407 19.0398C3.12191 19.8759 4.13526 20.4032 5.26982 20.2587L5.08031 18.7707ZM2.62277 15.7285C2.70305 14.6898 3.06584 13.8348 3.54246 13.2799C4.01634 12.7281 4.56256 12.5064 5.08027 12.5723L5.26987 11.0844C4.13558 10.9398 3.1224 11.4668 2.40455 12.3026C1.68944 13.1352 1.22819 14.3067 1.12723 15.6129L2.62277 15.7285Z" fill="#1D2939"/>
</svg>
