<svg width="25" height="24" viewBox="0 0 25 24" fill="none" xmlns="http://www.w3.org/2000/svg">
<path fill-rule="evenodd" clip-rule="evenodd" d="M16.0095 5.94227C16.0095 8.11953 14.2445 9.88454 12.0672 9.88454C9.88996 9.88454 8.12495 8.11953 8.12495 5.94227C8.12495 3.76501 9.88996 2 12.0672 2C14.2445 2 16.0095 3.76501 16.0095 5.94227Z" stroke="black" stroke-width="1.5" stroke-linecap="round" stroke-linejoin="round"/>
<path d="M3.87457 17.3939C3.86055 16.9799 3.51359 16.6557 3.09961 16.6697C2.68563 16.6837 2.36141 17.0307 2.37543 17.4446L3.87457 17.3939ZM8.66409 21.998V21.248C8.65787 21.248 8.65166 21.2481 8.64544 21.2482L8.66409 21.998ZM15.5859 21.998L15.6046 21.2482C15.5983 21.2481 15.5921 21.248 15.5859 21.248V21.998ZM21.8746 17.4446C21.8886 17.0307 21.5644 16.6837 21.1504 16.6697C20.7364 16.6557 20.3895 16.9799 20.3754 17.3939L21.8746 17.4446ZM20.3754 17.2368C20.3895 17.6507 20.7364 17.975 21.1504 17.961C21.5644 17.9469 21.8886 17.6 21.8746 17.186L20.3754 17.2368ZM15.5859 12.6326V13.3826C15.5921 13.3826 15.5983 13.3825 15.6046 13.3824L15.5859 12.6326ZM8.66409 12.6326L8.64544 13.3824C8.65166 13.3825 8.65787 13.3826 8.66409 13.3826V12.6326ZM2.37543 17.186C2.36141 17.6 2.68563 17.9469 3.09961 17.961C3.51359 17.975 3.86055 17.6507 3.87457 17.2368L2.37543 17.186ZM2.37543 17.4446C2.48056 20.5484 5.39399 22.8296 8.68274 22.7478L8.64544 21.2482C5.98996 21.3143 3.94582 19.4974 3.87457 17.3939L2.37543 17.4446ZM8.66409 22.748H15.5859V21.248H8.66409V22.748ZM15.5673 22.7478C18.856 22.8296 21.7694 20.5484 21.8746 17.4446L20.3754 17.3939C20.3042 19.4974 18.26 21.3143 15.6046 21.2482L15.5673 22.7478ZM21.8746 17.186C21.7694 14.0822 18.856 11.8011 15.5673 11.8828L15.6046 13.3824C18.26 13.3163 20.3042 15.1332 20.3754 17.2368L21.8746 17.186ZM15.5859 11.8826H8.66409V13.3826H15.5859V11.8826ZM8.68274 11.8828C5.39399 11.8011 2.48056 14.0822 2.37543 17.186L3.87457 17.2368C3.94582 15.1332 5.98996 13.3163 8.64544 13.3824L8.68274 11.8828Z" fill="black"/>
</svg>
