<svg width="107" height="100" viewBox="0 0 107 100" fill="none" xmlns="http://www.w3.org/2000/svg">
<g clip-path="url(#clip0_667_18022)">
<path d="M45.3833 83.5734L18.0715 55.4878L18.0046 55.4202C17.969 55.3842 17.9333 55.3459 17.8976 55.3121L17.804 55.2175C17.1643 54.5891 16.3261 54.2445 15.4366 54.2445C15.421 54.2445 15.4032 54.2445 15.3876 54.2445C14.4803 54.258 13.6333 54.6274 13.0002 55.2851C12.2757 56.0396 11.9369 57.0688 12.0684 58.1161V65.4697C12.0684 67.3639 13.5909 68.9067 15.4656 68.9067C17.1642 68.9067 18.5753 67.6387 18.8228 65.9878L40.5772 88.4292C41.2192 89.0779 42.0707 89.436 42.978 89.436C43.8853 89.436 44.739 89.0779 45.3788 88.4292C46.0208 87.7806 46.373 86.9179 46.373 85.999C46.373 85.0801 46.0208 84.2197 45.381 83.5711L45.3833 83.5734Z" fill="url(#paint0_linear_667_18022)"/>
<path d="M97.5993 9.76704C91.42 3.51479 83.2033 0.0463207 74.4605 -0.000976562H74.2866C66.761 -0.000976562 59.4426 2.61164 53.62 7.36614C47.7952 2.60938 40.4813 -0.000976562 32.949 -0.000976562C32.8932 -0.000976562 32.8353 -0.000976562 32.7796 -0.000976562C24.0412 0.0440685 15.8245 3.51479 9.64304 9.76704C-1.46712 21.008 -3.18135 38.7355 5.5659 51.9157C6.60915 53.4878 8.72462 53.9089 10.2784 52.8526C11.8321 51.7963 12.2489 49.6567 11.2057 48.0846C4.26406 37.6229 5.62608 23.5531 14.4491 14.6274C24.5406 4.41569 41.0498 4.32109 51.2482 14.4179C52.559 15.7152 54.6878 15.7152 55.9986 14.4179C66.1992 4.32335 82.7062 4.41569 92.7976 14.6274C102.695 24.6409 102.731 40.704 92.8779 51.9968C92.8667 52.0103 92.8088 52.0756 92.7152 52.1972C91.7544 53.4247 86.5047 59.9878 77.4097 68.6477L53.6691 91.7513L52.6058 90.6747C51.2816 89.3346 49.126 89.3346 47.8019 90.6747C46.4778 92.0148 46.4778 94.195 47.8019 95.535L51.2215 98.9945C51.8635 99.6432 52.715 100.001 53.6223 100.001C54.5295 100.001 55.341 99.6612 55.9763 99.0418L82.0843 73.6364C91.2283 64.9269 96.5672 58.3459 98.0317 56.4742C103.763 49.8751 106.948 41.5508 107 33.0306C107.053 24.2175 103.716 15.954 97.5993 9.76704Z" fill="url(#paint1_linear_667_18022)"/>
<path d="M53.4952 54.9562C52.4096 54.9562 51.3441 54.5283 50.546 53.7197L50.3365 53.508C44.5875 47.6905 41.3953 39.9562 41.3462 31.7288C41.2972 23.508 44.3913 15.7423 50.0601 9.85938C50.0734 9.84362 50.089 9.8301 50.1024 9.81434L50.3454 9.56884C50.4212 9.49227 50.5037 9.40893 50.5861 9.3256C52.2045 7.72875 54.7859 7.72875 56.4043 9.3256C56.489 9.40893 56.5715 9.49227 56.6562 9.57785L56.8947 9.82109C56.9081 9.83461 56.9192 9.84587 56.9326 9.85938C62.5991 15.74 65.6954 23.508 65.6464 31.7288C65.5974 39.9562 62.4052 47.6927 56.6539 53.5103C56.5893 53.5756 56.5269 53.6387 56.4645 53.7017C56.081 54.0959 55.6174 54.4157 55.0913 54.6364C54.5764 54.8526 54.0347 54.9585 53.4974 54.9585L53.4952 54.9562ZM53.4952 18.9022C48.4484 26.5035 48.4595 36.5891 53.4952 44.1815C58.5309 36.5891 58.542 26.5035 53.4952 18.9022Z" fill="url(#paint2_linear_667_18022)"/>
</g>
<defs>
<linearGradient id="paint0_linear_667_18022" x1="53.6428" y1="44.5813" x2="53.6162" y2="100.001" gradientUnits="userSpaceOnUse">
<stop stop-color="#75C7EA"/>
<stop offset="1" stop-color="#7588EA"/>
</linearGradient>
<linearGradient id="paint1_linear_667_18022" x1="53.6428" y1="44.5813" x2="53.6162" y2="100.001" gradientUnits="userSpaceOnUse">
<stop stop-color="#75C7EA"/>
<stop offset="1" stop-color="#7588EA"/>
</linearGradient>
<linearGradient id="paint2_linear_667_18022" x1="53.6428" y1="44.5813" x2="53.6162" y2="100.001" gradientUnits="userSpaceOnUse">
<stop stop-color="#75C7EA"/>
<stop offset="1" stop-color="#7588EA"/>
</linearGradient>
<clipPath id="clip0_667_18022">
<rect width="107" height="100" fill="white"/>
</clipPath>
</defs>
</svg>
