<svg width="107" height="100" viewBox="0 0 107 100" fill="none" xmlns="http://www.w3.org/2000/svg">
<g clip-path="url(#clip0_106_7122)">
<path d="M45.9572 85.3508L16.2336 55.2481C16.1886 55.2025 16.1435 55.1568 16.0985 55.1135C16.0985 55.1135 16.0985 55.1135 16.0962 55.1112C16.0759 55.0929 16.0579 55.0724 16.0399 55.0542C14.9248 53.9567 13.1428 53.9818 12.0569 55.1112C11.4261 55.7683 11.1738 56.6558 11.291 57.5V64.9857C11.291 66.56 12.5525 67.8376 14.107 67.8376C15.6614 67.8376 16.923 66.56 16.923 64.9857V64.0161L41.9742 89.3868C42.5239 89.9435 43.2448 90.2218 43.9657 90.2218C44.6866 90.2218 45.4075 89.9435 45.9572 89.3868C47.0566 88.2734 47.0566 86.4664 45.9572 85.353V85.3508Z" fill="url(#paint0_linear_106_7122)"/>
<path d="M53.6235 100C52.9026 100 52.1817 99.7221 51.632 99.1654L48.174 95.6632C47.0746 94.5499 47.0746 92.7429 48.174 91.6295C49.2734 90.5161 51.0576 90.5161 52.157 91.6295L53.6618 93.1535L78.0958 69.3548C78.0958 69.3548 78.1116 69.3411 78.1183 69.3343C87.3436 60.5412 92.6782 53.8631 93.656 52.6151C93.7416 52.5056 93.7934 52.4463 93.8024 52.4326C103.985 40.7511 103.936 24.1164 93.6898 13.7399C83.2435 3.15812 66.1514 3.06229 55.5925 13.5232C54.4976 14.6069 52.7494 14.6069 51.6546 13.5232C41.0957 3.06229 24.0058 3.15812 13.5573 13.7399C4.42442 22.9893 3.01191 37.5706 10.2006 48.4102C11.068 49.7175 10.7233 51.4903 9.43242 52.3687C8.14156 53.2471 6.39112 52.898 5.52379 51.5907C-3.15854 38.4946 -1.45541 20.8789 9.57434 9.70842C15.711 3.4935 23.8684 0.046093 32.544 0.000462201C40.3207 -0.0406056 47.7122 2.65618 53.6235 7.64363C59.4898 2.69496 66.8137 0.000462201 74.5296 0.000462201C74.5882 0.000462201 74.6445 0.000462201 74.7031 0.000462201C83.3786 0.046093 91.5361 3.4935 97.6727 9.70614C103.74 15.8503 107.053 24.057 106.999 32.8136C106.948 41.2941 103.778 49.5784 98.0737 56.1492C96.6432 57.9836 91.259 64.6411 81.9932 73.4753L55.579 99.2042C55.0338 99.7358 54.3309 100 53.628 100H53.6235Z" fill="url(#paint1_linear_106_7122)"/>
<path d="M53.4951 55.0199C52.398 55.0199 51.3189 54.5864 50.5124 53.7696L50.3006 53.5552C44.4861 47.6665 41.2556 39.834 41.206 31.5018C41.1565 23.1787 44.2879 15.3142 50.019 9.35942C50.0325 9.34345 50.0483 9.32976 50.0618 9.31379L50.3074 9.0651C50.384 8.98753 50.4673 8.90311 50.5507 8.8187C52.1885 7.20336 54.7972 7.20336 56.435 8.8187C56.5206 8.90311 56.604 8.98753 56.6896 9.07423L56.9306 9.32064C56.9442 9.33432 56.9554 9.34573 56.9689 9.35942C62.7023 15.3142 65.8315 23.1787 65.7842 31.5018C65.7346 39.834 62.5041 47.6642 56.6873 53.5552C56.622 53.6213 56.5589 53.6852 56.4958 53.7491C56.1084 54.1484 55.6398 54.4724 55.1081 54.6937C54.5855 54.9127 54.038 55.0177 53.4951 55.0177V55.0199ZM53.4951 18.513C48.3902 26.2086 48.4015 36.4208 53.4951 44.1073C58.5887 36.4208 58.6 26.2086 53.4951 18.513Z" fill="url(#paint2_linear_106_7122)"/>
</g>
<defs>
<linearGradient id="paint0_linear_106_7122" x1="94.8733" y1="94.5549" x2="78.3758" y2="-0.741448" gradientUnits="userSpaceOnUse">
<stop stop-color="#71CFD4"/>
<stop offset="1" stop-color="#2C85AB"/>
</linearGradient>
<linearGradient id="paint1_linear_106_7122" x1="94.8733" y1="94.5549" x2="78.3758" y2="-0.741448" gradientUnits="userSpaceOnUse">
<stop stop-color="#71CFD4"/>
<stop offset="1" stop-color="#2C85AB"/>
</linearGradient>
<linearGradient id="paint2_linear_106_7122" x1="94.8733" y1="94.5549" x2="78.3758" y2="-0.741448" gradientUnits="userSpaceOnUse">
<stop stop-color="#71CFD4"/>
<stop offset="1" stop-color="#2C85AB"/>
</linearGradient>
<clipPath id="clip0_106_7122">
<rect width="107" height="100" fill="white"/>
</clipPath>
</defs>
</svg>
